<svg id="圖層_1" data-name="圖層 1" xmlns="http://www.w3.org/2000/svg" viewBox="0 0 137.59 27"><title>footer_logo_3</title><path d="M41,7V6.94h-.13a.65.65,0,0,0,0,.13h-.14v.09c-.11,0-.08,0-.13-.09a.3.3,0,0,0-.18,0v0l-.36,0v0l-.18,0v0l-.41.09A.39.39,0,0,0,39.29,7s.05,0,.08-.09h.06s-.13-.09-.14-.09c0-.28.06-.18.18-.32h0V6.34h.05v0l.27,0,.05-.09H40v0h.36v0a1.43,1.43,0,0,0,.27-.09V6h.09a.71.71,0,0,1,.1-.14h.31v0h.09v0a1.26,1.26,0,0,0,.27,0v0h.09v0a1.65,1.65,0,0,1,.64,0v0c.23.06.34-.13.45,0h.64v0c0,.05.06,0,0,.08V6l.13,0-.09.5h-.17v0h-.06v0H43v0h0a.74.74,0,0,0,0,.14c-.13.06-.23-.06-.33,0a.06.06,0,0,1-.08,0v0h-.28v0h-.09v0a.07.07,0,0,1-.09,0,.69.69,0,0,1-.18,0V6.8l-.32,0v0a.52.52,0,0,0-.27,0,1.43,1.43,0,0,0,0,.22A.47.47,0,0,1,41,7M48.8,9.88V9.7l-.18-.14c0-.13.07-.13.18-.18V9.07h0V9h0c0-.11,0-.18,0-.24h0c-.05-.19-.13-.13-.27-.22v0l-.14,0c0-.09,0,0,0-.09s-.21,0-.37-.09V8.2H47.8l0-.09-.19,0V8h-.36L47,8V7.93h-.54v0h-.09v0c-.16-.06-.21.07-.41,0v0l-.4-.14v0c-.13,0-.23-.15-.37-.09a.39.39,0,0,0,0,.09H45v0l-.73,0v0H44v0h-.1v0h-.13v0L43.49,8V8l-.17,0V8h-.19v0l-.86-.17a1.4,1.4,0,0,1-.09.17H42V8h0v0c-.18,0-.13,0-.27,0V8l-.14-.05a.43.43,0,0,0,0,.18A2,2,0,0,0,41,8c.09-.13.1,0,.14-.09a.36.36,0,0,0,0-.09h0a.83.83,0,0,0,.18-.32l.14.1s0-.1,0-.14c.2,0,.12-.07.32-.09a.61.61,0,0,1,0-.23.81.81,0,0,1,.36,0,.19.19,0,0,1,0,.09l.46,0,0,.09c.08.06.19,0,.32,0,0-.11-.05-.1-.09-.18l.13,0v0h.06v0h.13v0l.13,0c0,.12-.06.1-.09.23l.28,0a.36.36,0,0,1,0-.09H44s0,0,.1,0,.14-.23.08-.41c0,0-.08,0-.08-.09l.13-.09c0-.06,0-.12,0-.18h0V6.44l.09-.05V6.11h0V6h.1c0-.2,0-.39,0-.59l0-.14h0V5.17h-.14V5.08a1.14,1.14,0,0,0-.45,0V4.9a.71.71,0,0,1-.22-.06s0,.07-.1.06a.08.08,0,0,0-.09-.06V4.9h-.09v0h-.14V5H43V5h-.13a.36.36,0,0,0,0,.09l-.33,0V5c-.1,0-.19,0-.22,0V5c-.23,0-.36.06-.5-.09h0a1.12,1.12,0,0,0,0-.13h-.09v0c.07,0,.06-.09.09-.19h0a.56.56,0,0,1,0-.08h0c.06,0,.3,0,.5,0v0l.4,0v0l.45,0a2.56,2.56,0,0,0,.05-.27l.41,0v0l.68,0v0s.17,0,.1,0-.05,0-.05,0a3.46,3.46,0,0,0,.72,0V4.17c.09,0,0,0,.09,0h.05V4h0c.07-.17,0-.24,0-.4a.61.61,0,0,1-.23,0v0H45v0h-.14V3.4c-.15,0-.35.08-.45.09l-.23,0V3.4a1.72,1.72,0,0,0-.36.09v.1l-.18,0v.05c-.11,0-.3-.15-.37-.19v0c-.11,0-.09.18-.27.14v0l-.18,0v0c-.15,0-.12.06-.18.09H42.5v0l-.45,0a2.16,2.16,0,0,0,0-.27h0V3.18h0c0-.11,0-.22,0-.32h0v0a.39.39,0,0,0,.28,0v0h.08c-.1-.09,0-.16.14-.19v0c.06,0,.19.09.32,0v0a1,1,0,0,1,.41,0c.06,0,.07.07.18,0v0a1,1,0,0,1,.5.09v0a.08.08,0,0,0,.09,0h.68a1,1,0,0,1,0,.1,1,1,0,0,0,.55-.05V2.49h.09c0-.19-.09-.16-.09-.41L45.17,2V1.9l-.13,0v0H45V1.77l-.27.05V1.77h-.46V1.72a.12.12,0,0,0-.13.05l-.32-.05c0,.07,0,.15,0,.23l-.17-.05V2h-.28V1.9h-.14v0a.5.5,0,0,0-.13,0v0H43c0,.06-.06.12-.08.18h-.23l0-.09h-.32c0-.09,0-.18,0-.27s0,0-.09-.05h0c.07-.15,0-.2,0-.35a.41.41,0,0,0,.19-.15h0c0-.07-.07,0-.09-.09V1h0s0-.06,0-.08c-.17-.05-.1-.08-.32-.1a.26.26,0,0,1,.09-.09c0-.19,0-.19-.13-.27v0l-.19,0s-.05-.09-.08-.14h-.14v0h-.32A1.43,1.43,0,0,1,41,0c-.15,0-.14,0-.18.14A.39.39,0,0,1,40.6.09s-.06.24-.09.18,0,0,0,0a.29.29,0,0,0,.23.31v0h-.23c0,.13.09.21.23.23v0h0v0h.1a.91.91,0,0,0,.08.13h.19V1h0c0,.09,0,.18,0,.28s-.07,0,0,.08l.09,0c0,.1,0,.21,0,.31h0c0,.07.08.06.09.1a.5.5,0,0,0,0,.13h0a.37.37,0,0,1-.09.09c0,.09-.06.18-.09.27H41v0l-.27-.08v.08h-.23c0,.09.07.07.09.19h-.18v0h0l-.09.14h-.05v0h-.27c-.06,0,0,0,0,0a.41.41,0,0,0-.05.09L39,2.72v0h-.19V2.63c-.13,0-.1.07-.13.09h-.45c-.06-.16-.15-.18-.19-.37l-.45,0s0,0-.09,0a.25.25,0,0,1-.09,0v0l-.28.1a1.69,1.69,0,0,0,0,.45H37v0h0v0a.65.65,0,0,1-.27.05c0,.08,0,.18,0,.27l.59.13a1,1,0,0,1,0,.1h.1v0l.54,0a1.21,1.21,0,0,0,.05.14l.26,0v.05h0l.09-.14h.09v0l.1,0a.36.36,0,0,1,0-.09.55.55,0,0,1,.32,0,.31.31,0,0,0,.05.1l.17,0V3.31h.05s0-.07,0,0v0h.14a.18.18,0,0,0,0,.09,1,1,0,0,0,.45,0c0-.09,0,0,0-.09v0a1.49,1.49,0,0,1,.18,0v0c.07,0,.08,0,.09,0s.12,0,.18,0a.28.28,0,0,1,.22-.17V3.13l.27.05v0H41v0c.1.08,0,.08.19.13-.07.12-.13.11-.14.32a1.65,1.65,0,0,0-.32,0,.59.59,0,0,1,0,.08l-.23,0V4l-.09,0V4l-.54.09v0l-.23,0a1.27,1.27,0,0,0-.13.32l-.28,0c0-.13,0-.1-.09-.23H39c0,.12,0,.1-.14.14v.13c-.17,0-.18-.12-.37-.13,0-.09,0,0,0-.09a.73.73,0,0,0-.09.22l-.91-.18a.38.38,0,0,1-.18.23c0,.06,0,.12,0,.18h0a.91.91,0,0,0,0,.27l.23,0s0-.06.09,0V5l.23,0s0-.12.14-.09V5h.14s0,.13.12.1V5h.14l.09-.13a.7.7,0,0,0,.19-.06v0c.1,0,.25,0,.27,0v0h.09v0c.18-.07.23,0,.37,0v0h.08v0l.59.14,0-.1h.09v0h.22v0h.09v0l.23,0v.14A.47.47,0,0,0,41,4.57l.23,0v.09h.09v.1l-.09,0a.47.47,0,0,0,0,.14L41.1,5V5H41a1.93,1.93,0,0,1,0,.27c-.15,0-.2,0-.32,0s0,0,0,.09v.05l-.23-.05v.05h-.18v0H40.1v0c-.08,0-.08,0-.09,0a.83.83,0,0,0-.5.09c-.32,0-.18,0-.32.18L39,5.89V6h-.09a1.21,1.21,0,0,1-.05-.14c-.24,0-.13.11-.36.14a.46.46,0,0,0,.09.27l.09,0,0,.1.09,0c0,.09,0,.18.09.27-.2,0-.16,0-.28.1s-.07.09.05.18a1,1,0,0,1-.23.27c0,.11,0,.15.05.22h0v.1h0s0,.11,0,.18l.32.22c.11.08.12-.13.32-.09V8c.17,0,.27-.07.37-.09h.4v0h.09v0a1.13,1.13,0,0,1,.54.13l-.09.13-.13,0c0,.07,0,.12,0,.18h0v.05H40v0l-.32,0v0a.25.25,0,0,0-.22,0v0c-.13,0-.11,0-.14.14l.27,0v.09h-.36c.13.13-.07.09-.14.14a.64.64,0,0,0-.08.14l-.23,0v0H38.7V9h-.19V9h-.09v.06c-.06,0-.08-.09-.09-.09a2,2,0,0,0-1.08.17h-.1s.05,0,.05,0,0-.1-.05-.13h-.08a.26.26,0,0,0,0,.09l-.41,0V9.2l.09.05c0,.05,0,.11,0,.18-.18,0-.13.05-.28.09.08.12.12.08.14.27h-.14a.38.38,0,0,0,.37,0,.2.2,0,0,1,0-.08h.14V9.7c.14,0,.18.08.27.09v0l.32-.05v0H38v0l.19,0,0-.13c.11,0,.33,0,.37,0a.41.41,0,0,1-.05.09l.28,0a.25.25,0,0,1,0-.09c.14,0,.27-.07.41-.09V9.29h.23v0h.09V9.2l.27,0a.35.35,0,0,1,.05-.08H40V9h.32V9h.13V8.93c.11,0,.21,0,.32.05V8.93H41v0h.23v0h.27V8.79l.23.05v0l.18,0V8.7h.23v0h0a.12.12,0,0,0,.14,0v0l.14,0h.27s0,.13.09.09V8.61c.06-.07.1,0,.18-.09v0c.16-.06.28.07.36.09l.32,0v0l.13,0L44,8.43h.46v0h.35v0h.05v0h.09v0h.73v0h.09v0a2.36,2.36,0,0,1,1,.13,1.67,1.67,0,0,1,0,.18,2.71,2.71,0,0,0,.72.14.38.38,0,0,0,.09.22h0a.11.11,0,0,1-.09.14l.09.19c-.06,0,0,0-.09.09H47.4v0h-.23A3.37,3.37,0,0,0,47,9.7l-.22.05s0-.08-.09-.05v.05h-.09v0H46.4v0h0v0H46.3a1,1,0,0,1,0,.14h-.18c.08.1.15.21.22.31l.19,0a.79.79,0,0,1,0,.09h.09s0,.06.05.08h.13v.05l.28-.05v.05h0c.05.08,0,.14,0,.18l.18,0a.41.41,0,0,1,.05-.09l.63-.05.09.14c.13.07.25,0,.36,0,.07-.25.35-.25.5-.41h0c0-.09-.06-.18-.1-.27Z" style="fill:#231815"/><path d="M137.56,8.93l-.09,0c0-.06.05-.09.05-.09s-.06-.18-.1-.27h0l0-.09h-.09l-.19-.23h0V8.06h0a.64.64,0,0,1-.1-.13h-.09a.41.41,0,0,0,0-.09h-.18a1,1,0,0,0-.09-.13h-.05v0h-.13v0l-.18,0a1,1,0,0,1-.09-.23l-.41-.13a.36.36,0,0,1,0-.09.38.38,0,0,1-.23,0v0h-.13v0l-.28-.09v0h-.54v0a1.54,1.54,0,0,0-.5-.09,1.08,1.08,0,0,1,0-.59.2.2,0,0,1-.09-.09h-.18a.92.92,0,0,0,0-.37l.22-.13c0-.08,0-.16,0-.19h0V5.53h0c0-.15,0-.3,0-.45h0V4.84h0V4.62a.19.19,0,0,0,.09,0c0-.05,0-.12.06-.17h-.15a1.35,1.35,0,0,1,.15-.32h0c.06-.07-.09,0-.1,0V4h.1a.37.37,0,0,1,0-.14h-.06c0-.05,0-.09.06-.13h0V3.59l.09,0V3.45l.09-.05V3.31h0V3.18h.05v-.1h0V2.81l.08,0c.1-.13.07-.17,0-.32h.09a2.83,2.83,0,0,0-.09-.37h0V2h0c0-.16.07-.14.09-.18s0-.2,0-.33a1.26,1.26,0,0,1-.27,0,1,1,0,0,1-.09-.13.68.68,0,0,0-.36,0v0c-.11,0-.14,0-.14,0h-.5s0,.09-.05.13a.87.87,0,0,1-.41.05V1.49h0v.05h-.14c.06.16,0,.19-.08.32s.09.09,0,.18l-.14,0c.12.11.37,0,.55,0v.05l.18,0c0,.09,0,0,0,.09v0a.87.87,0,0,1,.49.1v.13s-.1,0-.09.1h.05s0,.09-.05.13h.05v.27h-.05v.1h0v.13h0v.18h0v0h-.14c0,.06,0,.12,0,.18l.09,0c0,.12,0,.24,0,.36h-.09a2,2,0,0,1,0,.69h-.05c0,.09.11.17.1.22l-.1,0v.27h0v.18h0a.93.93,0,0,0,0,.13h0c0,.24.18.27.08.41v.18l-.13,0s0,0-.09,0v0c.14.13.14.3.36.36,0,.09,0,.19,0,.28h-.14V7h-.27v0h0V7h-.23V7h-.22v0h0a.65.65,0,0,0,0-.13L132,7v0c-.1,0-.05,0-.1-.05h.05c-.09-.16,0-.14,0-.23h-.05v0l.14,0c0-.05-.07-.19-.09-.23h-.05c0-.06.1-.08.1-.09s-.06-.2-.1-.27h0l.09-.13c0-.07,0,0-.05,0l.14,0s0-.12,0-.18h-.05c0-.13,0-.27.05-.4l-.05-.09L132,5V4.9h.05V4.81h0c0-.14,0-.28,0-.41s-.07,0,0-.05a.9.9,0,0,0,.14-.14.53.53,0,0,1-.23-.13.39.39,0,0,1,.18,0c0-.1,0-.12,0-.18h0V3.76h0l.05-.41h-.05V3.18a.22.22,0,0,0,.09-.15.58.58,0,0,0-.14,0V3H132a.16.16,0,0,0-.22-.09l-.05.09a.72.72,0,0,1-.5,0,.65.65,0,0,0,0,.13h.08v.1a2.79,2.79,0,0,0,.32,0c0,.12,0,.1-.13.13s0,.19.13.24c0,.05,0,0,0,0v.13l-.14.09a1.89,1.89,0,0,1,.05.23h-.05c-.05,0,0,0-.08,0s0,.06.08.09-.06.08-.08.19l.18,0c0,.13,0,.27,0,.4h0V5h0v.32c0,.06,0,0,0,0h0v.09h0c0,.13,0,.14.08.18v0l-.26,0c0,.19.09.17.13.32h-.09c0,.26.08.3-.14.41a.4.4,0,0,0,0,.18h.06c.07.12-.06.09.13.14,0,.12-.06.1-.09.23h-.23s0,0-.09,0V7l-.63,0a.47.47,0,0,0-.06-.09c-.07,0-.09,0-.17-.09h0s0-.06,0-.09,0-.06,0-.09l.18-.09c0-.08,0-.24,0-.32a.31.31,0,0,0,.1,0c0-.06-.08-.06-.1-.09s-.08-.63-.08-.63l.14-.05v0h-.09l0-.27h.06a1,1,0,0,0-.06-.18h.06a1.62,1.62,0,0,1,0-.19l-.13-.09c-.05-.14.08-.16.09-.18a1.27,1.27,0,0,0-.06-.18h.1V4.17a.26.26,0,0,1-.18-.09c-.05-.06,0-.26,0-.4s0,0-.09-.05h0s0-.06,0-.09h0s-.2-.2-.28-.19v0h-.18c-.06,0,0,0,0,0h-.23a.56.56,0,0,1,0-.08h-.26v0h-.06v0H129c.05-.14.08-.27.14-.41l-.09,0V2.68H129c0-.05,0-.1-.05-.14H129v0l.23,0V2.45L129,2.4c0-.09,0,0,.05-.09a1.3,1.3,0,0,1,.4-.09v0l.14,0a.73.73,0,0,0,.05.09h0v0a.87.87,0,0,0,.22,0,.2.2,0,0,1,.05.09l.41,0v-.1c.33,0,.47-.15.77-.17-.07-.2,0-.29.18-.36-.1-.11-.18-.08-.31-.05s0,0,0-.09V1.63l-.32,0a.1.1,0,0,1-.13,0,.47.47,0,0,0-.06-.09,2,2,0,0,1-.31.05h-.18V1.54h-.09l0,.09-.18.05v.09h-.09c0,.09,0,0-.05.09A.61.61,0,0,1,129,2c0-.22-.13-.52.08-.68V1.13l-.13,0a1.1,1.1,0,0,0-.09-.14h-.09v0h0V1h-.14V1L128.36,1V.87h-.18V.82c-.17,0-.21,0-.27.08h0V1c.11.11,0,.14.1.23l.22.14v.13h0c0,.11,0,.22,0,.32l-.09.05v0h.22c0,.11,0,.12,0,.18s.07,0,0,.09h0l-.06.14h0s0,.08,0,.13h.06v.18l.13,0c0,.26-.17.18-.23.4h.13l0,.19a.06.06,0,0,1,0,.09,1.56,1.56,0,0,0-.17.18h-.09c0,.17,0,.25-.09.31s.14.16.22.28.12,0,.18,0V4l.27,0c0,.09,0,0,.05.09v0l.14,0V4c.12,0,.11.06.23,0l0-.09.23,0a.41.41,0,0,0,.05-.09c.16-.06.21.09.23.09l.22,0a1,1,0,0,1,.09.13c.09,0,.12-.07.23-.09V4h.05c-.08.23-.05.06-.23.13v0l-.14,0c0,.19.22.24.41.28,0,.16,0,.19-.18.22s-.06.08-.14.19h-.05l.1.35a3.37,3.37,0,0,1-.32.14c0,.15,0,.31.05.46h0a1.21,1.21,0,0,0,.05.18h-.09v0h0a1.21,1.21,0,0,0,.05.14h-.14v0h-.13l.18.5h.09a.91.91,0,0,1,0,.37h-.05a1,1,0,0,0,0,.18h-.14V7.12c-.21,0-.63.08-.77,0a2.5,2.5,0,0,1-.22-.73h.22v0c.13-.12.06-.24,0-.45l.13,0c0-.11.05-.1.1-.19a1.71,1.71,0,0,1-.23-.13.65.65,0,0,0,0-.13h0V5.21h0c.05-.15-.07-.27-.09-.37s.07-.13.09-.17v-.1a.51.51,0,0,0-.27,0,.1.1,0,0,1-.13,0v0c-.09,0-.39-.17-.5-.13v0l-.19,0c0,.08,0,.15,0,.22h-.14a1.47,1.47,0,0,1,.14.5H128V5.3s.1,0,.09.09l-.09.05v.09h0v0h.18v0h.09s0,0,0,0v.23h0v0s-.09.05,0,.14a.48.48,0,0,0,.14.09c0,.14-.14.11-.1.28h0v.13h.06a.35.35,0,0,0,.31.28c0,.11.06.09.09.22h-.05v.09l-.08,0v0l-.14,0v0h-.19v.09l-.22,0,0,.09-.19,0v.05s-.13-.1-.22-.05v.05c-.31,0-.36-.12-.32-.45h0v0L127.14,7c0-.09-.06-.18-.1-.27h0c0-.17,0-.33,0-.5l.1,0a.08.08,0,0,0,0-.09,1.16,1.16,0,0,1,0-.18h0L127,5.61c-.08,0,0,0-.08,0s0-.45,0-.67c0,0-.13,0-.09-.06h0c-.06-.13,0-.13,0-.17h0s0-.1,0-.14l.13,0c0-.1-.09-.27,0-.41h0a1.16,1.16,0,0,0,0-.18h.06c0-.14-.07-.27-.1-.41a.45.45,0,0,1,.19,0,1.89,1.89,0,0,1,0-.23.15.15,0,0,0,0-.14A.19.19,0,0,1,127.1,3a2,2,0,0,1-.1-.26h.1a.67.67,0,0,0-.06-.32c.09-.05.08-.07.19-.1A.76.76,0,0,0,127,2c0-.06-.19.06-.32.09V2l-.35-.05a.47.47,0,0,1,0,.1H126v.08h-.09a1.85,1.85,0,0,1,0,.23h.23v.27s-.12,0-.09.14l.09,0V2.9h.09a.39.39,0,0,1,0,.13l.1.05c0,.07,0,0-.1.1s.22.17,0,.36c0,.21.06.23.23.26a.48.48,0,0,1-.09.19h0v.09h0V4.4h0c0,.1-.09.17,0,.31h0v.23h0a.08.08,0,0,1,0,.09c0,.06,0,.12,0,.18h0v.23h0c0,.09,0,.17,0,.27l.27,0c0,.13.13.27.1.36h0a.47.47,0,0,0,0,.28h0l0,.14s-.08,0-.1.09l.1,0c0,.19.06.37.08.55h.14v0l.14,0v.18h0v0h-.13V7.8l-.1,0a.74.74,0,0,1,0,.14c-.2,0-.24.05-.31,0h0a1.42,1.42,0,0,1,0,.22c-.12,0-.1,0-.13-.13-.19.05-.1.11-.32.13a2.91,2.91,0,0,1,0-.31h0v0h-.18c0-.15-.16,0-.32,0a2,2,0,0,0-.09.35l-.32,0v.05h0V8.11h-.14v.05h0V8.11l-.41,0V8h0V8h.1V7.93c-.24,0-.23.06-.37.13,0,0,0,.1,0,.14h0c0,.09,0,0,0,.09v.05c.08,0,.21-.1.36,0v0l.09,0v.09c.16-.1.2.08.32.13s.16-.13.31-.09.38.18.59.09v0h.1v0l.36,0v0l.27,0c0-.09,0,0,0-.09v0h.19v0h0l.09.22.14,0a.74.74,0,0,1,.23-.14.36.36,0,0,1,0-.09h0v0h0V8.29l.18.09v0h.09V8.29h.23v0h.09V8.2h.18s0-.06.14-.09V8l.17,0V8h.09a.41.41,0,0,1,.05.09h.37v0c.12,0,.1,0,.13-.13H129c0-.12.07-.1.1-.22h.09a.19.19,0,0,1,0-.09h.32c.06,0,0,0,0,0v0h.14v0H130v0h0c.1,0,.09,0,.09,0h.54v.14l.32,0,0,.09.4.14v0l.23,0v0h.05v0l.13,0c.06,0,0,0,0,0h.73v0c.23-.06.37.16.5.14v0h.09v0h1l.14.22h.17v0h.1v0h.09a.15.15,0,0,0,0,.09h.32v.05l.14,0c0,.06,0,.12-.05.18l.36,0,0,.09.18,0v.09h-.23a1.13,1.13,0,0,0-.09.41h-.13s0,.09,0,.14l-.22.05V9.29h-.05s0,.09-.09.09v0l-.13-.05a.24.24,0,0,0,0,.18.37.37,0,0,0-.23.09v0h-.41a.57.57,0,0,0,0,.14h.13v0c-.08.05-.14-.06-.18,0v0H134v0h.22v.1h-.09s.13.08.13.09,0,.17,0,.22.06,0,.09.09l.91,0v.05l.13.05v0c.13,0,.1-.08.13-.1s.29.08.37.1l.23,0a2.14,2.14,0,0,1,.09-.27.65.65,0,0,0,.4-.18l.05-.09h.09v0c.15-.09.27-.13.32-.32h.09a1.43,1.43,0,0,1,0-.22l.23-.05v0l.14,0v0h0c0-.14.06-.18,0-.31" style="fill:#231815"/><path d="M72.76,9.79v.14c-.23,0-.17,0-.31-.1v.1l-.23,0,0,.09-.23,0v.05a.44.44,0,0,1-.18-.09v0l-.18,0v0c-.06-.06,0,0,0-.09a1.25,1.25,0,0,0,.22-.37l.23,0c0-.24.15-.26.18-.51h.09s0-.06,0-.08l.13,0a1.21,1.21,0,0,1,0-.14l.09,0V8.52h0s0-.08.05,0v0c.09,0,0,0,.08,0h0a.69.69,0,0,0,0-.13l.78-.05v0s.08.08.18,0v0h.09V8.2a.93.93,0,0,1,.32.05.26.26,0,0,1-.09.09c.09.11.14,0,.22.09v0h0l0,.14-.09,0c0,.13.08.12.09.14s0,.19,0,.27h0a.32.32,0,0,0,.36,0c0,.11,0,.21,0,.32h-.09v.18h-.18l0-.09c-.07,0-.06.08-.09.09s-.21-.07-.31-.09v.09l-.19,0c0-.06-.09-.06-.13-.13h-.05l.05-.09a.73.73,0,0,0-.05-.09h.05c0-.06,0-.12,0-.19h0a.34.34,0,0,1-.09-.22h-.18c-.07,0,0,.05,0,.05V8.93h-.1V8.84L73,8.79v.05h-.23V9h0c0,.24-.05.33.19.36v0l-.14,0v.13h.1c0,.09,0,0,0,.09v0s0,0,0,0,0,0-.09.1h0v0Zm-3.35,2.9v0h.14v0h.09v.05h.18v0h.05v0l.28-.05v0h.08v0l.18,0V12.6l.37,0v0h.08v0H71l0-.09h.13a.72.72,0,0,1,.37-.09.65.65,0,0,1,0-.13h.31l0-.1a2.29,2.29,0,0,1,.59-.09.69.69,0,0,1,0-.13l.22-.05a.13.13,0,0,0,.14.05v-.05l.32,0c0-.15,0-.13.09-.23a.9.9,0,0,1,.59-.09.36.36,0,0,0,0,.09c.13,0,.1-.07.14-.09h.36v.13a1.69,1.69,0,0,0,.63-.08v-.05h.19a.55.55,0,0,1,.09-.14c.15,0,.12.19.31.14v-.05c.17,0,.34-.06.5-.09V11s.12,0,.09-.13l-.09-.05c0-.09,0-.18,0-.27a1.15,1.15,0,0,0-.5,0v0h0v0c-.1,0-.09,0-.09,0h-.22v0c-.08,0-.09,0-.09,0l-.23,0c0,.06,0,.13-.05.19l-.23,0v0c-.05,0-.19.15-.31.09v0c-.3,0-.62,0-.73-.14h0v0h.09c.05-.05,0-.09,0-.19h.09a.5.5,0,0,0,0-.13l.23,0v0c.12,0,.1.06.22.09v-.09c.32,0,.39.09.73.09.05-.16.14-.16.23-.27h0c.06-.12,0-.43,0-.5a.32.32,0,0,1,.17,0v0c.11,0,.1.07.14.09h.09v0s.14-.1.23,0v0c.17,0,.18,0,.23-.14l.22,0V9.29h0l-.09-.55c-.13,0-.1-.06-.23-.09a1.55,1.55,0,0,1,0,.23H75.9c0-.09,0,0-.05-.09v0c-.09,0-.22,0-.32,0l0,.09-.14,0V9c-.12,0-.1,0-.13-.13a2.31,2.31,0,0,1-.32,0c0-.06,0-.12,0-.19h0c0-.06,0-.11-.05-.18h.05V8.38h0V8.29h0c.06-.14,0-.16,0-.31l.72,0V8H76c0-.06,0-.12,0-.18h0a1.15,1.15,0,0,0-.18-.37h-.5a.41.41,0,0,0,0-.09.73.73,0,0,0-.31,0v.13h-.31v0l-.28,0v0H74.4v0h-.27v.05s-.18.11-.23.09V7.52c-.23,0-.18,0-.32-.09L73.49,7a.28.28,0,0,0,.09-.13l.28-.1s0,0,.09,0V6.66H74v.09h.18v0h0V6.57c.11,0,.28,0,.41,0v0l.23,0v0H75s0-.05.14-.09V6.3a2.34,2.34,0,0,0,.5,0c0-.19,0-.14,0-.32a.36.36,0,0,1-.22-.27h-.1a.5.5,0,0,0,0-.13c-.09,0,0,0-.09,0a.41.41,0,0,0-.27.09s0,.09,0,.14c-.25-.07-.32,0-.4.27l-.28,0V6L74,5.93V6a.49.49,0,0,1-.23-.05.69.69,0,0,0,0,.1h-.09a.69.69,0,0,1,0-.18h0a2.33,2.33,0,0,0,0-.28h0c0-.1.08-.27,0-.36S73.56,5,73.4,4.9V4.84h-.28v0l-.17,0c0-.07,0-.15,0-.23h.19V4.44h.27v0h.09V4.35l.32,0v0c.07,0,.11.13.13.14l.23-.05h.18V4.4h0V4.35h.32V4.26l.22,0v0l.14,0v0l.4-.14A.66.66,0,0,0,75.94,4a1.37,1.37,0,0,0,0-.23h.18v.05h.19V3.8a1.56,1.56,0,0,1,.4.1h0l-.09.18h0a.3.3,0,0,1,0,.18c.3,0,.25-.14.59-.14V4h.36a.2.2,0,0,1,0-.09c.11-.08.09.05.13-.14.09,0,0,0,.09,0h0V3.63h.09s0-.06,0-.09c.19-.08.57.07.73.09s0-.1.09-.18.12,0,.18,0v0h.09v0c.07,0,.08,0,.09,0h.41v0c.07,0,.08,0,.19,0a1.47,1.47,0,0,1-.06.14H80v.08h.17v0c.24,0,.22.09.37.17v.14c.09,0,.21.13.31.09s0-.13.19-.09a.36.36,0,0,0,0,.09.37.37,0,0,0,.45-.13l.27,0V3.72h.1V3.63h-.14v0a.24.24,0,0,1,.18,0,.74.74,0,0,1,0-.14h0V3.31a.55.55,0,0,0-.14-.09v0h-.13V3.13h-.13v0h-.1V3h-.09a.22.22,0,0,0,0-.08h-.63V2.9l-.13,0v0l-.55.09v0h-.22A1.16,1.16,0,0,0,79,2.77v0h0c0-.11,0-.22,0-.32s0,0,0,0h.18c0-.15.06-.08.14-.17h0V2h.05l.41-.14a1.43,1.43,0,0,0,0-.22h-.13V1.54h-.09a.26.26,0,0,1,.09-.09c0-.15,0-.11-.09-.18v0l-.14,0s0-.09,0-.14H79.2a.41.41,0,0,0,0-.09h-.09S79,1,79,.9h-.13s0-.07-.14,0v0h-.36V1L78.2,1a4.12,4.12,0,0,0,0,.54c.16,0,.21,0,.27.09h0l0,.09h0v.05h0v0h0v.05l-.1,0v.18a.69.69,0,0,1-.18,0s-.07.07-.08.09v.14l-.14,0s0,.09,0,.13h0v.14h0a2.74,2.74,0,0,0,0,.28h0v0l-.59.09V3h0v.05h-.19V3c-.2,0-.28.07-.31.24h-.27v0c-.11,0-.21,0-.32,0s0,.12-.09.22h-.27s0-.06-.09,0v0l-.23,0v0l-.22,0v-.1c-.14,0-.14.08-.18.19H75s0-.09,0-.14l-.22,0-.06-.08h-.26v0c-.08-.05-.07,0-.09-.14s0,0,0-.08,0,0-.09,0h0a.68.68,0,0,1,.14-.23v0h0c0,.06,0,0,.13,0v0l.13,0a1,1,0,0,1,.1-.18h0s-.1-.08-.14-.14l.37-.13,0-.09h.13V2.13s0,0,0,0a3.86,3.86,0,0,0-.91-.18s-.18-.09-.27,0a.41.41,0,0,0,0,.09H74l0-.09h-.09l-.27-.23V1.49c-.06.08-.08,0-.19,0s0,.05,0,.1v0a.32.32,0,0,0-.19,0v.09H73c0,.11-.07.09-.09.18l.09,0v.32H73v0s.1.17.05.27l-.09,0c0,.19,0,.06.13.14s0,.06.1.09V3h.09a.61.61,0,0,0-.09.23c.1,0,.1,0,.17.09v0c.07,0,0,0,.05,0s.31,0,.46,0v.14c.11,0,.1,0,.13.14h-.32v0h0v.13a.38.38,0,0,0-.18.09v0l-.14,0,0,.09h-.15a.25.25,0,0,1,0,.09c-.17.05-.31-.24-.49-.18v0H72.5l-.1.14h-.5v0h-.13v0l-.18,0-.09-.14c-.18-.09-.26,0-.4,0s0,.11-.15.14-.11.34-.17.5a.86.86,0,0,1,.13.23l.68-.1a.3.3,0,0,0,0,.1,7.28,7.28,0,0,0,1.05,0v.09c-.22.06-.05,0-.14.18a3.37,3.37,0,0,1-.32.14c0,.41.2.31.5.4,0,.13,0,.09,0,.18l.09,0V5.8h0c0,.12,0,.14-.1.18l.15.23h0v0l-.18,0V6.3a4,4,0,0,1-.55.09v.09H72V6.39l-.19,0v0l-.22,0v0h-.27v.09h-.14a.61.61,0,0,0-.08-.18c-.1,0,0,0-.1,0-.34,0-.2.08-.36.23v0l-.32,0v.18h.09c.06.28.17.24.37.37l0,.09H71v0h.23v0h0a.39.39,0,0,1,0-.09l.23,0a.41.41,0,0,1,0-.09l.22,0v0h.09v0l.14,0,0-.09h.09V6.94c.14,0,.13,0,.19.09.28,0,.28.08.44.18a2.51,2.51,0,0,1,0,.27h-.09v.13H72.4v0h0a.3.3,0,0,1,0,.18l-.18,0v0H72V8l-.19,0v0h-.13a.31.31,0,0,1-.05.1H71.5a1.34,1.34,0,0,1-.32.13.78.78,0,0,0,0,.14A.42.42,0,0,1,71,8.34V8.29l-.45,0v0h-.09v.05h0v0h0c0,.1,0,0,0,.09,0,.37.25.24.41.46l.77,0c0,.13,0,.15-.19.18v.09c.09,0,0,0,.09,0h0v.13l-.4.14a.29.29,0,0,1-.1.18.73.73,0,0,1-.32.14v.09l-.09,0s0,.13,0,.19c-.16,0-.31.08-.41,0h0v.13l-.13,0a1.49,1.49,0,0,0,0,.4h.09v.05h0V10.6h.27v-.08h.14v0a.76.76,0,0,1,.36,0c0,.13,0,.27,0,.4h.15V11l.13,0v0h.09v0c.13-.05.31.07.36,0l.09-.13h.13v0H72v0h.22v0h.1V10.6h.36v.05l.08-.05v.05h0c0,.16,0,.18-.13.27,0,.06,0,.05.08.09a.36.36,0,0,1,0,.09l-.09.05a.11.11,0,0,0-.13-.05v.05h-.1v0l-.13.05v-.09a.26.26,0,0,0-.23.22h-.18c0,.1,0,0,0,.1v0c-.07,0-.26,0-.31,0a.56.56,0,0,0,0,.08c0,.07,0,0,0,.06v0c-.18-.05-.15,0-.36,0v-.08h-.09c0,.08,0,0,0,.08v.05a1.24,1.24,0,0,1-.42-.05v.09h-.22v.09s-.11-.07-.19,0l0,.09-.18-.05s0-.09,0-.13h-.09c0-.1,0,0,0-.1v.1a.38.38,0,0,0-.23.13c-.23,0-.18,0-.32-.09v-.09H69.1c0,.11-.06.21-.1.32h0v.32h0v0l.08.05v.09a.48.48,0,0,1,.24.14v0Z" style="fill:#231815"/><path d="M11.28,12.87h-.22v0c-.06,0,0,0-.05,0a.35.35,0,0,1-.32-.09c-.17.05-.12.09-.22.18l-.18-.23c-.23,0-.36-.05-.41.14-.12,0-.11,0-.14.14l-.59-.14v0l-.54,0c0-.09,0,0,.05-.09v0H8.47c-.06,0,0-.05,0,0v0H8.29s0,.1.05.14H8.29c0,.05,0,0-.09,0s0-.08,0-.13l-.45-.13a2.07,2.07,0,0,0,0,.22l-.23,0v0H7.43v0c-.06,0-.07.06-.18,0v0c-.14,0-.09.12-.23.08s0-.09-.09-.08v0H6.8v0L6.43,13a.12.12,0,0,0-.13-.05V13H6.12v0H6v0H5.57v0l-.18.05v0c-.2.05-.25-.23-.54-.14a1,1,0,0,0-.27.18l0,.14a2.17,2.17,0,0,0-.72,0v.09s-.22.17-.32.13a.12.12,0,0,0-.14,0v0c-.06,0-.07,0-.18.05v.09c-.14,0-.3,0-.36,0h0l0-.09-.72,0v0c-.16,0-.36,0-.46-.05h0v-.13h.09v-.09H1.45a1.83,1.83,0,0,1,.14-.28l-.14,0v0h0v0l-.09,0v-.23H1.27c0-.06,0-.12,0-.18l.27-.09c0-.08,0-.15-.05-.23H1.5l0-.23.23,0a.36.36,0,0,0,0-.09c.15-.07.31.06.41,0a.13.13,0,0,1,.14,0s0,.06.09,0v0h.13s0-.06.14-.1V12l.18,0v0A1.87,1.87,0,0,0,3.31,12l.45,0v0L4,12v-.09c.16,0,.22-.1.37-.13v-.1h.18v-.09c.14,0,.18-.06.32,0v.06h.17v0h.32a.13.13,0,0,0,.14,0v0h.18a1.46,1.46,0,0,0,.09-.13H6v0l.18-.05v-.09a1.94,1.94,0,0,0,.5-.18H6.8V11.1l.45,0a.12.12,0,0,0,.14,0v0L7.57,11c0-.09,0-.18,0-.27h.14c0-.11,0-.21,0-.32s-.18-.08-.23-.18a.41.41,0,0,0-.23.09v0l-.54,0v0H6.62v.05h-.1a1,1,0,0,0,0,.1c-.13,0-.25-.27-.45-.1-.2,0-.16,0-.27.1v.13H5.35v0l-.28.09v0H5v.05c-.17.06-.3-.05-.41,0L4.49,11H4.31l0,.09-.18,0v0l-.27.05v0l-.14,0V11.1l-.22.05v.09l-.14-.05a.41.41,0,0,1-.05.09H3v0l-.18-.05v.05h0v.13h0v.05c-.11,0-.09-.07-.14-.09H2.49v-.05H2.27c0,.11,0,.09-.09.14v.05L2,11.37s0-.09-.05-.13H1.72v-.05a.6.6,0,0,0-.31.05A.53.53,0,0,1,1.32,11h.09c0-.13-.09-.27-.14-.41v-.23h.05V10.1H1.27l.09-.4h0c0-.08,0-.15-.05-.23h0c0-.13,0-.27,0-.41.25-.08,0-.07.14-.22l.18-.1c0-.31-.26-.31-.32-.58h.09c0-.16,0-.34-.13-.45a.39.39,0,0,1,.27-.32V7.12h0v0h0V7H1.45l0-.13c.2-.08.25,0,.4,0v0a.45.45,0,0,1,.23,0v0h.32c.06,0,.07.07.18,0v0l.18,0V6.66l.23,0s0-.09,0-.14h.09v0h.41a.3.3,0,0,0,0-.1h.19v0c.06,0,.08,0,.18,0v.14h0v.05h.27v0c.07,0,.08,0,.19,0s0,0-.05.09v0H4.21v.09H4.13v.14H4c0,.09-.05.18-.09.27H4v.09c-.09,0,0,0-.09,0-.36,0-.3,0-.36.22H3.4c0,.09,0,0,.05.09V7.8H3.4v0l-.23,0v0H3.08v0l-.27,0V8H2.72v0l.09,0v.14L2.68,8.2a.35.35,0,0,1-.1.09v.36h0v0a1.57,1.57,0,0,1-.32,0,.3.3,0,0,1-.13.14v.14H2c.1.16.16.33,0,.45a.32.32,0,0,0,.14.14.47.47,0,0,1-.19.18c0,.05,0,.09.05.13h.23v.05l.27.09c0,.09,0,0,0,.09s.2,0,.37,0l.27,0v0H3.4v0l.13,0v0h.05V10c0-.06.11,0,.18,0L4,9.7l.27.05V9.7h.41v0H4.8v0h.14v0H5.3l0-.09h.09a.39.39,0,0,1-.05-.18h.14v.09l.14,0v0h.09a.58.58,0,0,1,0-.14h0V9.15s.07.08.09.09H6v0c.35,0,.3-.21.54-.28V9a.47.47,0,0,0,.19,0c0,.14,0,0,0,.14h.13v0h.09v0s-.07,0,0-.09h0V9c.06,0,.05,0,.09.1h.05A.39.39,0,0,0,7,9a.74.74,0,0,1,.32-.05c.06-.24.07-.11.23-.19v0l.14,0a3.23,3.23,0,0,0,0-.54l-.42,0V8a1,1,0,0,0-.36-.09,1,1,0,0,0-.5-.72A1.4,1.4,0,0,0,6.3,7H6.12a.19.19,0,0,0,0-.09H6a.19.19,0,0,0-.05-.09.78.78,0,0,0-.36-.14V6.53h.1c-.07-.16-.1,0-.23-.19-.05,0,0,0-.05-.09s.1-.11.18-.18V6a2.12,2.12,0,0,1,.36-.1V5.71l.46,0v0h.27v0a.8.8,0,0,0,.36.1V6h.05V6h.14c0,.1,0,.11,0,.18h0v.13h0l.09.14.09,0a.12.12,0,0,1,.14,0v0l.18,0a1.85,1.85,0,0,0,0,.23c-.09,0,0,0-.09,0s.14.26.13.31h0v.09c.23,0,.22.09.36.18s0,.24,0,.37h.09c0,.19,0,.21.1.31l.08.05c0,.13-.06.27-.08.4s.32,0,.4,0a.61.61,0,0,0,.14.13c0,.14,0,.2-.14.27s.16.06.14.14h0c0,.14-.09.28-.13.41s.09,0,.18.09v0h0v.18h0V10H8.79c0,.07,0,.15.05.23H8.79c.05.18.05.13.23.17v.05h0v-.05h0v.1l-.23,0c0,.08,0,.18,0,.27l-.23,0c0,.09,0,0,0,.09v0l-.09,0c-.05.08-.1.15-.14.23s.16.15.14.22l-.1.05v.22h0a1,1,0,0,1,0,.18c-.08,0,0,0-.08,0H8.34a.78.78,0,0,0,.05.14L9,12v0H8.79c0-.31.24-.41.55-.41a.34.34,0,0,0-.14-.09c0-.11.05-.1.09-.18l.23-.05.13-.4c0-.13,0-.11.14-.14,0,.09,0,0,0,.09s0,.14.19.18V11h.13v-.09h.14a.86.86,0,0,0,.09.45h0c0,.08,0,.15.05.24l.13.08c0,.07-.11.29,0,.41s.31.16.36.18v0h0v0c.09,0,.19.06.28,0v0c.07-.1-.09-.25-.05-.37h.05s0-.09,0-.13l.09-.05a1.49,1.49,0,0,0,0-.18h-.05v-.23h0l-.09-.13H11l-.1-.14h0v-.09A1,1,0,0,0,11,10.7h.05v-.1l-.23,0c0-.11,0-.21-.05-.32h.09v0h0a.58.58,0,0,0-.05-.14.1.1,0,0,1-.09,0s-.08.09-.18,0v0l-.09,0a1.21,1.21,0,0,0,.05-.18h0V9.47h0c0-.13,0-.27,0-.41h-.13a.93.93,0,0,1-.05-.32l.14,0,.09-.27A.75.75,0,0,1,10.51,8h.05a1.21,1.21,0,0,1,0-.18c.06-.1.2-.13.26-.23h.05v0c-.16-.13-.05-.22-.05-.36h0a.78.78,0,0,0-.05-.14h.14A.69.69,0,0,1,11,6.94l.09-.05A1.21,1.21,0,0,0,11,6.75h.05v0H11v0h.05c0-.09,0-.18,0-.27l.09,0s0-.12,0-.18h-.09V5.93h0c-.06-.07-.16-.1-.23-.18h0l.09-.14h-.05a1.36,1.36,0,0,0,0-.17l-.18,0a1.26,1.26,0,0,1-.14-.31h.14v0h0v0h-.13V4.9h-.05c0-.09,0,0,0-.09a1.12,1.12,0,0,1-.05.13h.05V5l-.32,0v.1h-.09a.84.84,0,0,1-.05.17h0v.28h0v0l.08,0v.1H9.93c0,.1,0,.13,0,.18h.09c-.06.05,0,.1-.05.18l-.08,0c-.06.18.12.14.08.28h0l.13.23L10,6.71v.14H9.88c0,.19-.07.18-.09.36H9.7s0,.09,0,.13h0l.09.41H9.7c-.06,0,0,.11,0,.18h0l0,.09c-.08.06-.06,0-.13.09H9.34c0-.13,0-.17-.09-.22v0a.87.87,0,0,1-.37.09c0-.07,0-.15,0-.22H8.79a.14.14,0,0,1,.05-.14c0-.09,0-.18-.05-.27H8.66v0A1.64,1.64,0,0,1,8.57,7h0v0s-.19-.05-.22-.09,0-.16-.05-.23.05,0,.05,0H8.34V6.44H8.29v-.1l-.18-.13a.94.94,0,0,0,.05-.28H8.11c0-.13-.08-.15-.23-.18A.29.29,0,0,1,8,5.53H8V5.44h.05c0-.05,0-.09,0-.14l.23,0v0c.1,0,.12,0,.18,0v0h.09v0H8.7v0h.14s0,.1.09.09v0c.24,0,.15,0,.27-.14v0l.14,0a.43.43,0,0,1,0-.22h0c0-.07-.08-.13-.09-.24s.05,0,.09-.08a.72.72,0,0,1,.31,0,.07.07,0,0,0,.1,0v0h.22v0H10v-.1a.09.09,0,0,0,.05-.08A.78.78,0,0,0,10,4.35h.05a.57.57,0,0,0,0-.14h.1v0h.09v0A1,1,0,0,0,10.42,4a1.32,1.32,0,0,0,.05-.23h0V3.63l.1,0a1.13,1.13,0,0,0,0-.32h-.14c0-.06,0,0,0,0s0-.15-.05-.22c.15,0,.17-.12.28-.19v0c.15,0,.25.06.36-.09s.27,0,.36.09l0,.09.14,0V3l.23.15a.37.37,0,0,1-.09.22H11.6a2.16,2.16,0,0,1,0,.27h0c.05.09.08.08.09.23l.14,0c0,.24.08.27.09.5h-.09c-.06.19-.09.07-.14.13s.07.22.09.33h.14l0,0c0,.08-.06.07-.09.18h-.09v.13h.09v.1h0l.13.18h.05a.56.56,0,0,1-.05.08.12.12,0,0,1,.05.14h-.05v.14h0V6h-.05V6h.05s0,.08,0,.13h.05c0,.09-.08.12-.09.28h.09v.22s.06,0,.05.09h-.05c0,.1,0,.19-.05.28a3.1,3.1,0,0,1,.1.36s-.15.07-.14.13l.09.05L11.83,8l.09,0V8.2H12a.53.53,0,0,0,0,.18l-.27.14c0,.16.08.1.09.32H12v.09h-.14c0,.17.16.29.14.36l-.14.09a1.71,1.71,0,0,0-.09.41h0v.14h.05s-.08.15-.05.27h.05v.17h0v.19h.05l-.05.09h.05v0h-.05v.13h0V11h-.05v0s.08,0,.05.09l-.09.05a.33.33,0,0,0,.13.27s0,.13,0,.09v0h-.05v0h0a.47.47,0,0,1,0,.23h.09c0,.16-.08.09-.09.31h-.13a1.89,1.89,0,0,0-.05.23h0v0h0c0,.12.05.06,0,.14s0,.09,0,.14l.09.05v0h0c0,.1,0,.09.1.14v.08c-.05,0,0,0-.05,0s-.06,0-.09-.14-.19,0-.23.14M5.85,8.65c-.09,0,0,0-.09,0s0,0,.09,0M5.48,7.57c.16.16.25,0,.32.32H6V8H5.93v0h.19v0h0a.86.86,0,0,1-.45.36c0,.11,0,.21,0,.32l-.41-.14-.36,0a.58.58,0,0,0-.05.14A.59.59,0,0,0,4.53,9c-.13,0-.13-.08-.18-.19l-.27.05v.22a.29.29,0,0,1-.18-.22h0L4,8.65l-.18-.13V8.43l.27-.09a.58.58,0,0,0,0-.32l.23-.09,0-.13.27-.09V7.52h0v0H4.8a.5.5,0,0,0,.37-.14c.15,0,.11.1.27.14v.09ZM1.59,6.07s-.05-.29-.05-.36l.14,0c0-.15,0-.29-.05-.45h.05c0-.16,0-.33,0-.5h0c0-.21.14-.21.22-.36a1.76,1.76,0,0,1,.55.09.4.4,0,0,0,0-.18c.09,0,0,0,.09,0h0V4.08l.18,0v0H2.9s-.07-.11,0-.18h0v0h.23v.09s.17,0,.09,0H3.17v0l.41-.09V3.63l.14,0v0H3.9v0h.18a.15.15,0,0,0,.13,0v0l.14,0v0a.78.78,0,0,0,.32-.19l.23.05v-.1l.58,0v.27l-.22.05,0,.08H4.9v.05H4.85c.07.1,0,.1,0,.23A.74.74,0,0,1,5,4.31l.18,0V4.4c.1,0,.12-.05.18-.05V4.4l.45,0,.13.23c.15.09.12-.08.19.14-.09,0,0,0-.09,0H6A1.09,1.09,0,0,0,6,5H6a1.05,1.05,0,0,1-.05.19c-.08,0,0,0-.08,0a.35.35,0,0,0-.23.09v0H5.39v0a2.2,2.2,0,0,1-.36,0v0H4.9v0H4.85v0c-.07,0-.2.06-.18.14h0v0l-.5.05,0,.09c-.12,0-.09-.11-.18-.09v0l-.09,0v0H3.76v0H3.45s0,0-.1,0v.09s-.26,0-.4,0v.09c-.18,0-.16.06-.27.14v0L2.45,6l-.05.09H2.13v0H2v0H1.86l-.09.14H1.72v0a.87.87,0,0,0-.27,0v0h0s.18-.17.18-.18M5.76,3.35a1.41,1.41,0,0,0,.31-.08v0s.27.08.36.09a1,1,0,0,0,0-.18c.06,0,.08-.07.18,0a.08.08,0,0,0,.09,0v0h.23V3h.32l.54-.17v0c.07,0,.21.15.41.09v0h.13v0h.18v0h.1v0c.06,0,.08,0,.18,0v.09c.14,0,.27.09.36,0h0V2.9A.55.55,0,0,0,9.47,3a1.32,1.32,0,0,0,.09.42H9.43c0,.22.07.25.09.45H9.43v0h.09V4l.13,0s-.13.14-.13.14a.07.07,0,0,0,0,.09c0,.15,0,.21,0,.31a.49.49,0,0,0-.18,0v0H9.11v0H8.88v0h0l-.05-.14a1,1,0,0,1-.32,0v.14l-.13,0v0a.35.35,0,0,0-.23-.1v0a2.77,2.77,0,0,1-.5,0s0,.11-.09.1a1,1,0,0,1,0-.1l-.23,0a.3.3,0,0,1,0-.1c-.12-.06-.11,0-.23,0s0-.2-.05-.31H6.84v.09c-.13,0-.15,0-.18-.18H6.57c0-.09,0,0-.05-.09V4l-.13,0a.22.22,0,0,0-.13-.18V3.76c-.25,0-.27-.16-.5-.17Zm5.93,10.88v0l.18.05v0a.35.35,0,0,0,.18.1c0,.12.06.23.1.36l.13,0v0a1.12,1.12,0,0,1,.45,0v-.09l.09-.05c0-.07,0-.15,0-.22h0v-.14H13c0-.16-.09-.13-.23-.19,0-.23,0-.31.23-.4,0-.12,0-.07-.09-.14v0h-.1s0-.06-.09-.09v-.05h.14c-.06-.08-.06,0-.09,0s.18-.19.14-.32h-.05a1.21,1.21,0,0,0,0-.18l-.09,0v-.18h0a2.22,2.22,0,0,1,.09-.37c0-.06,0-.11,0-.18h0V12h0c0-.19,0-.37,0-.54h0v-.05h0v-.09h.05s-.08-.13-.05-.23a.13.13,0,0,0,.05-.14h-.05c0-.08,0-.17,0-.26h0s0-.1.05-.14H13s-.07-.11,0-.19h0c0-.06,0-.12,0-.17h0a.91.91,0,0,1,.13-.37A.34.34,0,0,0,13,9.61h0V9.52l-.1,0V9.15H13v0a.27.27,0,0,0-.09-.32c0-.13.05-.15.18-.18,0-.06,0-.1,0-.18h0c0-.14,0-.27,0-.41h0V7.93l-.14-.09V7.71h0v0h0V7.57s.08,0,.1-.09l-.14-.09V7.12h0c0-.07,0-.13,0-.18h0c0-.07,0-.13,0-.19s0,0,.09,0h.05v0h-.05V6.48h0V6.21c0-.1-.12-.21-.09-.36h0c0-.1,0-.1,0-.1,0-.16,0-.33,0-.5s-.11,0-.09-.13h0c0-.07,0-.15,0-.22h0c0-.15-.1-.15-.09-.23l.09,0v0h0c0-.13,0-.26,0-.4h0V4.08h0c0-.08,0-.15,0-.23l-.18,0s0-.1,0-.14h0v0h0V3.45h.09a.38.38,0,0,1,0-.23h0a1,1,0,0,0-.13-.36l-.05-.14H12V2.49h0a.68.68,0,0,0-.05-.27l-.27,0s0-.09,0-.14,0,0,0,0l-.1,0s0,.08-.09,0a.59.59,0,0,1,0-.08h-.09V2L11.19,2V2l-.45-.05V2H10s0-.06-.08-.05V2H9.7V2H9.61V2c-.16,0-.14-.07-.18-.09H8.79l-.09.13c-.1,0-.17,0-.23,0v0l-.18,0v.05H8.16v0l-.32,0v0l-.32,0v0H7.34v0H7.21V2.13a.13.13,0,0,0-.14.05C7,2.2,7,2.15,7,2.13H6.93v.05H6.8v0H6.39a.36.36,0,0,0,0-.09c-.39,0-.81,0-1.13.05l-.09.22-.36,0v0H4.76v0H4.62v.05H3.9l0,.09H3.72v0H3.35L3.08,3A.76.76,0,0,1,2.45,3c0,.05-.09.08-.09.1v.14a.2.2,0,0,0-.09.08H2v0H2L2,3.4l-.23.05v0L1.54,3.4v.05H1.45l0,.09H1.23v0l-.32,0a1.07,1.07,0,0,0,0,.4v.23H1a.74.74,0,0,1,.14.23s.06,0,0,.08a.19.19,0,0,1-.09,0c0,.11.09.09,0,.22l-.13.1v.18H.86v0s.08,0,.05.08l-.09,0v.09h0a1.21,1.21,0,0,0,0,.18H.73v.09H.82c0,.18-.06.13-.09.27H.59c0,.13,0,.25.05.37H.59v.23h0c0,.09,0,.18,0,.27l-.09,0v.36h0V7.3l-.1,0c0,.07.2.55.14.77h0a.74.74,0,0,0,0,.14l-.09,0c-.07.19.09.44.13.55a.77.77,0,0,1-.27.09.25.25,0,0,0,.14.13,1,1,0,0,1,0,.32h.1a1,1,0,0,1-.05.23H.32a1.7,1.7,0,0,0,0,.22h0c0,.05,0,.1,0,.14h0a2.51,2.51,0,0,0,0,.27H.27v.09l.09,0c0,.15-.07.15-.09.19v.23c.09,0,0,0,.09,0h0a.5.5,0,0,0,0,.13h0c0,.06,0,.12,0,.19h0c0,.1.05.3,0,.32h0c0,.07,0,.14-.05.22H.09l.09.09c.05.14-.08.15-.09.27s0,.15.05.23a.15.15,0,0,0-.05.14s.06,0,.05.09l-.1,0c0,.06,0,.07,0,.18H.18v.18H.09c0,.06,0,.13.05.18l.09.05c.09.24-.21.1,0,.27,0,.2,0,.28-.14.32a.32.32,0,0,0,.14.14c0,.09,0,.18-.05.26h0c0,.08,0,.1,0,.1s-.13.15-.18.18c0,.26.13.25.23.41.23,0,.4,0,.5-.14a1,1,0,0,1,0-.14H.91v0h.18a.36.36,0,0,0,0-.09h.1l.09-.14h.09v0l.4.09v-.05H2v0H2v0l.14,0h1v-.05l.55.05v-.05l.54.05v-.05l.23,0v-.08A.69.69,0,0,0,4.67,14s0,.07.09.05V14l.36.05V14h.32l0-.09h.14v0h.09v0l.45,0v0l.23-.05s0,.12.13.1v0l.37-.05c0,.07,0,.13,0,.19l.46,0v0h.18v-.05h.18v0H8v0l.55.18v0H8.7v-.05l.18,0v0h.27v-.05l.23,0c0,.09,0,0,0,.09v0c.09,0,.13,0,.18,0v0H9.7v0h0v.14c.34,0,.43-.2.73-.23a.78.78,0,0,1-.05.14h.05l0,.09c.11,0,.21.08.36,0a.12.12,0,0,1,.14,0v0h.09v0h.18v0h.18v.05Z" style="fill:#231815"/><path d="M120.21,14.64l-.23-.27-.28,0v-.05h-.22v0h-.13v-.05l-.14.05-.09-.14h-.23v0h0v0h-.23a.65.65,0,0,1,0-.13l-.51-.05a.36.36,0,0,0,0-.09c-.12,0-.1.08-.13.09h-.05v0h-.18v0a.08.08,0,0,0-.09,0,.24.24,0,0,1-.18,0v.09h-.09l0-.09-.27,0v0a.62.62,0,0,0-.36-.09c0-.06,0-.12,0-.18l-.36-.09,0-.09H116v0l-.17,0v0h0v-.18h-.09a.41.41,0,0,0,0-.09c-.12,0-.09.08-.13.09h-.09c0-.12,0-.1-.14-.13a1.57,1.57,0,0,0,0-.23h0v0h-.13c0-.32-.12-.25-.32-.36v0h-.09a3.11,3.11,0,0,1-.23-.28V12l-.09,0-.09-.28a.32.32,0,0,1-.09,0c-.11-.12-.18-.24-.37-.28a1.21,1.21,0,0,0,0-.18h0c0-.05-.07-.07-.09-.09V11h0v-.08l-.1-.05V10.7l-.13,0v-.13a1,1,0,0,0-.32,0,2.16,2.16,0,0,0,0-.27l-.13,0c0-.33-.21-.36-.36-.54h0l.13-.23-.13,0V9.29h-.14v0l-.13-.09V9.06L112.14,9c0-.13,0-.12-.09-.17.1-.09.31,0,.4-.1v0c.13-.09.14-.18.32-.23V8.34h0V8.29h.23v0h0v0h.09v.05l.23-.05c0-.14,0,0,0-.18s.25-.07.31-.18h.09V8h0a1.12,1.12,0,0,1,0,.13h0s0-.09,0-.13H114V8c.13,0,.11,0,.14.14.17,0,.2-.13.32,0s.1,0,.13.13l.37,0v0l.13.05v0a.81.81,0,0,0,.59,0h.09V8.29c-.06,0-.07-.08,0-.13h0V8.11l.22,0,.06-.13H116a.58.58,0,0,0,0-.18l-.13,0v0l.13,0a.44.44,0,0,0-.23-.27s-.07.06-.18,0a.51.51,0,0,0-.09-.13h-.31a.36.36,0,0,0-.05.09l-.23,0v0c-.19,0-.18-.11-.31-.18V7h-.28a.72.72,0,0,1-.08.22l-.23,0v0h-.09v0a.13.13,0,0,0-.14,0l-.18,0a.25.25,0,0,0,0,.09c-.14,0-.34-.06-.41,0v0H113c-.05,0-.1.12-.15.18h-.09v0l-.27-.09a.78.78,0,0,1,0,.14c-.08,0,0,0-.08,0s-.1,0-.14.14l-.18,0s0-.11-.09-.1v0a2,2,0,0,0-.31,0v-.1h-.1V7.39c-.13,0-.16,0-.22-.09h0c0-.08.09-.16.14-.23l-.09,0V7h.09a1.51,1.51,0,0,1-.09-.18h0c0-.08,0-.15,0-.23l-.09,0V6.39h.09c0-.11,0-.08-.09-.14s.06-.14.13-.27h.05c0-.06-.11-.07-.09-.18a.08.08,0,0,0,0-.09.07.07,0,0,1,0-.1h0a.34.34,0,0,0,.09-.17l.14-.05s0-.09,0-.14a.75.75,0,0,1-.18-.13h0v0l.22-.14V4.76h-.08V4.67c.08,0,0,0,.08,0s0,0,0-.09a.39.39,0,0,0,0-.09s-.14,0-.18,0V4.31h.1v0l-.19-.14v0l.23,0a1.16,1.16,0,0,1,0-.18h.08c0-.15.06-.09.14-.17h0l0-.14h0v0h0V3.4c.09,0,0,0,.09,0a.61.61,0,0,0-.27,0,.5.5,0,0,1,0-.13h-.05V3.13h0c0-.13,0-.13-.09-.23v0l-.37,0v0c-.08-.08,0-.1-.17-.14s-.19.2-.36.14a.73.73,0,0,0,0-.09h-.13V2.63h-.28v0H110v0l-.22,0v0a.44.44,0,0,0-.18,0v0h-.14a.24.24,0,0,1-.09.09v0h0V2.9h-.05a.66.66,0,0,0,.05.23h.27l0,.14h0v0a1.57,1.57,0,0,1,.23,0v0h0v.13H110v0H110c0,.11,0,.09-.09.14v0h0v0l.28,0a.69.69,0,0,0,.05.13h.09v0h-.18a1,1,0,0,0,0,.18h-.14V4h0l0,.13s-.17,0-.09,0,0,0,0,0h-.14a.74.74,0,0,1,0,.14.33.33,0,0,1,.24.09v0l.13,0v0l.13,0v.09l-.17,0c-.09.11-.15.08-.19.27h.1c0,.23,0,.56-.19.68a1.45,1.45,0,0,0,.28.36V5.8l-.14.09v0h0v.32h0v0h0v.27h0a2.36,2.36,0,0,0,0,.28h.09c-.06.07,0,.06-.14.09s0,0,.09,0v.09c-.09,0,0,0-.09,0h-.05v.22h.05V7.12h0v.13l-.14,0v.13l-.1.05a.37.37,0,0,0,0,.32c-.11.14-.16,0-.18.26a.47.47,0,0,0-.23,0v0h0V8h-.14a1.51,1.51,0,0,1-.18.18c-.06.14,0-.13-.13-.09v.05c-.11.05-.06.07-.23.09s0,0,0-.09V8.11h0v.14h-.14V8.2h0V8h-.41v0l-.23,0v0h0c0,.1,0,.19,0,.28l-.36-.05V8.11h0v0h-.23l-.09-.13h-.24v0c-.14,0-.07.05-.17.13v0c-.13.08-.12-.07-.22.1h0a.69.69,0,0,0,0,.13c.18,0,.23,0,.31.09h0a.46.46,0,0,0,0,.23s-.18,0-.09,0h0c0,.14.07.12.09.14V9s.06,0,0,.1a.2.2,0,0,1-.08,0,2.74,2.74,0,0,0,0,.28h.09v.09c.17,0,.14.1.22.23a.2.2,0,0,1,.09.08l.37,0v0h.31a.56.56,0,0,1,.05-.08h.22V9.7h.1l.23-.27.31,0v.09a1.38,1.38,0,0,0,.54-.18c.24,0,.18,0,.32.09-.05,0,0,0-.09,0v0h.14v.09l-.19,0c0,.09,0,.18,0,.27h0c0,.07,0,.15,0,.22l-.18.14v.23h0a1.16,1.16,0,0,0,0,.18h.09c0,.08,0,.15,0,.23l-.09,0v.14h0a.36.36,0,0,0,0,.09h0a.22.22,0,0,0,.09.22c0,.19-.07.15-.14.27h-.09v.14h0c0,.23-.17.31-.4.32l.09.18h0v.09h-.27a.34.34,0,0,1,0,.18l-.14,0c0,.34-.36.26-.54.45a.52.52,0,0,0-.09.41l-.14,0v.05a.55.55,0,0,1-.22-.14h-.19v.05h0c0,.12,0,.08-.09.13v.05H107a.18.18,0,0,1,0,.09l-.27,0v.05h0V14h0v.05h0l-.13-.05s0,.06-.1.05a.12.12,0,0,0-.13-.05v.05h-.09v0l-.27,0-.09.14h-.09v.05h-.05v-.05l-.31.05c0,.14-.1.16-.1.36-.14,0-.13,0-.22-.09l-.14.23h-.09s0-.09,0-.14h-.18a.65.65,0,0,0,0,.18.12.12,0,0,0,.08,0c0,.08,0,.16,0,.24a.26.26,0,0,0-.18.09h-.09a1.78,1.78,0,0,0,.73,0l.09-.13h.4v-.05l.19,0V15h.13V15h.27l0-.09c.09,0,.2,0,.32,0v0h.09a.67.67,0,0,1,.09-.14l.41-.05a1.11,1.11,0,0,1,.13-.36c.2,0,.16,0,.27.09a.82.82,0,0,0,.1-.19h.08v0h0v0h.18s0-.08.05-.13.1,0,.18-.09v0h0v0l.14,0v-.14l.32-.23c.11-.17,0-.21.27-.27v.09l.18-.13v-.14l.23,0v-.1l.13,0,0-.09h0v-.13l.09-.05v-.18h.05l.09-.14.13,0c-.07-.23,0-.28.09-.46v-.14a.29.29,0,0,0,.1,0v-.1l.09,0v-.1l.18-.09c-.08-.22,0-.38.09-.58v-.23l.09-.05c0-.06,0-.12,0-.18s0,0,.09,0h0c0-.1,0-.18,0-.27a.26.26,0,0,1,.09,0c0-.1,0-.13,0-.18.17,0,.23-.11.32,0a.93.93,0,0,1,.32,0v.18h.22V9.79h0l.09.18h.09c0,.14.13.2.18.32v.13H112c0,.07,0,.06.13.1v.08h.09a1.7,1.7,0,0,1,.27.5c.17.05.17.1.23.23h0a2.23,2.23,0,0,1,0,.23l.13,0,.15.22h.13v.09h-.09V12c.17,0,.25.08.27.27h.09c0,.16.09.33.14.5l.17.13a1.21,1.21,0,0,1,0,.14l.09,0a.58.58,0,0,1,0,.14l.28.09v.27h.14a.56.56,0,0,0,.22.28V14l.18.05v.13a2.79,2.79,0,0,0,.37.14c0,.14,0,.13.09.18v0c.08,0,.21-.13.36,0s.13.09.18.24h.09v0h0v0H116c0,.15,0,.07-.13.17s.06.1.13.14v.05c.09-.05.13-.06.18-.14h0v.14c.18,0,.2.07.31.13v-.09l.37-.09v.05l.14,0v0h.17v0h.1v.05l.41-.05v.05h0s0-.09.09-.09l.09.13c.07,0,0,0,0,0a1.34,1.34,0,0,0,.49,0,.9.9,0,0,0,0-.09l.36.13.59,0v-.09a4.89,4.89,0,0,0,.73.17c0-.12-.07-.1-.09-.22l-.18.05c0-.12,0-.09-.09-.14s.16-.1.22-.18h.05v0H120v-.14Z" style="fill:#231815"/><path d="M53.47,13.46c-.09,0,0,0-.09-.05h-.05v0h.14Zm11,.09v0l.27,0,0-.09c.11,0,.17,0,.22,0h.28v.05h.22v0l.23,0v0h.09v.05c.14.06.35,0,.45.09a.71.71,0,0,0,.32-.09.74.74,0,0,0,0-.14c.07,0,.11,0,.19-.09s0,0,0,0c-.15-.06-.11,0-.27,0v-.18c.11,0,.1,0,.18-.1a1,1,0,0,0-.18-.36h-.18V12.6a1.38,1.38,0,0,0-.27-.14c0,.09,0,0,0,.09s0,0-.09,0,0-.09,0-.14h-.1a2.51,2.51,0,0,0,0-.27c-.16,0-.1-.08-.32-.09v.14h0v0l-.22,0a.89.89,0,0,1,0-.32.93.93,0,0,0-.32-.05v-.13c-.26,0-.23.11-.45.13V12c-.1,0-.12,0-.18,0v0H64s0,0-.08-.05a.78.78,0,0,0,0,.14H63.7a2.45,2.45,0,0,0-.09.32l-.13-.05v0l-.22-.05a.26.26,0,0,1,0-.09h-.14v0c-.1,0-.12,0-.18,0s-.4,0-.5.05-.1,0-.13.13h-.32v.05c-.12,0-.11,0-.13.13-.26-.05-.74-.12-.86.09H60.9v-.27c-.12.09,0,.11-.23.14v-.09h-.09v-.09h.09c0-.07,0-.15-.05-.23s.08,0,.05-.09l-.09-.05v0h.14a1.44,1.44,0,0,1,0-.63l.09,0c0-.08-.08-.07-.09-.09s.07-.26.09-.36h.09c0-.14,0-.28,0-.41l-.14,0V10l.23,0V10h-.14a2.45,2.45,0,0,1-.09-.32,1.39,1.39,0,0,1,.32,0c0-.09,0,0,0-.09V9.38h0v0h.13V9.29h.09v0l.23,0v0l.36,0v0l.23.09v0h.09v0h.09V9l.27,0V9h0V9h-.14V8.93h.05v0l.09,0a.41.41,0,0,1,.05-.09c.1,0,.08.06.13.09A1.8,1.8,0,0,1,63,9a.57.57,0,0,1,0-.14h.27v0h.13v0l.23,0v0a.12.12,0,0,1,.14,0l.31,0v.09h.09a.36.36,0,0,0,0-.09h.19V8.79h0v.05l.08,0c0-.13.1-.09,0-.18a.62.62,0,0,1,.36-.18v0h-.13c0-.16.06-.25,0-.36v0a.46.46,0,0,1-.14,0v0c-.09-.07,0-.09-.18-.13,0-.11.05-.12.05-.18h-.05l0-.13c-.13,0-.1-.07-.23-.1v.1h-.17c-.07,0,0,0,0,0v0H63.8a1.21,1.21,0,0,1,0-.14l-.41,0v0h-.18s0,.06-.09,0v0h-.18v.09l-.14-.05v.05h0v0h0a.65.65,0,0,1,0,.13l-.41,0,0,.09h-.1l0,.13h-.27c0,.06,0,.12,0,.18a.59.59,0,0,0-.13.18.26.26,0,0,1-.23-.13s-.16,0-.09,0h.05c-.05.08,0,.06-.14.09s0,0-.05-.09v0l-.17,0v0L61,8.11a.63.63,0,0,0-.14-.27v0H61c0-.15-.08-.16-.08-.32h-.1c0-.14.1-.27.14-.41h0V7H60.9a2.51,2.51,0,0,0,.18-.27c0-.12,0-.24,0-.37a.42.42,0,0,0,.14-.09V6.07l.09,0c0-.07-.08-.07-.09-.1V5.85a1.1,1.1,0,0,0-.36-.1v0H61v0h0a1.16,1.16,0,0,1,0-.18l.13,0c0-.19.09-.16.18-.27h0v0L61.17,5c0-.07,0-.14,0-.19H61a1,1,0,0,1,0-.13h0V4.62h.1c-.11-.12.07-.18.13-.27s-.08-.09-.09-.09H61s0-.06-.08-.09V4.08h0V4h.27V4h0c0-.05,0-.09,0-.14s.08-.11,0-.22h0V3.54h0V3.31h0v0h0v0l-.13,0V3.13h-.23v0h-.09V3c-.16-.06-.24,0-.4,0V3h-.1V2.86a.61.61,0,0,1-.45-.14.36.36,0,0,1,0-.09h-.28s0,0-.09,0-.14.27,0,.37c0,.27,0,.1-.23.18v.05l-.14,0a.22.22,0,0,0,.1.09c0,.16-.07.18-.1.32h.14c0,.05,0,.09,0,.13l.28.09c0,.15,0,.17-.09.23a.37.37,0,0,0,.09.09v.14l.27.13a.76.76,0,0,1-.09.4c0,.06,0,0,.09.06a2,2,0,0,1-.09.35h-.05a1.21,1.21,0,0,1,.05.14c0,.14,0,.27-.05.41h.1c0,.09,0,0,0,.09v0l-.14,0a.41.41,0,0,0,.19.18s-.1.09-.1.09c-.06.16.09.23.1.32l-.14.09c0,.09.1.06.09.18h-.05v.19h.05v.13h0v0h0v.22s-.07,0-.05.09l.1.05v.68h0c0,.11,0,.12,0,.18h0a.27.27,0,0,0,.18.31.41.41,0,0,1-.09.23h0c-.06.16.11.19.13.23a2.51,2.51,0,0,0,0,.27h-.09v.23h0c0,.06,0,0,0,0s0,.1,0,.1,0,.24,0,.36h-.1a.69.69,0,0,1,.05.13h0v.13h0c0,.11,0,.23,0,.28h-.14s0,.06-.09.09,0,.09.09.14a.65.65,0,0,1-.18.4h-.14s-.12.16-.18.14l0-.09h-.08c0,.16,0,.23-.19.28v.08l-.32,0v0a.46.46,0,0,1-.36.05l0,.13h-.19a.65.65,0,0,0,0-.13h0v-.05h0a.43.43,0,0,0,0-.22h0v-.05c-.06,0,0,0,0,.05h-.23l-.09-.19s-.08,0,0,0h.1a.35.35,0,0,0-.1-.09c-.05-.16.13-.26.18-.32a.51.51,0,0,1-.18-.09c0-.14.06-.27.1-.41h0V10.2l-.09,0,.09-.27h0l0-.09h0V9.61c0-.06,0-.13,0-.18h0V9.34h0v-.5h0v-.1h0V8.56h0V8.43h0c0-.09-.11-.06-.09-.18h0c0-.12,0-.14,0-.14s0-.17,0-.22l-.09,0a1.74,1.74,0,0,1,0-.22h0c0-.12,0-.11.14-.14s0-.14,0-.18-.08,0,0-.14.11,0,.09-.13h0c0-.09-.06-.18-.08-.28h0c0-.12,0-.24,0-.36h0c0-.11-.13-.19-.09-.36h0c0-.15,0-.31,0-.46h0c0-.06.06-.12.1-.18h0V5.25h-.05V5h0V4.9l-.09-.06-.09-.27a.78.78,0,0,1-.22,0,.19.19,0,0,1-.05-.09H57v0l-.32-.05-.09-.13h-.14v0a.08.08,0,0,1-.09,0c-.07,0-.11.09-.13.13-.21,0-.17-.17-.37-.23v0c-.12,0-.14.12-.18.14h-.18c0-.11,0-.09-.09-.14V4a.48.48,0,0,0-.14.09h0c.07.11,0,.27,0,.41h.05v.09l.09,0a.57.57,0,0,0,0,.14h.08a.32.32,0,0,0,0,.27h.05s0,.09-.05.13,0,0,.05,0l-.18.1a.41.41,0,0,0,0,.09s.15,0,.13.09a.11.11,0,0,0-.05.08c.18,0,.27,0,.41.14a.42.42,0,0,1,0,.1H56v.08h.09a2.23,2.23,0,0,1,0,.23h0v0s.12,0,.14.13l-.14.1c-.08.14.05.13,0,.31h0V7h0c0,.12,0,.24,0,.36l.08,0c0,.06,0,.12,0,.18H56V7.52c-.13.12-.07.21,0,.41h.09c0,.09,0,0,0,.09a.58.58,0,0,0,0,.14h0v.09l.08,0c0,.08,0,.15,0,.23s0,0,0,.09l-.23,0c.08.26.08,0,.23.14v.05h0v0h0c-.06.22-.05,0-.18.14v0h0V9.2l-.22,0c0,.08,0,.07.14.1-.05.19-.21.25-.37.31h-.13v0a.56.56,0,0,1-.18.05V9.56c-.13,0-.13.07-.18.19h-.05c0-.1,0-.19,0-.28l-.23,0a.74.74,0,0,1,0-.14,4.65,4.65,0,0,0-.78,0l0-.13c-.09,0-.24-.1-.36,0a.73.73,0,0,1-.05.09h-.09a.29.29,0,0,1-.09.19v0a1.2,1.2,0,0,1-.45-.23h-.09c-.06,0,0,0,0,0l0,.09-.23,0a2.23,2.23,0,0,1-.09.23h0c0,.08,0,.15.05.23h0c0,.13,0,.27,0,.41h-.09c0,.2.19.14.09.41a2.49,2.49,0,0,0,.36.13v.09l-.13,0c.06.26.27.12.41.31h.27l0-.09h.32l0-.09c.14-.09.22,0,.27-.22.2,0,.25,0,.32-.1s0,0,.09,0h-.09v-.19a2.85,2.85,0,0,0,.46.1v-.14H55v0h.1L55,10.15a.65.65,0,0,0,.55-.18c.18,0,.13,0,.27.09a.74.74,0,0,0,0,.14l.18,0c.06.22.17.16.36.23,0,.09,0,.18,0,.27h0v.09h0a3.05,3.05,0,0,0,.13.32l0,.09a.07.07,0,0,1,0,.09l-.09,0,.09.37c.12,0,.14,0,.19.13h0a.74.74,0,0,0,0,.14h0v.09l-.09.05,0,.13h-.14v.05a.62.62,0,0,0-.26,0s0,.14,0,.09v0h0v0h0a.36.36,0,0,1,0,.09h0v.1h.09v0l-.22,0v0c-.11,0-.17,0-.23,0a4.22,4.22,0,0,0-.27.36h-.1v.05c-.11,0-.25,0-.31-.05v.05c-.16.06-.31.17-.46,0-.18,0-.21.09-.27.23h-.18v0h0v0H54s0,.1-.09.09l-.05-.09c-.11,0-.21,0-.27,0l0-.09c-.13-.06-.14,0-.28,0v.09h-.09v-.09h-.13c0-.19-.06-.15-.14-.27l-.27,0v0l-.18,0v.14h.09a1.57,1.57,0,0,0,0,.23c-.24,0-.18,0-.32.09a.5.5,0,0,1,0-.23l-.19,0a1.08,1.08,0,0,0,0,.36l.14,0c0,.13,0,.11-.14.14l.23.32c0,.14,0,.12-.09.18a2.14,2.14,0,0,0,.27.45h.09a.29.29,0,0,1-.09.19s0,0,.09,0v.09c.37,0,.55-.22,1-.22a.77.77,0,0,0,0-.37h.28c0-.09,0,0,0-.09v0h0v0H54v0h0c0-.06,0,0,0-.05s.22-.05.41-.09v-.05h0v.05h.37v-.05H55v0h.18l0-.1h.32c0-.05.06-.11.08-.17l.27,0v0H56v-.05a.44.44,0,0,1,.18-.09c0-.09,0,0,0-.09v-.05h.13v0a1,1,0,0,1,.41-.05V13.5c.09,0,.09,0,.09,0h.23a.41.41,0,0,1,.05-.09l.17,0,0-.09.22,0s.05-.07.1-.1v-.22a.54.54,0,0,1,.27.09c0-.09.06-.07.09-.18l.31,0v0h.09a.41.41,0,0,0,.05-.09h0c.08-.13-.07,0,.09-.18v-.05h.18v0c.1-.09.08-.11.14-.23H59c0-.16.16-.18,0-.32v0a1.5,1.5,0,0,1,.32-.1c0,.08,0,.16,0,.23h.09V12h.09l.09.5h.14v0a.5.5,0,0,1-.23,0c.05.07.13.07.18.14h0v0h0v0c-.1,0-.09,0-.09,0h-.23v0h-.09c0,.05,0,.09.05.13a.61.61,0,0,0,.18.05.5.5,0,0,1-.05.13c-.17.05-.14.1-.23.23h0s0,.09,0,.14H59a1.74,1.74,0,0,0,.05.22H59v.05h.05a.78.78,0,0,1,.08.23,2.1,2.1,0,0,1,.55.09.56.56,0,0,0,.05-.18l1.31-.28v0l.5,0v0h.09V13.5h.27v0H62c0,.06,0,.06.09.09v.13h.08s0,0,.05-.09h.32v0h.09l.09-.14.32.05v0h.4v.05l.14,0c.08-.15.1,0,0-.22l.14,0v.09l.23.05v0l.45.05" style="fill:#231815"/><path d="M124.28,3.35v0l.28.05c0,.09,0,0,0,.09v.14h0c.07.24.06,0,.23.12a.28.28,0,0,0,.08.1l-.08.09a.65.65,0,0,0,0,.13l-.14,0v0h0s.14.08.15.09a1.42,1.42,0,0,0-.05.22h.05v.09h0v.22h0V4.9c-.05,0-.05,0-.08.08h-.1v.1l.14,0a2.51,2.51,0,0,0,0,.27v.05h0v.17c-.14.06,0,0,0,.14l.13,0a1.89,1.89,0,0,1,0,.23h0l.18.59.13,0s-.13.07-.13.09,0,.1,0,.14h0c0,.12,0,.1-.14.14a1.33,1.33,0,0,0,.18.31c.13,0,.36.12.45,0h0v.18c.13-.05.06,0,0-.14l.23,0v0h-.14v0c-.09-.14.08-.57-.19-.73,0-.12,0-.15.1-.18v.05h0a.35.35,0,0,0-.09-.23h0a2.8,2.8,0,0,0,.1-.36h0v-.1h0V5.61c0-.1-.14-.17-.18-.31.13-.21.25-.42.37-.63a.43.43,0,0,0-.19,0V4.49a.93.93,0,0,0,.1,0s-.07-.08,0-.18h0c0-.09-.06-.18-.1-.27h0V3.9h0s0-.1,0-.14h0c0-.08,0-.08,0-.08s0-.19,0-.28h0c0-.09-.06-.18-.08-.27l-.1,0c0-.08,0-.18-.05-.27h0v0a.09.09,0,0,0-.14,0h0V2.72h0c-.1-.11,0-.09-.26-.09a1.55,1.55,0,0,0-.05.23l-.27.09a.22.22,0,0,0,0,.08h0V3l-.22,0a.37.37,0,0,0,.13.32" style="fill:#231815"/><path d="M30.54,12.6c0-.22-.09-.24-.19-.36h0a2.74,2.74,0,0,1-.05-.28h-.05v0h-.13v-.05H30v0h0a.07.07,0,0,1-.09,0,.13.13,0,0,0-.09,0v-.09a2.12,2.12,0,0,1-.36-.13c-.07.09-.16.13-.23.22s-.19-.06-.36-.14v0c-.24-.08-.46.15-.63.1v-.05h-.1a.24.24,0,0,0-.09-.08.68.68,0,0,1-.22.26v.05h-.05c-.1-.09-.2-.3-.41-.28,0,0,0,.07-.08,0v0l-.41-.08c-.09,0-.22.14-.37.08v0h-.09l-.09-.14h-.09v-.05l-.46.05v0l-.22,0c0,.12,0,0,0,.14l-.18,0v-.05c-.07,0,0,0,0,.05a.16.16,0,0,1-.15-.05l-.13.05v-.05h0s0-.09,0-.14l.09,0v-.09l.14-.09.05-.14h.08a.41.41,0,0,0,.05-.09c.14-.07.11.06.23-.09h0c0-.06-.07-.17-.09-.23h0c.06-.18.2-.4,0-.54,0-.16,0-.14.14-.18V9.75h0c0-.31,0-.17.14-.32h0a.36.36,0,0,0-.1-.14c.1-.11.08-.07.19,0s0-.18,0-.26h0v-.1h0V8.34l-.09-.05v-.4h0c-.09-.12-.19-.11-.23-.28-.1,0-.13,0-.18,0V7.48c-.08.07-.14.11-.23,0v0h-.09a.39.39,0,0,1-.13-.36h0v0a.1.1,0,0,1,0-.09c.2,0,.43.06.53,0a1.13,1.13,0,0,0,.1-.13h.23v0h.31v0l.23,0V7c.14,0,.38.13.5.09V7h.09V7l.13,0V6.8l.41.09V6.8h.09c0-.13-.11-.22-.13-.32V6.3h0V6.11h0c-.07-.18,0-.21-.18-.26a1.8,1.8,0,0,1-.05-.19l-.22,0v.1l-.19,0V5.61l-.27,0v0l-.36,0c-.07,0-.08-.07-.19,0v0H26.1v0H26v0h-.36l0,.09c-.18.08-.18-.12-.31-.09l-.05.09H25.1v0a1.15,1.15,0,0,1-.49,0l-.55,0V5.71l-.27,0v0H23.7v0h.55v0l.22,0v0c.12,0,.1,0,.14-.14s.12,0,.17-.09h0s0-.12,0-.18h0c0-.07,0-.15.05-.22H25a.92.92,0,0,0,0-.37h-.14l-.09-.13-.13,0a1,1,0,0,1-.05-.41L24.34,4c-.05-.08-.09-.15-.15-.23-.21,0-.58.07-.72-.08s-.1,0-.14-.14l-.27,0,0-.09h-.09v0l-.14,0V3.22l-.27,0V3.13c-.22-.07-.57.08-.73,0s-.19.06-.31.14v0a1.43,1.43,0,0,0,.22.08c0,.14.09.16.23.19v.14c-.21,0-.27,0-.31.17H22v0c.13,0,.11,0,.14.13h.09v.09h.09a1.13,1.13,0,0,0,.1.37h0v.18h.05c.08.09.09,0,.13.17h.09V5l.19,0v0h.27v0l.13,0c0,.16-.08.09-.09.31a.56.56,0,0,1-.23,0v0h.14a1.21,1.21,0,0,0,.05.14h0V5.8h.05s0,.09-.05.13-.11.09-.14.1-.17,0-.22,0V6c-.06,0-.06,0-.09.08s.06.1.14.14v0h-.23v0l-.32,0V6.21h-.09V6.3l-.14,0v0H22a.41.41,0,0,1-.05.09c-.12.06-.25,0-.4,0l-.05.14h-.13a.36.36,0,0,1,0-.09l-.14,0v0a.14.14,0,0,1-.14,0l-.14,0a.36.36,0,0,0,0-.09H20.8a.79.79,0,0,1-.23-.28c-.41,0-.34.07-.59.19a.38.38,0,0,0,.09.09v0l-.22,0a.13.13,0,0,0-.14,0s0,0-.09,0c0,.18,0,.16.05.32s-.08.06-.1.09v0h.05a.28.28,0,0,1-.05.18l.32.14v.09c.13,0,.13.08.23.13v.23a.68.68,0,0,1,.41,0v0h.09v0c.2.06.24-.1.45,0a.79.79,0,0,1,0,.09,2.07,2.07,0,0,1,.24-.09V7.8c.09,0,.11,0,.17,0v0h.32v0h.05l0-.09H22a.41.41,0,0,1,.05-.09h.13V7.52h.05v.05c.1,0,.12-.06.18-.05v.05l.54,0v0h.19a1.1,1.1,0,0,1,.09-.14,1,1,0,0,1,.35-.09.45.45,0,0,1,.1-.22l.77.22h.23v0h-.09v.09l-.19,0v.09c.11,0,.1,0,.19.1V8h-.05v.13h0c0,.11.06.21.1.32s.08,0,.13.09.06,0,0,0h0v.09c-.09,0,0,0-.09,0h0l.13.18h0c0,.07,0,.12-.05.18s-.1,0-.18.09,0,.13,0,.19h0s0,.09,0,.13.14.08.19.14l-.23.14c0,.08,0,0,0,.08,0,.25,0,.32-.13.41h-.09s0,.06-.1.09l.06.23h-.1v.09l-.09,0v.09c0,.07-.2.14-.14.31h0a.44.44,0,0,1,0,.18h-.09a.25.25,0,0,1,0,.09.78.78,0,0,0-.28,0v0h-.18a.57.57,0,0,1,0,.14h-.05a1.67,1.67,0,0,1,.05.18l.32.05v.09c0-.06-.14,0-.18-.05v0h-.05c0,.1,0,.08.09.13v.05c-.09,0-.09-.05-.09-.05H23.2v0a.13.13,0,0,0-.14,0h-.31c-.28.08-.65.12-.82.32a.91.91,0,0,1-.27,0,.63.63,0,0,1,0-.23h.19c0-.09,0-.16,0-.18h0c0-.1,0-.18-.05-.27a.55.55,0,0,0,.23-.1v-.49H22v-.09s-.1,0-.09-.09h0v-.1H22v-.08h.05v-.23c.05,0,.12-.09.18-.14a.41.41,0,0,0-.05-.09h.09a.62.62,0,0,1,.1-.36h0V9.61h.05V9.52h0a.74.74,0,0,1,0-.14l.13-.09v0h0V9.06h-.05a.23.23,0,0,1,.05-.22h0v-.1h.09V8.65c.12,0,.13,0,.19-.13h0c0-.06,0-.12,0-.18h0V8.25h0L23,8.11a.21.21,0,0,1-.09-.18c-.08,0-.07.06-.18.09v.09l-.18,0c-.09.12-.14.09-.18.28-.31,0-.39.11-.28.36a1,1,0,0,1-.41.18c0,.1,0,0,0,.1a3.24,3.24,0,0,0-.41.13c0,.2-.05.2-.14.32h0c0,.08.06.16,0,.18H21v0l-.1,0a2.23,2.23,0,0,1,0,.23s-.07,0-.09.09h-.09c0,.07,0,.14-.05.22l-.09,0v.08h0v.23h-.05c0,.1,0,.19-.05.28h0c0,.14.09.3.14.45h-.1c0,.23,0,.18.1.31l.27,0,.09.22h.27c0,.12.06.1.09.22h-.09c-.06.21-.17.16-.23.37a.51.51,0,0,1-.08-.09h-.09v-.05c-.13,0-.36.15-.5.18a.52.52,0,0,0-.1-.18l-.4.05s0,.09-.05.13c-.22.07,0,0-.14.19h0v0h0l0-.09-.36-.09v0H19v0h-.31a.5.5,0,0,1-.05.13c-.08,0-.18.06-.27.1v-.1a.59.59,0,0,1-.41-.13h-.08v0a.47.47,0,0,1-.1-.09h-.09a.25.25,0,0,1,0-.09c-.09,0-.06,0-.09.05-.27,0-.33,0-.32.27,0,0-.14-.09-.23,0v0c-.07.05-.06,0-.09.14h0c0,.08,0,.18,0,.26s.1.07.23.1,0,.11,0,.18h.09c0,.1,0,.21,0,.31s.07.07.18.05v-.05h.05v.05h0v0H17.4c0,.06,0,0,.05.05v0c.08,0,.14,0,.18,0a.36.36,0,0,0,0,.09h0l-.05.14h.05v0l.09,0a.43.43,0,0,1,0,.22l.14.05v.09H18a.7.7,0,0,1,.1.23h.09v0h.09v0l.22-.14v-.09a.72.72,0,0,0,.37-.09v.09c.08,0,0,0,.08.05.32,0,.39-.21.51-.41a.82.82,0,0,1,.18,0,.79.79,0,0,0,0-.09h.23l.27.05V14a.59.59,0,0,0,.18-.13h0a.42.42,0,0,0,0-.1h0v0l.1,0,0-.13a.52.52,0,0,0,.36-.14l.1.14.22-.05.05-.09h.22a1.13,1.13,0,0,1,.1-.13h.17v0h.1v0h.18v0h.09v0l.95,0v-.05h.14a.3.3,0,0,1,0-.08h.23v0c.05,0,.11-.08.23,0s0,.07,0,0l.09-.14a.87.87,0,0,0,.22.05v-.05a1.49,1.49,0,0,1,.46.1l.58-.14v0h.15a.42.42,0,0,0,0,.1h.09v0l.18,0v0a.56.56,0,0,1,.32,0v0l.41-.09v-.05h.18V13h.14s0,.12.13.09v0h.14a.42.42,0,0,1,0-.1l.68,0v0a.7.7,0,0,0,.18.05v0H28v0h.37v0h.23v.05l.13,0v0l.5-.05v.05h.09a.41.41,0,0,1,.05.09h.09l0,.09h.09v0h.18v0h.09v.05l.54-.05v.05a.43.43,0,0,0,.19-.05,1.74,1.74,0,0,1,.05-.22h-.05a1.65,1.65,0,0,1,0-.59" style="fill:#231815"/><path d="M89.62,10.42h.1c0,.1,0,0,0,.1v0h0Zm.46.64H90V11h.09Zm.08.22-.13,0c0-.09,0,0,0-.09V11.1h.13a1.16,1.16,0,0,1,0,.18m-1-.22.27-.05a.5.5,0,0,1,0-.13h0c0-.08,0-.15,0-.23l.23-.05c0,.1,0,0,0,.1v.13h0v.05c.07,0,.06,0,.08-.05l.23.05v0h-.09V11h-.09c0,.13,0,.11-.13.14.06.12.17.15,0,.27v.05l.4.08v0h.09c0,.08,0,.15.05.23h.09c0,.08,0,0,0,.08v0a.29.29,0,0,1-.14-.13H90v0h0v.14c0,.05,0,0,0,0a.35.35,0,0,0,.18,0,2.51,2.51,0,0,1,0,.27s-.1,0-.08.14h0v.31h0a1.89,1.89,0,0,1,0,.23h0v.13h0c-.08.19,0,.19-.22.23a.26.26,0,0,0,.09.09c0,.16,0,.17-.14.23.14.16.3.14.18.45l.13,0c0,.15,0,.14-.08.23H89.9v.14h-.05l.41.54.27.05v.05c.13,0,.25-.1.22-.28,0,0-.08,0,0-.08s.17,0,.23-.24h0c0-.06,0-.09,0-.18h0v-.13a1.74,1.74,0,0,1-.14-.14l.14,0c0-.08,0-.15,0-.23h.09l-.09-.14s.22-.12.18-.13l-.14-.05v0H91v-.14h.09c-.12,0,0-.23,0-.36h-.09v-.05c.08,0,0-.32,0-.4s0,0-.09,0H91c0-.12,0-.24,0-.36L91,12a.07.07,0,0,1,0-.09h0c0-.05-.1-.22,0-.31h0v-.19h0v-.05l-.09.05v-.05h0v0h0c0-.07,0,0,0-.05V11h0v-.13h0s0-.09,0-.13l-.14,0,0-.09h0v-.09h0V9.93h0v0h0V9.61h0v0h0v-.5h0c0-.11.06-.13,0-.18a.12.12,0,0,1,0-.14l.09,0c0-.12,0-.24,0-.36h.27c0-.14.07-.11.09-.28H91.3c0-.07,0-.14,0-.22l.18,0v0c.17,0,.14-.07.19-.09l.14,0v.17a.19.19,0,0,0,.09,0V8.2a.55.55,0,0,1,.26.18h0s-.1.18,0,.27h0s.46.22.59.14v0c.3,0,.13.11.22.32h0v.09c.12.11.25.21.36.32s-.09.1-.18.14,0,.2.09.27,0,.22-.09.31l-.09.05v.13h0a1.3,1.3,0,0,1-.1.15h-.09v.13a.57.57,0,0,0-.35.23h0v0h.13v0h0c0,.18,0,.14-.1.28h-.08a1.21,1.21,0,0,0,0,.18.11.11,0,0,1,0,.13h0c0,.06,0,.13,0,.19h0v.13l-.23.18v.09h0a1.85,1.85,0,0,1,0,.23h0v.28l-.09,0a.12.12,0,0,0,0,.14c0,.1-.06.19,0,.22h0v.09h0s-.1.09,0,.18h0v0c.15-.07.14,0,.32,0v.09l.09-.05v0h.08v0h0a1.21,1.21,0,0,0,0-.18,1.12,1.12,0,0,0,0-.13h.14a.53.53,0,0,1,.18-.32c0-.12,0-.16-.05-.23h0v-.09h0c0-.11,0-.11,0-.13.12-.28,0-.09.27-.19v0h.14s0-.07.09-.09v-.31c0-.07,0,0,0-.06s-.08,0,0-.08l.22-.14v-.09h0c.08-.17,0-.25,0-.36l.09-.05v-.09h0v0a.57.57,0,0,1,.14,0s0-.09.05-.14h0v-.18l.1-.05c0-.06,0,0,0,0v-.14h0v0h0c0-.06,0-.12,0-.18l.14-.09c0-.08,0-.1.09-.18A.69.69,0,0,0,94,9.15v0h-.28v0h-.08s0-.06-.1-.08V8.7a.66.66,0,0,0,.51-.18h.17v0h.05V8.7h0v0s-.08,0,0,.1l.18.14v.17h0v.09l-.09,0a.74.74,0,0,0,0,.14s0,0,0,.09h-.09c0,.09,0,0,0,.09v.22h-.05v.05a.47.47,0,0,1,.1,0,.65.65,0,0,0,0,.13h.05c0,.09-.07.18-.09.27a.25.25,0,0,0,.09,0c0,.23,0,.46,0,.69h0v.18h0s0,.06,0,.09h0v0h0v.1h-.05v.58h0v.5h0v.1h.05a2.34,2.34,0,0,0,0,.26h0V13h0v0h0c0,.13,0,.27-.05.4h.05v.23l-.14.09v.14h-.05a.49.49,0,0,0,.33.22c-.06.08,0,.06-.14.09a.37.37,0,0,0,.22.14v0c.17-.1.35.05.55,0a.36.36,0,0,1,0-.09h.09v-.05l.14,0c0-.08,0,0,0-.08a.55.55,0,0,0-.14-.41c0-.3.09-.28.14-.5h-.23v-.05h-.05c0-.17.2-.09.09-.26s0-.15-.13-.28h-.09v0h.18v-.09H95.2a2.7,2.7,0,0,1,0-.28h0a.53.53,0,0,1,0-.32h0a1.49,1.49,0,0,1,0-.18h0a1.74,1.74,0,0,1,0-.22h0v-.09h0a.78.78,0,0,1,0-.14h0V11.1h0a1.21,1.21,0,0,1,0-.18h0v-.09h0v-.18h.05c0-.12-.09,0-.14-.09s-.07-.21,0-.27h0v-.1c-.09,0,0,0-.09,0h0a.26.26,0,0,1,.09-.18h.09a.58.58,0,0,1,0-.14h-.09c0-.13.08-.13.14-.22h0a.42.42,0,0,0-.09-.14.33.33,0,0,1,.18-.23,1.11,1.11,0,0,0-.13-.4h0V8.79h.14v0h0a.65.65,0,0,0,0-.13h0V8.38a1.35,1.35,0,0,1,.54.09V8.38c-.09,0,0,0-.09,0h0V8.29h.13v.09H96V8.25l.27-.05c0-.12,0-.1.13-.14V8a.45.45,0,0,0,.32-.09l0-.09.18,0v0h.13v0h0l.09,0h.27v0h0v0h0c0-.08.09-.16.14-.23h0a.3.3,0,0,1,0-.18l-.14,0a.62.62,0,0,0,0-.27l-.26,0V7L97.1,7v.09h-.23a.36.36,0,0,0-.05.09c-.11,0-.21,0-.31,0a.41.41,0,0,1-.05.09H96.1v0H96l-.1.13-.31,0c0-.15-.07-.1,0-.18,0-.11,0-.09-.09-.14v0l-.19,0V7h-.18V6.89h.09c0-.22.05-.35-.13-.45a1.85,1.85,0,0,1,0-.23.8.8,0,0,0,.23-.1l.09-.72c.09,0,0,0,.09,0h-.09a.58.58,0,0,1,0-.14h0V5.12h-.14V5a.53.53,0,0,0,.36-.22v-.1s.07,0,.09,0a1.51,1.51,0,0,0,.09-.18c.07-.09-.07-.25-.13-.37l-.13,0c0-.23.07-.2.17-.32-.1,0-.1,0-.17-.09v0c-.08,0-.29.09-.41,0l0-.08-.18,0-.09-.14h-.14v0l-.63,0c0,.05,0,0,.09.05a.29.29,0,0,0,.18.22v.05h0v0c-.1,0-.11,0-.14-.09h-.13a.42.42,0,0,0,.17.18v0c-.17.09-.26-.1-.4.09h0V4l.23,0s0-.08.09,0v0c.12,0,.1,0,.13.13l.28,0a.36.36,0,0,0,.22.27.38.38,0,0,1-.09.18h0a1.85,1.85,0,0,0,0,.23l-.1,0s0,.1,0,.14h0V5.3h.08v.18h0s0,.09,0,.13h0l-.09.28h0v.22h0a1.24,1.24,0,0,1,0,.33h-.14v.09h.09a.87.87,0,0,0,0,.36h-.09v.05c.08,0,.06,0,.09,0h-.09a1.16,1.16,0,0,0,0,.18h0V7.3h0v0h0v.09h-.05a.74.74,0,0,0,0,.14l-.14,0v0c-.31,0-.24,0-.32.27a1.4,1.4,0,0,1-.45-.13V7.8c-.18,0-.19,0-.23.13-.15,0-.09-.06-.18-.13a.35.35,0,0,1,0,.13h-.26s0-.1-.1-.09v0l-.08,0-.14-.22-.14,0V7.57l-.09-.05c0-.06,0-.19-.09-.22s-.14,0-.18,0V7.16h0a1.16,1.16,0,0,1,0-.18l-.09,0V6.85h0v-.1H91.7l0-.13h-.24c0-.13-.08-.14-.13-.23-.22,0-.23.08-.45.09V6.39h0L90.8,6h.14a.9.9,0,0,1,.13-.28c.09-.07.31,0,.41-.09v0l.09,0V5.35a.43.43,0,0,0,.1-.1h.18c0-.12,0-.1.13-.13a1.21,1.21,0,0,0,0-.14h0c0-.08,0-.06,0-.09v0h0V4.71h0c0-.15-.08-.18-.28-.18,0,0,.05,0,.1-.09l-.33-.23a.79.79,0,0,1,0-.09l-.23,0v0H91v0L90.85,4l-.23.31-.13,0c.07.17,0,.1,0,.18a.06.06,0,0,1,0,.09l-.09,0v.09l-.09,0v0a.71.71,0,0,1-.14.1v.14a.36.36,0,0,0-.09.09H90c0,.12,0,.1-.13.13,0,.2,0,.15-.1.27h0c-.06.07.08,0,.09,0v0c-.11.06-.15,0-.18.19s0,0-.09,0,0,.23-.09.41h0a2.56,2.56,0,0,1,0,.27c-.09,0,0,0-.09,0h0v0l.18,0v0h0v0c.09,0,.09,0,.09,0h.22v0H90c0-.08-.07-.08-.09-.18a.48.48,0,0,0,.31-.28c.13,0,.17,0,.23,0h0c.05,0,0,.09.13.14v.22h-.05a1.63,1.63,0,0,0-.08.37h0c0,.14-.12.18-.18.31h-.19v.09c.13,0,.11.06.23.09v.09H90.3c0,.19-.07.06-.14.14s.08.11,0,.18L90,8.34l-.23,0a2.23,2.23,0,0,1,0,.23h-.13c0,.06,0,.12,0,.18h0l.09.27-.28,0c0,.17,0,.08-.13.18h-.05a2.51,2.51,0,0,1,0,.27h0v0H89V9.7h0l0,.09-.1,0V10h0a.27.27,0,0,1-.23.13v.45l-.18.1v.09c0,.05-.12,0-.22,0s0,0,.09.05a1.47,1.47,0,0,0-.13.59l-.14,0c-.06.27-.26.33-.32.59l.18,0v.14c.09,0,0,0,.09,0l-.13,0v.09h-.09v.13h0v.06H88v0c.25,0,.34-.12.27-.32h.09v-.09c.2-.06.07,0,.13-.18h0l.05-.14h.08s0-.09,0-.14h.09c0-.05,0-.11,0-.21h.09a.35.35,0,0,1,.32-.33c0-.07,0-.15,0-.22" style="fill:#231815"/><path d="M96.28,3.9a3.91,3.91,0,0,0,.23.91c.09,0,0,0,.09,0h0V5a1.45,1.45,0,0,0,.41.1v.09h.09v.08c.24-.06.12-.14.23-.22h.13V5h0v0h0c0-.12,0-.1-.13-.13,0-.1,0,0,0-.1v0h.18v0h0c0-.14-.09-.09-.14-.13v0a.29.29,0,0,0,.23-.18l-.13,0v-.1l-.23,0c0,.09,0,0-.05.09s0,0-.08,0a.63.63,0,0,1,0-.42c-.09,0-.18,0-.27,0v0h-.14v0h-.27a1.1,1.1,0,0,1-.09-.14l-.23,0s0,.1,0,.14h-.09c0,.15.07.23.22.27" style="fill:#231815"/><path d="M94.11,3.8H94c0,.06,0,0,.09.05Z" style="fill:#231815"/><path d="M83,11.42h.09v-.05c.08,0,.08,0,.09.05a.6.6,0,0,0,.41-.09h.19v-.05l.17,0v0h.23v0h.09l0-.09.13,0s0-.1.09-.09a.13.13,0,0,0,.14.05.47.47,0,0,1,0-.1h.13v0l.14,0a1.85,1.85,0,0,1,0-.23h0c0-.2,0-.23-.19-.28s-.09-.11-.13-.26,0,0-.09,0,0,0,0-.09h-.09v0h0V9.7h0V9.56h0V9.2h0a.78.78,0,0,1-.05-.14.21.21,0,0,0,.09-.18h-.09V8.7h0s.09-.18,0-.27h0v0h0v.14h0v0H84a2.87,2.87,0,0,1,0-.31h0V8.2h0l0,.14h0v.18l-.09,0v.09h0v.09h0v.1l-.14.09v.13h0c-.06.19.11.22.09.37h0a.28.28,0,0,0,0,.27h.09a.6.6,0,0,1-.09.13l.09.05c0,.06-.09.06-.09.09a.78.78,0,0,0,0,.14c-.12,0-.1,0-.18.09a1.8,1.8,0,0,0-.06.22h-.13s0-.08-.09-.09l0,.09a.47.47,0,0,1-.32-.05v.1l-.27-.05v.05h-.09v0h-.37v0H82s-.07-.16-.14-.14v0c-.19,0-.23,0-.27.15h-.13c-.05-.16-.11-.12-.14-.28h-.42v0c-.13-.09-.06-.09-.22,0-.05-.11-.11-.15-.13-.27h.09a.5.5,0,0,0,0-.13h0c0-.07.08-.2,0-.32h0V9.24h0V9.15l.09,0a.3.3,0,0,1,0-.1h0c0-.08-.13-.07-.09-.22h0V8.7h0c0-.11,0-.21,0-.32h0v0h0l.09-.28h-.05V8h.09V7.93h-.09c0-.07,0-.15,0-.22l.09,0-.05-.09.19-.05c0-.1,0-.12,0-.18h0V7.21l.08,0a2.25,2.25,0,0,0,.05-.22l.18-.14V6.66l.18-.13c0-.09,0-.19,0-.28s.1,0,.13-.14h.05c0-.05,0-.11-.05-.18h0c0-.07,0-.15,0-.22s0,0-.09,0h0l0-.09A1.55,1.55,0,0,1,81,5.3h0V5.17c-.25,0-.34,0-.45.13a.25.25,0,0,0,0,.09h0v.05a3,3,0,0,0-.77-.09.69.69,0,0,0,0,.13h-.18l0-.09c-.06,0-.09.05-.09.05s-.09-.05-.09-.05-.15.05-.23.09v0s-.09,0,0-.05h.09c.08-.08,0-.15.09-.27h0c0-.07,0-.15,0-.22h-.09V4.84h.14c0-.06,0-.14.09-.22h0c0-.07-.12-.11-.13-.13V4.4c-.24,0-.18.08-.41.09,0,0,0,.08,0,.13-.16,0-.18.07-.33,0v0h-.08v0h-.14l-.09-.13s-.22.11-.32.13v.14l.14,0c0,.14.08.16.09.32h.09c0,.09,0,.18,0,.27h0l0,.14h0v.09h0s0,.08,0,.13h-.18c0,.13-.08.13-.14.23h-.49s0-.11-.14-.09v0l-.28.08c0,.1,0,0,0,.1v0L76.8,6V6a.58.58,0,0,1-.32,0v0h0v.09h0c0,.08.13.16.18.18s0,.09-.09.14a.47.47,0,0,1,.13.37c.13.05.21.07.28.18a1.06,1.06,0,0,0,.5-.23l.09-.14c.16-.07.27,0,.41-.09H78v0h0v.13h.13v.19h0V7h0v.09H78l.14.18h0v.09h-.19v0h0c0,.11,0,.21,0,.32a.83.83,0,0,1-.45-.14c-.11,0-.09,0-.14.09h0s0,.09,0,.14-.15,0-.18.18a1.21,1.21,0,0,1-.18-.05l0-.09-.24,0a.3.3,0,0,1-.08.17h0a1.05,1.05,0,0,1,0,.19l-.13.09c0,.06,0,.12,0,.18h0v0h.09v0l.14,0v0h.08v0c.07,0,0,0,0,0a.23.23,0,0,0,.19-.09h0v.18l.13,0,.41.23c0,.14-.09.27-.13.41l.09,0v.19l-.23,0v0h0c0,.08,0,.16,0,.18l-.09,0v.28h.09c-.07.26-.19.1-.27.22v.18h0c0,.25.13.26.17.46l-.27,0v.05c-.32.18-.07.18-.14.4,0,0,0,0,0,.09h-.09v.05h0c0,.05,0,.09,0,.14h-.14v.13a.62.62,0,0,1-.27.05c0,.06,0,0,.1.09a.73.73,0,0,0-.05.09c-.23,0-.17-.13-.36-.18,0,.13-.08.13-.14.22l-.4,0V12l-.18,0,0,.1c-.16,0-.24-.13-.31-.14a1.44,1.44,0,0,1-.23,0c0,.1,0,0-.05.1A1.63,1.63,0,0,1,74.4,12l-.27,0v0c-.22-.05-.42,0-.55-.13-.23.07-.12.21-.4.27v.09a.22.22,0,0,0-.19.14h0c.08.15,0,.09,0,.18l.09,0a.93.93,0,0,0-.05.1h.09v.13c.06,0,.07-.09.14-.13.06.13,0,.18.18.22s.34-.2.64-.09v.05h.09v0l.13,0v-.13a.46.46,0,0,0,.23,0v0c.13-.06.35.07.45.09a.27.27,0,0,1,.23-.23.64.64,0,0,1,.36-.09.36.36,0,0,0,0,.09c.06,0,.34-.09.5,0,0,0,0,.06.13,0v0c.06,0,.07.07.18,0v0h.14v0h.36v0H77v-.05l.55,0a.19.19,0,0,1,0-.09c.1-.05.12,0,.18,0v0h.18v-.05h.27v0h.09l.14-.19h.23c.14,0,.23-.11.4,0v0h.09v0a.81.81,0,0,0,.42,0v0h.27c0-.11,0-.09.08-.14a.43.43,0,0,0-.08-.27l-.14,0c0-.07,0-.11-.09-.19a.77.77,0,0,0-.36-.13v.09h-.19c0-.09,0,0,0-.09V11.1c-.1,0-.26.05-.36.1v0a.45.45,0,0,1-.37-.09,1.16,1.16,0,0,1-.36.22v.05h-.09a.36.36,0,0,0,0,.09h-.27v0c-.26,0-.3-.06-.37-.23l.14,0v-.1c-.09,0,0,0-.09,0h-.1s.18-.13.19-.14v-.13l.18-.14a.41.41,0,0,0,0-.09h.1v0l.18-.15c0-.13,0-.12-.1-.17v-.09h0a.62.62,0,0,1,.14-.18v0h.09a1.16,1.16,0,0,1,0-.18.08.08,0,0,1,0-.09h0V9.52h0c0-.06,0-.08,0-.18l.41-.05,0-.14h.13v.14s0,0,0,.05h.18V9.29h0v.05a.72.72,0,0,0,.31-.05c0-.13.07-.14.18-.18V9h0a.58.58,0,0,0-.14-.17V8.79h-.09v0l.32,0v0h0s-.13-.08-.13-.09,0-.21,0-.31a.58.58,0,0,1-.27-.14l0-.09h-.22v.05l-.14-.05c0-.07,0-.15,0-.22h0a.78.78,0,0,1,0-.14h0c0-.09,0-.18,0-.27h.09a.82.82,0,0,1,0-.18h0V7.16c.09,0,0,0,.09,0s0-.3,0-.5.1-.18.18-.28l.13,0a1.14,1.14,0,0,0,.1-.19h.63a.13.13,0,0,1,.14,0v0h0a.2.2,0,0,0,.08,0,.1.1,0,0,0,.09,0,.49.49,0,0,0,.19,0v0h.13v.14h0c0,.06,0,0,.09,0s-.07.18-.09.27h-.14a.48.48,0,0,1-.09.14c0,.17,0,.21.14.27a2.16,2.16,0,0,1-.05.32c-.19,0-.15.06-.27.13v.28h0a.07.07,0,0,0,0,.09c0,.09,0,.18,0,.26h-.15s0,.1,0,.14h0v.23h0v.09h0a.3.3,0,0,0,0,.18c-.09,0,0,0-.09,0h0a1.93,1.93,0,0,0,0,.27l-.09.05,0,.14c.11.09.11.24.23.32a1.56,1.56,0,0,1-.13.13,1.85,1.85,0,0,0,0,.23l-.09,0s0,.09,0,.13h0a2.51,2.51,0,0,0,0,.27c.15,0,.08.06.18.14v0c.08,0,.13,0,.17,0v0c.1,0,.08.07.23.08,0,.17,0,.19.14.23a.35.35,0,0,1-.05.18.72.72,0,0,1,.23.23c.15,0,.13,0,.23-.09V11.1h0v.05h.19V11.1l.4.05a1.12,1.12,0,0,1,0,.13l.18.05v0h.27v.05l.81-.05v.05h.09v.05l.1-.05a.12.12,0,0,0,.13.05Z" style="fill:#231815"/><path d="M97.46,5.89h-.14s.07,0,.1-.09-.13-.12-.14-.27h0v.22l-.32.1a.48.48,0,0,0,.13.22h0a1.85,1.85,0,0,1,0,.23c0,.11.15.18.18.32a.34.34,0,0,1,.28.13,3,3,0,0,0,.73-.22h.17v0h.18v0h0v0H99l.36-.18V6.11a.85.85,0,0,0,.5,0v0l.27,0v-.1a2.58,2.58,0,0,0,.32-.18v0l.28,0v0h.17a1.1,1.1,0,0,0,.09-.14h.28s0,0,.09,0a.42.42,0,0,0,.09.19h.18a.41.41,0,0,1,.05-.09h.08a.57.57,0,0,0,0-.14l.27,0,.05-.14H102V5.3h.13l0-.13h0c0-.36-.3-.31-.44-.55l-.6,0V4.49h0v.18H101c-.13.07,0,.15-.27.17V4.76c-.2,0-.41-.09-.55,0s-.09,0-.13.13h-.36s0,.09,0,.14h-.09v.09l-.36,0v.14H99.1v0h0c0,.09.06.07.09.18l-.5.09v0h0a.58.58,0,0,0,0,.19h0v.09h-.22v0c-.2,0-.16,0-.27-.08v-.1h-.18V5.66c-.13,0-.11,0-.15.14l-.31,0Z" style="fill:#231815"/><path d="M97.19,5.44v0h0v0h.1c0-.09,0,0,0-.09" style="fill:#231815"/><path d="M102.71,8.38s0,.06.14.09v0H103c0-.18,0-.17.1-.32h.09l-.09-.54a1.67,1.67,0,0,1-.18-.05v0h-.19a.37.37,0,0,0,0-.14h0v0h0s0,.06-.09.09v0l-.18,0-.09,0v0c-.1,0-.13.05-.18,0v0l-.41-.09v0h-.18v0h-.13v0h-.1v.05H101v0a.51.51,0,0,1-.31,0V7.43l-.19.05v0c-.13,0-.25-.07-.36-.09V7.34c0,.1-.24.09-.36.09a.41.41,0,0,1-.1.28h-.08l0,.09h0v0a1.15,1.15,0,0,0-.36,0c0,.09,0,0,0,.09V8H99c0,.11,0,.21-.08.32s-.28-.12-.37-.09v0a.31.31,0,0,1-.17.05.73.73,0,0,0,0,.36l-.14,0a.78.78,0,0,0,0,.14c-.11,0-.13,0-.18,0v0l-.14.05c0-.19-.12-.12-.13-.37h-.27v.09h0V8.47l-.13,0V8.34h-.19V8.29c-.28,0-.16.12-.23.32-.18,0-.15-.09-.31-.14l-.14.23c-.05.06,0,.15,0,.32l.18,0c0-.14-.06-.12,0-.22s.15,0,.27,0c0,.19,0,.05.14.14s0,.06.09.08v.09a.65.65,0,0,1,.18,0v.05c.1,0,.12,0,.14-.05h0v.05h.4V9.2c.11,0,.13.06.19.05V9.2l.18,0V9.06l.23,0V8.93c.18,0,.16.09.26.18v0h.06v0h.09s0-.09,0-.13h0V8.93h.28c-.13-.12.18-.13.32-.14v.14a.58.58,0,0,1,.36.27h0a1.62,1.62,0,0,0-.1.18l.1,0v.13h0v.09h0V10h0c0,.17,0,.33,0,.5h0v0l.14,0c0,.17-.06.33-.1.5h0c0,.09.06.18.09.27l-.09,0v.1h0s.13.44.14.49,0,.33-.05.5h.05v.14h0v.09h0l-.09.4-.09.05c0,.13.12.21.09.36h-.05v.32h0v.09h0V14h0v.09h0v.22h.05v.19h-.05v0H100a.51.51,0,0,1-.41.36.44.44,0,0,1,0,.37c-.13,0-.11-.06-.23-.09v-.09h-.13a2,2,0,0,0,0,.26h-.14c0-.1,0-.09-.08-.17l-.23,0v.05a1,1,0,0,1-.54-.09c-.16-.05-.27,0-.37,0v.09l.14,0v0h0v0c-.07,0-.29.17-.37.14l-.08-.14H97.6v.14h.09a.24.24,0,0,1-.32,0h-.05a1.74,1.74,0,0,1,.05.22h-.18v.14l.13,0v0h.14v.05h.14l0,.09h.22v0H98v0h.14v.05c.2.05.29-.2.58-.13v0c.11,0,.14,0,.14,0h.5V16h.18l.09.13.41,0c.14,0,.09.07.13.09l.46-.05v0l.08,0,.1-.17h.09v-.1l.27.1v0l.14,0v-.1h.09c0-.15,0-.16.09-.22s0-.15-.18-.18a1.14,1.14,0,0,0,0-.45h0c0-.13,0-.25,0-.37s0-.09,0-.13h0c0-.11,0-.21,0-.33h0v-.31h0v-.18h0c0-.08,0-.08,0-.09v-.72h0a.34.34,0,0,1,0-.14h0V12.6h0v0h0c0-.09,0-.09,0-.09v-.27h0l0-.09h0v-.23l-.14-.09v-.54H101a.51.51,0,0,1,.13-.36h0a.78.78,0,0,0,0-.14h0v-.18H101c0-.06.05,0,.05,0v-.15H101a.79.79,0,0,0,.05-.22H101V9.79h0V9.7H101V9.61l.09,0c0-.07-.09-.06-.09-.09a.07.07,0,0,1,0-.09.07.07,0,0,0,0-.09c0-.14.06-.15.09-.23L101,9c0-.12,0-.24,0-.37s.09,0,.18-.09V8.38l.23,0V8.29l.4.05V8.29l.33,0v0l.44.05v0Z" style="fill:#231815"/><path d="M121.84,10.56A.56.56,0,0,0,122,11v.05s.13-.09.22-.05l0,.09.51-.09a.34.34,0,0,1,.09-.18h0a1.49,1.49,0,0,0,0-.18c.08-.12.18-.08.23-.28h0a1.21,1.21,0,0,0,0-.18c.13,0,.1,0,.14-.13s.13-.08.23-.13.09-.2,0-.32h0a.32.32,0,0,1,0-.18.29.29,0,0,0,.27-.23h.05c0-.12-.12-.14-.14-.19s0-.12,0-.17-.07,0-.09-.1l.13,0V8.61a.44.44,0,0,0,.28-.14c.08,0,0,0,.08,0l-.08,0v0h-.19s0-.09,0-.14l-.09,0V8.16a.76.76,0,0,0-.46-.14c0,.1,0,.13-.09.18v.05h0c-.13-.12,0-.2-.27-.23a1.32,1.32,0,0,0,0,.32l-.23-.05v.05h-.18a1.16,1.16,0,0,1,0,.18h-.09V8.7a1.65,1.65,0,0,1,.22.09c0,.21,0,.33-.22.36a.67.67,0,0,0,.22.19v.22l-.13,0a.68.68,0,0,1-.14.31l-.09.05v.54h-.14a.6.6,0,0,1,0-.18c-.13.15,0,.24-.28.28.05,0,0,0,.1,0" style="fill:#231815"/><path d="M133.53,12.78v0c.23,0,.16,0,.27.14l.09,0v.14h0v0l.23,0v.14h.05v0a.08.08,0,0,1,.09,0h.32l0,.09.14,0a1.06,1.06,0,0,1,0,.18h.08v.05c.06,0,.21-.11.23-.14s-.11-.07-.14-.09v0a.89.89,0,0,1,.32,0c-.06-.15,0-.16,0-.31l-.13-.05a1.85,1.85,0,0,1,0-.23h0c0-.14,0-.3-.05-.45H135v0h-.41l-.09-.18h-.77v0h-.41v-.05h-.09v0l-.68,0v0h-.14v-.05h-.63v0a.58.58,0,0,0-.32,0,1,1,0,0,1,0-.13c-.28,0-.45.1-.77.1,0-.07,0-.13,0-.19s-.18,0-.22-.18l.41,0a2,2,0,0,0,.13-.37l.45-.13v-.1c.18,0,.13,0,.28-.08s0-.25,0-.37h.18v0l.23,0A.49.49,0,0,0,132,10c0-.08,0-.15.05-.22s.12-.1.27-.14.13-.21.18-.32V9.15s.07,0,0-.09l-.09,0V8.93l-.49,0c0-.07,0-.15-.05-.23l-.27,0v0l-.23,0s0-.09,0-.14h-.54v0h-.14v0c-.16,0-.15.08-.18.09l-.23,0v.09h-.23v0c-.17,0-.23,0-.31.09a1,1,0,0,0,0,.1h-.18l-.18.22-.41,0a.3.3,0,0,1,0,.18l-.26.05V9.29h-.19s0,.05-.08.05l-.14-.05v.05h-.23v0a.38.38,0,0,1-.27.09c0,.18-.06.07-.14.18h0a.5.5,0,0,1,0,.23c-.22,0-.11,0-.32-.05v0h0v0l-.31.05c-.07.15-.11,0-.23-.09v.09h-.14a.5.5,0,0,0,0-.13h.09c0-.16,0-.14-.09-.23h0v0l-.14,0c0-.09,0-.28-.09-.37h0v0l-.14,0a.79.79,0,0,0-.13-.31V8.79H126a.78.78,0,0,0,.05.14h0V9h0v.27h.09a.49.49,0,0,1,0,.23h0c-.07.17.08.2.09.23V10h.09l.09.32h0c0,.1,0,.11,0,.18l.09,0v.08h0v.1h0a.9.9,0,0,0,0,.09l.13,0c0,.13.09.27.14.41.32,0,.45-.19.86-.18a2.62,2.62,0,0,0,.27-.59h.41l.09-.14.36-.09v-.09h-.09v-.09h.14v0h0V9.93H129l-.09-.18a1.89,1.89,0,0,1,.36-.1V9.56h-.1V9.47l.33,0V9.34c.16-.05.14-.1.22-.23l.09,0s0-.08,0-.13a1.32,1.32,0,0,0,.54-.09.48.48,0,0,0,.14.09.2.2,0,0,1-.09.09v0a3.21,3.21,0,0,1,.36-.08,2.81,2.81,0,0,1,.08.31h.1v.05h0v.18l-.1,0a1.85,1.85,0,0,1,0,.23h-.05v.09h0l0,.09-.13.09v.14l-.09,0v.13h-.06a.31.31,0,0,1-.21.15.93.93,0,0,0,0,.13c-.14,0-.16.1-.32.14v.09l-.18-.05v.05h-.22v-.05H129s0,.06,0,.09h-.09a1.93,1.93,0,0,1,.09.41c.09,0,0,0,.09-.05s.19.07.31.14c0,.13,0,.1-.14.14v0h.19v0h0a.5.5,0,0,1-.13.19c-.16.15-.34,0-.59.09v0l-.27,0v0h0v.14a.78.78,0,0,1-.5,0s0,.16,0,.18l-.09.09h-.32s0-.06,0-.09h-.13v0c-.11,0-.17,0-.23,0s0,0,0,0v0h-.09a.1.1,0,0,1,0,.14l-.14-.05c-.06.07.06.07-.09.18v0l-.14,0v0h-.09v.05a.26.26,0,0,0-.09-.05v.05h-.27v0h0a.41.41,0,0,1-.05-.09h-.22v.05a.92.92,0,0,1-.42-.05v.09h-.08c-.06,0,0,0,0,0a1,1,0,0,1,0,.1l-.73.13v.09c-.11,0-.1-.05-.18-.09v-.09h0c0,.09,0,.05,0,.09a.55.55,0,0,0-.13-.18v-.09h-.18c0,.11,0,.08.1.14V13h0v0c-.15,0-.16-.12-.27-.18s0,0,0-.1a.93.93,0,0,0,0,.23h-.14v.13h0c0,.12-.08.21,0,.37l.09,0v.18h0c0,.1,0,.12.09.19v0h.14v.14l.35-.09v.09l.14,0v0l.23,0c.07,0,0,.07,0,0a.64.64,0,0,0,.1-.13h.09v0c.08,0,.29.13.41.09a1,1,0,0,0,.08-.14h.15v0a.62.62,0,0,1,.36-.1l0-.13a7.25,7.25,0,0,0,.86-.18,2.23,2.23,0,0,0,0-.23l.23,0s0,.06.1,0v0h.09v0h.17v-.05h.09v0a.45.45,0,0,1,.28,0l.09-.13H128v-.05c.14-.05.15,0,.31,0v-.13l.59,0c.1,0,.14,0,.18,0v0h.13v0l.51,0c0,.32.18.32.17.73h.1v.18h-.14v0h0a.78.78,0,0,0-.05.14c.08,0,.07.06.18.09a.78.78,0,0,0,0,.14l-.14.08a1,1,0,0,1,0,.14h0v.14h0v.23h-.05v0h.05V15h0c.05.18-.06.3-.09.45h-.13a.35.35,0,0,0-.05-.18h0v-.05h-.05v.13h-.14c0,.13,0,.16-.18.19v.13a.57.57,0,0,1-.36-.09h-.22a.36.36,0,0,0,0,.09h0v.18h-.05v0l-.45,0v0H128v0c-.24-.08-.51.12-.73.14v-.09l-.46,0a.55.55,0,0,1-.09.14h-.22v0h0v0l-.22,0v0c-.18,0-.2.07-.23.23l-.18-.05v-.09h0c0,.32.24.4.36.63l.27.05v.05h.27v0h.09a.36.36,0,0,1,0,.09h.78v0h0v0h.13v0h0s0,.11.14.08.18-.18.36-.13v.05h.14v0l.82,0v-.08h0v0l.13,0v0l.14,0v0h.05v0l.22,0c.05-.19.08-.06.14-.13a1,1,0,0,1,0-.19h0v.14l.23.05v.09c.18,0,.17.1.27-.05a.45.45,0,0,1,.35.22l.15,0v0c.05,0,0,0,0,0h0v0c.22-.06.06,0,.13-.22h.05V16.4h0v-.13h0c0-.09,0-.09,0-.09l-.09-.41-.13-.09c0-.08.08-.08.08-.09a.45.45,0,0,1,0-.23s.08,0,0-.09l-.08,0v-.05h.18c0-.13-.06-.28-.1-.4h0v0h0v-.32h0v-.5s-.12-.28-.09-.36h0a.68.68,0,0,0,0-.23H131a2.56,2.56,0,0,1,0-.27h0a1.49,1.49,0,0,1,0-.18h.13v0c.11-.11.07-.19,0-.32s.09,0,.09,0h.46v0l.27-.05v0c.13,0,.13.1.18.13l.09,0h.13v-.05h.14v.05h0v.13l.19,0v.05h.18v0l.18,0v0a.07.07,0,0,0,.09,0c.09,0,.2.11.32,0" style="fill:#231815"/><path d="M97.24,13.14v0c.16,0,.15,0,.22.13a1.21,1.21,0,0,0,.41,0v-.19h0v0h0s0-.09-.05-.14l.14,0A2.56,2.56,0,0,1,98,12.6h-.14c0-.09,0-.17-.05-.27h0V12h0c0-.12,0-.1-.13-.14v0l-.18,0v.05h-.14c0-.09,0-.18,0-.28a.29.29,0,0,1-.1,0c0-.09,0-.16,0-.24h0v-.13a.19.19,0,0,0-.09,0c0-.1,0,0,.09,0l-.27-.32A.27.27,0,0,1,97,10.6c0-.12,0-.13-.09-.18h-.09v-.05h0V10h0v0c-.13-.1-.11.07-.18-.14h-.09v0c.06,0,.06-.13,0-.19l-.09,0a.9.9,0,0,0,0-.09h0V9.29h0V9.15c-.07-.17-.12-.31-.32-.36v0l-.14,0v.05l-.09-.05c0,.13-.19.46-.13.59l.13.09v.28h0v.08h0V10l.14,0c0,.07,0,.14,0,.22h-.09c0,.15.07.3.09.45l-.13.05a1.16,1.16,0,0,1,0,.18.8.8,0,0,1,.19.05v-.05h.09c0,.16,0,.21-.09.27a.37.37,0,0,0,0,.18h.18l.09.28h0v.49a.1.1,0,0,1,0,.14l-.09.05c0,.07,0,.14,0,.22l.31.19v.08l.14.1c.1.2-.12.31.18.4v0l.28-.14" style="fill:#231815"/><path d="M41.87,13v-.1l.13-.08a.07.07,0,0,0,0-.1.35.35,0,0,1,.13-.31v-.05s.11.09.19.05v-.05h0v-.13l.18,0a.36.36,0,0,1,0,.09h.05v0H43v0H43v0h.09a.2.2,0,0,1,.06-.09l.26,0v.05l.19-.05a.91.91,0,0,1,0,.27H44v0l.14,0v0a.4.4,0,0,0,.18,0v.23h.14a.61.61,0,0,1,0,.27h.09s0,.18,0,.09,0,0-.05-.05a1.22,1.22,0,0,0-.1.23H44v0h0v0l-.27,0v0h-.19v0c-.13,0-.08.07-.13.09a.67.67,0,0,1-.41,0,.88.88,0,0,1-.54-.09v-.09l-.13-.05v.05h-.05l0-.09c-.06-.06-.18,0-.31,0m0-1.14h-.36v0l-.27-.08v.08l-.14,0a.14.14,0,0,0-.14,0v0a.71.71,0,0,1-.4.05s0-.07,0-.1c-.16,0-.08.09-.13.1s-.06-.08-.09-.1h-.09c0-.13-.08-.1-.09-.13s.16-.22.18-.27-.2-.23-.05-.41v-.09l.32-.18v0l.18,0,.09-.13H41v0h.09V10.6h.09a1,1,0,0,1,.55-.13v.09c0,.08.33.09.49,0v0a1,1,0,0,1,.41,0c0,.1,0,0,0,.1s0,.1.13.13c0,.41,0,.45.32.5v.09h-.18v-.05l-.41.05c0,.05,0,.09,0,.13l-.32.06v-.06h0v.06a.78.78,0,0,1-.18.08s0,0-.09,0Zm2.77,3.81v.13h0v0a.06.06,0,0,0,.09,0c.11,0,.12,0,.18,0s0-.2.18-.14l.05.09.18,0a.73.73,0,0,0,0,.09h.13V16c.11,0,.18-.05.23-.05V16l.41,0v0h.36v0h.09v0h.18l.18.23c.18,0,.37-.06.54-.09s.05-.1.09-.18a1.45,1.45,0,0,0,.55,0v-.13s.1,0,.09-.1h-.05l0-.13h0v-.14h0v0s.06,0,0-.1h0v-.17s-.06,0-.09-.14h-.09v0c-.11-.1,0-.12-.23-.15a1.44,1.44,0,0,1,0,.33h-.26v-.05h-.1v0l-.32.09v-.05H46.8v0l-.22-.05v0c-.08,0-.17.08-.32,0v0L45.94,15V15h-.13v0h-.59l0-.08-.27,0v0h-.72v0h0v0c-.14,0-.08.08-.13.1L43.72,15V15L43.23,15V15L42.91,15V15h-.09v.05c-.16,0-.27-.18-.36-.19a1,1,0,0,1-.18,0,.38.38,0,0,0-.14-.36v0H42c0-.11,0-.12,0-.18h0s0-.22,0-.32h.32a.65.65,0,0,1,0-.13c.16,0,.18.06.32.09v-.09h.4v0h.23v-.05h0v.05h.08l.1.14c.17.1.24,0,.46,0a.33.33,0,0,1,0-.13l.22,0V14l.15-.05a1,1,0,0,0,.08.14l.27,0v0l.41-.13v0h.09v-.05l.27.09.05-.09h.13v0h.1s0-.07.08-.1v-.13l-.18-.14v0s-.09.07-.18,0a3,3,0,0,0-.36-.13.78.78,0,0,0,0-.14c-.2-.07-.44-.13-.63-.22v-.14a.43.43,0,0,0,.36-.32c-.09,0,0,0-.09,0h-.09l.05-.14h-.05v0h.05a1,1,0,0,0-.05-.36l-.09,0v-.14l-.13-.09v-.08l-.09-.06v0l-.19,0v-.05L44,11.24v-.09c.09,0,0,0,.09-.05l-.32-.22a.26.26,0,0,0-.05-.09h-.08v0h-.09v0h-.1v0h-.09V10.6l-.09,0c-.07-.11,0-.09-.08-.19,0-.12,0-.14.17-.17,0-.06,0-.06-.09-.1v0c.15,0,.34,0,.41,0,.26,0,.33,0,.37.22.11-.06.15-.12.31,0v0h.14v0h.09v0l.31,0s.09-.1.05-.19H44.9A.38.38,0,0,1,45,9.93h.22V9.79H45c0-.08,0-.16,0-.23s-.1,0-.14-.13l-.31,0v0h-.09V9.29h-.14v0h-.09v0l-.37.09v.05c-.12,0-.19-.19-.36-.14v0h-.09a.42.42,0,0,0,0,.1h-.09v0h-.1v0h-.31v0l-.18,0v0l-.36,0c-.22.06-.2.28-.37,0h0V9.7h-.1v.05h0V9.7l-.45.05v0H41.1v0H41v.05h-.13v0H40.6v0h-.18c-.28-.09-.35-.13-.5.14-.15,0-.16-.11-.32-.14v0h0v0h0s0,.09,0,.13c-.23,0-.2-.07-.32-.17,0,.11-.05.13-.14.17v.05c-.08-.06-.08,0-.18,0s0-.09,0-.13c-.17,0-.19-.08-.32-.14-.07.11-.06,0-.14.09l0,.09h-.05a1.21,1.21,0,0,1,0,.14h-.09c0-.06,0,0-.08,0a1.21,1.21,0,0,0,0-.18l-.18,0c0,.14-.05.08-.14.17h0v.14l-.09,0c-.07.08,0,.11-.14.18s0,.19.18.23c.06.2.18.12.09.36a1.22,1.22,0,0,0,.64,0v0h.09V11a.07.07,0,0,1,.09.05l.27-.05v-.09c.13,0,.38-.05.46-.13.25,0,.08,0,.18.17h0a1.21,1.21,0,0,1,.05.14h0v.05a.19.19,0,0,0-.09.09h-.14a.75.75,0,0,0,.06.13h-.06v.1l-.22,0v0l-.13,0c0,.1,0,0-.05.1v0h.13v.1s-.13,0-.08,0h0v0h-.18v0c-.06.05-.13.09-.18.14s0,.16-.05.23-.13-.05-.18-.14h-.31c-.07,0-.21.53-.32.63s0,.18,0,.28h0a.5.5,0,0,1,0,.13l.54-.09v0h.14v0h.23v-.05H39s0-.05,0,0v0h.13V13c.21,0,.28,0,.32-.18.22,0,.48-.17.73-.09v0l.13,0v0h.23s0-.13.18-.08v0h.09v0l.23,0a.37.37,0,0,1-.05.23h0a1,1,0,0,1,0,.18h0c0,.07,0-.06-.09,0l0,.13-.32,0c0,.13,0,.13.09.18v.13c-.27-.11-.26-.07-.49.05a.26.26,0,0,0-.18-.09v.09a1,1,0,0,1-.64-.05v.14a1.93,1.93,0,0,0-.41.09c-.13,0-.26-.06-.31,0l-.14.18a2.43,2.43,0,0,1-.86-.23v.09l-.46-.14c-.14,0-.13.05-.22.1v0h0c0,.08,0,.07,0,.09a1.85,1.85,0,0,1,0,.23H37v.09l.09,0v.1h0v.22h0c0,.15,0,.13.09.22a.85.85,0,0,0,.5,0v0H38v0l.45,0v0h.09v0h.18v0l.18-.05v0h.23a.3.3,0,0,0,0-.1l.24,0v-.14a.77.77,0,0,1,.45,0l0-.13.18-.05a.12.12,0,0,0,.14.05,1,1,0,0,0,0-.1,1.16,1.16,0,0,0,.18,0,.47.47,0,0,0,.45.32v.23h0v0h0v.14l-.22,0c0,.16-.12.17-.14.36a1.2,1.2,0,0,0-.36-.05v.09h.09v.05h-.22a.35.35,0,0,0-.05.08h-.09v0h-.18l-.14.18-.23,0v0l-.27.05v.13h-.22v0h-.09v0l-.18,0v0c-.08,0-.22-.08-.36,0v0h-.41a.78.78,0,0,0-.05.14h-.36s0,.08-.1.09v0l-.13-.05v-.14c-.12,0-.18-.06-.32,0v0c-.06,0-.07,0-.18,0v.1h-.13V16h0l0-.09h-.23v-.05a.72.72,0,0,0-.36,0,.74.74,0,0,0,0,.14h-.09c0,.05,0,.08,0,.18h0v-.05s-.18,0-.08-.05,0,0,0,0l-.27,0a1.05,1.05,0,0,1,0,.19l.09,0a2.07,2.07,0,0,1,0,.22h.06c0,.13,0,.12.13.14,0,.23.09.21.27.28s.18-.1.36-.05.27.15.41.09v0L37,16.9v-.14h.18v0h.64v0a.63.63,0,0,1,.35-.08v-.1c.25,0,.28.08.51.1v-.1l.13,0V16.4l.14.05a.2.2,0,0,1,.05-.09c.13,0,.21.17.41.09a1,1,0,0,1,.08-.14h.14v0h.18v-.05h.32v0h.09v-.05h.13v-.05H41a.35.35,0,0,0,0-.08h.09V16h1.18v0h.14v-.05c.1,0,.12.05.18.05v-.05h.23v0c.17,0,.12.06.17.1l.15-.05v.05h0s0-.06,0-.1h.09v0h.28v0h0v0h0v0l.28,0v0c.11,0,.11.12.18.09a.78.78,0,0,1,.13-.13v-.05c.07,0,.06.08.1.09l.18,0" style="fill:#231815"/><path d="M35,11.87l.09.05v-.05h.18v.05h.09v0a.34.34,0,0,0,.18.09A.6.6,0,0,1,35.7,12a1.43,1.43,0,0,0,0-.18h0a.08.08,0,0,0,0-.09.41.41,0,0,1,.18-.36V11.2h0c-.08-.12-.11-.1-.14-.28h.09c0-.09,0,0,0-.09v0a.45.45,0,0,0,.23,0c0-.09,0-.18,0-.27h0v-.09h0c0-.08,0-.16,0-.23h.09v-.18h-.05a.61.61,0,0,1,.05-.23h.08V9.75l-.4-.14V9.52H35.8l0,.13-.23-.09v0h0v0h.13v0h0v.05h-.08v.08h-.1V9.7a1.71,1.71,0,0,1-.23.13v0l-.22,0a1.42,1.42,0,0,0,0,.22h0a.75.75,0,0,1,0,.5H35v.13a.41.41,0,0,0-.22.19h-.09c0,.16-.08.09-.09.31l.18.05c.06,0,0-.05,0-.05v.05h0v0h-.08a.93.93,0,0,0,0,.13H35v.18h0a1,1,0,0,0,0,.13h0a.37.37,0,0,0,.09.23" style="fill:#231815"/><path d="M89.72,11.2h-.1c0,.08,0,0,0,.08v0h0Z" style="fill:#231815"/><rect x="76.35" y="11.42" width="0.13" height="0.04" style="fill:#231815"/><path d="M72,12.19v0h-.1s0,0,.1,0" style="fill:#231815"/><path d="M78.25,15.23a.61.61,0,0,0-.45.13.55.55,0,0,0-.09.14l-.23,0v.05h-.09v0l-.59,0a.41.41,0,0,0,0-.09c-.07,0-.08,0-.09,0h-.23v0l-.4,0v.09l-.27,0v0h-.23a.39.39,0,0,1,0-.09c-.06,0,0,0,0,0l-.13,0c0-.29,0-.38.31-.4v-.05h-.13v-.09a1.77,1.77,0,0,0,.63-.31v-.1l.09,0c0-.06,0-.12.05-.18l.27-.19a1.21,1.21,0,0,0,0-.14.6.6,0,0,1,.18,0c0,.08,0,.16,0,.23a.61.61,0,0,0,.4-.09s0-.07,0-.05l.09.14c.06,0,0,0,0-.05s.08.15.13.19h.1v.08h.08l0,.1.23-.05a1.85,1.85,0,0,0,0,.23l.14,0c0,.05,0,0-.09,0s.14.12.27.15Zm1.27.72V16l.4-.05a1.28,1.28,0,0,0,0-.27h.14v0s0,0,0,0h-.08c0-.09,0-.18,0-.28L80,15.23v-.09a1.82,1.82,0,0,1-.31-.05V15h0l-.09-.18h0v0a.53.53,0,0,0-.32-.1c0-.16-.1-.15-.23-.22v-.05h-.23l0-.09-.14,0v0a1.55,1.55,0,0,0-.41-.19.23.23,0,0,0,0-.17h0v-.09h-.05v-.32h.18V13.5h0v.05h.37V13.5l.27.05V13.5l.13,0v-.05h.09a.41.41,0,0,1,0,.09h.32v.05h.09v0l.31,0v0h.15v0c.05,0,.07.08.17,0a.41.41,0,0,0,.05-.09h.27v-.18h0v0h0v-.09h0c0-.09,0-.07,0-.1a.53.53,0,0,1,0-.18c-.06,0,0,0,0,0h-.18v-.09H80.2a.41.41,0,0,0,0-.09l-.4,0v0h-.18a.41.41,0,0,1,0-.09h-.23v.09h-.18v0c-.19,0-.24,0-.27.18h-.23v0h0v0h-.08c0-.06,0-.12,0-.18a.73.73,0,0,1-.36,0A.67.67,0,0,0,78,13a.45.45,0,0,1-.22,0v-.05h-.09v0a.08.08,0,0,0-.1,0l-.22,0v0c-.2-.06-.16-.11-.14-.28a.39.39,0,0,1-.18,0,1.57,1.57,0,0,1,0,.23l-.13,0v0H76.8l-.09.18-.45,0v0h-.14s0,.08,0,.13l-.14-.05v.05c-.14.08-.08.09-.32.09a1.57,1.57,0,0,0,0,.23c-.12,0-.1,0-.14-.14a1.18,1.18,0,0,0-.18,0c-.09,0-.19-.14-.36-.09v0l-.28,0c0,.13-.05.1-.08.22s-.14-.05-.23,0a.36.36,0,0,1,0,.09l-.45,0v.09l-.14-.05v0a.44.44,0,0,0-.32-.14v.09a.92.92,0,0,0-.23.09.74.74,0,0,1,0,.14H73l0,.09h-.19v0c-.06,0-.05.08-.08.09s-.11-.07-.18-.09a.41.41,0,0,0,0,.09h-.13l0,.09A.18.18,0,0,1,72,14h0c-.08.09,0,.09-.1.17,0,.16.11.22.14.37s.21.11.36.14v0c.1,0,.16-.09.19-.14h0v.24a.66.66,0,0,1,.36,0v-.09c.1,0,.13,0,.19-.1h0v-.13a1.06,1.06,0,0,1,.18.05v-.05h0c.1,0,.14.2.36.13v0H74v0a.31.31,0,0,1,.18-.09s0-.1,0-.14l.55-.1s0,.13.13.1v-.05l.18,0v0h.41v0l-.36.1c0,.06,0,.12,0,.18s-.1.05-.18.09v.18h-.09c-.07.26-.08.1-.23.18v0l-.13.1a.39.39,0,0,0,0,.14h-.09v0l-.32.05v0c-.12,0-.1,0-.13.14s-.15,0-.23.13h0v.14h0v0c-.13-.06-.2,0-.36,0a1.6,1.6,0,0,1-.1.23c-.17,0-.42-.11-.58,0v0l-.15.09c0,.16.07.3.1.46s.1,0,.14.13h.49v0l.23,0v0h.18v-.05h.05l0,.09.18,0v0l.28-.09v-.13l.45-.06.09-.13c.08,0,.41.17.55.13v0h.4v0h.09V16.4h.14v0H76v-.05h0v.05h.13v0l.4.05v0c.24.07.41-.09.55-.13l.32,0v-.09l.23,0v-.05h.09v0l.22,0v0h.23v-.05h.09v-.05h.14v.05a.41.41,0,0,0,.27-.13h0v-.14c.1,0,.18-.08.32,0v0h.23v.05l.18,0" style="fill:#231815"/><path d="M77.66,12.69v0l0,0h.1c0-.09,0,0,0-.09" style="fill:#231815"/><path d="M28.82,19.65l.22,0a.58.58,0,0,1,.47.16,1.1,1.1,0,0,1,.11.64v3.21l-1.48-1.81-1.91-2.4H24.66v.18a2.06,2.06,0,0,0,.38.07l.37.16.36.37v3.91a1.19,1.19,0,0,1-.09.59.54.54,0,0,1-.49.21H25l0,.18,2,0L27,25l-.23,0a.61.61,0,0,1-.47-.17,1.16,1.16,0,0,1-.1-.63V20.72l1.59,2,2.06,2.58H30l0-4.78a1.27,1.27,0,0,1,.09-.6.58.58,0,0,1,.49-.2h.2l0-.18-2,0Zm-2.66,2.54V20.68l0,0Zm3.49.13v1.41l0,0Zm-9,2.42,0-.46V21.19h-.21l-1.16.46,0,.19a1.3,1.3,0,0,0,.31,0l.15,0,.09.17,0,.8v1.47l-.05.46-.14.17L19.3,25l0,.18,1.88,0,0-.18a2.37,2.37,0,0,0-.39-.09Zm17.54-4.9.05.12.13.06.06,0,.13.06.12-.06.07,0,.13-.06,0-.13a.14.14,0,0,0,0-.06l.06-.13L39,19.52a.11.11,0,0,0,0-.06l0-.13-.13,0-.07,0-.12-.05-.13.05-.07,0-.12,0a1.06,1.06,0,0,0-.05.12l0,.07,0,.12,0,.13,0,.07m-29,0,0,.12.13.06.06,0,.13.06L9.7,20l.07,0L9.9,20l0-.13a.14.14,0,0,0,0-.06l.06-.13L10,19.52a.19.19,0,0,0,0-.07l0-.12-.13,0-.06,0-.13-.05-.13.05-.07,0-.12,0a1.06,1.06,0,0,0,0,.12l0,.07a1,1,0,0,0,0,.12l0,.13,0,.07m9.33,3.83h0l0,0a1.67,1.67,0,0,1-.46.65,1.05,1.05,0,0,1-.63.2,1.24,1.24,0,0,1-.95-.47,1.92,1.92,0,0,1-.4-1.29h2.59v-.12a1.4,1.4,0,0,0-.39-1.05,1.46,1.46,0,0,0-1.07-.43,1.67,1.67,0,0,0-1.28.56,2.21,2.21,0,0,0-.5,1.54,2.07,2.07,0,0,0,.49,1.45,1.56,1.56,0,0,0,1.19.54,1.42,1.42,0,0,0,1.08-.47,2.06,2.06,0,0,0,.51-1.06l-.15-.11v0M16.38,21.8a.86.86,0,0,1,.6-.26.71.71,0,0,1,.41.13.79.79,0,0,1,.3.35l.08.5h-.09l-1.6,0a1.22,1.22,0,0,1,.3-.69m2.18,1.88h0m51-3.84.06.12.12.06.07,0,.13.06L70,20l.07,0,.12-.06.06-.13s0,0,0-.06a.87.87,0,0,0,0-.13l0-.12,0-.07,0-.12-.12,0-.07,0-.12-.05-.13.05-.07,0-.12,0-.06.12a.19.19,0,0,0,0,.07l-.06.12.06.13a.25.25,0,0,0,0,.07m17,0,.05.12.13.06.07,0,.12.06L87,20l.06,0,.13-.06,0-.13,0-.06,0-.13,0-.12,0-.07,0-.12-.13,0-.06,0-.13-.05-.13.05-.06,0-.13,0a1,1,0,0,1-.05.12l0,.07,0,.12,0,.13,0,.07m-66.64,0,.06.12L20,20l.07,0,.12.06.13-.06.07,0,.12-.06.05-.13,0-.06a.87.87,0,0,0,.05-.13l-.05-.12,0-.07-.05-.12-.13,0-.06,0-.13-.05-.12.05-.07,0-.13,0,0,.13a.11.11,0,0,0,0,.06l-.06.12.06.13a.19.19,0,0,0,0,.07m-6.52,1.35a1.13,1.13,0,0,0-.64.21,2.09,2.09,0,0,0-.57.67V21.7l0-.46-.19,0-1.21.47.06.16a1,1,0,0,0,.28,0l.18.05.1.13,0,.46v3.61l0,.51-.12.13-.37.08h-.11l0,.18,2,0,0-.18a2.76,2.76,0,0,0-.44-.08l-.16-.16,0-.48V24.94l0,0a2.72,2.72,0,0,0,.29.22l.54.09a1.54,1.54,0,0,0,1.2-.54,2.44,2.44,0,0,0,.57-1.64,2.15,2.15,0,0,0-.48-1.45,1.26,1.26,0,0,0-1-.46m-1.21,4.18v-.45h0Zm0-3.25v0l.11-.14a1.74,1.74,0,0,0-.11.18m1.54,2.54A.78.78,0,0,1,13,25a.83.83,0,0,1-.55-.18.78.78,0,0,1-.28-.41l0-.6V22.37a2.12,2.12,0,0,1,.48-.43l.38-.1a.78.78,0,0,1,.61.32A2,2,0,0,1,14,23.48a1.86,1.86,0,0,1-.33,1.18M10,24.74l0-.46V21.19H9.74l-1.15.46,0,.19a1.3,1.3,0,0,0,.31,0l.15,0,.08.17,0,.8v1.47l-.06.46L9,24.91,8.65,25l0,.18,1.88,0,0-.18a2.27,2.27,0,0,0-.38-.09Zm-1.76-.38,0,0a3.29,3.29,0,0,0-.32.26l-.11,0-.09,0-.06-.15,0-.66V22.53a2.09,2.09,0,0,0-.08-.75.75.75,0,0,0-.37-.41,1.74,1.74,0,0,0-.84-.18,1.58,1.58,0,0,0-1.05.31.86.86,0,0,0-.37.67l0,.15a0,0,0,0,0,0,0l0,.14.12.05h0l.12.05.12-.05h0l.13-.05,0-.13s0,0,0,0l0-.15v-.24a.4.4,0,0,1,.15-.3.57.57,0,0,1,.4-.14.61.61,0,0,1,.5.21,1.21,1.21,0,0,1,.17.75v.15a8.3,8.3,0,0,0-1.39.58,1.71,1.71,0,0,0-.6.55,1,1,0,0,0-.13.49A1,1,0,0,0,5,25a.89.89,0,0,0,.67.27l.49-.1.7-.5a.84.84,0,0,0,.12.45.45.45,0,0,0,.35.15,1.25,1.25,0,0,0,.91-.63v-.25h0ZM6.9,23.28c0,.41,0,1,0,1a1.51,1.51,0,0,1-.8.4.53.53,0,0,1-.4-.19A.7.7,0,0,1,5.5,24a.73.73,0,0,1,.14-.42,1.4,1.4,0,0,1,.46-.37l.8-.35Zm0-.41h0Zm1.36,1.51,0,.09V24.4l0,0M4.79,20.82h0v0l0-1.32H.12L0,20.82l.19,0a1.67,1.67,0,0,1,.2-.62.77.77,0,0,1,.36-.29l.55-.06H2l0,4.28a1.19,1.19,0,0,1-.09.59A.54.54,0,0,1,1.4,25H1.2l0,.18,2.43,0,0-.18-.22,0a.61.61,0,0,1-.47-.17,1.16,1.16,0,0,1-.1-.63V19.85l.76,0a1.19,1.19,0,0,1,.55.11.8.8,0,0,1,.33.35l.13.49.18,0Zm-4.73,0h0v0Zm4.7,0ZM54,24.74l0-.46V19.2H53.7l-1.14.46,0,.19a1.86,1.86,0,0,0,.3-.05l.15.05.08.18,0,.78v3.47l-.05.46-.14.17-.35.05,0,.18,1.9,0,0-.18a2.66,2.66,0,0,0-.42-.09ZM52.6,19.68h0Zm40.87,1.8a1.76,1.76,0,0,0,.27.05l.09.06,0,.1-.07.33-.84,2.08-.36-.75-.53-1.15-.13-.44.08-.18.27-.08h.08l0-.17-1.84,0v.18l.32.14.17.19.19.32L92.6,25l-.27.65a1.41,1.41,0,0,1-.29.47l-.25.12-.2-.05-.38-.09-.15.05-.06,0-.13.05,0,.11,0,.06a.85.85,0,0,1,0,.13.45.45,0,0,0,.17.34.6.6,0,0,0,.42.15,1.16,1.16,0,0,0,.71-.29,1.91,1.91,0,0,0,.6-.85l1.55-3.8.14-.31.17-.18.23-.07,0-.17-1.26,0ZM93,24.14v0l.35-.82Zm18.25.24h0l-.14,0a2.32,2.32,0,0,0-.22.25l-.25.08a.29.29,0,0,1-.25-.12.78.78,0,0,1-.1-.48V21.62l.86,0,0-.31-.91,0,0-1.25h-.17s-.29.59-.29.59l-.42.51-.46.3,0,.16.64,0,0,2.54a1.62,1.62,0,0,0,.09.62.67.67,0,0,0,.28.32l.39.11a.91.91,0,0,0,.57-.21,1.28,1.28,0,0,0,.42-.63h0m0,0-.07.11a.54.54,0,0,0,0-.11Zm-6-5.2a1.57,1.57,0,0,0-.86.24,1.54,1.54,0,0,0-.57.65,2.26,2.26,0,0,0-.19,1v.25l-.71,0,0,.33.77,0,0,2.48,0,.53-.18.21-.29.08h-.17l0,.18,2.31,0,0-.18-.37,0a.48.48,0,0,1-.39-.17,1.14,1.14,0,0,1-.11-.65V21.66h1l0-.33-1,0,0-.25A5.65,5.65,0,0,1,104.4,20l.18-.3.3-.1.27.08.28.29.26.31.22.07.12-.06h0l.13-.06.12-.25a.58.58,0,0,0-.25-.45,1.33,1.33,0,0,0-.82-.28m-4.86,2a1.77,1.77,0,0,0-1.61,1,2.39,2.39,0,0,0-.26,1.05,2.19,2.19,0,0,0,.43,1.31,1.64,1.64,0,0,0,1.39.7,1.79,1.79,0,0,0,1-.27,1.88,1.88,0,0,0,.69-.8,2.52,2.52,0,0,0,.25-1.05,2,2,0,0,0-.45-1.3,1.74,1.74,0,0,0-1.41-.67m.77,3.42a.78.78,0,0,1-.64.32,1,1,0,0,1-.84-.59,2.87,2.87,0,0,1-.33-1.42,2.16,2.16,0,0,1,.13-.83.88.88,0,0,1,.35-.45.89.89,0,0,1,.43-.13.88.88,0,0,1,.73.39,2.64,2.64,0,0,1,.43,1.58,1.9,1.9,0,0,1-.26,1.13m-13.83.13-.05-.46V21.19H87l-1.16.46,0,.19a1.3,1.3,0,0,0,.31,0l.15,0,.08.17,0,.8v1.47l0,.46-.14.17-.37.05,0,.18,1.88,0,0-.18a2.07,2.07,0,0,0-.38-.09Zm3.17-.36h0l-.13,0a2.32,2.32,0,0,0-.22.25l-.25.08a.32.32,0,0,1-.26-.12.85.85,0,0,1-.1-.48V21.62l.86,0,0-.31-.92,0,0-1.25h-.16s-.29.59-.29.59l-.42.51-.46.3,0,.16.63,0,0,2.54a1.59,1.59,0,0,0,.1.62.67.67,0,0,0,.28.32l.39.11a1,1,0,0,0,.57-.21,1.35,1.35,0,0,0,.42-.63h0m0,0-.06.11s0-.07,0-.11Zm40.48-3.22c-.34,0-.66.29-1,.84v-.36l0-.45v0h-.2l-1.17.46,0,.19a1.37,1.37,0,0,0,.31,0l.16.05.09.17,0,.79v1.47l0,.39-.13.2a.77.77,0,0,1-.42.09l0,.18,2,0,0-.18a2.43,2.43,0,0,0-.41-.1l-.17-.18-.08-.46V22.43a1.86,1.86,0,0,1,.38-.55l.14-.07.25.14.17.07,0,0,.13.06.12-.05,0,0,.12-.05.05-.13v0l.06-.14a.47.47,0,0,0-.16-.34.57.57,0,0,0-.4-.15m-2.28.61h0Zm1.3.28v0l.18-.25c-.06.09-.12.18-.18.29m-15,2.68-.06-.48V22.93a3.7,3.7,0,0,0-.08-1,1,1,0,0,0-.35-.57.88.88,0,0,0-.58-.19,1.14,1.14,0,0,0-.55.15,3.1,3.1,0,0,0-.72.63V20.8l0-1.6h-.22l-1.15.46,0,.19a2.08,2.08,0,0,0,.3-.05l.16.05.08.18,0,.79v3.46l0,.46-.12.14-.39.08,0,.18,1.91,0,0-.18a2.66,2.66,0,0,0-.42-.09l-.15-.15,0-.47v-2a2.2,2.2,0,0,1,.51-.41l.41-.11.33.1.19.27a3.41,3.41,0,0,1,.06.81v1.73l-.13.22-.35.08h-.09l0,.18,1.9,0,0-.18a2.27,2.27,0,0,0-.38-.09ZM112.65,22v0l.15-.13-.15.16m21.23,2.36h0l-.14,0a2.32,2.32,0,0,0-.22.25l-.25.08a.3.3,0,0,1-.25-.12.78.78,0,0,1-.1-.48V21.62l.86,0,0-.31-.92,0,0-1.25h-.16s-.29.59-.29.59l-.43.51-.46.3v.16l.63,0,0,2.54a1.62,1.62,0,0,0,.09.62.73.73,0,0,0,.28.32l.39.11a.91.91,0,0,0,.57-.21,1.36,1.36,0,0,0,.43-.63h0m0,0-.07.11.06-.11Zm-99.11-.05,0,0a2.68,2.68,0,0,0-.33.26l-.1,0-.1,0-.06-.15,0-.66V22.53a2.45,2.45,0,0,0-.07-.75.77.77,0,0,0-.38-.41,1.74,1.74,0,0,0-.84-.18,1.58,1.58,0,0,0-1.05.31.86.86,0,0,0-.37.67l.05.15a0,0,0,0,0,0,0l0,.14.12.05h0l.12.05.12-.05h0l.12-.05,0-.13a0,0,0,0,0,0,0l0-.15v-.24a.4.4,0,0,1,.15-.3.57.57,0,0,1,.4-.14.6.6,0,0,1,.5.21,1.15,1.15,0,0,1,.17.75v.15a8.12,8.12,0,0,0-1.38.58,1.66,1.66,0,0,0-.61.55,1,1,0,0,0-.12.49,1,1,0,0,0,.26.74.89.89,0,0,0,.67.27l.49-.1s.61-.44.71-.5a.76.76,0,0,0,.12.45.42.42,0,0,0,.34.15,1.25,1.25,0,0,0,.91-.63v-.25h0Zm-1.34-1.08c0,.41,0,1,0,1a1.51,1.51,0,0,1-.8.4.49.49,0,0,1-.39-.19A.66.66,0,0,1,32,24a.73.73,0,0,1,.14-.42,1.4,1.4,0,0,1,.46-.37l.8-.35Zm0-.41h0Zm1.36,1.51,0,.09V24.4l0,0M119,23.67h0v0a1.68,1.68,0,0,1-.47.65,1,1,0,0,1-.63.2,1.24,1.24,0,0,1-1-.47,2,2,0,0,1-.4-1.29h2.59a.49.49,0,0,0,0-.12,1.41,1.41,0,0,0-.4-1.05,1.43,1.43,0,0,0-1.07-.43,1.64,1.64,0,0,0-1.27.56,2.17,2.17,0,0,0-.51,1.54,2.12,2.12,0,0,0,.49,1.45,1.58,1.58,0,0,0,1.2.54,1.39,1.39,0,0,0,1.07-.47,2.06,2.06,0,0,0,.51-1.06l-.14-.11,0,0m-2.15-1.87a.82.82,0,0,1,.59-.26.81.81,0,0,1,.71.48l.09.5h-.1l-1.59,0a1.1,1.1,0,0,1,.3-.69M119,23.68h0m8.42.37-2-4.68-.17,0-2,4.65a2.53,2.53,0,0,1-.46.8.9.9,0,0,1-.44.16l0,.18,1.81,0,0-.18a1.42,1.42,0,0,1-.54-.15.26.26,0,0,1-.12-.21l.14-.48.38-.88,2.15,0s.33.78.33.78l.16.57a.26.26,0,0,1-.1.21.81.81,0,0,1-.44.11l0,.18,2.25,0,0-.18a1.29,1.29,0,0,1-.55-.21,2.39,2.39,0,0,1-.42-.73m-2.29-3.38v0l-.41.89Zm-1,2.28h0Zm0,0,.27-.63.72-1.58.37.9c.24.6.5,1.27.52,1.31ZM84.42,23l-.61-.3a1.42,1.42,0,0,1-.51-.35.57.57,0,0,1-.13-.38.45.45,0,0,1,.17-.32.71.71,0,0,1,.45-.14.91.91,0,0,1,.62.21,1.68,1.68,0,0,1,.4.81l.16,0,0-1.35h-.17l-.1.14-.09,0-.27-.06-.56-.1a1.16,1.16,0,0,0-.85.33,1.06,1.06,0,0,0-.33.8,1,1,0,0,0,.19.62,2.32,2.32,0,0,0,.8.55,3.39,3.39,0,0,1,.8.48.62.62,0,0,1,.19.46.5.5,0,0,1-.17.39A.67.67,0,0,1,84,25a1.07,1.07,0,0,1-.72-.29,1.57,1.57,0,0,1-.44-.86l-.16,0,0,1.38.17,0c0-.07.09-.1.15-.1l.21,0,.81.12a1.44,1.44,0,0,0,.9-.32,1.09,1.09,0,0,0,.4-.86A1.27,1.27,0,0,0,84.42,23M47.83,24.76l0-.48V22.65a2.17,2.17,0,0,0-.1-.77,1.13,1.13,0,0,0-.36-.53,1,1,0,0,0-.55-.16,1.79,1.79,0,0,0-1.25.77v-.74l-.2,0-1.16.46,0,.19a1.3,1.3,0,0,0,.31,0l.15,0,.09.19,0,.83v1.42a1.06,1.06,0,0,1-.1.54.41.41,0,0,1-.37.14h-.08l0,.18,1.92,0,0-.18a2.65,2.65,0,0,0-.43-.08l-.15-.17,0-.46v-2a1.35,1.35,0,0,1,.95-.52.48.48,0,0,1,.43.22,1.74,1.74,0,0,1,.13.75v1.56l0,.38-.13.22-.36.08h-.07l0,.18,1.91,0,0-.18A2.37,2.37,0,0,0,48,24.9Zm-3.64-3.09Zm8,2.69,0,0a2.68,2.68,0,0,0-.33.26l-.1,0-.1,0-.06-.15,0-.66V22.53a2.45,2.45,0,0,0-.07-.75.77.77,0,0,0-.38-.41,1.74,1.74,0,0,0-.84-.18,1.58,1.58,0,0,0-1.05.31.86.86,0,0,0-.37.67l0,.15s0,0,0,0l0,.14.12.05h0l.12.05.13-.05h0l.12-.05,0-.13s0,0,0,0a1.34,1.34,0,0,0,0-.14v-.24a.39.39,0,0,1,.14-.3.57.57,0,0,1,.4-.14.6.6,0,0,1,.5.21,1.15,1.15,0,0,1,.17.75v.15a8.12,8.12,0,0,0-1.38.58,1.66,1.66,0,0,0-.61.55,1,1,0,0,0-.12.49A1,1,0,0,0,49,25a.89.89,0,0,0,.67.27l.49-.1s.61-.44.71-.5a.76.76,0,0,0,.12.45.42.42,0,0,0,.34.15,1.25,1.25,0,0,0,.91-.63v-.25h0Zm-1.34-1.08c0,.41,0,1,0,1a1.51,1.51,0,0,1-.8.4.49.49,0,0,1-.39-.19.66.66,0,0,1-.18-.48.73.73,0,0,1,.14-.42,1.4,1.4,0,0,1,.46-.37l.8-.35Zm0-.41h0Zm1.36,1.51,0,.09V24.4l0,0m29.46-3.19c-.33,0-.66.29-1,.84v-.36l0-.45v0h-.2l-1.17.46,0,.19a1.39,1.39,0,0,0,.32,0l.16.05L80,22l0,.79v1.47l0,.39-.13.2a.77.77,0,0,1-.42.09l0,.18,2,0,0-.18a2.69,2.69,0,0,0-.41-.1l-.18-.18-.08-.46V22.43a2.06,2.06,0,0,1,.38-.55l.14-.07.25.14.17.07,0,0,.14.06.12-.05,0,0,.12-.05,0-.13,0,0,0-.13a.44.44,0,0,0-.16-.34.55.55,0,0,0-.4-.15m-2.27.61h0Zm1.29.28v0l.19-.25c-.06.09-.13.18-.19.29M39,24.74l0-.46V21.19h-.21l-1.15.46,0,.19a1.3,1.3,0,0,0,.31,0l.15,0,.08.17,0,.8v1.47l-.06.46-.14.17-.36.05,0,.18,1.88,0,0-.18a2.27,2.27,0,0,0-.38-.09Zm-1.71-.36h0l-.13,0a2.32,2.32,0,0,0-.22.25l-.25.08a.32.32,0,0,1-.26-.12.85.85,0,0,1-.1-.48V21.62l.86,0,0-.31-.92,0,0-1.25h-.16s-.29.59-.29.59l-.42.51-.46.3,0,.16.63,0,0,2.54a1.62,1.62,0,0,0,.09.62.67.67,0,0,0,.28.32l.39.11a.94.94,0,0,0,.57-.21,1.35,1.35,0,0,0,.42-.63h0m0,0-.07.11s0-.07,0-.11Zm4.64-3.22a1.77,1.77,0,0,0-1.61,1A2.39,2.39,0,0,0,40,23.27a2.19,2.19,0,0,0,.43,1.31,1.64,1.64,0,0,0,1.39.7,1.79,1.79,0,0,0,1-.27,1.88,1.88,0,0,0,.69-.8,2.52,2.52,0,0,0,.25-1.05,2.09,2.09,0,0,0-.45-1.3,1.74,1.74,0,0,0-1.41-.67m.77,3.42a.79.79,0,0,1-.64.32,1,1,0,0,1-.84-.59,2.87,2.87,0,0,1-.33-1.42,2.16,2.16,0,0,1,.13-.83.88.88,0,0,1,.35-.45.89.89,0,0,1,.43-.13.88.88,0,0,1,.73.39,2.64,2.64,0,0,1,.43,1.58,1.9,1.9,0,0,1-.26,1.13m19.47-5v0h.24a.6.6,0,0,1,.46.17,1.24,1.24,0,0,1,.11.65v2.28A3.68,3.68,0,0,1,62.8,24a1.31,1.31,0,0,1-.59.6,1.94,1.94,0,0,1-1,.24,1.54,1.54,0,0,1-.72-.15,1.14,1.14,0,0,1-.45-.38,1.65,1.65,0,0,1-.21-.65L59.8,23V20.5a1.32,1.32,0,0,1,.09-.61.55.55,0,0,1,.48-.21h.21l0-.18-2.46,0,0,.18.24,0a.57.57,0,0,1,.44.15,1.14,1.14,0,0,1,.13.67v2.2a4.64,4.64,0,0,0,.14,1.39,1.68,1.68,0,0,0,.68.87,2.55,2.55,0,0,0,1.42.33A2.38,2.38,0,0,0,62.54,25a1.72,1.72,0,0,0,.67-.81,4.21,4.21,0,0,0,.17-1.33V20.53a1.18,1.18,0,0,1,.08-.58.53.53,0,0,1,.48-.27h.21l0-.18-2,0Zm16.72,4h0a0,0,0,0,1,0,0,1.78,1.78,0,0,1-.46.65,1.05,1.05,0,0,1-.63.2,1.21,1.21,0,0,1-1-.47,2,2,0,0,1-.41-1.29H79v-.12a1.44,1.44,0,0,0-.39-1.05,1.46,1.46,0,0,0-1.07-.43,1.67,1.67,0,0,0-1.28.56,2.17,2.17,0,0,0-.51,1.54,2.08,2.08,0,0,0,.5,1.45,1.56,1.56,0,0,0,1.19.54,1.39,1.39,0,0,0,1.07-.47A2.08,2.08,0,0,0,79,23.75l-.15-.11v0M76.71,21.8a.86.86,0,0,1,.6-.26.71.71,0,0,1,.41.13A.79.79,0,0,1,78,22l.08.5H78l-1.6,0a1.1,1.1,0,0,1,.3-.69m2.18,1.88h0M74,21.48a2.19,2.19,0,0,0,.31.05l.1.07,0,.08-.1.34-.87,2.16-.35-.85-.49-1.23-.08-.33.07-.19.23-.08H73l0-.17-1.83,0v.18a2.33,2.33,0,0,0,.29.09l.2.16.17.32,1.35,3.21.21,0L74.75,22l.26-.41.28-.09,0-.17-1.27,0Zm-.51,2.73v0l.37-.87Zm-5.45.55L68,24.28V22.65a2.48,2.48,0,0,0-.09-.77,1.14,1.14,0,0,0-.37-.53,1,1,0,0,0-.55-.16,1.8,1.8,0,0,0-1.24.77v-.74l-.21,0-1.16.46.05.19a1.28,1.28,0,0,0,.3,0l.16,0L65,22l0,.83v1.42a1,1,0,0,1-.1.54.41.41,0,0,1-.36.14h-.09l0,.18,1.91,0,0-.18a2.65,2.65,0,0,0-.43-.08l-.15-.17,0-.46v-2a1.33,1.33,0,0,1,1-.52.45.45,0,0,1,.42.22,1.6,1.6,0,0,1,.13.75v1.94l-.14.22-.35.08h-.08l0,.18,1.92,0,0-.18a2.46,2.46,0,0,0-.4-.09Zm-3.64-3.09Zm5.91,3.07,0-.46V21.19h-.21l-1.16.46,0,.19a1.28,1.28,0,0,0,.3,0l.16,0,.08.17,0,.8v1.47l0,.46-.14.17L69,25l0,.18,1.88,0,0-.18a2.37,2.37,0,0,0-.39-.09ZM136.12,23l-.6-.3a1.48,1.48,0,0,1-.52-.35.6.6,0,0,1-.13-.38.45.45,0,0,1,.17-.32.74.74,0,0,1,.46-.14.89.89,0,0,1,.61.21,1.6,1.6,0,0,1,.4.81l.16,0,0-1.35h-.16a.92.92,0,0,0-.11.14l-.08,0-.28-.06-.55-.1a1.17,1.17,0,0,0-.86.33,1.06,1.06,0,0,0-.33.8,1,1,0,0,0,.19.62,2.55,2.55,0,0,0,.8.55,3.19,3.19,0,0,1,.8.48.63.63,0,0,1,.2.46.51.51,0,0,1-.18.39.65.65,0,0,1-.45.16,1.09,1.09,0,0,1-.72-.29,1.5,1.5,0,0,1-.43-.86l-.16,0,0,1.38.16,0c.06-.07.1-.1.15-.1l.22,0,.8.12a1.44,1.44,0,0,0,.9-.32,1.06,1.06,0,0,0,.4-.86,1.25,1.25,0,0,0-.86-1.11" style="fill:#231815"/></svg>