<svg id="圖層_1" data-name="圖層 1" xmlns="http://www.w3.org/2000/svg" viewBox="0 0 111.2 25"><title>footer_logo_1</title><path d="M24.63,12.21l-2.28-7A7,7,0,0,0,16.14.68H8.76A5.53,5.53,0,0,0,7.7.79,2.94,2.94,0,0,1,9.81,1.91s2,2.93-.82,8.46a7.76,7.76,0,0,0-1.1-5.44,7.23,7.23,0,0,1,.26,5.31S7.78,7.32,3.85,4.9A2.33,2.33,0,0,1,3,4.12a5.74,5.74,0,0,0-.4.83c1.16.56,4.52,2.38,5.23,5.13a6.41,6.41,0,0,0-3.19-1.9C3.08,8,3.25,7.37,3,7.06a5.63,5.63,0,0,1-.7-1l-2,6.13a7,7,0,0,0,2.37,7.31l.76.54A5.34,5.34,0,0,0,4.65,17.8,1.42,1.42,0,0,1,5,16.71L5.57,16a3.16,3.16,0,0,1,.79-2.18,6.76,6.76,0,0,0,1-1.43,8.25,8.25,0,0,1-.57-.72C5.26,9.42,5.52,9,5.52,9s.34-.33,2.66,2.12a2.75,2.75,0,0,0,2,1.45c1.51.25,3.46,1.57,3.62,2.28s-1.3.4-2,.33a3,3,0,0,1-1.7-.9,3.57,3.57,0,0,0-.94,1.2A2.9,2.9,0,0,1,7.43,17c-.4.23-.19.44-.69,1a1.52,1.52,0,0,1-1.12.56,10.41,10.41,0,0,1-1.74,1.84l.24.16c2-.48,2.27-1,2.27-1-.17-.81,1.3-.79,1.64-.8s.2.22.2.22c-.78,1.47-1.46,1.13-1.46,1.13a19.28,19.28,0,0,1-2.17.68l.78,0c.73,0,1.48,0,2.2,0h.33a1.5,1.5,0,0,0,.67-.19c.07-.83,1.47-.38,1.8-.3s.13.28.13.28c-1.18,1.18-1.72.65-1.72.65a2.18,2.18,0,0,1-.35,0c-.4,0-1.71.09-3.28,0l3.45,2.5a7,7,0,0,0,7.68,0l6-4.33a7,7,0,0,0,2.37-7.31M10.59,2a24.94,24.94,0,0,1,5.09,2.18s-1.32,2.13-6.74,6.68c0,0,3.22-5.6,1.65-8.86m-.39,9.69a22.74,22.74,0,0,1,2.71-3.72A24.94,24.94,0,0,0,15.7,4.17s4.18,3.19,3.38,4.7c0,0-4.1-1.15-8.88,2.79m9.12,4.07c-1.05-.33-1.1,0-1.14.19a1.14,1.14,0,0,1-.18.41c-.92,1.38-3.24-.22-3.79-1.67s-2.85-2.45-2.85-2.45c5.22-1.69,10.14,2.22,10.14,2.22.18.93-1.13,1.62-2.18,1.3m2.58-1.89s-4.82-4-10.61-1.75c0,0,3.71-3.39,8.45-2.87,0,0,3.51,2.55,2.16,4.62" style="fill:#002566"/><path d="M40.85,1.27s.08,0,.11,0,0,0,0,0,0,0,.06,0,0,0,.06,0,0,0,0,0a0,0,0,0,0,0,0l0,0s0,0,0,0h.06s0,0,.07,0,0,0,0,0,0,0,.05,0,0,0,0,0,0,0,0,0a1.76,1.76,0,0,1,.23,0s0,0,0,0h.13s.06,0,.07,0,.06,0,.08.05,0,0,.05,0,0,0,0,0,.06.07.08,0,0,0,.05.05.08,0,.09,0,.06,0,.07,0,0,.06.09.05,0,0,0,0,.06,0,.08,0,0,0,0,0l0,0s0,0,0,0l0,0h.17s0,.05.07.07.09,0,.12,0h.05s0,.09.06.06,0,0,.05,0,0,0,0,.07,0,0,.05,0,0,0,.06,0l.06.06s0,0,.08,0a.2.2,0,0,1,.07.06s0,0,0,0V2s0,0,0,0,0,.08,0,.11,0,0,0,0,0,.07,0,.11a1.21,1.21,0,0,0,.05.14l0,0c0,.09.05.13,0,.21s0,.05,0,.08,0,0,0,0a0,0,0,0,0,0,0,0,0,0,0,1,0,0,.11.11,0,0,0,0,.06s0,.06,0,.09V3l0,0s0,0,0,.08,0,0,0,0a0,0,0,0,0,0,0s0,0,0,.05v0s0,.06.07,0,0,0,0,.06,0,0,.06,0,.07,0,.09.06h0s0,0,0,0h0s.06,0,.07,0,0,0,0,0,0,0,0,0h.08s.07,0,.09,0,0,0,0,0,0,0,0,0,0,0,0,0,.07.08.08,0,.15,0,.19,0,0,0,0,0l.07.06s0,0,.07,0l0,0h.15s0,0,0,.05,0,0,0,0,.08,0,.09,0a.17.17,0,0,1,.12,0h.17s0,.06,0,.07,0,0,0,0l0,0s0,0,.07,0a0,0,0,0,0,0,0s0,0,0,0h.07l0,0h0s0,0,0,0,.09.05.15,0l.08.08s0,0,.06,0,.06,0,.09,0l.1.09s.07,0,.1,0l0,0h0l0,0s0,0,.07,0,0,.08.08.11a.19.19,0,0,1,.15,0s0,0,0,0,.05.08.09.08l.07,0h0s.06,0,.07,0,.1.06.16.09,0,0,0,0l0,.05s0,0,.06,0h0s0,0,0,0h.13s0,0,0,0,.07,0,.09,0,.11,0,.09,0h.06a.12.12,0,0,1,0,0s.06,0,.09.06h.12s0,0,.06.06,0,0,.09,0,0,.06,0,.08h.13s0,0,0,0h0s0,0,0,0,0,0,.06,0h0s0,0,0,0l.05,0a.09.09,0,0,1,.09,0s0,0,.06,0,0,.06.08,0,0,0,0,0l0,0s0,0,0,0l0,0s0,0,0,0,0,0,.06,0,0,0,0,0l0,0h0s0,.06.08.09h0s0,0,0,0l.07.07c0,.08.06.11.1.16s0,0,0,.06,0,0,0,0,0,.06,0,.07a.14.14,0,0,0,0,.09l0,0v0a0,0,0,0,0,0,0s0,0,0,0,0,0,0,0a0,0,0,0,0-.05,0c0,.07,0,.07-.09.09s0,0,0,0,0,0-.08,0,0,.06,0,.08v0l0,0h-.06s0,.09-.07.07a.6.6,0,0,0-.08.08c-.06,0-.09,0-.12.06h0l0,0h-.08s0,0-.06,0l0,0s-.07,0-.07,0-.09,0-.12,0a0,0,0,0,0-.06,0l0,0a.2.2,0,0,1-.15,0c-.05,0-.1,0-.12,0s0,0,0,0a.11.11,0,0,0-.11-.07s0,0,0,0h-.08a.1.1,0,0,0-.09,0s0,0,0,0-.14,0-.17,0h0A.46.46,0,0,1,48,6.19a.08.08,0,0,1-.09,0s-.05,0-.07,0a.06.06,0,0,0-.07,0s0-.09-.06-.06h0s0,0,0,0h0s0,0,0,0,0,0-.05,0h0l0,0s-.05,0-.09,0h-.08s0,0-.06,0,0,0,0-.06-.09,0-.11,0-.08,0-.1,0a.32.32,0,0,1-.18,0h0s-.07-.06-.08,0a.08.08,0,0,1-.08,0,.09.09,0,0,1-.09,0h0s0-.07-.1-.09h-.23s-.06-.07-.09,0H46s0,0,0,0,0,0,0,0l0,0s0,0,0,0h-.12s0,0-.05,0h0s-.05,0-.06,0h0s0,.06-.06.08h0l-.11.11V6L45.26,6s0,.06,0,.11,0,0,0,0,0,.05-.06.07,0,0,0,0l0,0s0,.06,0,.08,0,0,0,0,0,0,0,0-.05,0,0,0a.08.08,0,0,1,0,0s0,.07,0,.06a0,0,0,0,0,0,.06s0,0,0,0h-.05s0,0-.06.06-.08,0-.11.06,0,.06-.07.09,0,0-.07,0l-.07,0V7h0s0,0,0,0v0c0,.06-.11.1-.15.17s0,0,0,0v0l0,0s0,0,0,.09a.3.3,0,0,1,0,.1s-.06,0-.07,0,0,0,0,0-.05.06-.08.08v.2l0,0s0,.06,0,.08S44,8,44,8l0,.06s0,0,0,.06,0,0,0,0,0,0,0,0,0,0,0,0,0,.09,0,.14l0,0a1.33,1.33,0,0,0,0,.2l0,0v.05s0,0,0,.05,0,0,0,0,0,0,0,0a0,0,0,0,0,0,0v0s0,0,0,0,.05,0,.06.07V9l.11.11s0,.07.05.06,0,0,0,0,0,0,0,0,0,0,0,.05,0,0,0,0,.09.05.15,0,.05.1.12.09l0,0h0s0,0,.06.06h0l0,0c.06,0,.06.09.12.07s0,.08,0,.07,0,.08.09.09,0,0,0,0h0s.05,0,.08.08,0,.06.05,0,0,.1.1.09,0,.07.07.06v.05s0,0,0,0,.07.07.1.12a.05.05,0,0,1,.06.06.06.06,0,0,0,0,0c0,.06,0,0,.08,0s0,0,0,0,.06,0,.09.06a.08.08,0,0,1,.09,0c.07,0,.08.05.12.06h0s0,0,0,0,0,0,.07,0,0,0,.05.05h0l0,0h0l0,0s0,0,0,0,0,0,.06,0l.1.1s0,0,.07,0h0s0,0,0,0h0s0,0,.06.06,0,0,.05,0h0s0,0,0,0h0s0,0,0,0,.05,0,.08,0l0,0v0a.07.07,0,0,0,.07.05l.08.07s0,0,.09.06.05.05.09.06.1.09.15.09,0,0,0,0a.11.11,0,0,1,.08,0h.22s0,0,0,0,.13,0,.15,0,0,0,.07,0h0s.07,0,.09,0,.06,0,.12,0a.06.06,0,0,1,.08,0,.17.17,0,0,1,.12,0h0s0,0,.07,0h.07s0,0,.07,0,.09,0,.11,0h0v0l.05,0s0,0,0,0,0,0,.06,0h0s0,0,.06,0l.1.1s.07.1.11.1,0,0,0,0l0,0h.05s0,0,.08,0,0,0,0,0,0,0,0,0,0,0,0,0h.08l0,0h.09s0,0,.07.05h0s0,0,0,0,0,0,0,0h0s0,0,.05,0,0,.07.07.05l0,0c.06,0,.08.07.12,0s0,0,.06,0,.07,0,.09,0h.06s0,0,0,0,0,.05,0,.06.09,0,.11,0h.05s0,0,.07,0h0s0,0,.05.05h.14s0,0,0,0,0,0,0,0,0,0,0,0h.09s0,.05,0,0,0,.06.07.05,0,0,0,0l0,0h0s0,0,0,0,0,0,0,0h.42s0,0,0,0a.14.14,0,0,0,.1.05l0,0s0,0,0,0h0l0,0h.05l0,0h0l0,0s.05,0,.09,0l0,0h.26l0,0s0,0,0,0,.06.07.09,0h.12s.06,0,.07,0h0s0,0,.05.06h.1s0,0,0,0l.06,0s0,0,.05.05h0s0,0,0,0,0,.07.08.05a0,0,0,0,0,0,0s0,0,0,0,0,0,0,0H54a.1.1,0,0,0,.05,0h.09s0,0,.05,0,0,0,0,0h0s0,0,0,0,.08,0,.09,0a0,0,0,0,0,.06-.06s0,0,.06-.06.06,0,.07,0,0,.07.08,0,0,0,0,0,0,0,0,0l0,0s0,0,0,0a.41.41,0,0,0,.19,0,.05.05,0,0,0,.09,0h.28a.13.13,0,0,0,.12,0s.05,0,.06,0,0,0,.06,0h0s0,0,0,0,0,0,.06,0,0,0,.06,0,.11,0,.14,0H56l0,0s0,0,0,0h.08s0,0,.07,0h0s0,.05.07,0,0,0,0,0,.07.06.09.1,0,0,0,0h0s0,0,0,.06,0,.07,0,.12l.06.08s0,.05,0,.05,0,0,0,0,0,.09,0,.12,0,0,0,0-.07.05,0,.07h0s0,0,0,0,0,.06-.06.09,0,0,0,0a.46.46,0,0,0-.07.07,0,0,0,0,1-.05.05,1.62,1.62,0,0,0-.18.19s0,0,0,0,0,.07-.09.06,0,0,0,0a.05.05,0,0,0-.07.06h0s-.05.07-.1.06l0,0s-.1,0-.08.06l-.07.06c-.05,0-.07,0-.11,0s0,0-.07.06a.27.27,0,0,0-.09,0l0,0s0,0-.06.05,0,0-.08,0-.07,0-.08.08,0,.05-.07.07-.07,0-.06.05a.06.06,0,0,0-.06,0h0l0,.05v0s-.11,0-.1.06a.27.27,0,0,1-.07.08.16.16,0,0,0,0,.07.33.33,0,0,0-.11.09s0,0-.07,0,0,0,0,0a.1.1,0,0,0-.07.07,0,0,0,0,0,0,0h0l-.15.15s-.05,0,0,.05-.09,0-.09,0a0,0,0,0,0,0,0s-.06,0-.09,0h0c-.05,0,0,.1-.09.09s0,0-.07,0a.38.38,0,0,0-.11.11s0,0,0,0v.06s0,0-.07,0,0,0,0,0l0,0s0,0,0,.07,0,0-.08,0v0s-.07,0-.09.06l0,0,0,0h0l0,0s0,0,0,0-.06,0-.08,0l0,0,0,0h0l0,0,0,0s0,0-.06,0a.4.4,0,0,0-.11,0s0,0,0,0-.1,0-.12,0a.21.21,0,0,0-.21.06c-.09,0-.08.06-.14.06s0,0-.06.06h0a.18.18,0,0,1-.1,0s0,.06-.05.08,0,0-.06,0h0c0,.06-.13,0-.16.06h-.26s0,0,0,0,0,0,0,0,0-.05-.05,0,0,0,0,0h-.05s0,0,0-.05-.08,0-.12,0,0,0-.05,0,0,0,0,0,0,0,0,0a.2.2,0,0,0-.12-.06l-.1-.09h-.11l-.07-.06c-.05,0-.07-.05-.1-.08h0s0-.05-.06,0,0,0,0,0l-.15-.16s0,0,0,0,0-.09-.08-.09,0,0,0,0l-.08-.09c0-.05,0-.06-.07-.09h0s0,0,0,0,0,0-.06-.07-.06,0-.08,0,0,0,0,0,0,0,0,0h0s0,0-.06,0l-.11-.1s0-.07,0-.06,0,0,0-.07,0,0,0,0v0s0,0,0-.05,0,0,0,0h0s-.05-.08-.1-.09,0,0,0,0l0,0s0,0,0-.05,0,0,0,0h-.05l0-.05s0-.07,0,0L49,14.48H48.9l0,0s0,0-.09,0,0-.07-.05-.05,0,0-.07-.06h0s0,0,0,0-.08-.11-.15-.11a1492746485751.28,1492746485751.28,0,0,1-.06-.06s0,0,0,0v0s0,0,0,0,0,0-.07-.06,0,0,0,0a.16.16,0,0,0-.07-.07,0,0,0,0,0,0,0s-.06-.06-.08-.09h0l0,0a.05.05,0,0,0-.06-.06s0-.05-.06-.05h0l-.16-.16h0c0-.06-.1-.1-.15-.16v0s-.07,0-.06-.07,0-.05-.07-.08,0,0,0,0,0-.07,0-.11v0s0,0,0,0v0s0-.06-.07-.08v0s0,0,0,0a0,0,0,0,0,0,0s0,0,0,0h-.06c0-.07,0-.14-.08-.11s0-.1-.09-.08,0-.07-.05-.06,0-.09-.07-.07l-.07-.06h0c0-.06,0-.07,0-.09s-.07,0-.09,0a.12.12,0,0,1-.09,0,.11.11,0,0,1-.08,0s0,0,0,0a.05.05,0,0,0-.09,0s-.09,0-.11,0-.21,0-.25,0-.06,0-.08,0,0,0-.05,0a.6.6,0,0,0-.08-.08h0c0-.05-.07-.08-.11-.12h0l-.06-.05s0-.06-.08,0-.06-.05-.1-.06-.05,0-.06-.08h-.06a.13.13,0,0,0-.12-.06l0,0h0l0,0s0,0,0,0a.1.1,0,0,0-.1,0s-.07-.12-.15-.09l0,0s0,0-.08,0l0,0h-.24c-.08,0-.2,0-.26,0H43.9l0,0H43.8s0,0,0,0,0,0,0,0,0-.07,0-.06,0-.05,0-.06-.06,0-.1,0V11s0,0-.07,0l0,0c0-.07-.06-.08-.09-.12h0s0,0-.08-.06,0,0,0,0h0l0,0s0-.05-.08,0a.12.12,0,0,1-.05,0h0s-.07,0-.09-.07h0s-.06-.08-.11-.1l0,0s0,0,0,0l0,0H42.6s0,0,0,0-.07,0-.13,0h0l0,0s0,0,0,0h0s0,0,0,0,0-.06-.06-.09a.82.82,0,0,1-.22,0h-.26s-.09,0-.11,0,0,0-.07,0l-.14.14s-.07,0-.06.05l-.12.13v0s-.07,0-.09,0-.09,0-.12,0,0,0,0,0,0,0,0,0h-.09c-.07,0-.09,0-.13.05h0s0,0,0,0,0,0-.07.06,0,0-.06,0h-.08s-.07,0-.09,0,0,0,0,0h-.05s0,0,0,0-.08,0-.07,0,0,0-.08.06,0,0-.06,0h0c-.05,0,0,.1-.09.09l0,0a.19.19,0,0,0-.12,0v0a.13.13,0,0,0-.07.05h0l-.08,0s0,0,0,0l0,0h-.05c-.06,0-.08,0-.11.05s-.13,0-.12.07-.07,0-.08,0h0l0,0H39s0,0,0,.05a.06.06,0,0,0-.07.07s0,0,0,0l0,.05v0h0l-.06.06a0,0,0,0,0-.06.06s-.06,0,0,0l-.11.11c-.09,0-.13.1-.19.13s0,0,0,0,0,0,0,0-.06,0-.06.06,0,0-.08.06h0l-.06,0s0,0,0,0h0s0,0,0,0H37.9s0,0,0,0,0,0-.06,0h-.14s0,0,0,0h0s0,0-.05,0h-.16s0,0,0,0,0,0-.06,0-.07,0-.09,0h0s-.06,0-.07,0a.08.08,0,0,0-.1,0,0,0,0,0,0,0,0h-.23s-.06,0-.07,0h-.1s-.11,0-.12,0l-.08,0a0,0,0,0,0,0,0s0,0-.1,0,0,0,0,0a.47.47,0,0,0-.1.1.07.07,0,0,0-.1.06c0,.05-.08.06-.09.11h0l0,0h0a.24.24,0,0,1-.09,0s0,0,0,0-.06,0-.08,0h0s-.08,0-.11.05,0,0,0,0,0,0,0,0-.08.06-.07.13a0,0,0,0,0-.06,0c-.11,0-.27,0-.3.08h0l-.1.1s-.07,0-.07,0,0,0,0,0h0a.14.14,0,0,1-.09,0l-.06.07h0l-.06.07s-.08,0-.07.06,0,0,0,0,0,0,0,.05,0,0-.05,0,0,0-.06,0l0,0s0,0-.07,0a.6.6,0,0,1-.08.08s-.1,0-.1,0h0l0,0a.16.16,0,0,0-.11,0h0l0,0h-.12s0,0,0,0a.08.08,0,0,0,0,0s0,0,0,0h-.08a.26.26,0,0,0-.14.11s0,0-.07,0a.08.08,0,0,0,0,.05s-.07,0-.07,0-.13.07-.19.11,0,0,0,0h0l0,0h0s0,0-.05.05-.06,0-.07,0-.13,0-.14,0-.05,0-.08,0a.12.12,0,0,0,0,0,.11.11,0,0,0-.12.06h0l-.06.07h0l0,0s0,0,0,.08h0s0,.05-.07.06,0,.1,0,.09,0,0,0,0h0l-.11.11a0,0,0,0,0-.05,0s-.09,0-.1,0,0,0-.06,0a.11.11,0,0,0-.1.05h-.1s0,0,0,0,0,0,0,0h0s0,0,0,0-.14,0-.19,0,0,0-.05,0,0,0-.06,0,0,0,0,0,0,0,0,0l0,0s0-.06-.07,0l0,0s0,0-.06,0h0s0,0,0,0h-.1s0,0,0,0h-.08l-.07-.06h0l0,0c-.05,0-.06,0-.09-.06h-.05l0,0s0,0-.06,0l-.23-.23h0s-.05-.06-.07-.09v-.08s0-.07,0-.12a.06.06,0,0,1,0,0s0,0,0,0v0s0-.06,0-.07v-.22s0,0,0-.06,0,0,0,0a2.43,2.43,0,0,1,0-.27s0-.06,0-.09,0,0-.05,0,0-.07,0-.13,0,0,0,0,0-.1-.05-.14,0,0,0,0,0-.07,0-.13,0-.05,0-.08v0s0,0,0-.06v0s0,0,0-.05l0,0v-.05s0,0,0,0,0,0,0,0v0s0,0,0-.08l0,0s0,0,0,0,0,0,0,0,0,0,0,0a0,0,0,0,0,0,0s0-.09,0-.11,0-.08,0-.12,0,0,0,0,0,0,0,0,0,0,0,0a1,1,0,0,1,0-.17s0,0,0,0,0,0,0-.06v0s0,0,0,0-.08-.08-.11-.12,0-.11-.07-.1,0-.06,0-.08,0-.07,0-.09v0s0,0,0-.06a.15.15,0,0,1,0-.07l0,0s0,0,0,0,0,0,0,0,0,0,0,0l0,0s0,0,0-.06,0,0,0-.06,0,0,0,0,0,0,0,0l0,0v0c0-.07.09-.16.19-.16s0,0,0,0,.07,0,.07,0h.07a.07.07,0,0,1,.08,0s0,0,0,0,0,0,0,0,.05,0,.07,0a.12.12,0,0,1,.13,0s0,0,0,0h.05s0,.06.08.07,0,0,0,0,.05,0,.05,0a0,0,0,0,0,0,0s.05,0,.05,0l0,0h0s0,0,.05,0,0,.06.08.06,0,0,0,0h0s0,0,0,0,.06.05.11,0,.05.15.11.11,0,.09.07.07.06.05.08,0l.06.06v0s0,0,0,0,.06,0,.12,0a0,0,0,0,0,0,0h0l0,0H31s0,.06.07.07,0,0,.05.06,0,0,.06,0,.08.06.12.08v0l.08.08h0s0,.06,0,.05l.08.07h0a.17.17,0,0,0,.06.08s0,0,.05,0h.08s0,0,.07,0a.12.12,0,0,1,.09,0H32l0,0s0,0,0,0l0,0h.32s0,.05.07,0,0,0,0,0l0,0a0,0,0,0,0,0,0h.06l0,0,0,0s.09,0,.09-.07.09,0,.09-.05.06,0,.08,0h0s0,0,0,0,0,0,.06,0,0,0,0,0h.06l0,0s0,0,0,0h.12s0,0,0,0,0,0,0,0h.06s.06-.09.09-.1.07,0,.09,0,.09,0,.13,0h0s.07.05.09,0,0,0,.06,0,.1,0,.12,0,0,0,.06,0,0,0,0,0l0,0s.05-.07.1-.06l.06-.06a.1.1,0,0,0,.11,0s.06,0,.06,0,0,0,.07-.06h0s0,0,.06-.05,0,0,0,0h0l0,0a0,0,0,0,0,0,0,0,0,0,0,0,.06,0,.05.05,0,0,1,0,0h0a.11.11,0,0,1,.11,0,.12.12,0,0,0,.08-.06h0l0,0s0,0,0,0h.08s0,0,0,0h0s0,0,.05,0,.08,0,.12,0,0,0,0,0h0s0,0,0,0,0,0,0,0a.06.06,0,0,0,0,0V11a.11.11,0,0,0,.11-.07c0,.07.06,0,.11,0s0,0,0,0,0,0,.07-.06,0,0,.06,0l0,0h.13s0,0,0,0,0,0,0,0,.06.05.06,0,0,0,0,0h0l.06-.07h.11l.09,0,0,0h.11s0,0,0,0h.17s0,0,0,0,.12,0,.15,0,0,0,0,0,0,0,0,0h0s0,0,.06,0,0,0,0,0h0s0,0,0,0h0s0,0,.05-.05h0l.07-.06a0,0,0,0,0,.05,0,0,0,0,0,0,.06,0l0,0h0l.06-.06h0s.08-.05.1-.09h0a.41.41,0,0,1,.11-.07s0-.06,0-.09,0,0,0,0,.08,0,.09-.09,0,0,.07,0h.05s0,0,0-.06a.11.11,0,0,0,.12-.06s.06,0,.07,0l0-.05h.05s0,0,.06,0,.06,0,0,0,0,0,.06,0L39,9.57s0,0,.07,0,0,0,0,0h.05l0,0c.05,0,.14,0,.16,0s0,0,.06,0,.06,0,.07-.07a0,0,0,0,0,0,0c.05,0,.08-.07.12-.11s0,0,0,0,.07,0,.06,0,0,0,.06,0,0-.07,0-.1l0,0a.08.08,0,0,0,0-.08s0,0,0-.05,0-.09,0-.13a.2.2,0,0,0-.09-.09h0s0,0,0,0,0,0-.06,0h-.05s0-.05-.06,0-.07-.09-.11,0a.06.06,0,0,0,0-.05s0,0,0,0,0,0,0,0h0l0,0h-.08a.08.08,0,0,0-.06,0s0,0,0-.06H39s0,0,0-.07,0-.07-.08-.07,0,0-.06-.06-.05,0-.07,0,0-.14-.11-.15,0,0-.05-.06v0l0-.09s0,0,0,0,0,0,0-.07a.08.08,0,0,0,0-.09s0,0,0-.09,0,0,0,0-.06,0-.06-.1,0,0,0,0,0,0,0-.06,0-.09-.06-.12v0a.24.24,0,0,1,0-.09c-.05,0-.08-.11-.15-.14S38,6.85,38,6.82s-.08-.05-.14,0-.05,0-.07,0h0l0,0s0,0-.08,0h-.07l0,0s-.07,0-.09,0,0,0,0,.05-.08,0-.11,0,0,0-.07,0,0,0,0,0h0s0,0-.06,0,0,0,0,0,0,.07-.1.09-.06,0-.08,0H36.8s0,0-.06,0,0,0,0,0,0,0,0,0,0,0-.05,0,0,0-.06,0,0,0-.07,0-.06,0-.07,0-.05,0-.06,0-.06,0-.1,0l0,0s0,0,0,0,0,0,0,0h0s0,0,0,0h0s0,0,0,0a.21.21,0,0,0-.19,0,.06.06,0,0,1,0,0s0,0-.06,0,0,0,0,0a.65.65,0,0,0-.14,0s0,0,0,0h0l0,0,0,0a1.92,1.92,0,0,0-.24,0s0,0,0,0h0s-.12,0-.17,0,0,0,0,0,0,0,0,0-.08,0-.11,0h0a.07.07,0,0,0,0-.06s0,0,0,0a0,0,0,0,0-.06-.06s0,0-.05,0,0,0,0,0,0,0-.05,0,0,0,0,0,0,0,0,0,0-.08-.06-.06,0,0,0,0,0,0-.06,0a0,0,0,0,0,0,0,.09.09,0,0,0-.06-.06v0a.05.05,0,0,0,0,0s0,0,0,0v0a.18.18,0,0,1,0-.1l-.05,0c0-.06,0-.07-.08-.11s0,0,0,0,0,0,0,0,0,0,0-.07l0,0s0,0,0,0l0,0s0-.07,0-.08,0,0,0-.05a.1.1,0,0,0,0-.07l0,0s0-.05,0-.05,0,0,0,0,.08,0,.08-.11a0,0,0,0,0,0,0s0,0,.07,0l.08-.08s0,0,.1,0,0,0,.07,0,0,0,.05,0l0,0h0s.07,0,.06-.09a.09.09,0,0,0,.1,0s0,0,0,0,.08,0,.09,0,0,0,0,0l0,0s.11,0,.14,0,0,0,.07.06h.17s0,0,0,0,.12,0,.14,0h0l0,0s0,0,0,0a.08.08,0,0,0,.07,0s.1,0,.1,0,.09,0,.11,0h.08a.18.18,0,0,1,.12,0,.06.06,0,0,1,.08,0h.08s.1,0,.1,0,.07-.06.1-.09.08,0,.09,0h.08s.07,0,.07,0,.18,0,.21,0,0,0,0,0,0,0,.07,0S37,5,37,5h0s0,0,.06,0,0,0,0,0a.06.06,0,0,0,.09,0s0,0,.08,0,0,0,0,0,.09,0,.09,0h.07l0,0h0a.12.12,0,0,0,.05,0h.17s0,0,0,0,.05,0,.07,0,0,0,0,0,0,0,0,0,0,0,0,0,.1,0,.12-.07,0,0,0,0h0l0,0s0,0,0,0,0,0,.08-.07h.17s0,0,0,0,.07,0,.09,0,0,0,0,0,0,0,0,0l.06,0s0,0,0,0,.06,0,.07,0h0s0,0,0,0,0,0,0,0h0s0,0,0,0l0,0s0,0,.07,0v0h0v0l0,0h0s0,0,0,0,0,0,0,0h.1s0,0,.07-.07a0,0,0,0,0,0,0h.05s0,0,.07,0,0,0,0,0,0,0,0,0,0,0,0,0,0,0,0,0,.07,0,.13,0l0,0s0,0,0,0,0,0,.08,0a.12.12,0,0,0,.05,0s0,0,0,0h0s0,0,0,0h0V4s0,0,0,0h0s0,0,0,0a1.85,1.85,0,0,1,.14-.14h0s0,0,0,0,.08-.07.12-.1,0-.08,0-.11V3.5s0,0,0,0,0-.1.06-.16,0,0,0,0,0,0,0,0,0,0,0,0,0,0,0,0,0,0,0,0,0,0,0,0,0,0,0,0,0,0,0-.06a.34.34,0,0,1,0-.11l0,0h0s0-.08-.06-.06,0-.08-.08-.08a.2.2,0,0,0-.12-.06s0,0,0-.07a.06.06,0,0,0-.05,0s0,0-.06,0-.06-.07-.09-.1-.07,0-.1-.05,0,0,0,0,0-.06-.06-.09h-.06s0,0,0,0,0,0,0,0v0l0,0s0,0,0,0,0,0,0-.05,0-.09,0-.09V2s0,0,0,0,0-.09,0-.11.07-.05.05-.1,0-.08.06-.1v0s0,0,.06-.07h0s.08-.05.08-.11h0s0,0,0,0,.05,0,.07-.06,0,0,0,0,0,0,.08,0,0,0,0,0l0,0s0,0,0,0,0,0,0,0l0,0s.07,0,.07,0h.21c0,.05.06,0,.07,0s.07,0,.11,0,0,0,0,0m.64,4.66s0,0,0,0-.06,0-.08,0,0,0,0,0,0,0-.08,0L41.18,6s0,0,0,0H41L40.93,6s0,0-.06,0h-.12s0,0,0,0h-.08s0,0,0,0,0,0,0,0,0,0-.07,0h0l0,0a.48.48,0,0,0-.12,0s0,0,0,0l-.08.08h-.08l0,0s0,0-.08,0l-.08.08,0,0s-.08.07-.08.09,0,0,0,0,0,0,0,0,0,0-.06.07,0,.06-.1,0v.14a.06.06,0,0,0,0,.08s0,0,0,.06,0,0,0,.06,0,.05,0,.09l0,0v.07a.6.6,0,0,1,.08.08s0,0,0,0l.08.07a.09.09,0,0,1,.06,0s0,0,0,0l0,.06h0v0l.17.16h0s0,0,0,0h0a0,0,0,0,0,0,0,.08.08,0,0,0,0,0h0s0,0,0,0h.12s0,0,.07,0h.08s.05,0,.09,0a.12.12,0,0,0,0,0s0,0,.05,0,0,0,0,0,0,0,.05,0,0,0,0,0,0,.05.07.07.07,0,.11,0a.06.06,0,0,1,0,0l0,0s0,0,0,0h0s0,0,0,0,0,0,.06,0,0,0,0,0l.06,0s0,0,0,0,0,0,0,0l0,0h.1l0,0h.11s0,0,.07,0L41.88,8s.06,0,.1,0,.07,0,.11,0h0s0,0,0,0,.06-.07.13-.06a.76.76,0,0,1,.09-.09h0s0,0,.07,0l0,0V7.66s0,0,0,0,0-.05.06-.09,0,0,0-.07V7.37s0,0,0-.08l0,0s0,0,0,0,0,0,0,0,0,0,0,0,0,0,0-.06,0,0,0,0,0,0,0,0,0,0,0-.08h0s0,0,0-.06,0-.12,0-.17,0-.08,0-.12,0-.1,0-.15,0-.07,0-.08v0a.76.76,0,0,1-.09-.09s-.06-.08-.09-.08H42.3l0,0h0s0,0,0,0a.29.29,0,0,1-.1,0h-.17s0,0,0,0,0,0,0,0h-.06s0,0-.09,0,0,0,0,0-.07,0-.13,0,0,0,0,0,0,0-.06,0" style="fill:#002566;fill-rule:evenodd"/><path d="M95.32,0s.14.05.08.07,0,0,0,0,0,0,0,0,.21,0,.16,0,0,.06.09,0,0,0,0,0,0,0,0,0h0c.06,0,.14.07.1.09s.14.11.15.1a0,0,0,0,0,0,0s0,0,0,0A.06.06,0,0,0,96,.3h0s.07,0,0,0h0s.05,0,0,0,0,0,0,0h0s0,0,0,0,.18.2.13.12c.13,0,.17.07.12.07h.06s.05.05,0,0,0,.11,0,.07.1.08.1.12a0,0,0,0,1,0,0s0,0,0,0,0,0,0,0,0,0,0,0a0,0,0,0,1,0,0s0,0,0,0,0,0,0,0,.08,0,.06,0,0,0,0,0,0,0,0,0,0,0,0,0h0s0,0,0,0h0s0,0,0,0,0,0,0,0v0h0s0,0,0,0,0,.07,0,0,0,.09,0,.08.12.06.12.08,0,0,0,0,0,0,0,0,0,0,0,0,0,0,0,0,.17,0,.15.07.09.06.06,0,0,.06,0,0,.13.06.14,0h0s0,0,0,0,.17.11.11.09,0,0,0,.05,0,0,0,0,0,.07,0,0l0,0s0,.06,0,.05.1,0,.07,0,0,0,0,0c-.17,0,.15.13,0,.1s0,0,0,0,0,0,0,0,0,0,0,0,0,0,0,0h0s0,0,0,0,.18,0,.12.06,0,0,0,0-.06.16-.08.11,0,0,0,0h0c0,.08,0,.11,0,.08s0,0,0,0h0s0,0,0,0,0,0,0,0h0s0,0,0,0,0,0,0,0,0,0,0,0,0,.07,0,.07,0,.05,0,0h0s0,.06,0,.05,0,0,0,0,0,0,0,0,0,0,0,0l0,0,0,0-.07,0s0,0,0,0h0c0-.06,0,0,0,0s0,0,0,0h0a.13.13,0,0,1-.07.1s0,.06,0,0h0s0,0,0,0,0,0,0,0,0,0,0,0h0s0,0,0,0,0,0,0,0-.06,0-.06,0,0,0,0,.06,0,0,0,0,0,0,0,0h0s0,0,0,0h-.14s0,0,0,0,0,0,0,0,0,0,0,0,0,0,0,0,0,0,0,0h0c-.06,0,0-.06-.06,0h0s-.09,0-.1,0h0v0s0,0,0,0,0,0,0,0,0,0,0,0,0,0,0,0,0,0,0,0h0s0,0,0,0,0,0,0,0h0s-.09,0,0,0,0,0,0,0h0s-.11,0,0,0,0,0,0,0,0,0,0,0h0s0,0,0,0,0,0,0,0h0s0,0,0,0h0c-.1,0-.13,0-.09,0s0,0,0,0,0,0,0,0,0,0,0,0,0,0,0,0-.16-.06-.11-.1,0,0,0,0,0,0,0,0h0s0,0,0,0h0s0,0,0,0h0A1.05,1.05,0,0,1,95.77,2s0,0,0,0h0s-.05,0-.05,0,0,0,0,0h0s0,0,0,0h0s0,0,0,0h0s0,0,0,0l0,0s-.06,0,0,0h0s0,0,0,0,0,0,0,0v0c-.06.06-.08.08,0,.06s0,0,0,0h0s0,0,0,0-.23.07-.23.07,0,0,0,0h0s-.15,0-.09,0-.24.22-.19.09,0,0,0,0,0,0,0,0h0c-.13-.08-.16-.11-.11-.09s-.09,0-.06,0h0l0,0s0,0,0,0,0,0,0,0h0l-.27,0v0c-.05,0-.14,0-.18,0h0s0,0,0,0,0,0,0,0-.12.05-.08.06-.09,0-.09.07h0s0,0,0,0,0,0,0,0,0,0-.06,0,0,0,0,0,0,0,0,0-.22.07-.21.05-.08,0-.07,0-.13,0-.08-.06,0,0,0,0h0s0,0,0,0h0s0,0,0,0h0s0,0,0,0,0,0,0,0a.17.17,0,0,1-.14,0h0s0,0-.08,0,0,0,0,0l0,0h0s0,0,0,0,0,0,0,0-.08,0,0,0,0,0,0,0,0,0,0,0,0,0,0,0h0s-.05-.09,0,0,0,0,0,0-.12,0-.12,0,0,0,0,0,0,0,0,0l-.05.06v0s0,0,0,0,0,0,0,0h0s0,0,0,0,0,0,0,0h0s-.14.06-.08,0,0,0,0,0h0s0,0,0,0v0c0,.09,0,.11,0,.08v0s0,0,0,0,0,.09,0,.05l0,0s0,0,0,0,0,0,0,0,0,0,0,0h0s0,0,0,0l-.11.05c0-.06-.12,0-.11,0s-.09-.07,0,0,0,0,0,0,0,.09,0,.06,0,0,0,0-.1,0-.09,0h0c0-.06,0-.07,0,0h0c0-.08-.14.08-.12,0l0,0h0s-.08.13-.06.07,0,0,0,0h0l0,0s-.08,0,0-.06c.13.29-.21.06-.18,0s-.16,0-.15.1-.14,0-.12,0-.1,0-.09,0a.18.18,0,0,1-.09,0s0,0,0,0,0,0,0,0S91,3,91,3s0,0,0,0,0,0,0,0h0c-.06,0-.07.06,0,.06h0a0,0,0,0,0,0,0h0c-.09,0-.12,0-.08-.07h0c0,.05-.1,0-.09,0s0,0,0,0,0,0,0,0-.14-.16,0-.1,0,0,0,0h0s0,0,0,0,0,0,0,0l0,0,0,0s-.06,0,0,0,0,0,0,0,0,0,0,0h0v0h0s0,0,0,0h0c-.05,0,0-.1-.07-.08s0-.1,0-.08.07-.23,0-.13h0s0,0,0,0,0,0,0,0,0-.12,0-.07.07,0,0,0h0s0,0,0,0,0,0,0,0,0-.12,0-.09,0,0,0,0,0,.06-.06,0a0,0,0,0,1,0,0s0,0,0,0,0,0-.05,0,0,0,0-.05,0,0,0,0,0-.12,0-.09,0,0,0,0a0,0,0,0,0,0,0s0,0,0,0,0,0,0,0h0s0,0,0,0,0,0,0-.05,0,0,0,0,0,0,0,0,0,0,0,0,0,0,0,0,0,0,0,0,0,0,0,0h0s0,0,0,0,0,0,0,0,0,0,0,0,.13-.14.06-.08,0,0,0,0,0,0,0,0,.06-.05,0,0l0,0a.18.18,0,0,1,.06-.14s0,0,0,0,0,0,0,0,0,0,0,0,0,0,0,0,0,0,0,0,0,0,0,0h0s0,0,0,0,0,0,0,0a.14.14,0,0,0,.1,0s0,0,0,0,0,0,0,0,0,0,0,0h0s0,0,0,0,0-.1,0-.07v0s0,0,0,0h0s0,0,0,0,.1-.16.07-.11,0-.1,0-.07,0-.07,0-.05,0-.08,0-.05,0,0,0,0h0s0,0,0,0h0s0,0,0,0,0,0,0,0,0,0,0,0,.06-.07.09-.06,0,0,0,0,.12.08.17,0,0,0,0,0l0,0s.05-.1,0-.06,0,0,0,0,.15.09.13,0,0,0,0,0,0,0,0,0h0s0,0,0,0,0,0,0,0,0,0,0,0,.08,0,.06,0l0,0s0,0,0,0,.09,0,.07-.07,0,0,.06,0h0s0,0,0,0,0,0,0,0,.14,0,.11,0,0,0,0,0,0,0,0,0l0,0s0,0,0,0,0-.06,0,0,0,0,0,0h0s0,0,0,0h0s0,0,0,0,0,0,0,0a.07.07,0,0,0,.06,0s0,0,0,0,0,0,0,0,0,0,0,0,.13,0,.08,0,0,0,.06,0,0,0,0,0,0,0,0,0,0-.05,0-.06,0,0,0,0,0,0,0,0,0,0,0,0h0l.11,0h0s0,0,0,0h0s0,0,0,0,0,0,0,0h0c.07,0,.08,0,0,0s.05,0,0,0,0,0,0,0,0,0,0,0,.07,0,0,0,0,0,0,0,0,0,0,0,0,0,0,0,0,0,0,0,.08,0,.08,0h0s-.06-.07,0-.06h0s0,0,0,0,0,0,0,0l0,0s0,0,0,0,0,0,0,0,0,0,0,0,0,0,0,0,.1,0,.06,0a0,0,0,0,0,0,0s.14-.17.14,0c0,0,0,0,0,0s0,0,0,0,0,0,0,0h.06s0,0,0,0,0,0,0,0,.1,0,.08-.06l0,0s0,0,0,0,0,0,0,0l0,0h0c.07,0,.09,0,.06,0s.06,0,0,0,0,0,0,0,0,0,0,0,.07,0,0,.06.15,0,.11,0,0,0,0,0,.07,0,0,0,0,0,0,0,0,0,0,0,0,0,0,0,0,0,0,0,0,0,0,0h0s0,0,0,0c0-.2.06-.08.09-.08h0s0,0,0,0,0,0,0,0,.06,0,0,0,.07,0,0,0,0,0,0,0,.06,0,0,0a.33.33,0,0,1,.08-.06s0,0,0,0h0s0,0,0,0,0,0,0,0,0,0,0,0,0,0,0,0,.09,0,.07,0,.13,0,.1,0,0,0,0,0,0,0,0,0c.17-.08.21-.08.13,0s0,0,0,0,0,0,0,0h0s0,0,0,0,0,0,0,0,0,0,0,0,0,0,0,0,0-.07.06,0,0,0,0,0,0,0,0,0h0s0,0,0,0h0s0,0,.05,0,.06,0,0,0,0,0,0,0,0,0,0,0,0,0,0,0,0,0,0,0,.07,0,0,0,0,0,0,0,.05,0,0,0,0-.07.05,0,0,0,0,0,0,0,0,0,0,0,0,0l0,0h0s0,0,0,0,0,0,0,0,0,0,0,0h0s0,0,0,0h0s0,0,0,0,.08,0,0,0c0,.15.16-.13.12,0s0,0,0,0l0,0s0,0,0,0,0,.06,0,0,.06,0,0,0,.08-.12,0,0,.09,0,.06,0,0,0,0,0h0s0,0,0,0l0,0s0,0,0,0,0-.06,0,0l0,0s0,0,0,0,0,0,0,0l0,0s0,0,0,0,0,0,0,0h0c.07,0,.09,0,.07,0s0-.07,0,0,0,0,0,0h0s.06,0,0,0,0,0,0,0h0" style="fill:#002566;fill-rule:evenodd"/><path d="M107,2.92h0s0,0,0,0a0,0,0,0,0,0,0s0,0,.06,0,.06,0,0,0h0s0,0,0,0h0s0,0,0,0h0c.08,0,.1,0,.07,0s0,0,0,0h0s.14.12.06.13,0,.07.06.07h0c.1,0,.07.07.09,0s0,0,0,0,0-.1,0-.08,0,0,0,0,0,0,0,0h0s0,0,0,0,0,0,0,0,.13,0,.11.06,0,0,0,0h0c0-.07.09,0,.1,0s0,0,0,0h0s0,0,0,0,0,0,0,0,.09,0,.06,0,0,0,0,0,0,0,0,0,.18,0,.17.05,0,0,0,0h0s0,0,0,0,0,0,0,0a.17.17,0,0,0,.1,0s0,0,0,0h0s.15.06.09.08.07,0,0,.05h0s0,0,0,0,0,0,0,0h0s0,0,0,0h0c.08-.06.25.11.22.07a.18.18,0,0,0,.1.07c0,.06,0,.08.06.07s0,0,0,0,0,0,0,0,0,0,0,0,0,0,0,0l.11,0c.08,0,.1,0,.07,0s0,0,0,0,0,0,0,0,0,0,0,0,0,0,0,0,.12.11.12.11c.16-.15.1-.06.26,0,0,0,0,0,0,0h0c.13,0,.18,0,.14.09h0s0,0,0,0,.07,0,0,0h0s0,0,0,0h0s0,0,0,0,0,0,0,.06h0s0,0,0,0h0s0,0,0,0,0,0,0,0h0c0,.07,0,.09,0,.06h0a.3.3,0,0,0,.08-.08s0,0,0,0,0,0,0,0c.09.19.14,0,.12,0s0,0,.12,0,.08,0,.06,0,.06,0,0,0h0s0,0,0,0,0,0,0,0,.18,0,.25.06h0c.07,0,.09,0,.07,0s.08,0,0,0,.06,0,.05,0l0,0s0,0,0,0,0,0,0,0h0s0,.06,0,.05h0s0,0,0,0h0c.09,0,.11,0,.07,0s.12,0,.09,0,0,0,0,0h0c.07,0,.05,0,0,0s0,0,0,0,0,0,0,0h0c-.05,0,0,.06,0,.08h0s0,0,0,0,0,0,0,0h0s0,0,0,0,.1,0,0,0,0,0,0,0h0c-.21.07.06.07,0,.09h0s0,.14,0,.1,0,0,0,0,0,0,0,0,0,0,0,0h0s.06,0,0,0h0s0,0,0,0h0s0,0,0,0h0s0,.07,0,.11,0,0,0,0,0,.06,0,0c-.23.17.11.06,0,.08s0,0,0,.11h0s0,0,0,0h0c0,.06,0,.07,0,0s0,.06,0,0,0,.07,0,0h0s0,0,0,0,0,0,0,0,0,0,0,0h0c0,.07,0,.09,0,0s0,0,0,0,0,0,0,0h0s0,0,0,0h0s0,.34-.09.26,0,.05,0,0a.05.05,0,0,1,0,0s0,0,0,0h0c.05,0,0,.07,0,.09s-.12,0-.11,0,0,0,0,0,0,0,0,0h0s-.09,0-.08,0-.13.07-.08,0-.07.07,0,.06,0,0,0,0,0,0,0,0,0,0,0,0h0s-.13-.09-.13,0,0,0,0,0,0,0,0,0,0,.08,0,.07,0,0,0,0-.07.14,0,.07,0,0,0,0h0s-.08,0-.08-.06h0c-.15.08-.21.1-.18,0s0,0,0,0-.05,0,0,0-.06,0,0,0h0s0,0,0,0h0c-.07,0-.08,0,0,0l-.07,0s0,0,0,0h0c0,.08-.12,0-.07,0s-.07,0,0,0,0,0,0,0,0,0,0,0-.07,0-.05,0-.08,0,0,0h0a0,0,0,0,1,0,0h0c.06,0-.07,0-.06,0s0,0,0,0,0,0,0,0,0,0,0,0h0s0,0-.07,0h0c-.14,0-.18,0-.13,0h0c-.11,0-.14,0-.09,0h0c0-.07-.09,0-.07,0s0,0,0,0,0,0,0,0l0,0h0s-.22.1-.12.09,0,0,0,0,0,0,0,0l0,0s0,0,0,0,0,0,0,0,0,0,0,0h0s0,0,0,0h0s0,0,0,0,0,0,0,0h0s0,0-.06,0h0s-.13,0-.08.06l0,0s0,0,0,0h0c0-.09,0-.11,0-.06s0,0,0,0h0s-.14,0-.14,0,0,0,0,0h0l0,0s0,0,0,0v0h0s0,0,0,0h0s0,0,0,0h0s0,0,0,0h0s-.1.08-.07,0h0s0,0,0,0,0,0,0,0-.1,0-.09,0-.13.09-.06.08h0l0,0h0s0,0,0,0h0s0,0,0,0,0,0,0,0,0,0,0,0h0s0,0-.05,0h0s0,0,0,0,0,0,0,0h0c-.11.1-.15.12-.12.07s0,.06,0,0l-.1.09s0,0,0,0-.1,0-.09,0,0,0,0,0h0s0,0,0,0v0s0,0,0,0,0,0,0,0l0,0s0,0,0,0,0,.06,0,0,0,0,0,0,.17.24,0,.18c0,0,0,0,0,0h0s0,0,0,0h0c0,.06,0,.08,0,.06s0,0,0,0,0,0,0,0,0,.08,0,.06,0,0,0,.07,0,0,0,0a.16.16,0,0,0,.07.07h0s0,0,0,0,0,0,0,0h0c.11,0,.14,0,.09,0s.08.07.11,0,0,0,0,0,0,0,0,0c-.2,0,.12.2.08.12s0,0,0,0,0,0,0,0a0,0,0,0,1,0,0h0v0s0,.05,0,0,0,0,0,0l0,0h0c.09,0,.11.06.07,0,.09.15.1.18,0,.1s.08.13.08.11h0s0,0,0,0,.07,0,.07,0,.06.14.1.08,0,.06,0,0a.12.12,0,0,1,.05.05,0,0,0,0,0,0,0s0,0,0,0,.05,0,0,0a.08.08,0,0,0,.1,0c0,.06,0,.08,0,.06s.08.13.11.12h0s0,0,0,0h0c.06,0,.09,0,.07,0s0,0,0,0,0,0,0,0,.18.18.16.19l0,.11c-.09.07.06,0,0,.06s.07,0,.07.08h0s0,0,0,0h0s.06,0,0,0,.14.1.08.13h0c0,.08,0,.1,0,.09s0,0,0,0h0s0,0,0,0h0s0,0,0,0h0l0,0s.06.06,0,.06,0,0,0,0-.05,0-.05,0h0s0,0,0,0,0,0-.05,0h0s0,0,0,0h0s0,.05,0,0,.08,0,.1,0h0s0,.06,0,.05,0,0,0,0,0,0,0,0,0,0,0,0h0s0,.05,0,.05h0v.14c0,.08,0,.1,0,0s0,0,0,0,0,0,0,0,0,0,0,0,0,0,0,0,0,0,0,0,0,0,0,0h0s0,.21.06.14,0,0,0,0,0,.09,0,.09,0,0,0,0h0s0,0,0,0h0s0,0,0,0,0,0,0,0h0V9.5h0s0,.09,0,.09,0,0,0,0,0,0,0,0h0a.19.19,0,0,1,0,.09h0s0,0,0,0,0,0,0,0,0,0,0,0h0a0,0,0,0,1,0,0h0s0,0,0,.05h0v0c0,.05-.06.14,0,.15s-.06.07,0,0,0,.1,0,.08,0,.06,0,0,0,0,0,0,0,0,0,0-.09.05-.1.05,0,0,0,0,0,0,0,0,0,0,0,0h0c-.11,0-.14,0-.08,0a.16.16,0,0,0-.1.08s0,0,0,0,0,0,0,0h0l0,0v0s0,0,0,0h0s0,0,0,0,0,0,0,0l0,0h0c-.05,0,0,.05,0,.06s0,0,0,0v0s-.07.1-.06.1h0s-.09,0-.08,0,0,0,0,0,0,0,0,0,0,.11,0,0l0,0s0,0,0,0,0,0,0,0h0c-.18.09.05.05,0,.1h0q-.06.15,0,.09s-.09,0-.1,0,0,0,0,0h0s0,0,0,0h0v0s0,0,0,0,0,0,0,0l0,.06s0,0,0,0l0,.07h0s0,0,0,0,0,0,0,0,0,0,0,.05,0,0,0,0,0,0,0,0,0,0,0,.06h0s-.06,0,0,0,0,0,0,0,0,0,0,0h0c-.07,0-.09,0-.07,0s-.16.13-.15.06h0s0,0,0,0,0,.06,0,0,0,.05-.06,0-.07,0,0,0h0s0-.07-.07,0,0,0,0,0,0,0,0,0h0s0,0,0,0h0s0,0,0,0h0s0,0,0,0h0s0,0,0,0,0,0,0,0-.09,0-.08,0-.08,0,0,0h0s-.06,0,0,0,0,0,0,0h0s0,0,0,0h0s0,0,0,0,0,0,0,0,0,0,0,0h0s-.07,0,0-.06v0c-.07,0-.1,0-.07,0s0,0,0,0h-.08s-.07,0-.06,0h0l0,0s0,0,0,0l0,0s0-.08-.07,0,0,0,0,0l0,0s0,0,0,0h0s-.13,0-.1,0,0,0,0,0,0,0,0,0l0,.06s-.06,0,0,0h-.08s0,0,0,0h0v0h0s0,0,0,0,0,0,0,0h0s0,0,0,0h0l0,0-.05,0h0s0,0,0,0h0c-.08,0-.09,0,0,0a0,0,0,0,0,0,0s-.07,0,0,0h0s0,0,0,0,.07,0,0,0,0,0,0,0,0,0,0,0h0l-.06,0a0,0,0,0,0-.06,0s0,0,0,0h0c.25.3-.25,0-.16,0h-.12s0,0,0,0,0,0,0,0h0l0,0h0s0,0,0,0,0,0,0,0,0,0,0,0,0,0,0,0h0s0,0,0,0-.09,0-.06,0-.14,0-.1,0h0s0,0,0,0-.17.17-.13.06,0,0,0,0h0s-.07,0-.06,0,0,.06,0,0h0s0,0,0,0-.29.13-.21.1,0,0,0,0h0c0,.06,0,.12-.15.11s0,.1,0,.1,0,0,0,0h0l0,.1s.05,0,0,0,0,0,0,0,0,0,0,0h0s-.07.07,0,.07v0s0,0,0,0h0s0,.11,0,.15h0s.08,0,0,0h0s0,0,0,0h0s0,0,0,0,0,0,0,.06h0s0,0,0,0,0,0,0,0,0,.05,0,0,0,0,0,0h0c0,.13,0,.17,0,.12s-.06.08-.06,0,0,0,0,0h0s0,0,0,0l0,.05v0h0s0,.1,0,.12-.05.08-.05,0,0,0,0,.05h0s0,.13,0,.09,0,.1,0,.07,0,.07,0,0,0,.09,0,.06,0,0,0,0h0c0,.07,0,.09,0,.06h0s0,0,0,0,0,0,0,0,0,0,0,0h0c0,.1,0,.14,0,.11s0,0,0,0,0,0,0,0h0s0,.09,0,.1l0,0h0s0,.09,0,.08,0,.05,0,0,0,.1,0,.09,0,0,0,0h0s0,0,0,0,0,0,0,0h0v0h0s0,0,0,.05h0a.18.18,0,0,1,0,.06s0,0,0,0h0s0,0,0,.07,0,0,0,0,0,0,0,0,0,0,0,0h0s0,0,0,0,0,0,0,0v0c0-.05.08.06,0,0s0,.05,0,0,0,0,0,.06h0a0,0,0,0,1,0,.05c.07,0,0,0,0,.07s0,0,0,.06,0,0,0,0,0,0,0,0h0v0h0s0,0,0,0h0c-.05.06-.06.09,0,.07s0,0,0,0h0v.07h0c0,.09.1,0,.14.08h0s0,0,0,0,0,0,0,.05,0,0,0,0,0,0,0,0h0s0,0,0,0h0l0,0c0,.14,0,.19,0,.14,0,.14,0,.18,0,.13s0,0,0,0h0s0,0,0,0h0s0,0,0,0h0V15s0,0,0,0,0,0,0,0-.06.13,0,.09v0s0,0,0,0,0,0,0,0,0,.06,0,0,0,.08,0,0h0v0h0s0,0,0,0,0,0,0,0,0,.06,0,.05-.08.08,0,0h0l0,0s0,0,0,0,0,0,0,0,0,.07,0,.05,0,0,0,0h0v0h0c0,.05,0,.07,0,.05s.11.06.08.07,0,0,0,0,0,0,0,0,.09.05.08.09,0,0,0,0,0,.13,0,.12,0,0,0,0,0,0,0,0l0,0s0,0,0,0,0,0,0,.06.1,0,.06,0,0,0,0,0h0s0,0,0,0,0,0,0,0h0s0,0,0,0,0,.06,0,.05-.07.08-.07,0,0,0,0,0,0,0,0,0,0,.08,0,.05,0,.11,0,.08,0,0,0,0h0c0,.12,0,.16,0,.14s0,0,0,0h0s0,0,0,0,0,.07,0,.06-.07.1-.06,0h0s0,0,0,0h0s0,.11,0,.08,0,0,0,0,0,0,0,0,0,0,0,0,0,0,0,0,0,0,0,0h0l-.05,0h0s0,0,0,0,0,0,0,0-.08,0,0,0,0,0,0,0,0,0,0,0a0,0,0,0,0,0,0s0,0,0,0,0,0,0,0,0,0,0,0-.17.17-.16.15l-.06.08s0,0,0,0,0,0,0,0,0,0,0,0,0,0,0,0,0,0,0,0-.07,0,0,0,0,0,0,0v0s-.09,0-.06,0,0,0,0,0,0,0,0,0,0,0,0,0,0,0,0,0h0c-.05,0-.07,0-.05,0s-.08-.07,0-.08,0,0,0,0,0,0,0,0-.14-.05-.08-.05a0,0,0,0,0,0,0s0,0,0,0,0,0,0,0h0s0-.06,0,0a0,0,0,0,0,0,0s0,0,0,0,0,0,0,0,0,0,0,0,0-.08,0-.07h0s0,0,0,0a.38.38,0,0,0-.22-.07c.08,0-.07,0,0,0s0,0,0,0h0s0-.1,0-.08-.31,0-.19,0,0,0,0,0,0,0,0,0,0-.08,0-.08-.06-.07-.1,0,0,0,0,0-.1,0-.06,0,0,0,0,0,0,0,0,0-.08-.07,0,0a.2.2,0,0,1-.09-.13s0,0,0,0,0,0,0,0,0,0,0,0h0s0,0,0,0,0,0,0,0,0-.11,0-.08h0s0,0,0,0h0s0,0,0,0l.05,0h0c.1-.05-.1,0,0,0a.06.06,0,0,0-.08,0h0c0,.08-.08-.26,0-.11h0a.11.11,0,0,1,.08-.05v0h0l-.09-.06s0,0,0,0h0s0,0,0,0,0,0,0,0,0,0,0,0,0,0,0,0,0,0,0,0,0,0,0,0,0,0,0,0,0,0,0,0,0-.09,0-.08h0c0-.11,0-.11,0-.1s0-.06,0,0a0,0,0,0,0,0,0h0s0,0,0,0h0s0,0,0,0h0s0,0,0,0,0,0,0,0c.33-.25,0-.07,0-.12h0s0,0,0,0,0,0,0,0l0-.11s0,0,0,0,0,0,0,0v0s0,0,0,0,0,0,0-.05h0c0-.06-.05-.08,0-.07s0-.08,0-.05,0-.13,0-.1,0,0,0,0h0s0,0,0,0v0a0,0,0,0,1,0-.06s-.08,0,0,0h0s-.05,0,0-.06h0l0,0s0,0,0,0h0c0-.08,0-.13-.06-.1h0c-.06-.07,0-.09,0-.13s0,0,0,0l0,0h0s0,0,0,0,0,0,0,0h0s0-.06,0-.06h0c0-.12,0-.11-.09-.11s0,0,0,0,0,0,0,0h0s.07,0,0,0,0,0,0,0h0a.17.17,0,0,0,0-.12s0,0,0,0h0s0,0,0-.05a0,0,0,0,0,0,0h0s0,0,0,0h0c0-.21.17,0,0,0s0,0,0,0h0l0,0h0s0-.06,0-.07h0s0,0,0-.06h0s0-.06,0,0,0,0,0,0h0s0,0,0,0h0s0,0,0,0a.47.47,0,0,1,0-.17h0s-.14-.15-.1-.22h0v0h0s.13-.07.1-.07,0,0,0,0h0s0,0,0,0h0s0-.06,0,0,0,0,0,0,0,0,0,0v0h0s0-.09,0-.08h0s0,0,0,0,0,0,0,0,0,0,0,0,0,0,.06-.09,0,0,0,0h0c0,.05,0,.06,0,0a0,0,0,0,0,0,0s0,0,0,0,0,0,0,0h0s0,.08,0,0,0,0,0,0,0,0,0,0h0s0,0,0,0,0,0,0,0,0,0,0,0h0c.07-.11.08-.16,0-.14s0,0,0,0h0s0-.1,0-.11,0,0,0,0,0,0,0,0h0s0,0,0,0h0s0,0,0,0,0-.16,0-.15,0,0,0,0,0-.08,0-.09,0,0,0,0h0v0h0s0,0,0-.05,0-.06,0,0h0s0-.05,0,0h0s0,0,0,0h0a.21.21,0,0,0-.06-.12s0,0,0,0h0s0,0,0,0h0s0-.1,0,0,0,0,0,0,0,0,0,0a.06.06,0,0,1,0-.07v0h0a0,0,0,0,1,0,0s0,0,0,0,0,0,0,0h0v0h0s0,0,0,0h0s0,0,0,0h0s.07-.1,0-.11,0,0,0,0h0s0-.18,0-.17h0s0,0,0,0h0s0,0,0,0h0s0,0,0,0h0s0,0,0,0h0s0-.07,0-.05,0,0,0,0h0s0,0,0,0,.11-.17,0-.15,0,0,0,0h0s0,0,0,0h0s0-.18-.05-.13,0-.1,0-.09,0,0,0,0h0s0-.07,0-.07h0s0,0,0,0,0,0,0,0h0v0h0s0,0,0,0-.09-.16-.1-.17h0s0-.06,0,0c0-.13.06-.16.05-.11a.07.07,0,0,1,0,0h0c-.08,0,0-.08,0,0s0,0,0,0,0,0,0,0h0s0,0,0,0h0l0,0s0,0,0,0,.1-.07.08,0v0s0,0,0,0,0,0,0,0,0,0,0,0,0,0,0,0l0,0h0s0,0,0,0,0-.05,0,0,0,0,0,0h0s0,0,0,0h0a0,0,0,0,1,0,0h0s0-.17,0-.17,0,0,0,0,0,0,0,0v0s0,0,0,0,0,0,0,0l0,0s0-.05,0-.05h0s-.09-.18-.09-.2,0,0,0,0a0,0,0,0,1,0,0h0s0,0,0,0h0s0,0,0,0h0c0-.06,0-.08,0-.05s0-.1,0-.08,0,0,0,0a.67.67,0,0,1,0-.17s0-.06,0,0,0,0,0,0a0,0,0,0,0,0,0s0,0,0,0,0-.1,0-.08,0,0,0,0,0,0,0,0h0c0-.06,0,0,0,0a0,0,0,0,0,0,0s0,0,0,0l0-.07V8.67h0c.09,0,0-.11,0-.12s0,0,0,0,0,0,0,0,0,0,0,0h0c0-.08,0-.11,0-.07s0,0,0,0,0,0,0,0h0c0-.05-.06-.07,0-.05h0a0,0,0,0,1,0,0s0,0,0,0,.13-.15,0-.14,0,0,0,0,0,0,0,0h0v0s0,.05,0,0h0s0,0,0,0h0s0,0,0,0h0s0,0,0,0h0s0,0,0,0h0a0,0,0,0,1,0-.06h0s0-.05,0,0V8h0s0,0,0,0a0,0,0,0,1,0,0h0c0-.06,0,0-.06,0s0-.14,0-.13-.06,0,0,0l0,0c0-.08,0-.1-.07-.07s0,0,0,0h0c0-.08,0-.11,0-.08h0s-.05-.07-.07,0,0-.07,0,0,0-.06,0,0,0-.06,0,0a0,0,0,0,0,0,0s0,0,0,0,.11-.11.08-.07,0,0,0-.07h0s0,0,0,0,0,0,0,0,0,0,0,0h0s0,0,0-.09h0s0,0,0,0l.08-.08s0-.08,0-.08h0v0s.09-.16.09-.11.09,0,0,0h0c.09-.08.1-.11.07-.08s0-.06,0,0,0-.17.06-.13c.07-.17.07-.23,0-.19s0,0,0,0h0s-.08-.29-.07-.18,0,0,0,0h0s0,0,0,0,0,0,0,0,0-.08,0,0,0-.06,0,0,0-.06,0-.05,0-.06,0,0,0,0,0,0,0,0,0,0h0s0,0,0,0,0,0,0,0h0c-.05,0-.06,0,0,0s0,0-.06,0h0c-.06.08-.06,0,0,0s0,0,0,0,0,.07,0,0,0-.14.06-.1,0,0,0,0,0,0,0,0,0,0,0,0h0s0,0,0,0,0,0,0,0,0,0,0,0,0,0,0,0h0s0,0,0,0h0s0,0,0,0h0a0,0,0,0,1,0,0h0s0,0,0,0,0,0,0,0,0,0,0,0,0,0,0,0,0,0,0,0,0-.07,0,0,0,0,0,0h0s0,0,0,0,0,0,0,0h0s-.06-.12-.07-.06h0c0-.09,0-.11,0-.07v0s0,0,0,0,0,0,0,0-.06,0,0,0h0s0,0,0,0,0-.06,0-.07,0,0,0-.05.06,0,.06,0a0,0,0,0,0,0,0s0,0,0,0h0c0-.08,0,0,0,0s0,0,0,0,0,0,0,0,0,0,0,0-.14,0-.08,0-.07-.07,0-.06-.08,0,0,0h0s0,0,0,0v0c0-.08-.07-.1,0-.06s0,0,0,0h0s0,0,0,0-.12.07-.13.09,0,0,0,0h0s0,0,0,0,0,0,0,0,0,0,0,0-.16.07-.13,0h0s0,0,0,0,0,0,0,0,0,0,0,0h0s0,0,0,0,0,0,0,0,0,0,0,0h0s-.07-.09-.13-.06l-.22.07h0l-.19,0s0,0,0,0h0s0-.08-.07-.06,0,0,0,0,.08,0,0,0,0,0,0,0,0,0,0,0,0,0,0,0,0,0,0,0,0,0,0,0,0,0,0,0h0s0,0,0,0,0,0,0,0,0,0,0,0,0,0,0,0,0,0,0,0h0s0,0,0,0,0,0,0,0-.2,0-.14,0,0,0,0,0a0,0,0,0,1,0,0v0s0,0,0,0-.06,0,0,0,0,0-.06,0h0s0,0,0,0l-.13,0s0,0,0,0h0c-.05,0-.06-.06,0,0s-.1-.12,0,0,0,0,0,0,0,0,0,0h0s0,0,0,0h0c0,.11,0-.14,0-.08s0,0,0,0h0s0,0,0,0h0v0s0,0,0,0,0,0,0,0h0c0-.06,0-.08,0,0a.13.13,0,0,0,.06-.07s0,0,0,0,0,0,0,0,0,0,0,0,0,0,0,0,0-.12,0-.09,0,0,0,0h0s0,0,0,0,0,0,0,0,0-.09,0-.11h0s0,0,0,0,0,0,0,0,.06-.06.06,0a.61.61,0,0,0,0-.16c.12,0,.15,0,.1,0s0,0,0,0,0,0,0,0,0-.06,0-.05,0,0,0,0h0s.06,0,.06,0,.09,0,.07,0,0,0,0,0l0,0s0,0,0,0h0s0,0,0,0,.13-.13.1-.08,0,0,0,0,0,0,0,0h0s0,0,0,0,0,0,0,0,0,0,0,0h0s0,0,0,0,.06,0,0,0,.13-.08.1,0l0,0s0,0,0,0,0,0,0,0,0,0,0,0,0,0,0,0,0,0,0,0,.09,0,.06,0,0,0,0,0,0,0,0,0,0,0,0,0h0s0,0,0,0,.12-.08.07-.07.16,0,.13.06,0,0,0,0,0,0,0,0,0,0,0,0,0,0,0,0,0,0,0,0,0,0,0,0,0,0,0,0,0,0,0,0h0s0,0,0,0,0,0,0,0,0,0,0,0,.13-.07.08,0l0,0s0,0,0,0h0s0,0,0,0,.17-.09.15,0l0,0h0c.08,0,.1,0,.08,0s0,0,0,0,0,0,0,0,0,0,0,0,0,0,0,0h0s0,0,0,0,0,0,0,0v0c0-.12,0-.16,0-.11s.07-.06.06,0H102s.06,0,0,0h0s0,0,0,0h0s0,0,0,0h0s.1-.17.05,0l0-.05s0,0,0,0,.13,0,.09,0a0,0,0,0,0,0,0s0,0,0,0,.23,0,.16,0,.07,0,0,0,0,0,0,0h0a.17.17,0,0,0,.06-.06s0,0,0,0,.08,0,.06,0,.06,0,.06,0,0,0,0,0,0,0,0,0,0-.06,0,0,.12-.07.1,0,0,0,0,0,0,0,0,0,0,0,0,0,0,0,0,0,0,0,0,0H103s.05,0,0,0,.06,0,.05,0,0,0,0-.05a0,0,0,0,1,.06,0s0,0,0,0,0,0,0,0,.09,0,.06.1,0,0,0,0l0,0,0,0s0,0,0,0,0,.05.08,0l0,0s0,0,0,0,0,0,0,0h0s0,0,0,0,0,0,0,0l.07,0s0,0,0,0l0,0s0,0,0,0,.07-.05,0-.06h.15s0,0,0,0h0s0,0,.06,0h0c0,.06.12-.09.11,0s0,0,.07,0,.09,0,.07,0,0,0,0,0,0,0,0,0,0,0,0,0l0,0s0,0,0,0,0,0,0,0,0,0,0,0h0s0,0,0,0h0s0,0,.06,0,0,0,0,0,.22-.07.14,0c.09,0,.12,0,.09,0s0,0,0,0h0s.06,0,0,0,.09-.08.07,0,0,0,0,0h0s0,0,0,0,0,.07,0,.07h0s0,0,0,0,0,0,0,0h0s0,0,0,0c0,.16.18-.11.15,0s0,0,0,0h0s0,0,0,0,0,0,0,0,0,0,0,0h0s0,0,0,0,0,0,0,0,0,.1.09.08,0,0,0,0,0,0,0,0h0l.08,0c.06,0,.08,0,.05,0,.14,0,.19,0,.17,0a.17.17,0,0,0,.18,0h0c.1,0,.14,0,.1,0s0,0,0,0,0,0,0,0h0s0,0,0,0,0,0,0,0,.07,0,0,0l.06,0s.08,0,.07,0,.08,0,0,0,.06,0,0,0,0,0,0,0h0s.11,0,.07,0,.11,0,.08,0,.09,0,.07,0,0,0,0,0h0l0,0h0c.07,0,.09,0,.06,0s.15.06.1,0,.08,0,.07,0,0,0,0,0h0s0,0,0,0,0,0,0,0,0,0,0,0,0,0,.06,0h0c.06,0,.07,0,0,0s0,0,0,0,0,0,0,0,0,0,0,0h0s0,0,0,0,0,0,0,0,0,0,0,0l0,0c.11-.13,0,0,.06,0h0s0,0,0,0h0s0,0,0,0l0,0h0l.13,0s0,0,0,0,0,0,0,0h0m-4.09,6.76,0,0,0,0m.39-6.38,0,0,0,0m1.92,1.62s-.07,0,0,0,0,0,0,0h0a.06.06,0,0,0-.06,0s0,0,0,0l0,0,0,0s0,0,0,0,0,0-.06,0h0s0,0,0,0,0,0,0,0,0,0,0,0l0,0h0c-.07.05,0,.07,0,.06s.06,0,0,0c0-.19-.7,0-.52.05-.46.26.28,1.17.22,1.24h0s0-.06,0,0,.53-.12.64-.09.59-.26.63-.25,0,0,0,0h0c0-.05,1-.43.59-.53a.93.93,0,0,0-.92-.5h0s0,0,0,0m.05,2.71h0c-.07,0-.12.18-.18.13h0c-.07,0-.08,0,0,0s0,0-.06,0,0,0,0,0h0s-.08,0,0,0l0,0s0,0,0,0,0,0,0,0,0,0,0,0,0,0,0,0v0h0v0h0s0,0,0,0h0s-.06,0,0,0c-.3,0-1.13.2-.73.72,0,0,0,0,0,0h0s0,0,0,0,0,0,0,0,0,0,0,0h0s0,0,0,0h0s0,0,0,0h0s0,0,0,0h0s0,0,0,0h0s0,0,0,0h0a.34.34,0,0,1,0,.1s0,0,0,0,0,0,0,0h0s0,0,0,.05.06,0,0,0,0,0,0,0,0,0,0,0c0,.25,0,.32,0,.23s0,0,0,.05h0s0,0,0,0h0q0,.11,0,.06l0,0s0,.05,0,.05h0l.08,0h0s0,0,0,0,0,.08,0,.08,0,0,0,0h0s.07,0,0,0,.07.07,0,.05,0,0,.06,0h0s0,0,0,0h0s0,0,0,0,.06.06.06,0,0,0,0,0h0c.05,0,.07,0,.05,0s0,0,0,0h0s0,0,0,0,0,0,0,0l.1,0s.07,0,.06,0h0s0,0,0,0,0,0,0,0l0,0s0,0,0,0,0,0,0,0,0,0,0,0,.07,0,0,0,0,.06.07,0h0l0,0s0,0,0,0a0,0,0,0,1,0,0c0,.08,0,0,.07,0h0c.07,0,.09-.05.06-.08h0s0,0,0,0h0s0-.14,0-.1h0s0,0,0-.05h0s0,0,0,0h0s.07,0,.05,0h0s0,0,0,0h0s0,0,0,0,0,0,0,0h.07s0,0,0,0l0,0c0-.05.06-.06,0,0s.07-.05.06,0,0,0,0,0h0s.05,0,0,0,.08,0,.06,0l.09-.08,0,0q.09-.08.06,0a0,0,0,0,0,0,0h0c0-.09.06-.12.06-.08v0h0s0,0,0,0,0,0,0,0h0s0,0,0,0,0,0,0,0h0s0,0,.06,0h0s.1-.05,0,0,.1-.13.08-.07,0,0,0,0,0,0,0,0h0c0,.06,0,.08,0,.07h.06s.14-.06.15-.07,0,0,0,0a.11.11,0,0,1,.07,0h0c.08,0,.1,0,.07,0s.07,0,.09.1,0,0,0,0h0s0,.06,0,.05,0,0,0,0,.11-.06.09,0,0,0,0,0,0,0,0,0h0c.11,0,.15,0,.12,0h0s0,0,0,0,0,0,0,0l0,0,0,0h0c.09-.06.12,0,.12-.08s0-.1,0-.07,0,0,0,0h0s0,0,0,0h0s0,0,0,0h0s0,0,0,0,0,0,0,0l0,0s0,0,0,0v0h0c.1-.09,0-.12,0-.12s.05,0,0-.05h0s0-.06,0,0v0s0,0,0,0,0,0,0,0,0,0,0,0,0,0,0,0h0s0,0,0,0,0,0,0,0,0,0,0,0,0,0,0,0c0-.19,0-.26,0-.2s0-.08,0-.08-.05,0,0,0h0s-.12,0-.1-.06h0s-.05-.06,0-.07h-.09s-.07-.06,0,0-.07,0,0,0,0,0,0,0,0,0,0,0a0,0,0,0,0,0,0s0,0,0,0-.13,0-.11,0h0l0,0a.13.13,0,0,1,0-.07h0l-.07,0s0,0,0,0h0s0,0,0,0a0,0,0,0,0,0,0s0,0,0,0,0,0,0,0,0,0,0,0h0s0,0,0,0h0s0,0,0,0,0-.06,0,0-.08,0,0,0h-.1v0s-.06,0-.06,0h-.07s0,0,0,0h0s0,0,0,0,0,0,0,0-.07-.16-.08-.12,0,0,0,0,0,0,0,0,0,0,0,0,0,0,0,0,0,0,0,0h0s-.06,0-.06,0l0,0-.07-.08h0s-.16.18-.12.07a.17.17,0,0,1-.07,0s0,0,0,0,0,0,0,0,0,0,0,0,0,0,0,0" style="fill:#002566;fill-rule:evenodd"/><path d="M94.34,3h0l0,0s0,0,0,0,0,0,0,0,0,0,0,0h0s0,0,0,0,0,0,0,0,0,0,0,0l.08,0s.06,0,0,0l0,0s0,0,0,0,.05,0,0,0,0,0,0,0h0c0,.08.11,0,.08,0s.1,0,.07,0,.11,0,.09,0,0,0,0,0,0,0,0,0,0,0,0,0,0,0,0,0h0c0-.1,0-.08,0,0s0,0,0,0,0,0,0,0,0,0,0,0h0s0,0,0,0,0,0,0,0,0,0,0,0,0,0,0,0h0s0,0,0,0,0,0,0,0,0,0,0,0,0,0,0,0,0,0,0,0h0s0,0,.08,0,0,0,0,0h0s0,0,0,0,0,0,0,0,.08,0,.06,0,.14,0,.1.07,0,0,0,0,0,0,0,0l0,0,0,0,0,0h0c.1,0,.13,0,.1,0s0,0,.06,0h0s0,0,0,0h0a0,0,0,0,1,0,0c.06-.07,0,.07.06,0h0s0,0,0,0,.07,0,.08,0,.15,0,.18,0,0,0,0,0,0,0,0,0h0s0,0,0,0,0,0,0,0a0,0,0,0,0,0,0c0-.07,0,.09.07.06h0c.15-.11,0,.14.13,0s0,0,0,0,0,0,0,0,0,0,0,0,.07,0,.06-.05h0c.13-.12,0,.17.12,0s0,0,0,0,0,0,.05,0h0s.06,0,0,0,0,0,0,0,0,0,0,0,.08,0,0,0,0,0,.07,0,0,0,0,0,0,0,0,0,0,0,0,0,0,0,0,0,0,0,0,0,0,0,0,0,.05,0,.05,0h0c.06-.06.08,0,.09,0a.08.08,0,0,1,.05-.07h0c.06,0,.08,0,.06,0h0s0,.07,0,.06,0,0,0,0,0,0,0,0h0s0,0,0,0,0,0,0,0,0,0,0,0,0,0,0,0h0s0,0,0,0,0,0,0,0h0s.06,0,0,0,.15-.07.11,0,.13,0,.12,0,0,0,.06,0,0,0,0,0,.15,0,.07.07,0,0,0,0,0,0,0,0a.15.15,0,0,0,.09,0s0,0,0,0,0,0,0,0,0,0,0,0,0-.05,0,0,0,0,0,0,.14,0,.11.06,0,0,0,0,0,0,0,0,0,0,0,0,0,0,0,0,0,0,0,0,.06,0,0,0,0,0,0,0,0,0,0,0h0s0,0,0,0,0,0,0,0,0,0,0,0,0,0,0,0,0,0,0,0,0,0,0,0,0,0,0,0h0s0,0,0,0,0,0,0,0,.14.16.21.16.12.11.07.09.08.15.09.13,0,0,0,0l0,0c.06,0,.08,0,.07,0s0,0,0,0v0h0s0,0,0,0,0,0,0,0,0,0,0,0h0s0,.06,0,0,0,0,0,0h0s0,0,0,0,.05,0,0,0,0,0,0,0,0,0,0,0h0s-.05.05,0,.1h0s.07.07.08.06,0,0,0,0a0,0,0,0,0,0,0s0,0,0,0,0,0,0,.05h0s0,0,0,0,0,0,0,0,0,.06,0,0,0,0,0,0v0h0s0,0,0,0,0,0,0,0,0,0,0,0,0,.08,0,.07-.13.1-.14.12h0s0,0,0,0h0s0,0,0,0,0,0,0,0,0,0,0,0-.06,0,0,0-.06,0,0,0-.19.11-.19.16,0,0,0,0,0,0,0,0,0,0-.07,0,0,0,0,0h0s0,0,0,0l0,0v0c-.09,0-.13,0-.11,0s-.1,0-.08,0h0s0,0,0,0,0,0,0,0,0,0,0,0,0,.06,0,0,0,.13-.08.07,0,0,0,0h0c-.05,0-.06,0,0,0s0,0,0,0,0,0,0,0,0,0,0,0h0c0-.1,0,0-.06,0h0s0,0,0,0,0,.07,0,0h0s0,0,0,0-.09.08-.07,0l0,0h0C97,5,97,5,97,5s-.07,0,0,0,0,0,0,0-.07,0,0,0h0q-.09.15-.06.09h-.11s-.06,0-.06,0,0,.07,0,0,0,.06,0,.08h0s0,0,0,0h0s0,0,0,0h0l0,0s0,0,0,0,0,0,0,0,.06,0,0,.06h0s0,0,0,0,0,.06,0,.06h0v0s0,0,0,0,0,0,0,0,0,0,0,0,0,0,0,0,0,.09,0,.07v0h0s0,0,0,0h0s0,0,0,0,0,.05,0,0,0,.06,0,0,0,0,0,0h0a.25.25,0,0,1,0,.13h0s0,0,0,0,0,0,0,0,0,0,0,0h0s0,0,0,0,.08.05,0,0,0,0,0,0,0,0,0,0,0,0,0,.06,0,0,0,0,0,0,0,0,0,0,0,0,0,.08,0,.06h0s0,.12,0,.11h0c0,.08,0,.1,0,.09s0,0,0,0h0s0,0,0,0h0c0,.11,0,.14,0,.1s0,0,0,.07h0s0,0,0,0h0c0,.06.05.08.05,0s.14.09.09.11.06,0,0,0l0,0s0,0,0,0,0,0,0,0,0,0,0,0,0,0,0,0,.05,0,0,0,0,0,0,0,0,0,0,0l.16,0s0,0,0,0,0,0,0,0,0,0,0,0,.1.08.11.09h0c.1,0,.13,0,.09.07h0s.07,0,0,0h0s.07,0,.06,0,.07,0,0,0,.1,0,.06,0,.09,0,.07,0,.11,0,.07,0,.21-.14.2-.11,0,0,0,0h0l0,0h0l.05,0,0,0s0-.06.06,0h0s.07,0,0,0h.07c.07,0,.1,0,.07,0s0,0,.06,0,0,0,0,0,.2,0,.14,0,0,0,0,0,0,0,0,0,0-.07,0,0,0,0,0,0,0,0,0,0h0s0,0,0,0h0s0,0,0,0h0s.1.06.07.07,0,0,0,0h0s0,0,0,0h0s0,0,0,0,0,0,0,0l0,0s0,0,0,0,0,0,0,0,0,0,0,0,.08,0,.05,0h0s0,0,0,0h0s.15,0,.08,0,.09,0,.07,0,0,0,0,0h0s.08,0,0,0,.18.19.13.2h0c.16.11.05.15.07.26h0s0,0,0,0h0c0,.1,0,.13,0,.09s0,.11,0,.08,0,0,0,0h0s0,0,0,.06h0c.1,0-.09.18,0,.2s0,.11,0,.09l0,0h0s0,0,0,0-.08.13,0,.09,0,.08,0,0,0,.08,0,0,0,.08,0,.06,0,0,0,0-.09.05-.08,0l0,0h0s0,0,0,0h0a0,0,0,0,0-.05,0h0s0,0,0,0h0l0,0s0,0,0,0-.07.1,0,.08-.09,0,0,0,0,0,0,0,0,0,0,0,0-.07,0,0h0l0,0s0,0,0,0,0,.06-.06,0h0s0,0,0,0,0,0,0,0V8h0V8s0,0,0,0V8l0,0s0,0,0,0,0,0,0,0,0,0,0,0h0s0,0,0,0h0s-.06,0,0,0,0,0,0,0V8l0,0s0,0,0,0h0s0,0,0,0h0s0,0,0,0,0,0,0,0-.14,0-.1,0,0,0,0,0h0V8s-.06,0,0,0,0,0,0,0,0,0,0,0,0,0,0,0,0,0,0,0-.07,0-.07,0-.06,0,0,0l0,0h0s0,0,0,0,0,0,0,0,0,0,0,0-.25-.34-.08-.2c0,0,0,0,0,0s0,0,0,0h0s0,.08,0,.06,0,0,0,0,0,0,0,0h0c0-.07,0,0,0,0s0,0,0,0,0,0,0,0a0,0,0,0,1,0,0l0,0h0c-.12.06-.16.07-.12,0s0,0,0,0-.06,0,0,0,0,0,0,0,0,0,0,0,0-.06,0,0a.08.08,0,0,1,0-.09s0,0,0,0,0,0,0,0-.18,0-.12,0-.12.07-.1.05h0c-.06,0-.08,0-.08,0h0s0,0,0,0l0,0s0,0,0,0,0,0,0,0h0s0,0,0,0,0,0,0,0h0s-.11,0-.09,0h0s0,0,0,0,0,0,0,0h0s0,0,0,0-.09,0-.06,0,0,0,0,0,0,0,0,0h0s0,0,0,0-.19,0-.15,0,0,0,0,0h0l0,0v0h0s0,0,0,0,0,0,0,0h0s0,0,0,0,0,0,0,0h0s0,0,0,0,0,0,0,0,0,0,0,0h0c-.07,0-.1,0-.08,0s0,0,0,0h0c-.07,0-.1,0-.1,0s-.09,0-.08,0,0,0,0,0,0,0,0,0h0s0,0,0,0H96c.06,0-.09.16-.06,0s0,0,0,0h0c-.1,0-.14,0-.1-.07s0,0,0,0,0,0,0,0,0,0,0,0h0s0,0,0,0,0,0,0,0h0s0,0,0,0-.08,0,0,0h0s0,0,0,0,0,0,0,0h0s0,0,0,0h0s-.08,0,0,0h0s0,0-.09,0,0,0,0,0-.08,0-.08,0,0,0,0,0h0s0,0,0,0,0,0,0,0,0,0,0,0-.09,0-.06,0h0c-.1,0,0,0,0,0s0,0,0,0h0s0,0,0,0,0,0,0,0,0,0,0,0h0c0-.08-.13,0-.12,0h0s0,0,0,0a0,0,0,0,1,0,0,0,0,0,0,1,0,0h0S95,8,95,8.06s0,0,0,0h0v0H95s0,0,0,0-.06.08-.05.05,0,.06,0,0v0s0,0,0,0,0,.05,0,0,0,0,0,0,0,.08,0,0,0,0-.05,0l-.11,0s-.07,0-.06,0,0,0,0,0l-.06,0s0,0,0,0,0,0,0,0-.08,0,0,0,0,0,0,0,0,.05,0,.06v0c-.08,0-.17.14-.16.19s-.06,0,0,0-.05,0,0,0-.08,0-.09,0-.07,0,0,0l-.06,0s0,0,0,0v0s-.06,0,0,0h0s0,0,0,0h0s0,.05-.05.06,0,0,0,0h0c0-.06-.09.08-.07,0s0,0,0,0,0,0,0,0,0,0,0,0-.05,0,0,0-.13,0-.08.06h0s-.19,0-.13,0,0,0,0,0h0s0,0,0,0,0,0,0,0,0,0,0,0,0,0,0,0a.24.24,0,0,1-.13,0c.11-.09-.13.1-.1,0s0,0,0,0,0,0,0,0-.13.08-.11.1h0s-.08,0-.07,0,0,0,0,0,0,0,0,0-.29.1-.25.16a.6.6,0,0,1-.16.08h0c-.06,0-.08,0-.07.05h0v0s0,0,0,0,0,0,0,0,0,0,0,0,0,0,0,0h0l0,0s0,0,0,0-.11,0-.12.06-.08,0-.08,0-.05,0,0,0,0,0-.06,0-.15,0-.12,0l0,0v0s0,0,0,0,0,0,0,0,0,0,0,0,0,0,0,0-.15,0-.12,0h0l-.08,0c-.06,0-.07,0,0,0h0s0,0,0,0h0s0,.07,0,0h0s0,0,0,0-.07,0,0-.05,0,0,0,0-.08,0,0,0h0c-.18.06-.24.1-.17.14s0,0,0,0h0s0,0,0,0h0s0,0,0,0-.11,0-.19.1h-.06s0,0,0,0h0s-.07.06-.05,0-.1,0-.07,0c-.28,0-.36,0-.27,0s-.06-.11,0-.07-.06-.06,0-.06-.09,0-.09,0,0,0,0,0h0s-.08,0-.07,0-.09.05-.07.06,0,0,0,0l0,0h0c0,.05-.17.16-.22.13s0,0,0,0,.1,0,0,.08h0c0,.06,0,.07,0,0s0,0,0,0h0s0,0,0,0a0,0,0,0,0,0,0h0l0,0h0s-.11,0-.07,0h-.06l0,0h0s-.06,0,0,0l0,0h0s-.23,0-.24,0h0c-.1.06-.14.07-.14,0s-.07,0-.05,0-.06,0,0,0,0,0,0,0h0s0,0,0,0h0c0,.05,0,.06,0,0s-.12.1-.09.05,0,0,0,0h0s0,0,0,0,0,.07,0,0,0,0,0,0h0a0,0,0,0,0,0,0s-.14,0-.07.08h0q-.15.2,0,.09s0,.12-.05.1,0,0-.07,0h0c-.06,0-.07.07,0,.07s-.18,0-.16,0,0,0,0,0,0,0,0,0,0,0,0,0,0,0,0,0,0,0,0,0-.06.08,0,0,0,0,0,0h0s0,0,0,0h0s0,0,0,0,0,0,0,0h0s0,0,0,0,0,0,0,0,0,0,0,0-.17,0-.14-.08l0,0h0s0,0,0,0h0s0,0,0,0,0,0,0,0h0l0,0,0,0s0,0,0,0h0c0-.07,0,0,0,0s0,0,0,0,0,0,0,0-.09.07-.06,0,0,0,0,0h0s0,0,0,0h0s-.08.18-.1.09h0v0l0,0s0,0,0,0-.06,0-.05,0,0,0,0,0,0,0,0,0,0,0,0,0,0,0,0,0h0s-.06.05,0,0,0,.11,0,.13h0s0,0,0,0h0s-.12.07-.12.07h0l0,0h0s0,0,0,0-.07,0,0,0,0,0,0,0h-.11s-.23,0-.13-.06c-.08,0-.1,0-.07,0h0c-.06.05-.08.05-.06,0s0,0,0-.06h0a0,0,0,0,1,0,0h0s0,0,0,0,0,0,0,0,0,0,0,0,0,0,0,0,0,0,0,0l0,0h0s0,0,0,0,0-.05,0,0,0,0,0,0l0,0h0s0,0,0,0,0,0,0,0,0,0,0,0h0s0,0-.06,0,0,0,0,0,0,0,0,0h0s0,0,0,0h0s-.11,0-.07,0a.29.29,0,0,0,0-.08s-.15,0-.1,0L85.83,10h0s0-.06,0,0-.07-.21-.11-.2h0l0,0h0l0,0s0,0,0,0,0,0,0,0,0,0,0,0,0-.12,0-.11h0s0-.06,0,0,0,0,0-.05h0s-.06,0,0,0,0,0,0,0,0-.11,0-.08,0,0,0,0,0-.09,0-.1h0s0,0,0,0h0c0-.13,0-.17,0-.12s0,0,0-.05h0s0-.19,0-.12.06,0,0,0h0s0,0,0,0h0s0,0,0,0,.06-.13,0-.1,0,0,0,0,0,0,0,0,0-.09,0-.1.07-.08,0,0h0s0,0,0,0h0s0,0,0,0,0,0,0,0l.11-.05h0c.05,0,.08-.05.06,0h0l0-.06h0c.07-.06,0,.21.12,0q.17,0,.09-.06h0c0-.06.06-.08,0-.07s0,0,0,0v0h0s0-.05,0,0,0,0,0,0h0s0,0,0,0,.06,0,0,0h0s.07-.05.08,0l0,0h0l0,0c0-.07,0,0,0,0s0,0,0,0h0l0,0s0,0,0,0,0,0,0,0,0,0,0,0h0s.06,0,.07,0l0,0s.13,0,.09,0h0s0,0,0,0,0,0,0,0,.15,0,.12,0h0c.05,0,.06,0,0,0s.17,0,.13,0,0,0,0,0,0,0,0,0,0,0,0,0,0,0,0,0l0,0h0s0-.07,0-.06h0c.1.06.19-.1.19-.11h0s0,0,0,0,.1-.06.08-.07v0s0,0,0,0,0,0,0,0,0-.08.07-.1h0s0,0,0,0h0s0,0,0,0h0l0,0h0a.08.08,0,0,0,0,0s0,0,0,0,.06,0,0,0h0s.08,0,0,.09.07,0,.06,0c.25-.13-.06,0,.13,0,0,0,0,0,0,0s0,0,0,0l.06,0h0s0,0,0,0,0,0,0,0h0s0,0,0,0,0,0,0,0h0s0,0,0,0h0s.16,0,.17,0,0,0,0,0,0,0,0,0,0,0,0,0,.06,0,.06,0h0s.07-.06,0-.06.06,0,.09,0,0,0,0,0,.09,0,0,0h0s0,0,0,0,0-.16,0-.14l0,0,0,0s.07,0,.09,0,0-.13,0-.08a.06.06,0,0,0,0,0h0s.09-.1.08-.07,0,0,0,0h0s0,0,0,0,0,0,0,0,0,0,0,0h0c.11-.16.16.14.13.07s.16.09.13.14,0,0,0,0,0,0,0,0,.09,0,0,.06h0s0,0,0,0l0,0h0s0-.05,0,0,.09,0,.07,0,0,0,.05,0h0l.21,0h0s.09-.11.07,0,.1-.15.08-.16,0,0,0,0,0,0,0,0v0s.06,0,0,0h0l.08,0h0s0,0,0,0,0,0,0,0h0v0h0c.07,0,.09,0,0,0s0,0,0,0,.06,0,0,0,0,0,.07,0v0s0,0,0,0,.09,0,.06,0,.06,0,.07,0h0a0,0,0,0,0,.06,0h0s.06-.06,0-.06,0,0,0,0h0s0,0,0,0,0,0,0,0,.12-.09,0,0h0s0,0,0,0,0,0,0,0l0,0s.07,0,0,0,0,0,0,0,0,0,0,0,0,0,0,0,0,0,0,0h0c0,.06.09-.11.07,0s0,0,0,0h0s0,0,0,0,0,0,0,0,0-.14,0-.09,0,0,0,0h0c.06,0,.07,0,0,0h0s0,0,0,0a0,0,0,0,0,0,0s0,0,0,0h0s0,0,0,0,0,0,0,0h0s0,0,0,0,.1,0,.08,0,0,0,0,0,0,0,0,0,0,0,0,0,0,0,0,0,0,0,0,0h0s0,0,0,0,.06-.1,0-.08l0,0s0,0,0,0-.06-.1-.07-.06.1-.16.08-.1,0,0,0,0h0a0,0,0,0,1,0,0s0,0,0,0,0,0,0,0h0s0,0,0,0h0s0,0,0,0,0,0,0,0h0s0,0,0-.07h0a.05.05,0,0,1,0,0h0l0-.09c0-.06,0,0,0,0h0a.18.18,0,0,0-.08-.09s-.14,0-.09,0,0,0,0,0h0s0,0,0,0h0s0,0,0,0,0,0,0,0,0,0,0,0,0,0,0,0l0,0h0s0,0,0,0,0,0,0,0,0,0,0,0,0,.06,0,.07-.11,0-.09,0-.06,0,0-.06,0,0,0,0h0s-.14,0-.16,0-.06,0-.13,0c-.43,0,0,0-.15,0s0,0,0,0-.13-.08-.12-.1,0,0,0,0-.1-.1-.06-.08l0,0s-.1,0,0,0-.06,0,0,0,0,0,0,0h0s0,0,0,0,0-.06,0-.07,0-.1,0-.09v0s0,0,0,0,0,0,0,0v0c.08,0,0,0,.06,0h0s0,0,0,0a.07.07,0,0,1,0,0s0,0,0,0,0,0,0,0h0s0,0,0,0,0,0,0,0,0,0,0,0,0,0,0,0,0,0,0,0,0-.07,0-.05,0-.15,0-.11,0,0,0,0a.22.22,0,0,1,0-.08s0,0,0,0h0s0,0,0,0h0a0,0,0,0,1,0,0s0,0,0,0h0s0,0,0,0h0s0,0,0,0,0,0,0,0,0-.12.07-.12,0,0,0,0,.09,0,.07-.06.07-.06,0-.06.17.09.2,0,0-.07,0-.06,0,0,0,0h0s0-.07,0,0l0,0h0s0,0,0,0h0s.09,0,.1,0h0s0,0,0,0,0,0,0,0,.19-.05.13-.07h0s0,0,0,0l0,0c0,.07.08,0,.06,0h0c.13,0,.17,0,.12-.07s0,0,0,0h0s0,0,0,0l0,0s0,0,0,0,0,0,0,0,0,0,0,0h0s0,0,0,0,0,0,0,0a0,0,0,0,0,0,0s0,0,0,0,0,0,0,0,0,0,0,0,.14,0,.1,0,.08,0,0,0,.09-.08.08,0h0c.09,0,.12,0,.1,0s0,0,0,0h0s0,0,0,0,.07-.1,0-.11l0,0s0,0,0,0,.16,0,.1,0a.07.07,0,0,1,.06-.07h0s0,0,0,0,0,0,0,0,0,0,0,0,.1-.06.08,0,.1,0,.06,0,.09,0,.06,0,.07-.06,0,0l.06,0h0s0,0,0,0,0,0,0,0,0,0,0,0,0,0,0,0h0s0,0,0,0h0s0,0,.06,0,.11,0,.1,0,0,0,0,0,0,0,0,0h0s0,0,0,0,0,0,0,0,.1,0,.05,0,0,0,0,0h0c.06,0,.08,0,0,0s.1,0,.06,0,0,0,0,0,0,0,0,0,0,0,0,0h0l0,0h0s0,0,0,0,0,0,0,0a0,0,0,0,1,0,0l0,0s0,0,0,0,0,0,0,0,0,0,0,0,.16-.05.09-.09,0,0,0,0h0l0,0h0s0,0,0,0,.06-.07,0,0h0s0,0,0,0,0,0,0,0,0,0,0,0l0,0s0,0,0,0h.07q.09,0,.06,0s0,0,.08,0,0,0,0,0,.07-.05,0,0a.12.12,0,0,0,.13,0s0,0,0,0,.08,0,.06,0a0,0,0,0,1,0,0s0,0,0,0,0,0,0,0,0,0,0,0,.14-.07.12,0,.09,0,.06,0a0,0,0,0,0,0,0h0c.15,0,.2,0,.14,0s.08,0,.06.05.06,0,0,0a0,0,0,0,1,0,0s0,0,0,0,0,0,0,0,0,0,0,0,0,0,0,0,0,0,0,0,0,0,0,0,0,0,0,0h0l0,0h0s.1,0,.06,0,.09-.06.07,0,.13-.06.1-.11h0s0,0,0,0,0,0,0,0,.1,0,.07-.05h0s.05,0,0,0,0,0,0,0,.11,0,.07,0h0s0,0,0,0,0,0,0,0h0s.07,0,0,0a0,0,0,0,0,0,0h0s0,0,0,0v0s.06,0,0,0,.06,0,0,0,0,0,0,0,0,0,0,0,0,0,0,0,0,0,0,0l0,0s0,0,0,0,0,0,0,0,.19-.07.07-.11h0s0,0,0,0M96,3.33l0,0,0,0M90.33,9.28s0,0,0,0,0,0,0,0M94,5.08a.3.3,0,0,0-.14,0h0c-.07,0-.08.05,0,0s0,0,0,0,0,0,0,0,0,0,0,0,0,0,0,0h0s0,0,0,0,0,.06-.07,0h0s0,0,0,0,0,0,0,0-.06,0,0,0,0,0,0,0,0,0,0,0v0h0c0-.05,0-.06,0,0s-.06,0-.06-.05,0,0,0,0h0v0h0s0,0,0,0h0s-.07,0,0,0h0c-.08,0-.11,0-.07,0h0s0,0,0,0,0,0,0,0,0,0,0,0,0,0,0,0h0s-.11.12-.1.15,0,0,0,0h0l-.17.11c0,.07,0,.1-.05.07a0,0,0,0,1,0,0h0s0,0,0,0h0s0,.06,0,.06h0l0,0h0s0,0,0,0,0,0,0,0a.29.29,0,0,0,0,.09s0,0,0,0a0,0,0,0,1,0,0h0s0,0,0,0,0,0,0,0l-.06.06s0,0,0,0,0,.1,0,.07,0,0,0,0,0,0,0,0,0,.08,0,0,0,.07,0,.07,0,0,0,0h0s0,0,0,0l0,0s0,0,0,0,0,0,0,0,0,0,0,0,0,0,0,0,0,0,0,0,0,.14,0,.08,0,0,0,0,0,.05,0,0h0s0,0,0,0,.07,0,.06,0,0,0,0,0h0c.06,0,.08,0,.05,0h.28l.06,0s0,0,0,0c.37-.26.56-.29.55-.09,0-.07.79-.91.32-.68,0,0,0,0,0,0s0,0,0,0,0-.15,0-.07,0-.05,0-.06,0,0,0,0,0-.09,0-.06-.13-.85-.24-.31L94,5.08c-.06,0,0,0,0,0m-.38.12,0,0s0,0,0,0" style="fill:#002566;fill-rule:evenodd"/><path d="M96.38,8.72c.11,0,.15,0,.11,0s0,0,0,0c.12,0,.16,0,.13,0s0,0,.07,0h0s.13.07.11.08S97,9,97,9s.06,0,0,0,.06,0,.05,0,.15.06.09.07.06,0,0,0,0,0,0,0,0,0,0,0h0c.07.08.09.1.09.06h0s0,.06,0,0,0,0,0,0,0,.12,0,.08,0,.11,0,.08,0,.1,0,.1,0,0,0,0h0s0,0,0,0l0,0v0s0,0,0,.05,0,0,0,0,.05.06.08,0,0,0,0,.06,0,0,0,0h0s0,.18,0,.21,0,.06,0,.07h0s0,0,0,0l0,0h0s0,0,0,0,0,0,0,.05h0s0,0,0,0,0,0,0,0h0s0,0,0,0h0a1.09,1.09,0,0,0,0,.17c0,.05,0,.06,0,0s0,.1,0,.07,0,.12,0,.09,0,.09,0,.1h0s0,0,0,0,0,.05,0,0,0,0,0,0h0q0,.11,0,.06s0,0,0,0,0,0,0,0,0,0,0,0h0s0,0,0,.05h0s0,0,0,0h0l0,0s0,0,0,0a.18.18,0,0,0-.07.05h0s0,0,0,0,0,0,0,0h0s0,0,0,0,0,0,0,0,0,0,0,0h0s0,0,0,0,0,0,0,0,0,0,0,0h0s0,.05,0,0,.07,0,0,0h0s0,0,0,0h0c0,.19,0,.25,0,.18s-.08.07-.06.08,0,.07,0,.07,0,.08,0,.05v0c.08-.08,0,.05,0,.05s0,0,0,0,.06,0,0,0-.05.12,0,.09,0,.07,0,0,0,.09,0,0,0,.11,0,.1h0s0,0,0,0h0s0,0,0,0h0c.07.08.08.11,0,.09v0s.05,0,.06,0h0v0h0s0,0,0,0v0s0,0,0,.06h0c.08,0,.11,0,.07.09h0s0,.07,0,.06-.07,0-.06.08,0,0,0,0,0,0,0,0v0c0,.06,0,0,0,0s0,0,0,.06,0,.13,0,.13a0,0,0,0,1,0,0h0s0,0,0,0,0,0,0,.05h0v0h0s0,.05,0,0v0s0,0,0,0,0,0,0,0,0,0,0,0l-.07.08s0,0,0,0,0,0,0,0v0s0,0,0,0h0s0,0,0,0,0,0,0,0l0,0h0v0s0,0,0,0h0s0,.05,0,.05h0s0,0,0,0,0,0,0,0,0,0,0,0l0,0v0c-.06.07,0,.06,0,0s-.15.06-.07,0c-.1-.06-.12-.08-.08-.06s0-.06,0,0-.09,0,0,0h0l0,0a.45.45,0,0,0-.09.1s0,.07,0,0h0s0,0,0,0,0,0,0,0h0c-.07,0-.1,0-.08,0h0s0,0,0,0,0,0,0,0v0s0,0,0,0-.11-.06-.12,0l0,0s0,0,0,0,0,0,0,0h0s-.08,0-.09,0,0,0,0,0h0s0,0,0,0h0s0,0,0,0h0l0,0,0,0s0,0,0,0h0c-.06,0-.07.05,0,0l0,0h0s0,0,0,0,0,0,0,0,0,0,0,0h0s-.11-.13,0-.1L96,13.18h0s-.17-.07-.11-.06-.12-.08-.11-.08-.06.06,0,0,0,0,0,0h0s0,0,0,0,0,0,0,0h0s0,0,0,0-.07,0,0,0,0,0,0,0,0,0,0,0h0s0,0,0,0-.11,0-.07,0h0s-.07,0-.06,0h0s0,0,0,0,0,0,0,0h0s0,0,0,0,0,.05,0,0,0,0,0,0,0,0,0,0,0,0-.07.06,0,0,0,0a.47.47,0,0,1-.1.05s0,0,0,0h0c-.06,0-.08.06,0,0s0,0,0,0v0h0s0,0,0,0h0s0,0,0,0,0,0,0,0l-.05.06h0s0,0,0,0h0s-.08,0,0,0,0-.05,0,0,.06,0,0,0h0c0-.08,0-.11,0-.07s0,0,0,0h0s0-.06,0,0h0s0,0,0,0,0,0,0,0h0s0,0,0,0h0s0,0,0,0h0l0,0h0s0,0,0,0h0v0c0,.05,0,.06,0,0h0s0,0,0-.05,0,0,0,0c.08-.2-.08,0,0,0h0c.06,0-.08.17,0,.07s0,0,0,0h0s-.08,0-.06,0h0s0,0,0,0,0,0,0,0,0,0,0,0h0c-.13,0-.18,0-.13,0s0,0,0,0h0s-.06,0,0,0-.06,0-.06,0,0,0,0,0,0,0,0,0,0,0,0,0h0s0,0,0,0,0,0,0,0h0s0,0,0,0,0,0,0,0,0,0,0,0,0,0,0,0,0,0,0,0-.07,0,0,0,0,0,0,0h0s0,0,0,0,0,0,0,0-.15,0-.11,0,0,0,0,0h0l0,0s-.07,0,0,0-.06,0,0,0,0,0-.07,0,0,0,0,0-.13,0-.09,0-.33,0-.27,0h0s0,0,0,0,0,0-.05,0,0,0,0,0h0s-.05,0,0,0h0s0,0,0,0h0s0,0,0,0,0,0,0,0-.09,0-.11,0,0,0,0,0,0,0,0,0,0,0,0,0h0l0,0s0,0,0,0,0,0,0,0h0s0,0,0,0-.11.08-.08.05l0,0h0q-.28,0-.18,0s0,0,0,0h0s0,0-.05,0h0s0,0,0,0-.07.07,0,0-.07.08-.06,0,0,0,0,0,0,0,0,0h0s0,0,0,0,0,.07,0,.05a0,0,0,0,1,0,0s0,0,0,0,0,0,0,0h-.05s0,0,0,0h0c0,.07,0,.09,0,.06s-.1,0-.06,0,0,0,0,0h0s-.24,0-.19-.1,0,0,0,0,0,0,0,0l0,0s-.05.07,0,0,0,0,0,0h0s0,0,0,0a.06.06,0,0,0-.06,0h0c-.13,0-.17,0-.11-.08s0,0,0,0,0,0,0,0-.09,0-.06,0-.28,0-.31.06-.07,0,0,0h0s0,0,0,0v0s0,0,0,0,0,0,0,0h0s-.07,0-.06,0,0,0,0,0h0l0,0s0,0,0,0,0,0-.07,0,0,0,0,0h0c-.06,0-.06.09,0,.1s-.07.06-.06,0h0s0,0,0,0,0,0,0,0,0,0,0,0c-.11.13-.14.18-.07.16s-.06.1-.06.08,0,0,0,0,0,0,0,0,0,.06,0,0,0,0,0,0,0,0,0,0,0,0,0,0h0c0,.05,0,.06,0,.05h0s0,0,0,0,0,0,0,0a.37.37,0,0,1,0,.08c0,.07,0,.09,0,.06s-.2.16-.13.12,0,.16,0,.21,0,0,0,0,0,0,0,0h0s0,.1,0,.07,0,0,0,0h0s0,0,0,0l-.11.06v0s0,0,0,0l0,0c-.07.12-.09.17-.06.12s0,0,0,0,0,0,0,0-.06,0,0,0,0,0,0,.05-.1.1-.1.08,0,0,0,0,0,0,0,0,0,.05,0,0-.1.14-.07.09-.06,0,0,0h0s0,0,0,0-.18,0-.15,0-.08.08,0,.06,0,.06,0,0h0s0,0,0,0l0,0h0a.09.09,0,0,1-.06,0s0,0,0,0h0s0,0,0,0,0,0,0,0-.14,0-.1,0h0s0,0,0,0-.15-.05-.1,0-.09-.08-.07,0-.12-.05-.1-.08h-.07s0,0,0,0h0s-.05.07-.05.06h0s0-.14-.07-.14h0s0,0,0,0h0c-.09-.11-.1-.16,0-.14h0s0-.07,0,0,0,0,0,0h0s0,0,0,0h0s0,0,0,0h0s0,0,0,0h0c0-.07,0-.09,0-.07s0-.09,0-.07,0,0,0,0h0s0,0,0,0h0s0-.13,0-.12,0-.07,0,0h0s0,0,0,0h0s0-.06,0,0-.09-.06,0-.05,0,0,0,0,.1,0,.07,0,0,0,0,0,0,0,0,0,0,0,0,0V14s0,0,0,0h0s0,0,0,0h0s0,0,0,0,0-.08,0-.06,0,0,0,0h0s0,0,0,0h0s0,0,0,0h0s0,0,0,0,0,0,0,0h0s0,0,0,0,0,0,0,0,0,0,0,0h0c-.11.18,0-.29,0-.12,0,0,0,0,0,0h0s0,0,0,0h0s0,0,0,0,0-.26-.07-.17,0-.12,0-.07,0,0,0,0h0s0,0,0,0,0,0,0,0,0,0,0,0h0l0,0h0c0-.08,0-.11,0-.08s0,0,0,0,0-.09,0-.06,0,0,0,0h0s0,0,0,0v0h0c-.06,0-.06,0,0,0s0,0,0,0h0c.09-.06.12-.06.1,0h0c.07,0,0,0,0,0s0,0,0,0h0s0,0,0,0,0,0,0,0h0s.07-.09.08-.1h0l0,0s0,0,0,0,.07-.07,0-.05,0,0,0,0h0s0,0,0,0h0s0,0,0,0h0s0,0,0,0,0,0,0,0,0-.07,0,0,.06,0,.05,0,.13-.06.1-.12h0s0-.16,0-.12-.09.05,0-.06h0s0,0,0,0,.07-.14,0-.11,0,0,0,0h0s0-.05,0,0,0-.06,0,0l0,0h0s.16,0,.11-.06-.13,0,0-.06h0s.13,0,.15,0v0s0,0,0,0,0,0,0,0,0,0,0,0h0s0,0,0,0,0-.1-.06-.07,0-.09,0-.07,0,0,0,0h0c0-.09.06-.11.1-.11v0h0s.05,0,.06,0h0s0-.05,0,0a0,0,0,0,1,0,0s0,0,0,0,0,0,0,0h0s0-.09.06-.07h0s.06,0,.06,0h0s0,0,0,0-.07,0,0,0h0s0-.14,0-.1,0-.14,0-.11,0-.06,0,0,0,0,0,0,0,0,0,0h0s0,0,0,0,0,0,0,0h0s0,0,0,0,0,0,0,0,0,0,0,0-.07-.12,0-.08v0h0c.06-.07.07-.11,0-.11l.08-.09c0,.32,0-.35,0-.25,0-.05,0-.06,0,0l0,0s0,0,0,0,.06-.17.06-.12.05-.05,0,0,0,0,0,0h0l.07-.07s0,0,0,0h0s0,0,.06,0,0,0,0,0h0s0,0,0,0l.09-.08h0s0,0,0,0h0s0,0,0,0,.05,0,0,0,0,0,0,0,0,0,0,0,0,0,0,0,.07,0,0,0h0s0,0,0,0,0,0,0,0h.07s0,.05,0,0,0,0,0,0h0s0,0,0,0h0s0,0,0,0,0,0,.05,0,0,0,0,0h0s0,0,0,0h0s0,0,0,0,0,0,0,0l0,0h0s0,0,0,0h0c.05,0,.06,0,0,0h0s0,0,0,0h0s0,0,.06,0h0s0,0,0,0,0,0,0,0,0,0,0,0,0,0,0,0,.1,0,.08,0,0,0,0,0h0s0,0,0,0h0s0,0,0,0,.07,0,0,0,.11,0,.09,0l.07,0,0,0s0,0,0,0h0s0,0,0,0,0,0,0,0,0,0,0,0,0,0,0,0,0,0,0,0h0c0,.06.08,0,.07,0s0,0,0,.06l0,0s0,0,0,0h0s0,0,0,0,0,0,0,0,0-.06,0-.06,0,0,0,0h0s.06,0,0,0,0,0,.08,0,0,0,0,0l.09,0h0s0,0,0,0h0l0,0h0s.07-.05.07,0,0,0,0,0,0,0,0,0,0,0,0,0,0,0,0,0,0-.07,0,0,0,0,0,0,.11-.06.08,0,0,0,0,0h0s0,0,0,0,.06-.11,0-.09,0,0,0,0h0s.06,0,.05,0,0,0,0,0,0,0,0,0,0,0,0,0h0s0,0,0,0,0,0,0,0,0,0,0,0,0,0,0,0,0,0,0,0,0,0,0,0v0h0s0,0,0-.06.12-.06.1,0,0,0,0,0h0l0,0s-.07-.07,0-.07h0s0,0,0,0,.15-.07.11-.06.07,0,.06,0,0,0,0,0a.28.28,0,0,1,.12,0s0,0,0,0h0s0,0,0,0,0,0,0,0,.07,0,0-.05,0,.06.11,0,0,0,0,0l.07,0c0,.05.06,0,0,0h.06s.07,0,.07,0h0s.1-.08.1-.08,0,0,0,0,.14,0,.09.05,0,0,0,0h0a.07.07,0,0,0,.09,0l.08-.08s0,0,0,0,0,0,0,0,0,0,0,0h0s0,0,0,0,0,0,0,0,.07,0,.1,0,0,0,0,0,0-.08,0-.08h0s0,0,0,0,0,0,0,0h0s.08-.08.07-.07,0,0,0,0,0,0,0,.05h0s0,0,0,0,0,0,0,0h0s0,0,0,0l.09-.05h0l0,0q.12-.11,0,0l0-.05h0c.1-.06,0,0,.07,0h0a0,0,0,0,0,0,0s.1.07.1,0,0-.07,0-.08,0,0,0,0h0s0,0,0,0,0,0,0,0,0,0,0,0,0,0,0,0h0a.14.14,0,0,0,.09,0s0-.05,0-.05,0,0,0,0l0,0C95,9,95,9,94.94,9s0,0,0,0,0-.08,0-.05,0-.07,0,0,0-.09,0,0,.05,0,.05,0,0,0,0,0h0l.08,0h0l0,0h0c0-.06.2.06.18-.07s0,0,0,0,.1,0,.06,0h0v0s.06,0,0,0,.09.14.13.1,0,0,0,0,0,0,0,0,0,0,0,0h0s.09.13,0,.12,0,0,0,0,0,.11.06.09h0s.06,0,.06,0h0s0,0,0,0h0s0,0,0,0,0,0,0,0h0l0,0h0s0-.06,0,0h0s0,0,0,0h0v0h0s0-.07,0,0V9h0s0,0,0,0V9s0-.09,0,0,.06-.1.06-.06,0,0,0,0h0c0-.05,0-.06,0,0s0-.06,0,0v0h0l0,0h0s0,0,0,0h0s0,0,0,0h0s.05,0,.07,0h0s.07,0,.08,0h0m-4.32,1.44,0,0,0,0m2.53.39h-.06s0,0,0,0,0,.11,0,.08,0,0,0,0l0,0s0,0,0,0a0,0,0,0,1,0,0s0,0,0,0,0,0,0,0h0s-.09.11-.08.07,0,0,0,0h0s0,0,0,0h0l0,0s0,0,0,0,0,0,0,0-.08,0-.06,0h-.07c-.28,0-.36,0-.27,0h0s-.05,0,0,0,0,0,0,0h0s-.07.1-.08.05h0s-.07,0,0,0h0s0,0,0,0h0s0,0,0,0h0s0,0,0,0,0,0,0,0h0s0,0,0,0l0,0s0,0,0,0v0s0,0,0,0,0,0,0,0-.1.05-.07,0-.06,0,0,0h0s-.11,0-.14,0-.08.09-.08.05h0c-.08.06-.21.06-.2,0s0,0,0,0h0s-.06,0,0,0-.16.12-.08,0h0s0,0,0,0,0,.12,0,.11,0,0,0,0,0,0,0,0h0s0,0,0,.06h0s0,0,0,0,0,0,0,0l0,0s0,0,0,0h0s0,0,0,0h0c-.11.06.07,0,0,0h0s0,0-.05,0l0,0s0,0,0,0,0,0,0,0,0,.05,0,0-.18.14-.11.17a.46.46,0,0,1-.16.11h0s-.09.09-.07.12-.11.16-.09.08-.09.06-.07,0,0,0,0,0h0s0-.06,0,0h-.1s0,.05,0,0,0,0,0,0h0c0,.05,0,.07,0,.06h0s0,0,0,0h0l0,.07s0,0,0,0,0,0,0,0,0,0,0,.11h0l0,0h0s0,0,0,0h0c0,.12,0,.16,0,.11s0,0,0,0h0s0,0,0,0h0s0,0,0,0h0s0,0,.07,0,0,0,0,0h0s.07,0,0,0l.06,0,0,0s0,0,0,0,.1,0,.09,0,0,0,0,0,0,0,0,0h0s0,0,0,0,0,0,0-.05,0,0,0,0,0-.05,0,0h0s0,0,0,0,0,0,0,0,0,0,0,0h0c-.07.07.14,0,.14,0s.08,0,0,0,.05,0,.06,0h0s.07-.05,0-.05.07,0,0-.06.05,0,0,0,0,0,0,0h0s0,0,0,0h0s0,0,0,0,.05-.07,0,0h0s0,0,0,0,.11,0,.08,0h0s0,0,0,0,0,0,0,0h0s0,0,0,0h0s0,0,0,0h0s.12-.08.11,0,.13,0,.17,0,0,0,0,0,0,0,0,0,0,0,0,0h0s.07,0,.07.06,0,0,.07,0,0,0,0,0,0,0,0,0,0,0,0,0,.11,0,.06,0,.06,0,.05,0,0,0,.06,0h0s0,0,0,0h0s0,0,0,0a.07.07,0,0,0,0,0s0,0,0,0h0s0,0,0,0h0s.06,0,.09,0,0,0,0,0h0s0,0,0,0h0l.05,0h0s0,0,0,0h0s0,0,0,0h0s0,0,0,0,0,0,0,0,0,0,0,0h0s0,0,.06,0,0,0,0,0,.06,0,0,0h0s0,0,0,0l.06,0h0s0,0,0,0h0s0,0,0,0,0-.05,0,0,0,0,0,0,.11-.05.09,0,.06,0,.05,0,0,.06,0,0h0s0,0,.05,0h0s0,0,0,0,.1-.2.05-.15,0,0,0,0,0,0,0,0,0,0,0,0h0a0,0,0,0,0,0,0s0,0,0,0,0,0,0,0,0,0,0,0h0s0,0,0,0h0s0,0,0,0h0s0-.06,0,0,0-.12,0-.08,0-.07,0,0,0,0,0,0h0v0s0,0,0,0,.07,0,0,0,0,0,0,0,0-.06,0,0a0,0,0,0,1,0,0h0s0-.1.08-.12,0,0,0,0,0,0,0,0h0a0,0,0,1,0,0,0h0s0,0,0,0h0s.06,0,0,0,0,0,0,0h0s0,0,0,0h0v0s0,0,0,0,0,0,0,0,0,0,0,0,0,0,0,0h0a.22.22,0,0,0,0-.08h0s.07,0,0,0,.06-.17.05-.15h0c0-.05,0-.07,0-.05s0,0,0,0,0,0,0,0,0,0,0,0h0c.05,0-.06-.06,0-.05s.06,0,.06,0h0s0,0,0,0,0,0,0,0,0,0,0-.05,0,0,0,0v-.08h0c-.13,0-.16,0-.11,0s-.14,0-.09-.07,0,0,0,0,0,0,0,0h0s0,0,0,0,0,0,0,0,0,0,0,0,0,0,0,0h0q-.09,0,0,0h0s0-.07,0-.05h0s0,0,0,0-.07,0-.06,0,0,0,0,0h0s0,0,0,0" style="fill:#002566;fill-rule:evenodd"/><polygon points="57.06 5.71 57.52 5.46 57.68 5.57 58.68 5.54 58.76 5.71 59.14 5.6 59.44 5.65 59.71 5.57 59.95 5.33 60.52 5.54 60.79 5.36 61.09 5.11 61.39 5.08 61.52 4.92 61.72 4.71 62.09 4.49 62.47 4.46 62.63 4.36 62.96 4.46 63.15 4.19 63.55 4.06 63.85 3.87 64.07 3.68 64.28 3.68 64.45 3.62 64.72 3.62 64.8 3.38 64.94 3.3 65.15 3.3 65.28 3.11 65.67 2.89 65.8 3 66.02 2.92 66.23 2.92 66.5 2.92 66.58 2.79 66.86 3.03 66.86 3.35 66.64 3.41 66.64 3.54 66.13 3.95 65.99 4.65 65.75 5.06 65.77 5.68 65.72 6.03 65.5 6.3 65.53 6.6 65.31 7.03 65.34 7.14 65.02 7.6 64.94 7.98 64.96 8.22 64.99 8.77 64.91 9.09 65.05 9.44 65.18 9.79 65.12 10.39 65.12 10.77 65.07 11.17 65.18 11.39 64.96 11.77 65.07 12.18 65.07 12.45 65.1 12.72 64.96 13.1 65.02 13.39 64.66 13.91 64.53 14.26 64.42 14.48 64.58 14.61 64.26 14.8 63.82 14.96 63.74 14.78 63.45 14.61 63.53 14.26 63.34 14.02 63.2 13.8 63.09 13.64 63.01 13.45 62.8 13.31 62.98 13.15 62.98 12.77 62.91 12.56 62.88 11.88 62.93 11.53 62.85 11.07 62.98 10.79 62.88 9.74 63.04 9.33 63.12 8.85 62.93 8.17 63.04 7.85 62.88 7.68 62.93 7.58 62.91 7.17 62.96 6.98 62.77 6.71 62.53 6.63 61.93 6.84 61.45 6.84 61.25 6.98 60.98 7.03 60.74 7.01 60.31 7.33 60.04 7.33 59.98 7.6 59.76 8.09 59.39 8.2 59.17 8.52 58.87 8.44 58.66 8.63 58.22 8.69 57.82 9.09 57.49 9.17 57.38 9.25 56.9 9.17 56.6 8.87 56.65 8.28 56.82 7.6 57 7.55 57.11 7.3 57.25 7.14 57.17 6.93 57.3 6.82 57.09 6.36 57.06 6.06 57.06 5.71" style="fill:#002566"/><path d="M68.9,3.5l.23-.09.06-.29L69.43,3l.13-.09h.26l0-.19.45.13.32.13.06.25-.1.58.28.17L71.14,4l.24-.09V3.69l.22-.25h.23l.11-.17h.28l.4.25.13.07.11.14,0,.24.13.15.13,0,0,.22.15.16.62.33.32.23.2.21.19.09,0,.49-.24.24-.3.17-.19,0-.11.17-.24,0h-.3L73,6.24H72.8l-.24-.1L72.06,6l-.21,0-.23.09-.17-.13L71.23,6l-.34,0-.26.26-.12.38-.07.56,0,.32.21.07,0,.57.07.18.08.23,0,.26L71,9l.33.11.11,0,.47,0,.23.22.24.19.27.1.07.11h.17l.37.24.44.13.26,0,.32.26h.39l.21.15.43.07h.3l.26.17.23,0,.34.12.22-.14.36.14.62,0,.35-.21.23-.26.43,0,.34-.07.07.16.85-.28.45-.35.37-.12.17-.17.24-.05.06-.17-.09-.13.52-.4.09-.18V8.23L82,7.87l.13-.13L82,7.5l.08-.1.21,0,.3-.18.28,0,.43.16,0,.17.18,0,.1.39-.06.47-.11.06L83.25,9l.06.15-.51.26-.07.15-.15.21-.15.35-.25.1-.2.31,0,.27-.09,0-.28.65-.3.23-.27.33-.15.06-.06.21-.2,0-.06.22-.22.21-.17.06-.26.17-.16.24-.33.19-.26.11,0,.19-.41.24-.15,0a1.26,1.26,0,0,0-.36.23c-.08.09-.3.45-.3.45l-.28-.11-.21-.17h-.15l-.17-.21-.33-.28-.46-.09-.39-.36h-.26l-.34-.23L75,12.9l-.37-.4-.19,0-.32-.15-.13,0-.36-.13-.32-.1L73,12.05l-.17-.18-.24.05-.25-.15-.48,0-.38,0-.24-.15-.53-.28-.24-.11L70.07,11l-.36-.13-.26-.51,0-.15-.12-.07-.2-.43,0-.21-.13-.15,0-.24-.14-.36-.14-.22.08-.15L68.51,8l-.09-.15V7.48l.12-.34-.17-.21.07-.15,0-.2,0-.19-.09-.11.07-.19,0-.41-.09-.3.19-.27.13-.39,0-.24-.11-.16.25-.5Z" style="fill:#002566"/><path d="M37.88,22c.15.25.28.5.43.74h0c.16-.25.32-.54.48-.81l.59-1.05a2.87,2.87,0,0,0,.47-1.05,4.47,4.47,0,0,0,.47,0l.56,0a.12.12,0,0,1,0,.14h-.13c-.39,0-.44.14-.44.52,0,.58,0,1.59.07,2.38,0,.27,0,.42.31.44h.2a.1.1,0,0,1,0,.14H39.4a.1.1,0,0,1,0-.14h.18c.31,0,.31-.12.31-.47l0-2.27h0c-.05.06-.29.49-.41.71l-.56.95c-.28.48-.56,1-.67,1.25l-.07,0,0,0c-.11-.29-.41-.83-.55-1.09L37,21.37c-.13-.25-.26-.53-.4-.79h0c0,.34,0,.66-.06,1s0,.82,0,1.28,0,.49.28.51H37c.05,0,0,.13,0,.14H35.64a.11.11,0,0,1,0-.14h.14c.26,0,.35-.07.39-.45s.07-.66.11-1.2.05-.92.06-1.22,0-.43-.42-.47h-.09a.09.09,0,0,1,0-.14l.49,0a5,5,0,0,0,.52,0,1.85,1.85,0,0,0,.33.9Z" style="fill:#002566"/><path d="M42,20.71c0-.58,0-.67-.38-.7h-.16s0-.12,0-.14l.79,0,.77,0S43,20,43,20h-.15c-.37,0-.38.12-.38.7v1.94c0,.58,0,.66.38.7l.15,0s0,.12,0,.13H41.43s0-.1,0-.13l.16,0c.37,0,.38-.12.38-.7Z" style="fill:#002566"/><path d="M47.43,22.56c0,.16,0,.81,0,1s-.05.06-.12.06-.26-.28-.8-.82l-1.45-1.44c-.17-.17-.6-.62-.73-.74h0a1.39,1.39,0,0,0,0,.35v1.19a3.94,3.94,0,0,0,.11,1.13.46.46,0,0,0,.32.11l.2,0a.09.09,0,0,1,0,.13H43.54a.09.09,0,0,1,0-.13l.17,0c.14,0,.24-.05.27-.11a4.53,4.53,0,0,0,.08-1.13V20.54a.47.47,0,0,0-.13-.4.86.86,0,0,0-.39-.13h-.11a.09.09,0,0,1,0-.14c.27,0,.6,0,.71,0l.29,0a7.66,7.66,0,0,0,1.07,1.21l.61.59c.43.42.73.73,1,1h0a.62.62,0,0,0,0-.23V21.25a3.33,3.33,0,0,0-.12-1.13c0-.05-.14-.08-.39-.11h-.1a.08.08,0,0,1,0-.14l.74,0,.64,0A.09.09,0,0,1,48,20h-.08c-.2,0-.33.07-.35.12a3.69,3.69,0,0,0-.1,1.12Z" style="fill:#002566"/><path d="M49,20.71c0-.58,0-.67-.38-.7h-.16s0-.12,0-.14l.78,0,.78,0s0,.12,0,.14h-.15c-.37,0-.38.12-.38.7v1.94c0,.58,0,.66.38.7l.15,0s0,.12,0,.13H48.44s0-.1,0-.13l.16,0c.37,0,.38-.12.38-.7Z" style="fill:#002566"/><path d="M51.68,23.57a2.2,2.2,0,0,1-1-.2,2.31,2.31,0,0,1-.17-.76s.13-.05.15,0a1.09,1.09,0,0,0,1.08.81c.52,0,.78-.3.78-.62A.82.82,0,0,0,52,22l-.6-.34a1.16,1.16,0,0,1-.67-.94c0-.52.46-.94,1.27-.94a3.29,3.29,0,0,1,.58.07.73.73,0,0,0,.22,0,2,2,0,0,1,.12.66.14.14,0,0,1-.16,0,.79.79,0,0,0-.85-.62c-.61,0-.74.36-.74.61s.3.54.53.67l.5.27a1.25,1.25,0,0,1,.78,1c0,.6-.52,1-1.33,1" style="fill:#002566"/><path d="M55.64,22.67c0,.57,0,.65.37.68h.2s0,.13,0,.14H54.51s0-.11,0-.14h.22c.36,0,.39-.11.39-.68V20.22c0-.17,0-.17-.19-.17h-.34a1.4,1.4,0,0,0-.77.14,1,1,0,0,0-.28.37.11.11,0,0,1-.16,0,4.53,4.53,0,0,0,.23-.81s.1,0,.12,0,.25.17.54.17H56.8c.34,0,.39,0,.49-.15s.1,0,.11,0a2.84,2.84,0,0,0-.09.83.12.12,0,0,1-.17,0c0-.13-.06-.33-.15-.39a1.36,1.36,0,0,0-.73-.14h-.44c-.19,0-.18,0-.18.18Z" style="fill:#002566"/><path d="M58.26,20.71c0-.52,0-.62-.27-.64l-.2,0a.08.08,0,0,1,0-.13c.35,0,.78-.05,1.4-.05a2.42,2.42,0,0,1,1,.17.8.8,0,0,1,.52.76,1,1,0,0,1-.78.91s0,.09,0,.14a6,6,0,0,0,1.26,1.45.79.79,0,0,0,.43.15,0,0,0,0,1,0,.08,1.58,1.58,0,0,1-.28,0,1.44,1.44,0,0,1-1.29-.69c-.17-.2-.42-.58-.62-.83s-.19-.17-.44-.17-.3,0-.3.12v.69c0,.57,0,.63.38.68l.13,0s0,.12,0,.13H57.74s-.05-.1,0-.13l.16,0c.36,0,.37-.11.37-.68Zm.51.78a.39.39,0,0,0,0,.18,2,2,0,0,0,.44,0,1.16,1.16,0,0,0,.64-.14.73.73,0,0,0,.31-.68c0-.43-.3-.84-1-.84-.39,0-.41,0-.41.18Z" style="fill:#002566"/><path d="M63.32,22.65c0,.59,0,.68.38.7h.23s0,.13,0,.14H62.25s0-.1,0-.14h.19c.36,0,.38-.11.38-.7v-.27a1,1,0,0,0-.2-.68l-.74-1.26c-.21-.36-.31-.39-.49-.41l-.18,0a.1.1,0,0,1,0-.14l.73,0,.67,0s0,.11,0,.14h-.09c-.21,0-.26.06-.26.1a2.27,2.27,0,0,0,.2.42c.23.4.46.84.7,1.21.2-.29.4-.6.59-.92a4.51,4.51,0,0,0,.41-.72s-.12-.07-.27-.09H63.8s0-.12,0-.14l.61,0,.58,0A.09.09,0,0,1,65,20l-.18,0c-.32,0-.51.39-.82.86l-.4.6a1.15,1.15,0,0,0-.29.88Z" style="fill:#002566"/><path d="M66.66,21.72a2,2,0,0,1,2.23-1.93,1.94,1.94,0,0,1,2.17,1.88,2.23,2.23,0,0,1-4.4,0m3.77.12A1.67,1.67,0,0,0,68.78,20a1.45,1.45,0,0,0-1.49,1.59A1.7,1.7,0,0,0,69,23.4a1.42,1.42,0,0,0,1.46-1.56" style="fill:#002566"/><path d="M72.66,21.42c0,.15,0,.15.2.15h.43a2.85,2.85,0,0,0,.53,0c.07,0,.12-.05.16-.2l0-.21a.14.14,0,0,1,.17,0c0,.13,0,.35,0,.55s0,.4,0,.53a.17.17,0,0,1-.17,0L74,22a.27.27,0,0,0-.2-.2,1.87,1.87,0,0,0-.48,0h-.43c-.18,0-.2,0-.2.15v.76c0,.57,0,.65.38.68l.21,0s0,.12,0,.13H71.62a.09.09,0,0,1,0-.13l.16,0c.36,0,.37-.11.37-.68v-2c0-.57,0-.65-.37-.69h-.1s0-.12,0-.14c.26,0,.48,0,.73,0h1.15a7.84,7.84,0,0,0,.84,0c0,.26,0,.52,0,.72a.12.12,0,0,1-.15,0c0-.24-.12-.45-.44-.52a3.22,3.22,0,0,0-.6,0h-.39c-.18,0-.18,0-.18.22Z" style="fill:#002566"/><path d="M77.33,20.26A3,3,0,0,1,79,19.79a5.54,5.54,0,0,1,1.11.13l.18,0a7.18,7.18,0,0,0,.08.8.15.15,0,0,1-.17,0c-.09-.37-.37-.8-1.28-.8a1.61,1.61,0,0,0-1.77,1.66A1.72,1.72,0,0,0,79,23.4a1.34,1.34,0,0,0,1.31-.78.18.18,0,0,1,.16,0,1.84,1.84,0,0,1-.3.75,1.41,1.41,0,0,0-.22.06,4.51,4.51,0,0,1-1,.12,3.15,3.15,0,0,1-1.56-.36,1.71,1.71,0,0,1-.88-1.51,1.74,1.74,0,0,1,.78-1.44" style="fill:#002566"/><path d="M84.41,21.25a3.37,3.37,0,0,0-.12-1.13A.43.43,0,0,0,84,20h-.16a.1.1,0,0,1,0-.14c.24,0,.47,0,.72,0s.43,0,.65,0a.1.1,0,0,1,0,.14h-.15a.4.4,0,0,0-.32.13,4.66,4.66,0,0,0-.08,1.11v.62a1.72,1.72,0,0,1-.44,1.3,1.79,1.79,0,0,1-1.2.4,2,2,0,0,1-1.17-.3A1.46,1.46,0,0,1,81.37,22V20.69c0-.56,0-.66-.37-.68h-.16a.11.11,0,0,1,0-.14c.31,0,.52,0,.77,0s.46,0,.77,0a.1.1,0,0,1,0,.14h-.15c-.36,0-.37.12-.37.68v1.18c0,.88.31,1.46,1.27,1.46s1.25-.62,1.25-1.45Z" style="fill:#002566"/><path d="M86.09,20.7c0-.57,0-.66-.41-.69h-.15s0-.12,0-.14c.35,0,.56,0,.81,0s.46,0,.77,0c0,0,0,.12,0,.14H87c-.37,0-.38.12-.38.69v1.9c0,.34,0,.49.13.59s.19.13.69.13a1.73,1.73,0,0,0,.76-.08,1.14,1.14,0,0,0,.41-.54s.16,0,.16,0a3.93,3.93,0,0,1-.27.76H85.54s-.05-.1,0-.13l.18,0c.37,0,.38-.11.38-.68Z" style="fill:#002566"/><path d="M90.42,22.67c0,.57,0,.65.38.68H91a.11.11,0,0,1,0,.14H89.3s0-.11,0-.14h.22c.36,0,.39-.11.39-.68V20.22c0-.17,0-.17-.19-.17h-.34a1.4,1.4,0,0,0-.77.14,1,1,0,0,0-.28.37.11.11,0,0,1-.16,0,5.55,5.55,0,0,0,.23-.81s.1,0,.12,0,.25.17.53.17h2.54c.33,0,.39,0,.48-.15a.16.16,0,0,1,.12,0,2.88,2.88,0,0,0-.1.83c0,.05-.13.05-.16,0s-.06-.33-.16-.39a1.3,1.3,0,0,0-.72-.14H90.6c-.18,0-.18,0-.18.18Z" style="fill:#002566"/><path d="M96,21.25a3.37,3.37,0,0,0-.12-1.13A.41.41,0,0,0,95.6,20h-.15a.1.1,0,0,1,0-.14c.24,0,.47,0,.71,0s.43,0,.66,0a.1.1,0,0,1,0,.14h-.15a.38.38,0,0,0-.31.13,4.15,4.15,0,0,0-.09,1.11v.62a1.72,1.72,0,0,1-.44,1.3,1.76,1.76,0,0,1-1.19.4,2,2,0,0,1-1.17-.3A1.46,1.46,0,0,1,93,22V20.69c0-.56,0-.66-.38-.68h-.15a.1.1,0,0,1,0-.14c.31,0,.53,0,.78,0s.46,0,.77,0c0,0,0,.11,0,.14h-.15c-.36,0-.38.12-.38.68v1.18c0,.88.32,1.46,1.27,1.46S96,22.71,96,21.88Z" style="fill:#002566"/><path d="M97.71,20.71c0-.52,0-.62-.27-.64l-.2,0a.08.08,0,0,1,0-.13c.35,0,.78-.05,1.39-.05a2.39,2.39,0,0,1,1,.17.79.79,0,0,1,.52.76,1,1,0,0,1-.78.91s0,.09,0,.14a6.22,6.22,0,0,0,1.26,1.45.82.82,0,0,0,.43.15,0,0,0,0,1,0,.08,1.58,1.58,0,0,1-.28,0,1.44,1.44,0,0,1-1.29-.69c-.16-.2-.42-.58-.61-.83a.49.49,0,0,0-.45-.17c-.28,0-.29,0-.29.12v.69c0,.57,0,.63.37.68l.13,0s0,.12,0,.13H97.2a.09.09,0,0,1,0-.13l.16,0c.36,0,.37-.11.37-.68Zm.52.78a.39.39,0,0,0,0,.18,1.89,1.89,0,0,0,.43,0,1.16,1.16,0,0,0,.64-.14.73.73,0,0,0,.31-.68c0-.43-.3-.84-1-.84-.38,0-.4,0-.4.18Z" style="fill:#002566"/><path d="M101.75,20.7c0-.57,0-.65-.38-.69h-.1s0-.12,0-.14c.27,0,.48,0,.74,0h1.17a8.07,8.07,0,0,0,.85,0,6.14,6.14,0,0,1,.1.73.15.15,0,0,1-.16,0c-.09-.26-.15-.45-.47-.52a4.5,4.5,0,0,0-.61,0h-.45c-.19,0-.19,0-.19.22v1.09c0,.15,0,.15.21.15h.36a2.85,2.85,0,0,0,.53,0c.08,0,.12-.05.15-.19l0-.22a.14.14,0,0,1,.17,0c0,.13,0,.34,0,.55s0,.41,0,.53a.17.17,0,0,1-.17,0l0-.21a.25.25,0,0,0-.2-.21,2.42,2.42,0,0,0-.48,0h-.36c-.19,0-.21,0-.21.15v.77c0,.29,0,.48.12.57s.21.13.76.13a2,2,0,0,0,.8-.09,1.32,1.32,0,0,0,.44-.53.14.14,0,0,1,.16,0,5.21,5.21,0,0,1-.28.76h-3.09s0-.1,0-.13l.21,0c.36,0,.39-.11.39-.68Z" style="fill:#002566"/></svg>