<svg id="圖層_1" data-name="圖層 1" xmlns="http://www.w3.org/2000/svg" viewBox="0 0 214.92 25"><title>footer_logo_2</title><path d="M202.94,10.47a16.28,16.28,0,0,0,.63-5.09c0-.4,0-.88.27-1.13a1.18,1.18,0,0,1,.85-.14l1.07.09.62,0a.45.45,0,0,1-.25.6,1.64,1.64,0,0,1-.73.06,5.16,5.16,0,0,0-1.11,0c-.21,0-.47.12-.51.33a.47.47,0,0,0,.23.42,2.59,2.59,0,0,0,1.45.39l.6.05c.1,0,.26.55.29.63a1.09,1.09,0,0,0,.6.71,6.05,6.05,0,0,0,2.93,0,2.75,2.75,0,0,0,1.33-.28.56.56,0,0,0,.28-.44.43.43,0,0,0-.3-.37,1.36,1.36,0,0,0-.49,0l-.87,0c-.69,0-1.38,0-2.06.09a.35.35,0,0,1-.27-.07.22.22,0,0,1,.08-.29.58.58,0,0,1,.32-.06c.89,0,1.79,0,2.67-.12a1.68,1.68,0,0,0,.92-.27.67.67,0,0,0,.2-.68c-.12-.33-.59-.28-.88-.33a4.08,4.08,0,0,0-1.35,0c-.47.07-1.12.37-1.59.23-.26-.07-.47-.4-.3-.62s.35-.16.55-.16.57,0,.85,0l.88,0c.87,0,1.75-.05,2.62,0,.19,0,.45.09.45.29s-.12.21-.18.32a.56.56,0,0,0,.1.6,1.77,1.77,0,0,0,.53.36.45.45,0,0,0,.31.07.45.45,0,0,0,.22-.19,3.78,3.78,0,0,0,.6-1.81.39.39,0,0,0,0-.15.3.3,0,0,0-.15-.12A4.42,4.42,0,0,0,212.25,3c-.28,0-.55,0-.83,0-.67.06-1.34.09-2,.1h-1c-.22,0-.66.06-.85-.08-.39-.27.37-.32.49-.32.41,0,.83,0,1.25,0a10.92,10.92,0,0,0,2.42-.12.5.5,0,0,0,.39-.24c.08-.22-.17-.43-.41-.46a3.72,3.72,0,0,0-.65-.08c-.2,0-.38.11-.59.11h-1.13a11.86,11.86,0,0,0-1.58.07.35.35,0,0,1-.25,0,.71.71,0,0,1-.11-.17c-.17-.26-.62-.13-.78.14a2.22,2.22,0,0,0-.14.93.64.64,0,0,1-.07.27c-.12.18-.38.19-.59.18-.66,0-1.33-.07-2-.11-.46,0-1,0-1.25.38a1.33,1.33,0,0,0-.16.62c-.19,2.67-.17,5.48-1.48,7.81a.58.58,0,0,0-.09.25.46.46,0,0,0,.08.19.91.91,0,0,0,1.43,0,1.93,1.93,0,0,0,.2-.52l.39-1.44" style="fill:#231815"/><path d="M213.43,12.16a1.53,1.53,0,0,0-.79-.17,25.31,25.31,0,0,1-2.75-.25l-.14,0c-.56-.1-2-.23-1.95-.83.1-.75,1.9-2.12.33-2.44a6.6,6.6,0,0,0-.89-.14c-.35,0-1.28.29-1.52.1s0-.64-.21-.84c-.55-.52-.94.32-1.08.72A12,12,0,0,1,203.7,10c-.37.67-.56,1.07.24,1.41.51.22.55-.43.89-.44s.58.48.38.69a2.49,2.49,0,0,1-1.1.58c-.47.15-1.45.57-1,1.24.22.33.77.3,1.12.23a3,3,0,0,0,.5-.17c.37-.16,1.89-1.4,2.15-1.27a14.78,14.78,0,0,0,5.27,1.1c.71.06,2.6-.33,1.3-1.23m-6.59-2.39c-.17.23-.37.59-.69.59-.13,0-.81-.42-.76-.53s.07-.32.3-.36,1.37,0,1.15.3" style="fill:#231815"/><path d="M214.81,10.68a.71.71,0,0,0-.28-.29,1.65,1.65,0,0,0-1-.15.6.6,0,0,1-.4-.06c-.23-.15-.16-.48-.1-.75a1.69,1.69,0,0,0-.12-1,1.08,1.08,0,0,0-1.35-.56c-.28.06-.55.15-.83.2a4.44,4.44,0,0,0-.9.07.68.68,0,0,0-.32.45A9,9,0,0,1,209,10.1a1.75,1.75,0,0,0-.2.44,1.13,1.13,0,0,0,.2.74.5.5,0,0,0,.15.2.46.46,0,0,0,.45,0,2.13,2.13,0,0,0,1-1.55c0-.28.1-.62.36-.72s.61.18.68.49,0,.65.1,1a1.39,1.39,0,0,0,.9.88,3.78,3.78,0,0,0,1.3.16,1.07,1.07,0,0,0,.93-.36.6.6,0,0,0,0-.62" style="fill:#231815"/><path d="M196.7,5.88a1.32,1.32,0,0,0-1.08-.38c-.25,0-.49,0-.74,0s-.39,0-.45-.16.06-.9.38-.92.95.23,1-.42a.59.59,0,0,0-.5-.64,1.36,1.36,0,0,1-.4,0c-.35-.17-.11-.58-.22-.86a1,1,0,0,0-.91-.44.45.45,0,0,0-.34.18.57.57,0,0,0,0,.14c0,.23,0,.46-.08.68s-.25.36-.53.4a9,9,0,0,1-2.07,0,.48.48,0,0,1-.17-.05c-.19-.11-.08-.51-.1-.69a.73.73,0,0,0-.35-.6.81.81,0,0,0-.31-.06.6.6,0,0,0-.43.09.63.63,0,0,0-.19.4,3.42,3.42,0,0,0,0,.45c0,.07,0,.27,0,.31a.27.27,0,0,1-.13,0,2.59,2.59,0,0,0-1.39.24.68.68,0,0,0-.29.21.45.45,0,0,0,.18.57,1.28,1.28,0,0,0,.64.14c.19,0,.52-.08.67,0s.09.65,0,.84-.26.28-.53.36a1.4,1.4,0,0,1-.54,0,1.11,1.11,0,0,0-.92.24c-.22.24-.16.74.16.8a1.36,1.36,0,0,0,.35,0c.31,0,.33.29.22.5a2.37,2.37,0,0,1-.52.7,3.68,3.68,0,0,1-.78.58,22.62,22.62,0,0,0-.06-3.68.64.64,0,0,1,0-.41.77.77,0,0,1,.17-.19,4.35,4.35,0,0,0,1.09-1.49.72.72,0,0,0,.09-.43c-.08-.36-.59-.41-.92-.25-1.17.54-1.38,2.26-2.5,2.91a5.44,5.44,0,0,0-.83.43.65.65,0,0,0-.2.83c.18.26.58.22.87.09a2.25,2.25,0,0,1,.87-.35c0,2.14-.06,4.27-.08,6.41,0,.65.3.69.88.69.43,0,.4-.21.43-.57s.06-.81.08-1.22c0-.11.1-1.71.07-1.71h.82c.17,0,.26.05.24.23,0,.6-.11,1.21-.17,1.81a2.74,2.74,0,0,0,0,1,.88.88,0,0,0,.68.65.67.67,0,0,0,.7-.7c-.05-.56,0-.84.65-.77s2-.47,1.83.69c0,.22-.14.54,0,.72s1,.41,1.25,0a1.77,1.77,0,0,0,0-1.22c0-.1-.09-.21,0-.3s.16-.09.26-.1l2.16-.05a.3.3,0,0,1,.21.05c.18.12,0,.41-.24.43s-.43-.08-.64,0a.59.59,0,0,0-.2.89,1.39,1.39,0,0,0,.93.46,1.54,1.54,0,0,0,1.17-.19,1.92,1.92,0,0,0,.49-1.58V8.88a1.39,1.39,0,0,0-.38-1.16,1.3,1.3,0,0,0-.83-.16l-2,0c-1.08,0-2.17,0-3.26,0-.21,0-.94.14-.83-.25.06-.18.27-.48.47-.51a6.47,6.47,0,0,1,1.46-.05,34.76,34.76,0,0,0,4.78-.21,1.37,1.37,0,0,0,.56-.15.48.48,0,0,0,.24-.5l0,0m-4,2.94a.38.38,0,0,1,.16-.18.58.58,0,0,1,.29-.06c.4,0,.8-.05,1.21,0s.72,0,.79.39a.29.29,0,0,1,0,.16c-.05.13-.19.11-.29.09a9.08,9.08,0,0,0-1.28,0,2,2,0,0,1-.64,0c-.2-.06-.29-.21-.23-.36m0,1.51a.68.68,0,0,1,.49-.22l1.57,0a.93.93,0,0,1,.23,0c.14.05.19.28.2.41a.25.25,0,0,1-.14.3h-.19a16.44,16.44,0,0,0-2-.12.29.29,0,0,1-.2-.14.24.24,0,0,1,0-.22m-1.45.2c0,.21-.22.31-.44.31h-1.44c-.23,0-.56,0-.55-.33s.09-.42.44-.45.46,0,.69,0,.37-.05.56-.05a.93.93,0,0,1,.68.33.38.38,0,0,1,.06.18m-1.43-2,.37,0c.22,0,1.11-.06,1,.35s-.6.28-.85.28-.58,0-.87,0-.58.15-.64-.08c-.12-.45.5-.53.95-.55M193,5.09a.54.54,0,0,1-.31.5,1.31,1.31,0,0,1-.44.07l-1.12,0c-.18,0-.78.12-.89-.09a.3.3,0,0,1,0-.13,5.53,5.53,0,0,1,.15-.83s0-.07,0-.09a.11.11,0,0,1,.07,0,6.14,6.14,0,0,1,1.42,0c.34,0,1-.21,1.1.27a.61.61,0,0,1,0,.27" style="fill:#231815"/><path d="M153,5.08c-.85-.85-2.61-.34-3.42.31-.14.11-.48.47-.12.54a.27.27,0,0,0,.09,0,4.57,4.57,0,0,1,1.43,0c.69.12,1.44.37,2-.21a.49.49,0,0,0,.14-.41.46.46,0,0,0-.13-.21" style="fill:#231815"/><path d="M161.14,4.41a2.62,2.62,0,0,0-.25-1.2.84.84,0,0,0-.25-.36,1,1,0,0,0-.68-.12l-1.79.09a.32.32,0,0,1-.17,0c-.13-.07-.11-.25-.1-.39a1.35,1.35,0,0,0-.6-1.19c-.45-.3-.79.22-.78.65s.15.67.15,1a4,4,0,0,0-2.32.33,2.84,2.84,0,0,1-.68.27,1.48,1.48,0,0,1-.93-.22,3,3,0,0,1-1.14-1.13c-.11-.19-.24-.43-.47-.45a.59.59,0,0,0-.41.21c-1.06,1-1.95,2.23-3.31,2.68-.23.08-.53.19-.55.44a.9.9,0,0,0,.07.27,1.15,1.15,0,0,0,.49.61,1.11,1.11,0,0,0,.81-.11,7.75,7.75,0,0,0,2.24-1.57.9.9,0,0,1,.54-.34.85.85,0,0,1,.5.2,4.34,4.34,0,0,0,1.28.53,1.31,1.31,0,0,1,.76.35,2.55,2.55,0,0,1,.23.62.83.83,0,0,0,.45.5.62.62,0,0,0,.64-.09.82.82,0,0,0,.18-.7c0-.24-.13-.48-.16-.72A.45.45,0,0,1,155,4.2a.5.5,0,0,1,.36-.1L159.52,4a.36.36,0,0,1,.23,0c.16.08.18.29.19.47a1.6,1.6,0,0,0,.11.57.59.59,0,0,0,.45.33.53.53,0,0,0,.49-.28,1.13,1.13,0,0,0,.15-.57V4.41" style="fill:#231815"/><path d="M154.27,12.55a.76.76,0,0,0-.11-.14A5.76,5.76,0,0,0,153,11.28a5.52,5.52,0,0,0-1.19-.8c-.39-.12-1.11.18-.69.67s-.79.61-1,.67-1.13.34-1.23,0a.75.75,0,0,1,0-.15c0-.18,0-1.4.31-1.4a2.72,2.72,0,0,1,1-.09c.54,0,1.08-.09,1.61-.09s1.59,0,1.91-.66a3.26,3.26,0,0,0-.19-2.92c-.19-.41-1-.23-1.32-.21a19.41,19.41,0,0,1-2.29.05c-.83,0-1.89-.2-2.13.8a12.56,12.56,0,0,0-.21,2.67c0,1-.54,2.84.37,3.57.59.46,1.59.14,2.21,0s1.68-.88,2.35-.72a.82.82,0,0,1,.28.14,1.57,1.57,0,0,0,1,.42c.18,0,.48-.27.48-.48a.27.27,0,0,0,0-.12m-5-5c0-.11.06-.21.19-.22l3.2-.05c.15,0,.23.07.22.21a.73.73,0,0,1-.05.2c0,.08-.12.08-.2.08a14.9,14.9,0,0,0-1.89,0c-.33,0-.67.09-1,.1s-.46-.09-.46-.34m-.11,1.31c.06-.1.31,0,.38,0a1.78,1.78,0,0,0,.61,0,7.24,7.24,0,0,1,2-.08c.2,0,1.08,0,.51.42-.24.16-.59,0-.85,0l-1.17,0c-.43,0-1,.22-1.37-.06a.21.21,0,0,1-.1-.16.14.14,0,0,1,0-.06" style="fill:#231815"/><path d="M155.21,13.09a.77.77,0,0,1-.28-.26,1.5,1.5,0,0,1-.13-.84c.08-1.42.15-2.84.22-4.26a10,10,0,0,1,.31-2.39.65.65,0,0,1,.2-.35.57.57,0,0,1,.31-.1,11.75,11.75,0,0,1,1.78-.13c.48,0,1.08-.1,1.44.29a1.7,1.7,0,0,1,.4,1.48c0,.21,0,.43,0,.64a.93.93,0,0,1-.77.82,5.09,5.09,0,0,1-1,.13,8,8,0,0,0-.85,0c-.2,0-.44.14-.44.35a.33.33,0,0,0,.27.28,1.19,1.19,0,0,0,.42,0,9.72,9.72,0,0,1,1.79-.05,1.87,1.87,0,0,1,.88.17,1.31,1.31,0,0,1,.62,1,3.71,3.71,0,0,1-.12,1.24,7.36,7.36,0,0,1-.41,1.53,1.16,1.16,0,0,1-.51.66,1.41,1.41,0,0,1-.71.09l-2.42-.12a2,2,0,0,1-.95-.21M158.33,12c.47,0,.58-.69.64-1s.18-.63,0-.88-.88-.18-1.21-.16a3.77,3.77,0,0,1-.89,0c-.38-.06-.58-.06-.62.36a10.54,10.54,0,0,1-.08,1.12c0,.19-.14.47.09.56a4.22,4.22,0,0,0,.87,0c.38,0,.76.08,1.15.09h0m-1.77-6.19-.19,0a.13.13,0,0,0-.1.06.09.09,0,0,0,0,.07l0,.29a.46.46,0,0,0,.44.45,1.77,1.77,0,0,0,.46,0,5.62,5.62,0,0,1,.82,0c.41,0,.38-.32.45-.64a.25.25,0,0,0,0-.17.26.26,0,0,0-.1-.07,3.06,3.06,0,0,0-1.8-.06" style="fill:#231815"/><path d="M129.45,12.75a.75.75,0,0,1,0-1.27,3.52,3.52,0,0,1,1.08-.49,8.18,8.18,0,0,0,4.32-3.12s.05-.08,0-.13c-.33.07-.34.48-1,.33-.79-.19-1-2-1.77-.53a1.51,1.51,0,0,1-1.25.9,1,1,0,0,1-.75-1.38,1.52,1.52,0,0,1,.48-.35c1-.54,1.37-1.53,2.15-2.28,0,0,.27-.1.22-.07a3.47,3.47,0,0,1-1,0,1.91,1.91,0,0,1-1.39-.34c-.57-.56.11-1,.62-1,.74,0,1.48.11,2.21.13s1.25-.08,1.88,0a.59.59,0,0,0,.35,0c.29-.15.08-.88.1-1.15a.63.63,0,0,1,.69-.67c.58,0,.68.08.69.68,0,.4,0,.92.27,1.21a1.06,1.06,0,0,0,.43.2,7.65,7.65,0,0,0,2-.11c.78,0,1.57-.07,2.36-.06a1.23,1.23,0,0,1,.54.09.49.49,0,0,1,.27.48.53.53,0,0,1-.14.29,1.15,1.15,0,0,1-.73.41,3.33,3.33,0,0,0-1,.07,1.54,1.54,0,0,0-.67.89.69.69,0,0,0-.08.28.55.55,0,0,0,.2.35,6,6,0,0,0,.94.56,1.46,1.46,0,0,1,.72.84c.09.38-.15.86-.51.86a.84.84,0,0,1-.46-.21c-.57-.45-1.17-1.07-1.85-.92s-.48.92-1.13,1a1.11,1.11,0,0,1-.95-.3c-.23-.28-.38.18-.26.4a2.65,2.65,0,0,0,1,.81c.46.29.93.57,1.4.84s4,1.63,3.4,2.53c-.49.75-1.88.05-2.46-.21a8,8,0,0,1-2.6-1.87c-.24-.26-.65-.8-.94-.37-.2.28-.09.88-.09,1.21a10.26,10.26,0,0,1,0,1.92c-.11.56-.81.5-1.05.26s-.2-.93-.22-1.3c0-.84.06-2.75-.16-2.63-.45.21-.89.89-1.31,1.22a11.57,11.57,0,0,1-2.31,1.38c-.41.19-1.71.91-2.36.62m6.22-7.83a.67.67,0,0,0-.64-.44,5.58,5.58,0,0,0-1.2-.11s.1.65.1.76a1.92,1.92,0,0,0,.21,1.21,6.55,6.55,0,0,0,1,1,2.85,2.85,0,0,0,.54-2.4m1.44,1.42a.55.55,0,0,0,.11.36c.18.18.41,0,.55-.17a6.06,6.06,0,0,0,1-1.15c.12-.16.38-.44.39-.65,0-.38-1.61-.41-1.84-.26s-.23.54-.23.87,0,.66,0,1" style="fill:#231815"/><path d="M70.68,12.83c.12-.8-1.09-1.38-1.61-1.76A5.9,5.9,0,0,1,68,10a2.57,2.57,0,0,0-.78-.69c-.38-.22-.22-.32.06-.49a2.9,2.9,0,0,0,1.22-1.13.51.51,0,0,0,0-.4A.55.55,0,0,0,68.24,7c-.81-.28-1,.2-1.63.58-.32.2-.61.47-1,.19a4.28,4.28,0,0,0-1-.64A1.46,1.46,0,0,1,64,6.72c-.18-.26.07-.45.26-.61A.89.89,0,0,1,65,5.94c.73,0,1.44-.07,2.16,0,.49,0,1.06,0,1.33-.49a.46.46,0,0,0,.07-.27.45.45,0,0,0-.25-.32,3,3,0,0,0-.93-.14,11.64,11.64,0,0,0-1.18.05c-.78,0-1.55,0-2.33.13A16.93,16.93,0,0,1,61.47,5l-.93,0A3.75,3.75,0,0,0,60,5c-.26,0-.63.12-.59.46.06.57.87.75,1.33.77.17,0,1.52-.22,1.57,0s-.75.58-.86.66a5.78,5.78,0,0,1-1.34.72c-.5.18-1,.28-1.53.48a1.88,1.88,0,0,0-.62.3c-.25.23-.08.41,0,.67a.44.44,0,0,0,.06.1.3.3,0,0,0,.1.07,1.61,1.61,0,0,0,1.27.07,9.84,9.84,0,0,0,3.2-1.48A.77.77,0,0,1,63,7.58a.27.27,0,0,1,.31.21c0,.32-.58.66-.8.82a8.11,8.11,0,0,1-3.33,1.53c-.14,0-.34,0-.43.16a.5.5,0,0,0,0,.55,1.16,1.16,0,0,0,1.33.34,9.75,9.75,0,0,0,1.39-.82,14.5,14.5,0,0,0,1.44-.91c.45-.33.83-.77,1.3-1.07a.38.38,0,0,1,.17-.08c.16,0,.27.14.36.28s0,.08,0,.12a.21.21,0,0,1-.06.1A17.31,17.31,0,0,1,62,11.06,7.36,7.36,0,0,1,60.1,12a9.22,9.22,0,0,1-1,.24,2.45,2.45,0,0,0-.91.16l-.13.07-.09,0a.32.32,0,0,0-.16.2.48.48,0,0,0,0,.39c.12.24.38.17.6.2a5.35,5.35,0,0,0,2.2-.31,10,10,0,0,0,2.21-1A12.47,12.47,0,0,0,65,10.31c.06-.06.14-.11.21-.08s.06.14,0,.22a4.33,4.33,0,0,1-.6,1.69,1.64,1.64,0,0,1-1,.64c-.39.06-.7-.18-1.06-.16a2.11,2.11,0,0,0-.7.13.85.85,0,0,0-.29.17.31.31,0,0,0-.09.3,1.11,1.11,0,0,0,.53.4c.34.08.67.22,1,.31a2.45,2.45,0,0,0,1.75-.07,3.34,3.34,0,0,0,1-1,5.42,5.42,0,0,0,.61-1.2c.06-.18.18-.81.38-.87s.53.52.6.6c.28.28.57.54.85.81s1.8,1.67,2.26,1a.92.92,0,0,0,.14-.35" style="fill:#231815"/><path d="M70.61,12.74s0-.09-.07-.1,0,0,0,0,0,.08.07.09,0,0,0,0" style="fill:#231815"/><path d="M70,2.65a.9.9,0,0,1,.75.36,2.35,2.35,0,0,1-.38,2.68,1.05,1.05,0,0,1-.76.06.74.74,0,0,1-.42-.69c.07-.29.72-1.21,0-1.29a8.3,8.3,0,0,0-.89.12A8.71,8.71,0,0,1,66,4c-.64,0-1.28,0-1.92,0s-1.57,0-2.36.09l-1.21.11a2.57,2.57,0,0,0-.92.14.94.94,0,0,0-.56.81,1.29,1.29,0,0,1-.17.5c-.19.29-1.12.46-1.32.08a.58.58,0,0,1,0-.37c.05-.36.19-.7.22-1.06s-.09-.64.15-.87A1.77,1.77,0,0,1,59,3.11c.71,0,1.41,0,2.12-.12a4.4,4.4,0,0,0,1.54-.24c.38-.22,0-.71.4-1a1.16,1.16,0,0,1,1,0c.25.19.16.51.19.78,0,.46.34.34.74.32,1.43-.1,2.86-.07,4.29-.15A6.39,6.39,0,0,1,70,2.65" style="fill:#231815"/><path d="M86,7.13c.26-.08.42-.22.21-.51s-.37-.16-.57-.14a6.43,6.43,0,0,1-2.47-.19.37.37,0,0,1-.23-.12.34.34,0,0,1,0-.36c.3-.56,1.09-.58,1.72-.54s1.12,0,1.67,0a3.28,3.28,0,0,0,.15-1c0-.74-3.57.08-3.18-1,.12-.32.92-.46,1.22-.49A6.45,6.45,0,0,1,86.15,3c.41.08,1.48.31,1.68.74a.68.68,0,0,1,0,.28,26.77,26.77,0,0,1-.29,2.68c-.12,1.08,0,1.83-1.28,1.85-1,0-2.78-.45-2.78.92,0,.91-.19,2.37.38,3.14a1.54,1.54,0,0,0,.87.55c.49.12,2.23.35,2.51-.25a3,3,0,0,0-.14-1.31c-.06-.25-.25-1.25.17-1.3a.54.54,0,0,1,.27.07c.31.13.88.35,1,.71a10.58,10.58,0,0,1,.18,1.87c0,1.29-1,1.44-2.13,1.43-.45,0-.91,0-1.36,0a3.57,3.57,0,0,1-2.37-.84,3.67,3.67,0,0,1-.73-2.39c0-.52-.05-1-.05-1.57,0-.9-.32-.79-1-.8-.42,0-.54-.13-.77.31A9,9,0,0,0,80,10.06a10.34,10.34,0,0,1-.67,1.48c-.34.6-1.78,3-2.66,2.75a.61.61,0,0,1-.24-.15c-.38-.34-.77-.46-.44-.92.19-.27.59-.39.76-.66a9.39,9.39,0,0,0,1.15-1.45c.16-.26,1.28-2.3.67-2.2A4.66,4.66,0,0,1,77.38,9a5.73,5.73,0,0,1-1.16-.26c-.42-.17-.34-.28-.39-.81-.08-1-.15-1.93-.2-2.9a1.51,1.51,0,0,1,.2-1,1.46,1.46,0,0,1,.51-.37C76.7,3.45,79.92,2,79,3.57a2.41,2.41,0,0,1-1.1.84c-.46.2-1,.14-.83.76a4.36,4.36,0,0,1,.06.49c0,.12,1.14,0,1.24,0a2.13,2.13,0,0,1,1.62.2c.6.42.26.86-.34,1l-.2,0A10.33,10.33,0,0,0,77.27,7c-.11.26-.19.61,0,.78s.44,0,.65,0a4.66,4.66,0,0,1,1.17-.17c1.3,0,2.62-.17,3.91-.25l2-.12A4.52,4.52,0,0,0,86,7.13" style="fill:#231815"/><path d="M107.21,13.09c.05-.42-.19-.92-.61-.92l-3.11,0h-.82c-.22,0-2.28.27-1.46-.44.35-.29,1.34-.09,1.78-.11s2.19.26,2.35-.4c.07-.3-.24-.48-.46-.57a3,3,0,0,0-1.29-.11l-1.8,0c-.18,0-1,.17-.86-.33.1-.28.81-.15,1-.17,1.19-.08,2.39-.15,3.58-.15.32-.06.38-.28.41-.59a22.85,22.85,0,0,0,.12-3c0-.61-8.35-.26-9.17-.24a7.2,7.2,0,0,0-1.61.13,3.41,3.41,0,0,0-1,.39c-.19.19-.09.57-.07.84,0,.74.07,1.48.11,2.21,0,.45.52.61.91.68a5.48,5.48,0,0,0,1.39-.15c.44,0,.89,0,1.34,0a6.48,6.48,0,0,1,1.32-.05c.46.12.43.43.07.57a4.78,4.78,0,0,1-1.73,0c-.72,0-1.45-.08-2.17,0-.46,0-1.66.28-.74.88a2.41,2.41,0,0,0,1.57.16,21.27,21.27,0,0,1,2.88-.1.54.54,0,0,1,.45.17c.41.67-1.24.53-1.54.51a34.92,34.92,0,0,0-4.34,0,.48.48,0,0,0-.39.16.67.67,0,0,0-.08.25,3.86,3.86,0,0,0-.1.49c0,1,2,.54,2.5.54,2,0,4,0,6-.1l3-.08c.63,0,1.76.37,2.3-.07a.57.57,0,0,0,.21-.42M104.49,8.6a.41.41,0,0,1,.06.31c0,.3-1.11.1-1.35.1-.55,0-1.09,0-1.64,0-.19,0-.36.07-.44-.09a.57.57,0,0,1,.06-.38c.13-.19.38-.18.59-.2s.68,0,1,0,.8,0,1.2.05c.22,0,.41,0,.5.18m-3.3-1.77a1.8,1.8,0,0,1,.43,0,13.11,13.11,0,0,1,1.4.06c.19,0,1.91.05,1.73.32,0,.07-.13.09-.22.11a2.84,2.84,0,0,1-.42.09c-.64,0-1.27-.09-1.91-.1-.23,0-.47.06-.7.07a.5.5,0,0,1-.45-.15c-.16-.21,0-.31.14-.36m-5.55.72,0,0c-.25-.44.92-.41,1.14-.44.61-.09,1.2.1,1.8,0,.12,0,.44-.09.44.13a.23.23,0,0,1-.14.2c-.65.27-1.45,0-2.11.08-.24,0-.92.29-1.11,0m4,1.43a1.69,1.69,0,0,1-.49.13c-.51.07-1,.09-1.54.14a2.38,2.38,0,0,1-.38,0A4.32,4.32,0,0,0,96,9.31c-.23.06-.24-.24-.25-.23L96,8.94a2.68,2.68,0,0,1,.4,0A19.68,19.68,0,0,0,99,8.58c.16,0,.4-.11.54,0s.17.31,0,.39" style="fill:#231815"/><path d="M107.09,4.86c0-.73-.84-.67-1.39-.62a3.39,3.39,0,0,1-1.27,0,.44.44,0,0,1-.33-.6c.17-.34.81-.16,1.12-.21s1.06,0,1.33-.35.16-.75-.25-.75a6.11,6.11,0,0,0-1.21-.09c-1,0-1.93,0-2.9,0-.29,0-.58,0-.87,0-.52,0-.75-.53-1.17-.78a.86.86,0,0,0-.43-.18c-.62,0-.4,1-1,1.06a2.17,2.17,0,0,1-.51,0c-1.37-.11-2.74.29-4.1.2-.26,0-.48.28-.51.51-.11.78,1.4.72,1.86.68a.79.79,0,0,1,.62.15c.07.05.37.5.27.56h0q-1.17.08-2.34.12a1.73,1.73,0,0,0-.84.19c-.16.1-.09.58.05.7a.35.35,0,0,0,.17.06,14.12,14.12,0,0,0,2.68,0l3.13-.09c1.55,0,3.11-.09,4.67-.08l2,0c.5,0,.77.13,1.2-.25a.28.28,0,0,0,.09-.13s0-.07,0-.1M102.7,3.7a1,1,0,0,1-.12.27.79.79,0,0,1-.35.35.94.94,0,0,1-.34,0c-.87,0-1.75,0-2.62,0a1.82,1.82,0,0,1-1.49-.34.37.37,0,0,1-.11-.32.39.39,0,0,1,.26-.24,4.87,4.87,0,0,1,1.94,0c.38,0,3-.31,2.83.21" style="fill:#231815"/><path d="M45.33,11.11a.62.62,0,0,0,.14-.57c-.17-.57-.93-.38-1.38-.34a19,19,0,0,0-2,.3.63.63,0,0,0-.5.27.44.44,0,0,0,.1.48,1,1,0,0,0,.45.24,1.55,1.55,0,0,0,.85-.06,3.38,3.38,0,0,1,.84,0,4.26,4.26,0,0,0,.8-.08,1.19,1.19,0,0,0,.64-.24l0,0" style="fill:#231815"/><path d="M52.83,5.19c0-.66,0-1.32,0-2,0-1.63-1.8-1-2.89-1-2.23,0-4.48-.06-6.7.07A13.91,13.91,0,0,0,41,2.61c-.82.18-.88.31-.84,1.12,0,.41,0,.84-.06,1.26l-.12,2.64c-.07,1.61-.17,3.21-.3,4.82s2.13,1.11,3.06,1.06c1.9-.08,3.81.06,5.71.14.88,0,1.75.08,2.62.14a3.08,3.08,0,0,0,.61-.07c.14,0,.28,0,.42,0a.61.61,0,0,0,.41-.21,1.92,1.92,0,0,0,.35-1.1c.07-.82-.08-1.64-.08-2.46v0c0-1.57,0-3.15.09-4.72m-1.49.45c-.05.32-.09.58-.1.73-.09,1.56,0,3.11,0,4.68,0,.44.37,1.23-.16,1.47a1.32,1.32,0,0,1-.63.07,64.81,64.81,0,0,0-8-.19,4.72,4.72,0,0,1-.84,0,.41.41,0,0,1-.35-.17.33.33,0,0,1,0-.22c0-.44.09-.87.12-1.3.1-1.37-.19-2.79.23-4.11a.75.75,0,0,1,.13-.27c.34-.4,1-.27,1.42-.22A13.36,13.36,0,0,0,45,6a8.09,8.09,0,0,0,.82-.19,3.47,3.47,0,0,1,.85,0c.23,0,.47-.05.71,0s.3.1.33.38c.07.68.11,1.37.17,2.05a2.16,2.16,0,0,1,0,.84,1.69,1.69,0,0,1-.69.89c-.32.22-.67.39-1,.59a1,1,0,0,0-.5.56.68.68,0,0,0,.46.73,1.23,1.23,0,0,0,.9-.09,8.09,8.09,0,0,0,.79-.5.54.54,0,0,1,.23-.11.45.45,0,0,1,.38.22c.08.12.13.26.21.39a1.33,1.33,0,0,0,.79.56,1.31,1.31,0,0,0,.83,0,.73.73,0,0,0,.49-.62.55.55,0,0,0-.46-.57c-.11,0-.17.07-.28,0a.53.53,0,0,1-.17-.31,2.4,2.4,0,0,1-.22-1A1.8,1.8,0,0,1,50.07,9a4,4,0,0,0,.82-1.39,1.43,1.43,0,0,0,0-.82c0-.16-.34-.73-.55-.47a7.58,7.58,0,0,0-.9,1.33c-.09.18-.28.07-.29-.1a.85.85,0,0,1,0-.23c.12-.46-.07-.94.06-1.39a.45.45,0,0,1,.51-.28c.14,0,.27.05.41.07A.85.85,0,0,0,51,5.46a.7.7,0,0,0,.06-.67c-.09-.17-.38-.17-.55-.19l-1.07-.16c-.47-.07-.43-.37-.68-.69s-1.4-.15-1.15.52a.28.28,0,0,1,0,.13c0,.39-.67.23-.88.24-.54,0-1.08.06-1.62.11A21.75,21.75,0,0,0,42,5.3a.44.44,0,0,1-.3,0c-.31-.15-.15-1.53.07-1.7.6-.47,1.79-.34,2.5-.35,1,0,2,.05,3,0l.47,0c1,0,2-.11,3-.13h0l.07,0a.38.38,0,0,1,.15,0,.28.28,0,0,1,.13,0c.54.23.38,1.6.25,2.51" style="fill:#231815"/><path d="M50.81,3.58a.34.34,0,0,0-.29-.14,5.66,5.66,0,0,0-.92,0c-.46.09,0,.59.25.65a2.45,2.45,0,0,0,.81.12c.38,0,.34-.43.15-.66" style="fill:#231815"/><path d="M46.32,8.18a1.83,1.83,0,0,0-.26-1.25,1.05,1.05,0,0,0-.65-.29c-.81-.1-1.55.3-2.37.24-.26,0-.86-.08-.95.25a5.38,5.38,0,0,0-.23,1.37c0,.37-.22,1.08.28,1.22a1.27,1.27,0,0,0,.39,0c.61-.06,1.21-.14,1.81-.22l.91-.13c.46-.06.87,0,1-.55a3.6,3.6,0,0,0,.08-.65m-1.79.43h-.05a2.86,2.86,0,0,0-.58.13.57.57,0,0,1-.44,0,.44.44,0,0,1-.19-.35,4.66,4.66,0,0,1,0-.65.11.11,0,0,1,0-.08.15.15,0,0,1,.12-.08,1.86,1.86,0,0,1,.47,0c.18,0,.78-.12.87.07a1.73,1.73,0,0,1,0,.68.21.21,0,0,1-.19.22" style="fill:#231815"/><path d="M178.79,7.43a1,1,0,0,0-.17-.87,2,2,0,0,0-1.05-.27,14,14,0,0,0-2.24,0c-2.28.13-4.55.22-6.82.36l-1,.07a5.87,5.87,0,0,0-1.62.23c-.41.17-.45.57,0,.74s.73-.1,1.06-.13c.52,0,1-.06,1.57-.08,2,0,4.07-.27,6.11-.28.95,0,1.91,0,2.85.09.12,0,.2.87.31,1,.42.48,1-.45,1-.82" style="fill:#231815"/><path d="M171.11,4.24c-.41.55-1.45.32-2,.31-.87,0-1.73,0-2.6.08-.31,0-.9.46-.59.8s1.42.06,1.9,0,1.09-.1,1.64-.13c.17,0,1.57-.09,1.49.12s-1.38.13-1.67.16-.84.12-1.26.15-.85-.12-1,.19.2.47.43.54a2.56,2.56,0,0,0,1.1,0,28.6,28.6,0,0,1,3.7-.35l1.9,0c.09,0,1.36.08,1.19-.22a.67.67,0,0,0-.19-.25.36.36,0,0,0-.22-.11c-.73,0-1.47,0-2.21,0-.2,0-.45,0-.54-.19a3.16,3.16,0,0,1,.53-.13,16.49,16.49,0,0,1,3.75.32,1.78,1.78,0,0,0,.69,0c.32-.1.8-.46.41-.77a1.66,1.66,0,0,0-1.12-.42c-.34,0-.67,0-1,.07l-1.1.07-1,.06a7.22,7.22,0,0,1-1.39,0,.07.07,0,0,1-.05,0,.6.6,0,0,0-.3-.31.28.28,0,0,0-.41.09m-3.69,2.05h0m0,0h0m0,0h0" style="fill:#231815"/><path d="M171,8.91a.66.66,0,0,1-.39.09c-1.06,0-2.11,0-3.17-.05a.46.46,0,0,0-.38.08c-.17.18,0,.52.18.61s.36,0,.52,0l.65,0,7,0c.22,0,.74-.06.67-.41a.36.36,0,0,0-.24-.25,5.48,5.48,0,0,0-1.4,0l-1.56,0a1.84,1.84,0,0,1-.52-.05.28.28,0,0,1-.2-.15.22.22,0,0,1,.08-.24.53.53,0,0,1,.24-.11c.91-.23,1.92.2,2.79-.13.69-.26,0-.85-.45-.91-1.4-.18-2.92.3-4.33.32-.87,0-1.73,0-2.59.14a.66.66,0,0,0-.34.12.42.42,0,0,0,.12.62,1.15,1.15,0,0,0,.71.1l2.63-.14c.11.08.07.26,0,.35" style="fill:#231815"/><path d="M173.4,12.58a0,0,0,0,0,0,0c.21-.47-1.73-.54-2-.38a.28.28,0,0,0-.13.37c.46.65,1.45.41,2,.1l.09-.06" style="fill:#231815"/><path d="M177.35,11.25h-.08c-1-.1-2-.15-3.05-.16l-1.49,0-.75,0c-.07,0-.57,0-.56,0a.62.62,0,0,0-.15.29s0,0,0,.06,0,0,.06.06l.16.12c.36.26,1.18.19,1.62.23a14.85,14.85,0,0,0,2,.06h.25c.5,0,.39.78,0,1a.81.81,0,0,1-.46,0c-.34,0-.62-.15-1-.17a.91.91,0,0,0-.59.11c-.36.25,0,.64.23.78a1.91,1.91,0,0,0,2.69-.43c.29-.53,0-1.44.91-1.45l.16,0a.26.26,0,0,0,.22-.14c.1-.21-.08-.36-.25-.41" style="fill:#231815"/><path d="M178,10.09c-.35-.38-1.44-.14-1.83-.14H176c-.71,0-1.42,0-2.13,0a19.78,19.78,0,0,0-2,.05c-.7,0-1.39,0-2.09,0-.45,0-.91,0-1.36,0s-.92-.05-1.38-.05a3.14,3.14,0,0,0-.53,0,5,5,0,0,0-1,.12c-.62.23-.27.76.27.7a4.51,4.51,0,0,1,1.1.1,10.77,10.77,0,0,0,1.39,0c.91,0,1.81-.09,2.72-.13,1.17,0,2.33-.09,3.5-.07s2.14,0,3.2.06h0c.26.07.47-.28.43-.5a.41.41,0,0,0-.1-.22" style="fill:#231815"/><path d="M171,11.67a.34.34,0,0,0-.06-.12,1.07,1.07,0,0,0-.78-.4,10.12,10.12,0,0,0-2.06.08,5.68,5.68,0,0,1-1.09,0c-.22,0-.5-.16-.67.05a1,1,0,0,0-.14.37,2.26,2.26,0,0,0-.06.93c.12.61.79.82,1.33.91a6.83,6.83,0,0,0,3.06-.43,1,1,0,0,0,.47-1.36m-1.44.5c-.09.59-.7.46-1.11.38-.17,0-1.05,0-1.05-.2a2,2,0,0,0,0-.35,8.6,8.6,0,0,1,2.11.08.08.08,0,0,1,.07,0,.06.06,0,0,1,0,.06" style="fill:#231815"/><path d="M165.64,4.11a.65.65,0,0,0,.55.32.88.88,0,0,0,.93-.54c.18-.39.16-.68.61-.68.14,0,.36-.07.45.06a2.09,2.09,0,0,1,.08.23,1.34,1.34,0,0,0,.75.69c.45.21.63.11,1-.14a.29.29,0,0,0,.14-.15.19.19,0,0,0,0-.18c-.14-.26-1-.31-1.27-.45C168.33,3,170,3,170.16,3c.43,0,1,.14,1.18-.38a.64.64,0,0,0,0-.49c-.24-.35-1.09-.2-1.44-.19-.8,0-1.61.1-2.41.19,0,0,0,0-.06,0a.33.33,0,0,1,0-.24c0-.32-.56-1-.89-.67a.43.43,0,0,0-.09.22,8.92,8.92,0,0,1-.75,2.12.66.66,0,0,0,0,.56" style="fill:#231815"/><path d="M175.91,3.53a.31.31,0,0,0-.15-.12A2.61,2.61,0,0,0,174,3.29c-.54.24.27.51.55.56a6.88,6.88,0,0,0,.91.13c.23,0,.6-.14.43-.45" style="fill:#231815"/><path d="M171.67,3.91a.33.33,0,0,0,.17.16.41.41,0,0,0,.37,0,1.34,1.34,0,0,0,.31-.22l.12-.12a2,2,0,0,1,1.7-.72c.43,0,3,.27,2.77-.61a.58.58,0,0,0-.38-.38,6.68,6.68,0,0,0-2.67.07c-.16,0-.52.18-.67.09s0-.48,0-.65c-.06-.32-.27-.27-.61-.34a.38.38,0,0,0-.15,0,.38.38,0,0,0-.14.11,8.1,8.1,0,0,0-.85,2.19.36.36,0,0,0,0,.09.36.36,0,0,0,0,.1.82.82,0,0,0,.1.26" style="fill:#231815"/><path d="M113.49,4.56c-.28-.13-.42-.3-.32-.54a.91.91,0,0,1,.7-.51,2.51,2.51,0,0,1,.94.09,5.71,5.71,0,0,0,2.14,0c.58-.11.6-.4.55-1a1.9,1.9,0,0,0-.14-.7.1.1,0,0,1,0-.09.69.69,0,0,1,1.27-.22c.47.58-.13,1.5.4,2,.22.22,1,.06,1.29,0s.73,0,1.09-.05a3.7,3.7,0,0,1,1.15,0c.52.11.2,1-.13,1.16a1.22,1.22,0,0,1-.46.13,16.28,16.28,0,0,1-1.85.14c-.36,0-1.3-.27-1.23.34a6.94,6.94,0,0,1,0,.91c0,.52,1,.21,1.24.19a16.49,16.49,0,0,1,2.62.13c.36,0,1.57-.11,1.67.44.16,1-1.3.91-1.81.9s-.85-.07-1.27-.09c-.13,0-.38-.07-.48,0-.47.5.71,1.69,1,2a9,9,0,0,0,2.76,1.68c.28.15.59.45.46.75a.55.55,0,0,1-.54.27,4.65,4.65,0,0,1-2.24-.71,7.72,7.72,0,0,1-1.88-1.28,4.29,4.29,0,0,1-.84-1.09c-.06-.12-.41-1.22-.58-1.09a.35.35,0,0,0-.08.27c0,.51,0,1,0,1.55l0,1.55a2.61,2.61,0,0,0,0,.28c0,.12,0,.23,0,.34a1.09,1.09,0,0,1,0,.31,1.41,1.41,0,0,1-.16.54l-.07.09a.83.83,0,0,1-1.15,0c-.51-.61-.11-1.93-.1-2.66,0-.45,0-.91,0-1.37s.06-1-.35-.37a11.55,11.55,0,0,1-2.14,2.32,5.41,5.41,0,0,1-2,1.22c-.49.12-1.9.13-1.24-.8.45-.63,1.41-.9,2-1.33a6.55,6.55,0,0,0,2-1.81c.56-.93-1.37-.72-1.76-.73a10.48,10.48,0,0,1-2.17-.16.64.64,0,0,1-.33-.13c-.83-.64.89-1,1.21-1l2.81.08c1,0,2,.33,2.07-1.06,0-.71-.87-.63-1.33-.66a9.34,9.34,0,0,1-2.62-.32" style="fill:#231815"/><path d="M195.81,23.48a.26.26,0,0,1-.17,0c-.36-.11-.41-.39-.37-.72s.07-.51.1-.77c.06-.53.12-1.06.19-1.59,0-.24,0-.73.22-.9.44-.37,1,.45,1.11.77s.15.35.23.52.12.34.24.37.31-.52.35-.64a2.24,2.24,0,0,1,.3-.71c.27-.37.82-.48,1,0a1.43,1.43,0,0,1,.07.51c0,.78.06,1.57.08,2.35a1.3,1.3,0,0,1-.07.59.45.45,0,0,1-.48.27c-.22-.07-.3-.33-.34-.55a6.31,6.31,0,0,1-.08-.76c0-.24,0-.48,0-.71,0,0,0-.06,0-.07a1.71,1.71,0,0,0-.08.29.58.58,0,0,1-.18.3.55.55,0,0,1-.43.18,1,1,0,0,1-.36-.09.86.86,0,0,1-.45-.32c-.07-.11-.11-.36-.22-.43s-.12.24-.13.32,0,.23,0,.35a4.6,4.6,0,0,1-.06.52c-.05.26-.08.86-.41.91" style="fill:#231815"/><path d="M213.92,21.51c-.18,0-.28.25-.44.35a.57.57,0,0,1-.62-.1,1.6,1.6,0,0,1-.38-.54l-.3,1.76a.66.66,0,0,1-.21.44.45.45,0,0,1-.61-.24,1.33,1.33,0,0,1,0-.74c.12-.81.21-1.62.27-2.44a.64.64,0,0,1,.18-.51.53.53,0,0,1,.66.13c.24.24.31.64.52.91.39.49.46-.38.58-.67.25-.64.93-.57,1.17,0a2.49,2.49,0,0,1,.12.81c0,.51,0,1,0,1.53,0,.32.22,1.93-.55,1.58-.29-.13-.31-.48-.33-.75l-.06-1.57h0" style="fill:#231815"/><path d="M211,20.82a6.26,6.26,0,0,1-.18,1.49,2.19,2.19,0,0,1-.45.9,1.14,1.14,0,0,1-.9.39,1.23,1.23,0,0,1-1-.86,3.57,3.57,0,0,1-.13-1.38c0-.44,0-.89.05-1.33a.89.89,0,0,1,.07-.4c.23-.47.72,0,.8.29a2.17,2.17,0,0,1,0,.72,9.49,9.49,0,0,0,.05,1.92c0,.12.09.27.21.24a.28.28,0,0,0,.11-.08,2.68,2.68,0,0,0,.44-1.43c0-.5-.2-1.52.34-1.81a.43.43,0,0,1,.45.05c.28.23.14,1,.13,1.29" style="fill:#231815"/><path d="M202.23,21a5.66,5.66,0,0,1-.17,1.59,1.38,1.38,0,0,1-.62.86,1.18,1.18,0,0,1-1.32-.29,2.39,2.39,0,0,1-.54-1.32,10.7,10.7,0,0,1,0-1.7.66.66,0,0,1,.12-.41c.18-.2.54-.07.67.16a1.51,1.51,0,0,1,.09.79,7.58,7.58,0,0,0,.08,1.65.65.65,0,0,0,.09.3.26.26,0,0,0,.26.13c.13,0,.2-.15.25-.27a3.24,3.24,0,0,0,.22-1.37c0-.34-.08-1.65.58-1.46.47.14.32,1,.32,1.34" style="fill:#231815"/><path d="M206.63,20.32a.54.54,0,0,0-.11.27.53.53,0,0,0,.36.53,2,2,0,0,0,.64,0c.22,0,.48.11.49.33a.36.36,0,0,1-.23.31,1.18,1.18,0,0,1-.41.07h-.64a.21.21,0,0,0-.13,0,.23.23,0,0,0-.06.15l-.07.61a.16.16,0,0,0,0,.15.14.14,0,0,0,.11,0c.32,0,1.28-.34,1.25.33,0,.21-.27.31-.48.34a3.58,3.58,0,0,1-1.22-.05.76.76,0,0,1-.41-.18,1,1,0,0,1-.14-.84,9.58,9.58,0,0,0,0-2.27c0-.25,0-.55.18-.68a.6.6,0,0,1,.23-.06,1.93,1.93,0,0,1,1.64.27.25.25,0,0,1,.1.15c.05.17-.14.31-.31.32s-.35,0-.53,0a.55.55,0,0,0-.32.2" style="fill:#231815"/><path d="M203.81,23.34a1.49,1.49,0,0,1-1.18-.65.59.59,0,0,1-.12-.38c.08-.72.91.19,1.11.25a.47.47,0,0,0,.53-.22c.14-.27-.07-.6-.32-.77a3.84,3.84,0,0,1-.76-.5A.93.93,0,0,1,203,20a1.25,1.25,0,0,1,1.78-.15c.1.07.2.18.16.29s-.17.12-.28.12l-.59,0a.58.58,0,0,0-.26,0,.21.21,0,0,0-.11.21.32.32,0,0,0,.08.14c.42.4,1,.63,1.26,1.17a1.07,1.07,0,0,1-.08.89,1.3,1.3,0,0,1-.71.55,1.47,1.47,0,0,1-.46.07" style="fill:#231815"/><path d="M100.39,20.66a2.7,2.7,0,0,1,.25-.61,1.53,1.53,0,0,1,2.72.63,2.44,2.44,0,0,1-.44,2,1.41,1.41,0,0,1-.89.66,1.56,1.56,0,0,1-.79-.14,1.68,1.68,0,0,1-.73-.5,1.87,1.87,0,0,1-.24-1.28,4.94,4.94,0,0,1,.12-.77m1.68,1.82a2.18,2.18,0,0,0,.36-.66,2.89,2.89,0,0,0,.07-.88,1,1,0,0,0-.12-.49.56.56,0,0,0-.87-.09,1.26,1.26,0,0,0-.22.45,3.25,3.25,0,0,0-.16,1.11.89.89,0,0,0,.08.43c.07.13.27.38.44.38a.63.63,0,0,0,.42-.25" style="fill:#231815"/><path d="M105.27,20a.44.44,0,0,0-.2,0,.48.48,0,0,0-.29.37,1.35,1.35,0,0,0,0,.49.25.25,0,0,0,.06.15.2.2,0,0,0,.13.06c.2,0,.42,0,.63,0s.44.17.43.39-.32.34-.56.34-.52,0-.68.15a.8.8,0,0,0-.11.68.67.67,0,0,1-.17.65.47.47,0,0,1-.63-.22,1.39,1.39,0,0,1-.1-.73c0-.65.07-1.29.1-1.94a.81.81,0,0,0-.06-.46c-.07-.12-.2-.23-.18-.37s.2-.2.34-.23a3.78,3.78,0,0,1,2-.05.48.48,0,0,1,.27.39.43.43,0,0,1-.23.34.67.67,0,0,1-.42,0c-.11,0-.23-.06-.34-.07" style="fill:#231815"/><path d="M82.55,19.53a1.83,1.83,0,0,1,.87.77,2.14,2.14,0,0,1,.07,1.35,3.53,3.53,0,0,1-.41,1.18,1.16,1.16,0,0,1-.45.43,1.3,1.3,0,0,1-.68,0,1.47,1.47,0,0,1-1-.48,1.49,1.49,0,0,1-.22-.75,4.78,4.78,0,0,1,.11-1.46,1.91,1.91,0,0,1,.38-.86,1.11,1.11,0,0,1,1.34-.22m-.64.72a.1.1,0,0,0,0,.06.35.35,0,0,0-.06.14c0,.2-.1.4-.14.6a3.77,3.77,0,0,0-.1.88c0,.23,0,.68.31.72a.44.44,0,0,0,.2,0c.3-.09.49-.61.54-.89a2,2,0,0,0,0-.42,2.54,2.54,0,0,0,0-.39,1.64,1.64,0,0,0-.1-.49.42.42,0,0,0-.64-.19" style="fill:#231815"/><path d="M96.22,23.44a2.94,2.94,0,0,1-.72.1,1.47,1.47,0,0,1-1.08-.42.52.52,0,0,1-.06-.28c0-.86,0-1.72.1-2.58a1.55,1.55,0,0,1,.08-.36.84.84,0,0,1,.55-.45,1.71,1.71,0,0,1,1.24.05.35.35,0,0,1,.15.45c-.1.18-.36.17-.57.18a.66.66,0,0,0-.58.33.45.45,0,0,0,.19.57,1.42,1.42,0,0,0,.68,0c.23,0,.52.12.51.35a.35.35,0,0,1-.16.26c-.29.2-.68.08-1,.08s-.46,1-.07,1c.15,0,.31,0,.47,0a.64.64,0,0,1,.44.15.34.34,0,0,1,0,.43.36.36,0,0,1-.19.11" style="fill:#231815"/><path d="M84.84,21.93a0,0,0,0,1,0,0,.33.33,0,0,0,0,.14l-.06.78a.61.61,0,0,1-.17.47.45.45,0,0,1-.63-.19,1.32,1.32,0,0,1-.08-.74L84,20.35A.5.5,0,0,0,84,20a1.66,1.66,0,0,1-.13-.14.24.24,0,0,1,.06-.3.65.65,0,0,1,.29-.14c.49-.14,1.31-.37,1.76,0a.36.36,0,0,1,.11.48c-.18.23-.56,0-.84.12a.66.66,0,0,0-.36.73.32.32,0,0,0,.08.23.36.36,0,0,0,.17.07,5.82,5.82,0,0,1,.6.05c.2.05.38.26.3.45a.45.45,0,0,1-.28.2,2.45,2.45,0,0,1-.65.15.38.38,0,0,0-.23.08" style="fill:#231815"/><path d="M94,20.12a.28.28,0,0,1-.14.12.84.84,0,0,1-.47,0,1,1,0,0,0-.48,0,.81.81,0,0,0-.44.5,2.62,2.62,0,0,0-.22,1.17,1.09,1.09,0,0,0,.1.44.46.46,0,0,0,.37.25c.29,0,.44-.33.66-.51a.24.24,0,0,1,.11-.06.28.28,0,0,1,.18,0,.63.63,0,0,1,.28.2.42.42,0,0,1,0,.33,1,1,0,0,1-.72.63,1.75,1.75,0,0,1-1-.11,1.46,1.46,0,0,1-.69-.45,1.56,1.56,0,0,1-.22-1,2.89,2.89,0,0,1,.37-1.44,1.72,1.72,0,0,1,.84-.71,1.89,1.89,0,0,1,1.21.17.41.41,0,0,1,.25.17.25.25,0,0,1,0,.27" style="fill:#231815"/><path d="M88.73,21.58l0,.1a.63.63,0,0,1-.57.12.73.73,0,0,0-.58.07.66.66,0,0,0-.16.55,1.06,1.06,0,0,1-.07.59.46.46,0,0,1-.41.21.44.44,0,0,1-.37-.27.87.87,0,0,1,0-.36c0-.89,0-1.78.07-2.67a.53.53,0,0,1,.07-.3.55.55,0,0,1,.26-.14,2.57,2.57,0,0,1,1.89.1c.09.06.19.15.17.25a.26.26,0,0,1-.18.16,2.13,2.13,0,0,1-1.06.15c-.09,0-.19,0-.25.05a.25.25,0,0,0,0,.13c0,.26,0,.59.2.72s.42,0,.63,0a.51.51,0,0,1,.44.18.39.39,0,0,1,.06.36" style="fill:#231815"/><path d="M89.45,22.71h0a14,14,0,0,0,.22-2.33.58.58,0,0,0-.07-.32c-.07-.11-.22-.15-.28-.27s.12-.41.33-.45a1.37,1.37,0,0,1,1.2.33.39.39,0,0,1,.08.1c0,.14-.17.22-.28.33a.6.6,0,0,0-.1.35c0,.55-.07,1.09-.11,1.64a.69.69,0,0,0,.09.49c.17.2.6.38.22.66a.82.82,0,0,1-.46.13c-.46,0-1.46.17-1.75-.31s.68-.42.88-.36" style="fill:#231815"/><path d="M73.61,19.68a.77.77,0,0,1,.19.28,1,1,0,0,1-.06.85,2.57,2.57,0,0,1-.55.68c0,.05-.11.1-.11.17a.28.28,0,0,0,0,.13l.36.66a1.59,1.59,0,0,1,.25.74c0,.34-.67.4-.85.19a.76.76,0,0,1-.13-.29l-.21-.59a.88.88,0,0,0-.31-.5,1,1,0,0,0-.48-.08c-.2,0-.2.19-.19.35a4.28,4.28,0,0,1,0,.62c0,.14,0,.42-.14.51a.47.47,0,0,1-.17,0,.83.83,0,0,1-.44-.05c-.21-.11-.15-.51-.15-.7a7.71,7.71,0,0,1,0-1,16.79,16.79,0,0,0,.09-1.88.42.42,0,0,1,0-.25.38.38,0,0,1,.24-.11,3.76,3.76,0,0,1,2.25,0,1.37,1.37,0,0,1,.29.2m-2,1.46s.06.06.14,0a3,3,0,0,0,.52-.13,1.59,1.59,0,0,0,.5-.43.66.66,0,0,0,.15-.19c.09-.19-.06-.32-.24-.36a1.66,1.66,0,0,0-.44,0l-.56,0h0a.06.06,0,0,0,0,0,4,4,0,0,1,0,.85c0,.05,0,.09,0,.12" style="fill:#231815"/><path d="M45.75,19.26c.47.2,1,.58.9,1.14a1.41,1.41,0,0,1-.22.59c-.12.18-.3.29-.29.53a1.47,1.47,0,0,0,.29.65,2.35,2.35,0,0,1,.35.87c0,.26-.09.44-.36.42a.73.73,0,0,1-.58-.56,1.91,1.91,0,0,0-.47-.94,1.67,1.67,0,0,0-.91-.14c0,.23,0,.84,0,.91s-.15.41-.38.5a.44.44,0,0,1-.32,0c-.23-.1-.15-.49-.17-.68-.05-.88,0-1.75,0-2.62a.65.65,0,0,1,0-.24c.09-.3.72-.51,1-.57a2,2,0,0,1,1.22.12m-.13.76a.69.69,0,0,0-.27-.17c-.21-.07-.78-.18-.91.07s-.15,1.26.27,1.29a.59.59,0,0,0,.31-.09,1.92,1.92,0,0,0,.48-.37.74.74,0,0,0,.23-.4.4.4,0,0,0-.11-.33" style="fill:#231815"/><path d="M60,21.43v.05a.66.66,0,0,0,.1.38l.48,1a.5.5,0,0,1,.08.26.59.59,0,0,1-.24.35c-.21.18-.62-.15-.71-.35a7.11,7.11,0,0,1-.34-1c-.08-.33-.48-.16-.73-.11a.17.17,0,0,0-.1,0c-.07,0-.07.11-.07.18,0,.31,0,.61,0,.93a.8.8,0,0,1,0,.15.42.42,0,0,1-.38.2.39.39,0,0,1-.15,0,.51.51,0,0,1-.25-.27,1.09,1.09,0,0,1,0-.67,2.43,2.43,0,0,0,0-.66c-.06-.68.06-1.38-.06-2.06a.72.72,0,0,1,0-.25.26.26,0,0,1,.15-.2h.16a5.29,5.29,0,0,0,.8.08c.28,0,.56,0,.84,0a1,1,0,0,1,.87.69,1.32,1.32,0,0,1-.21,1.07.91.91,0,0,0-.16.24M58.61,20c-.1,0-.12.15-.12.26s0,1,.18,1a.93.93,0,0,0,.87-.91c0-.31-.65-.32-.89-.33h0" style="fill:#231815"/><path d="M55,19.45l0,0c.18-.07.38,0,.56,0,.45,0,.68.5.81.83a4.45,4.45,0,0,1,.24.7c.07.29.08.59.16.88s.18.52.25.8a1.2,1.2,0,0,1,0,.65c-.12.29-.47.15-.67,0s-.17-.36-.23-.58a1.26,1.26,0,0,1,0-.27.62.62,0,0,0-.16-.37c-.18-.19-.53-.09-.76-.18l-.11,0c-.18,0-.21.36-.25.5s-.12.94-.47,1.05a1.09,1.09,0,0,1-.36,0,.46.46,0,0,1-.26-.07c-.18-.14.06-.68.1-.85.09-.35.18-.69.3-1a5.08,5.08,0,0,0,.25-.75,3.89,3.89,0,0,1,.25-.75c.09-.2.15-.45.35-.55m.27,1.3c-.06.22-.17.57.17.59a2,2,0,0,0,.24,0,.25.25,0,0,0,.16-.09.18.18,0,0,0,0-.1,1.56,1.56,0,0,0-.28-.88s-.07-.09-.12-.06l0,.05a4.48,4.48,0,0,0-.16.52" style="fill:#231815"/><path d="M63,22.06c-.12,0-.24,0-.36,0l-.19,0c-.28,0-.34.35-.38.57s0,.75-.13.87a.17.17,0,0,1-.17,0c-.28-.05-.65-.06-.61-.45a9.9,9.9,0,0,1,.28-1.42c.13-.43.19-.89.34-1.33a5.17,5.17,0,0,1,.28-.64.7.7,0,0,1,.17-.25c.36-.32.95-.06,1.19.28a2.29,2.29,0,0,1,.3.72A14.09,14.09,0,0,1,64.05,22c0,.28.09.56.13.85s.11.45-.07.6a.47.47,0,0,1-.37,0,.42.42,0,0,1-.21-.08.45.45,0,0,1-.12-.28c0-.3,0-1-.44-1.05m-.4-1.62c0,.2-.21.58-.07.76a.42.42,0,0,0,.53,0,.14.14,0,0,0,.08-.09.14.14,0,0,0,0-.09,1.94,1.94,0,0,0-.2-.66c0-.08-.12-.18-.21-.15s-.11.11-.13.19" style="fill:#231815"/><path d="M39.92,19.27c.34-.28,1.28-.19,1.61-.14a1.77,1.77,0,0,1,1.22.79,1.24,1.24,0,0,1,0,1.08,1.29,1.29,0,0,1-.82.71c-.44.13-.93,0-1.36.17a3.49,3.49,0,0,1-.14,1.29.43.43,0,0,1-.14.21.56.56,0,0,1-.38.07.32.32,0,0,1-.14,0,.2.2,0,0,1-.07-.09,1.6,1.6,0,0,1,0-1.08,7.61,7.61,0,0,0,0-1.35,3.29,3.29,0,0,1,.12-1.53.31.31,0,0,1,.09-.11M40.75,21c.39.4,1.37,0,1.25-.6a.75.75,0,0,0-.48-.5c-.82-.32-.93.1-.9.78a.5.5,0,0,0,.13.32" style="fill:#231815"/><path d="M51.06,19.43a1,1,0,0,1,.16-.06,3.27,3.27,0,0,1,2.18.12,1,1,0,0,1,.55.62,1.08,1.08,0,0,1-.07.64,1.56,1.56,0,0,1-.82.89,2.13,2.13,0,0,1-.87.15.42.42,0,0,0-.27.07.33.33,0,0,0-.08.19,4,4,0,0,0,0,.69c0,.23-.07.78-.41.75a.52.52,0,0,1-.52-.44,5.2,5.2,0,0,1,.06-.68,22.08,22.08,0,0,0,0-2.57.46.46,0,0,1,.1-.32.12.12,0,0,1,.05-.05m1.64,1.49.07,0c.16-.11.53-.56.27-.74a1.3,1.3,0,0,0-.62-.28c-.29,0-.55,0-.62.32a1.76,1.76,0,0,0,0,.79c.07.3.63.08.86,0" style="fill:#231815"/><path d="M69.4,19.58a1.41,1.41,0,0,1,.45.57,2.8,2.8,0,0,1,.08,1.52A3.61,3.61,0,0,1,69.41,23a1,1,0,0,1-.59.49,1,1,0,0,1-.58-.09,1.41,1.41,0,0,1-.61-.44,1.78,1.78,0,0,1-.29-.91,4.36,4.36,0,0,1,.16-1.57,2.09,2.09,0,0,1,.42-.81,1.08,1.08,0,0,1,1.48-.08m-.87,3.08.06,0A1.22,1.22,0,0,0,69,22a3.48,3.48,0,0,0,.09-1.57c-.06-.39-.39-.31-.55,0a1.54,1.54,0,0,0-.16.44,3.2,3.2,0,0,0-.11,1.34.86.86,0,0,0,.18.43.17.17,0,0,0,.12.06" style="fill:#231815"/><path d="M47.63,19.55a.35.35,0,0,1,.18-.25.51.51,0,0,1,.25,0c.41,0,.82,0,1.23,0,.22,0,.77-.05.87.23a.3.3,0,0,1-.09.28.75.75,0,0,1-.27.13,1.74,1.74,0,0,1-.68,0c-.13,0-.29-.05-.36.06a.26.26,0,0,0,0,.15,2.88,2.88,0,0,0,0,.59.39.39,0,0,0,.06.19c.08.12.24.13.38.14l.66,0c.12,0,.26,0,.32.13a.3.3,0,0,1-.1.36.73.73,0,0,1-.54.18c-.12,0-.23-.05-.35-.06a.36.36,0,0,0-.33.12.39.39,0,0,0-.06.19l-.09.47a.3.3,0,0,0,0,.19c.17.27.87,0,1.12.06a.48.48,0,0,1,.36.16c.09.14-.08.43-.23.49h-.12a6.7,6.7,0,0,1-1.55,0,.67.67,0,0,1-.39-.24.87.87,0,0,1-.08-.6,7,7,0,0,0-.13-2.49,2.07,2.07,0,0,1-.08-.42.43.43,0,0,1,0-.11" style="fill:#231815"/><path d="M75.49,20.57c.05,0,.11,0,.18-.07a1.66,1.66,0,0,0,.31-.57,1.85,1.85,0,0,1,.39-.58l.1-.09a.57.57,0,0,1,.32,0,.39.39,0,0,1,.15,0,.3.3,0,0,1,.18.29.61.61,0,0,1-.1.34c-.13.23-.23.46-.37.68a5.39,5.39,0,0,1-.47.6,1.67,1.67,0,0,0-.33.47,1.83,1.83,0,0,0,0,.66,2,2,0,0,1-.16,1.06c-.2.33-.52.09-.66-.16a1,1,0,0,1-.14-.62,2.35,2.35,0,0,0,0-1.29c-.06-.12-.09-.24-.16-.36a5.54,5.54,0,0,1-.3-.53,2.26,2.26,0,0,1-.21-.8c0-.2.07-.4.3-.34s.4.36.53.54a3.44,3.44,0,0,1,.3.53c.06.11.12.24.21.26" style="fill:#231815"/><path d="M66.21,20.12s-.07,1.63-.08,1.78l-.06.89c0,.13,0,.5-.06.58a.36.36,0,0,1-.17.07,1,1,0,0,1-.51-.06.28.28,0,0,1-.14-.1.28.28,0,0,1,0-.13,1.33,1.33,0,0,1,0-.4c0-.16,0-.32,0-.48,0-.33.08-.66.11-1a5.77,5.77,0,0,0,0-.72c0-.15,0-.4-.14-.46a2,2,0,0,0-.35-.06.57.57,0,0,1-.37-.1.32.32,0,0,1,.1-.44.9.9,0,0,1,.49-.1l.91,0a3.37,3.37,0,0,1,.83.15.27.27,0,0,1,.22.37c-.09.31-.55.22-.8.22" style="fill:#231815"/><path d="M187.69,21.49A3.63,3.63,0,0,1,188.81,23a.15.15,0,0,1,0,.11.11.11,0,0,1-.06.09.59.59,0,0,1-.75-.07,1.74,1.74,0,0,1-.44-.68,1.47,1.47,0,0,0-.56-.67c-.23-.13-.68-.19-.72.18s.13.92-.17,1.12a.44.44,0,0,1-.32,0c-.28-.05-.38-.1-.43-.36a2.93,2.93,0,0,1,0-.66c0-.4.06-.8.07-1.2a7.17,7.17,0,0,1,.06-1,.81.81,0,0,1,.07-.22.62.62,0,0,1,.25-.17A3.4,3.4,0,0,1,187,19.2a1.92,1.92,0,0,1,1,.39l.06,0a.8.8,0,0,1,.34.34.66.66,0,0,1,0,.44,1.91,1.91,0,0,1-.78,1.07h0M186.37,20a.23.23,0,0,0-.08.21,1.9,1.9,0,0,0,.09.58.29.29,0,0,0,.08.13.3.3,0,0,0,.21,0,1.75,1.75,0,0,0,.73-.43c.09-.1.18-.23.13-.36-.11-.32-.8-.21-1-.19a.2.2,0,0,0-.11,0h0" style="fill:#231815"/><path d="M182.35,19.3a.27.27,0,0,1,.19,0,1,1,0,0,1,.43.76c.11.74-.07,1.51.09,2.23a.42.42,0,0,0,.2.31.31.31,0,0,0,.31-.09.83.83,0,0,0,.16-.29,5.71,5.71,0,0,0,.32-2,1.23,1.23,0,0,1,.06-.57.46.46,0,0,1,.84,0,1.17,1.17,0,0,1,0,.49,6.6,6.6,0,0,1-.43,2.34,1.47,1.47,0,0,1-.88.88,1.13,1.13,0,0,1-1.09-.33,1.84,1.84,0,0,1-.5-1.07,4.73,4.73,0,0,1,0-1.19l.06-1.2c0-.17.08-.33.22-.35" style="fill:#231815"/><path d="M190,21.79c0,.28,0,.56,0,.84a6.11,6.11,0,0,1,1.35-.06.39.39,0,0,1,.33.12.29.29,0,0,1,0,.35.76.76,0,0,1-.32.2,3.08,3.08,0,0,1-1.7.11.66.66,0,0,1-.38-.17.86.86,0,0,1-.14-.53c0-.83,0-1.66,0-2.5a1,1,0,0,1,.1-.58.76.76,0,0,1,.62-.3,2.84,2.84,0,0,1,1.72.3c.09.05.18.13.16.23s-.1.13-.18.16a2.23,2.23,0,0,1-1,.15.58.58,0,0,0-.45.06.47.47,0,0,0-.1.43.49.49,0,0,0,.13.34c.14.12.36.06.55,0a1.24,1.24,0,0,1,.71.11.31.31,0,0,1,.2.19c0,.14-.1.26-.23.34a2,2,0,0,1-1.34.19" style="fill:#231815"/><path d="M175.54,20.8c0-.33,0-.65.05-1a.73.73,0,0,1,.07-.29.41.41,0,0,1,.57-.08.73.73,0,0,1,.28.55,4.74,4.74,0,0,1,0,.65,3.2,3.2,0,0,0,.11,1.34.5.5,0,0,0,.81.22.88.88,0,0,0,.19-.27,2.37,2.37,0,0,0,.28-1.11,3.29,3.29,0,0,1,0-1.17c.2-.6.71-.09.8.29a2.27,2.27,0,0,1,0,.86c0,.35,0,.69,0,1a1.82,1.82,0,0,1-.73,1.34,1.52,1.52,0,0,1-1.5.14,1.33,1.33,0,0,1-.71-.95,10.65,10.65,0,0,1-.13-1.59" style="fill:#231815"/><path d="M172.37,20.11A.67.67,0,0,1,172,20c-.23-.16-.07-.36.11-.44.4-.17,3.11-1,2.9.13a.5.5,0,0,1-.47.35c-.37,0-.76-.09-1.1.13a.49.49,0,0,0-.2.58c.13.26.49.27.78.23s1.2,0,.66.52a1.75,1.75,0,0,1-.93.28.73.73,0,0,0-.36.08c-.29.22-.08.86-.09,1.17a.52.52,0,0,1-.4.45.51.51,0,0,1-.53-.3.71.71,0,0,1-.05-.29c0-.26.11-2.81.05-2.81" style="fill:#231815"/><path d="M181,20.1a.7.7,0,0,0-.19.55c0,.47,0,.94,0,1.41,0,.29.17,1-.15,1.21s-.57-.07-.69-.23a.82.82,0,0,1-.09-.54l.15-2.1a.4.4,0,0,0-.09-.35c-.09-.07-.21-.05-.32-.07-.3,0-.61-.4-.27-.63a.91.91,0,0,1,.49-.11h1.06a1.71,1.71,0,0,1,.45,0,.47.47,0,0,1,.31.3c.13.41-.4.38-.61.53" style="fill:#231815"/><path d="M110.55,23.32a.32.32,0,0,1-.24.13.46.46,0,0,1-.4-.34,1.59,1.59,0,0,1,0-.58c0-.9,0-1.79.08-2.69a.78.78,0,0,1,.15-.53c.19-.18.48-.06.66.11.6.56.7,1.55,1.21,2.2A9.23,9.23,0,0,0,112.2,20a2.2,2.2,0,0,1,.08-.58.42.42,0,0,1,.81,0,2.44,2.44,0,0,1,0,1.17q-.09.82-.21,1.65c0,.31,0,1-.24,1.23a.46.46,0,0,1-.32.09c-.61,0-.94-.64-1.11-1.22a.83.83,0,0,0-.3-.52,1.37,1.37,0,0,0-.15,1,1,1,0,0,1-.18.63" style="fill:#231815"/><path d="M116.29,23.32l-.11.05c-.24.06-.45-.19-.51-.43s0-.5-.09-.74a.64.64,0,0,0-.78-.43.81.81,0,0,0-.41.65,2.21,2.21,0,0,1-.17.77.49.49,0,0,1-.66.25c-.24-.15-.2-.5-.13-.78.21-.85.43-1.7.64-2.56a2.11,2.11,0,0,1,.31-.76.89.89,0,0,1,1.37.08,2.22,2.22,0,0,1,.31.66,9.33,9.33,0,0,1,.43,2.62.73.73,0,0,1-.2.62M115,21a1.82,1.82,0,0,0,.33,0,.19.19,0,0,0,.15-.12.21.21,0,0,0,0-.11,2.7,2.7,0,0,0,0-.28c0-.21-.23-.68-.51-.42s-.12.54-.13.76a.28.28,0,0,0,0,.09s.05.05.08.06H115" style="fill:#231815"/><path d="M128.15,21.25c0-.37.09-.75.13-1.12a1.26,1.26,0,0,1,.12-.47c.23-.4.68-.18.79.2a1.79,1.79,0,0,1,0,.61c-.07.78-.14,1.55-.22,2.33a.49.49,0,0,1-.15.39.32.32,0,0,1-.23,0c-.37,0-.63-.39-.8-.73a2.45,2.45,0,0,0-.62-.94,7.35,7.35,0,0,1-.23,1.55.48.48,0,0,1-.17.31.28.28,0,0,1-.28,0c-.32-.15-.35-.61-.32-1,.07-.9.13-1.81.2-2.72a.27.27,0,0,1,0-.16.21.21,0,0,1,.15,0,.88.88,0,0,1,.58.07.93.93,0,0,1,.26.33Z" style="fill:#231815"/><path d="M130.53,19.63l0-.05a.78.78,0,0,1,1.16,0,1.71,1.71,0,0,1,.27.54c.24.64.46,1.29.65,1.94a3.63,3.63,0,0,1,.21,1.07.29.29,0,0,1-.06.21.26.26,0,0,1-.23,0,.73.73,0,0,1-.55-.27c-.12-.2,0-.48-.13-.7a.59.59,0,0,0-.5-.29,1.71,1.71,0,0,0-.59.11.24.24,0,0,0-.15.08.34.34,0,0,0,0,.2.75.75,0,0,1-.24.62.47.47,0,0,1-.62,0,.77.77,0,0,1,0-.68l.59-2.24a2,2,0,0,1,.24-.58m.7.84a.36.36,0,0,0-.18,0,.27.27,0,0,0-.14.14s0,.06,0,.09,0,.24,0,.37a.5.5,0,0,0,.09.29.34.34,0,0,0,.2,0,.49.49,0,0,0,.24,0,.1.1,0,0,0,.06-.05s0,0,0-.07a1.23,1.23,0,0,0,0-.47.71.71,0,0,0-.11-.25.19.19,0,0,0-.11-.07" style="fill:#231815"/><path d="M125.45,21.87s0,.06,0,.09a2.38,2.38,0,0,1-.51,1.14,1.23,1.23,0,0,1-1.07.39,1.37,1.37,0,0,1-1-.71,2.74,2.74,0,0,1-.25-1.21,3.13,3.13,0,0,1,.29-1.56,1.34,1.34,0,0,1,2.43.24,3,3,0,0,1,.08,1.62m-1.66-1.44a.05.05,0,0,0,0,0,.49.49,0,0,0-.08.21,4.28,4.28,0,0,0-.09,1.13,1,1,0,0,0,.19.59.24.24,0,0,0,.11.09.34.34,0,0,0,.36-.1,1.2,1.2,0,0,0,.3-.54,2.62,2.62,0,0,0,.13-.83,1.07,1.07,0,0,0-.09-.47.54.54,0,0,0-.81-.12" style="fill:#231815"/><path d="M119.78,23.19a.27.27,0,0,1-.09-.25.37.37,0,0,1,.31-.22,1.72,1.72,0,0,1,.39,0,.2.2,0,0,0,.15,0,.35.35,0,0,0,0-.11l.12-2.23c0-.15,0-.43-.16-.49l-.16,0a.27.27,0,0,1-.09-.12.39.39,0,0,1,0-.26.37.37,0,0,1,.24-.18.86.86,0,0,1,.23,0l.22,0,.49,0a1,1,0,0,1,.24,0,.3.3,0,0,1,.2.14.28.28,0,0,1,0,.22.7.7,0,0,1-.15.19.53.53,0,0,0-.17.43c0,.23,0,.45,0,.68l-.07,1.38a1.46,1.46,0,0,0,0,.36l0,.06s0,0,.06,0,.27,0,.36.1a.3.3,0,0,1,0,.28.49.49,0,0,1-.43.32c-.26,0-.52,0-.78,0a2.44,2.44,0,0,1-.65-.1.67.67,0,0,1-.33-.18" style="fill:#231815"/><path d="M117.91,20.11a.35.35,0,0,0-.13-.14,1.25,1.25,0,0,0-.55,0c-.18,0-.41-.11-.39-.3s.24-.23.42-.25c.41-.05.83-.07,1.24-.09a2,2,0,0,1,1,.09.27.27,0,0,1,.12.31c-.07.19-.34.15-.52.24s-.31.48-.31.78c0,.72-.07,1.44-.16,2.16a.6.6,0,0,1-.2.47.44.44,0,0,1-.6-.21,1.35,1.35,0,0,1-.07-.72c.06-.57.11-1.15.17-1.72a1,1,0,0,0-.07-.57" style="fill:#231815"/><path d="M135.55,22.77a.22.22,0,0,1,0,.12.33.33,0,0,1-.25.31,1.54,1.54,0,0,1-.43.05c-.29,0-.57.1-.86.11a.81.81,0,0,1-.75-.37,1.05,1.05,0,0,1-.06-.47c0-.91,0-1.81.06-2.72a.45.45,0,0,1,.05-.25c.17-.35.64.08.72.29a1.85,1.85,0,0,1,.1.67c0,.68,0,1.36,0,2a5,5,0,0,1,.95,0,.63.63,0,0,1,.41.19" style="fill:#231815"/><path d="M162,21.59a3.77,3.77,0,0,0,.32-1.27,1.6,1.6,0,0,1,.05-.39.42.42,0,0,1,.24-.29.44.44,0,0,1,.62.44c-.07.7-.08,1.4-.21,2.1-.07.35-.16,1-.49,1.2a.64.64,0,0,1-.79-.18,2,2,0,0,1-.35-.81,1.76,1.76,0,0,0-.38-.79c-.06.43-.13.86-.2,1.29a1.36,1.36,0,0,1-.12.45.48.48,0,0,1-.36.26.46.46,0,0,1-.41-.3,1.45,1.45,0,0,1,.07-.89c.21-.85.14-1.74.28-2.6a.86.86,0,0,1,.09-.27c.23-.36.62.09.75.3a12.51,12.51,0,0,1,.89,1.75h0" style="fill:#231815"/><path d="M155.41,21.42c.27.49.53,1,.78,1.49.08.15.14.34,0,.46s-.31.09-.46,0c-.58-.31-.76-1.05-1.16-1.58a.34.34,0,0,0-.23-.16c-.14,0-.23.16-.27.3a2.76,2.76,0,0,0-.1.75c0,.24,0,.54-.21.65a.6.6,0,0,1-.54-.1l-.1-.07a.35.35,0,0,1,0-.14c-.06-1,.26-1.91.23-2.87a.77.77,0,0,1,0-.34.62.62,0,0,1,.47-.4,3,3,0,0,1,1.78.28.74.74,0,0,1,.27.19.67.67,0,0,1,.09.54,1.6,1.6,0,0,1-.59,1v0m-1.2-.83a.3.3,0,0,0,.08.26.28.28,0,0,0,.25,0,.68.68,0,0,0,.22-.12.73.73,0,0,0,.26-.2.37.37,0,0,0,.1-.3c-.06-.33-.6-.14-.81-.12l-.05,0s0,0,0,.05,0,.17,0,.26a.34.34,0,0,0,0,.1" style="fill:#231815"/><path d="M144.13,21a.28.28,0,0,0,.11-.17,4.66,4.66,0,0,0,.09-.75c.07-.39.59-.83.83-.29a1,1,0,0,1,.05.45c0,.34-.06.67-.1,1-.07.57-.13,1.15-.2,1.72a.26.26,0,0,1-.06.19.32.32,0,0,1-.17.06c-.19,0-.43,0-.54-.13a.57.57,0,0,1,0-.37c0-.31.07-.62.1-.93l-1.09.06a.1.1,0,0,0-.07,0s0,.05,0,.07c-.08.37-.17.74-.25,1.1,0,.09-.05.19-.13.22a.2.2,0,0,1-.13,0,.68.68,0,0,1-.47-.57,2.3,2.3,0,0,1,.07-.78,7.49,7.49,0,0,0,.1-1.57c0-.27,0-.61.23-.74s.59.12.67.41a3.39,3.39,0,0,1,0,.9.23.23,0,0,0,.07.2.26.26,0,0,0,.15,0l.66-.08a.39.39,0,0,0,.19-.06" style="fill:#231815"/><path d="M159.34,19.74a.25.25,0,0,1,0,.17.42.42,0,0,1-.31.32,1,1,0,0,1-.55.05c-.22,0-.48-.13-.64,0a.46.46,0,0,0-.11.3.39.39,0,0,0,.12.36.55.55,0,0,0,.38,0,1.35,1.35,0,0,1,.53,0,.58.58,0,0,1,.37.19.29.29,0,0,1,0,.38.39.39,0,0,1-.24.06l-.94.07a.38.38,0,0,0-.19.05c-.08.05-.1.15-.13.23a1.48,1.48,0,0,0-.05.41.43.43,0,0,0,.21.35c.23.11.48-.09.73-.15a.69.69,0,0,1,.54.1.39.39,0,0,1,.18.3c0,.15-.16.26-.31.33a2.07,2.07,0,0,1-1.45.08,1.11,1.11,0,0,1-.56-.36,1.64,1.64,0,0,1-.18-1.24c.05-.46.11-.92.16-1.38a.49.49,0,0,0,0-.27c-.06-.12-.21-.19-.24-.32a.26.26,0,0,1,.15-.28.8.8,0,0,1,.34-.05h1.1a1.94,1.94,0,0,1,.93.09.41.41,0,0,1,.16.16" style="fill:#231815"/><path d="M151,23.32a.8.8,0,0,1-.15,0,.66.66,0,0,1-.5-.44,1.14,1.14,0,0,1,0-.52,11.25,11.25,0,0,0,.16-2.59c0-.61,1.21,0,1.46.15a1.72,1.72,0,0,1,.8,1.09,1.82,1.82,0,0,1-.12,1,2.14,2.14,0,0,1-1.14,1.24,1.22,1.22,0,0,1-.53.1m.35-2.35c0,.13,0,.27-.05.4s-.07.57-.1.86c0,.05,0,.12,0,.14a.14.14,0,0,0,.14,0,1.59,1.59,0,0,0,.35-.22,1.18,1.18,0,0,0,.35-.66,1.94,1.94,0,0,0,0-.24.91.91,0,0,0-.18-.48c-.08-.13-.17-.28-.34-.29s-.22.34-.23.5" style="fill:#231815"/><path d="M166.76,22.7a.77.77,0,0,0,.63-.35.51.51,0,0,0,.06-.21c0-.27-.34-.45-.56-.51a2.2,2.2,0,0,1-1-.6c-.41-.5.31-1.28.81-1.37a3,3,0,0,1,.73,0c.15,0,.39,0,.5.14a.39.39,0,0,1-.13.52,1.27,1.27,0,0,1-.48.08c-.31,0-.88.28-.43.57s.92.2,1.21.6a1.17,1.17,0,0,1,.06,1.21,1.68,1.68,0,0,1-1.34.76,1.85,1.85,0,0,1-1.19-.39c-.28-.2-.79-.57-.66-1a.25.25,0,0,1,.15-.15.26.26,0,0,1,.15,0,1.94,1.94,0,0,1,.67.47,1.21,1.21,0,0,0,.78.24" style="fill:#231815"/><path d="M148.55,19.91a2.33,2.33,0,0,1,.15.94c0,.55-.09,1.11-.13,1.66,0-.13,1.84-.11,1.54.47a.56.56,0,0,1-.39.24,3.82,3.82,0,0,1-1.9,0,.3.3,0,0,1-.17-.1.36.36,0,0,1-.05-.29l.18-1.75c0-.29-.05-1.35.3-1.46s.38.06.47.27" style="fill:#231815"/><path d="M139.26,21a3.76,3.76,0,0,1,.27-.73c.23-.45,1-1.31,1.47-.56a.35.35,0,0,1-.07.44,1.34,1.34,0,0,1-.26.09.73.73,0,0,0-.32.37,3.53,3.53,0,0,0-.31,1.05,1.13,1.13,0,0,0,0,.45.43.43,0,0,0,.32.29c.27,0,.47-.27.74-.33a.44.44,0,0,1,.5.6.73.73,0,0,1-.41.34A1.74,1.74,0,0,1,140,23a1.3,1.3,0,0,1-.77-.65,1.55,1.55,0,0,1-.09-.8,2.91,2.91,0,0,1,.1-.59" style="fill:#231815"/><path d="M146.79,22.69c.08.1.23.17.27.3s-.11.21-.25.26a1.44,1.44,0,0,1-1.2,0,.55.55,0,0,1-.23-.17.21.21,0,0,1,0-.26c.05-.06.12-.07.18-.11a.55.55,0,0,0,.18-.4l.24-2.06a.28.28,0,0,0,0-.22c-.06-.06-.16-.05-.23-.09a.23.23,0,0,1,0-.35.52.52,0,0,1,.38-.11l.64,0c.15,0,.34,0,.44.14a.24.24,0,0,1-.07.35c-.07,0-.16,0-.22.07a.5.5,0,0,0-.06.32,3.13,3.13,0,0,1,0,.44c-.06.45-.1.9-.15,1.36a.53.53,0,0,0,0,.25,1,1,0,0,0,.15.2" style="fill:#231815"/><path d="M164.8,20.59c-.21.19-.44.26-.53.1s0-.25.09-.37c.13-.32-.2-.56-.07-.88a.4.4,0,0,1,.27-.22.57.57,0,0,1,.51.21c.32.34.05.87-.27,1.16" style="fill:#231815"/><path d="M27.79,11.24a18.82,18.82,0,0,0-.44-2.6,13.1,13.1,0,0,0-.76-2.18,8.78,8.78,0,0,0-4.72-4.78,8.94,8.94,0,0,0-6.63-.13A7,7,0,0,0,13,3c-2,1.9-2.45,4.78-2.52,7.41,0,0,.59.44.82.63a9.74,9.74,0,0,1,.85.85A8.74,8.74,0,0,1,13.61,14a10.93,10.93,0,0,1,1,4.49c0,.14,0,.6,0,.6a4.25,4.25,0,0,0,.67.51c.3.19.58.41.88.58a7.91,7.91,0,0,0,6.92.42,6.16,6.16,0,0,0,1.24-.66A9.05,9.05,0,0,0,26,18.39a3.55,3.55,0,0,0,.51-.71c.2-.39.4-.77.57-1.18a10.67,10.67,0,0,0,.73-5.26" style="fill:#ffe100"/><path d="M11.48,12.86c.27,0,.56.07.56.16a5,5,0,0,0-1.62-1.79,7.16,7.16,0,0,0-4.67-1.09,4.66,4.66,0,0,0-3.1,1.64c-2.09,2.54-2.9,6.8-.67,9.5,2,2.39,7,3.65,9.46,1.52a6.38,6.38,0,0,0,1.42-1.6,5.61,5.61,0,0,0,.86-3.4A8.3,8.3,0,0,0,13,14.94a3.37,3.37,0,0,0-.33-.69,2.9,2.9,0,0,1,0,.77,2.23,2.23,0,0,1-.38.88,2.11,2.11,0,0,1-1.26.84,2.82,2.82,0,0,1-.87.06,1.81,1.81,0,0,1-.89-.37A2,2,0,0,1,9,13.64a2.46,2.46,0,0,1,2.11-.81l.4,0" style="fill:#ffe100"/><path d="M9.75,10.05s.08-.84.1-1.29a10.11,10.11,0,0,1,.61-3.13c.14-.4.3-.79.47-1.17a6.91,6.91,0,0,1,.51-.92,7.61,7.61,0,0,1,.69-.92c2-2.39,5.57-3,8.53-2.38A8.73,8.73,0,0,1,25.84,3.4a13.51,13.51,0,0,1,1.62,2.8,14.2,14.2,0,0,1,.59,1.53c1,3.55,1.17,7.83-1,11-1.7,2.5-4.47,3.36-7.36,3.38h-.23A4.22,4.22,0,0,1,18.29,22a7.09,7.09,0,0,1-2-.72,16.08,16.08,0,0,1-1.81-1.24,12,12,0,0,1-.57,1.38,6.47,6.47,0,0,1-4.26,3.32,8.1,8.1,0,0,1-5.16-.48,7.72,7.72,0,0,1-1.6-1,7.42,7.42,0,0,1-1.18-1.13,8.53,8.53,0,0,1-1-8.52,9,9,0,0,1,1-1.74,8.91,8.91,0,0,1,1.17-1.29A4.07,4.07,0,0,1,4,9.85a5.74,5.74,0,0,1,1.61-.48A6.74,6.74,0,0,1,8,9.51c.39.09.78.19,1.17.31a4.67,4.67,0,0,1,.55.23m18,1.19a19.08,19.08,0,0,0-.44-2.6,13.1,13.1,0,0,0-.76-2.18,8.78,8.78,0,0,0-4.72-4.78,8.94,8.94,0,0,0-6.63-.13A7,7,0,0,0,13,3c-2,1.9-2.45,4.78-2.52,7.41,0,0,.59.44.82.63a9.74,9.74,0,0,1,.85.85A8.74,8.74,0,0,1,13.61,14a10.93,10.93,0,0,1,1,4.49c0,.14,0,.6,0,.6a4.25,4.25,0,0,0,.67.51c.3.19.58.41.88.58a7.91,7.91,0,0,0,6.92.42,6.16,6.16,0,0,0,1.24-.66A9.05,9.05,0,0,0,26,18.39a3.55,3.55,0,0,0,.51-.71c.2-.39.4-.77.57-1.18a10.67,10.67,0,0,0,.73-5.26M11.48,12.86c.27,0,.56.07.56.16a5,5,0,0,0-1.62-1.79,7.16,7.16,0,0,0-4.67-1.09,4.66,4.66,0,0,0-3.1,1.64c-2.09,2.54-2.9,6.8-.67,9.5,2,2.39,7,3.65,9.46,1.52a6.38,6.38,0,0,0,1.42-1.6,5.61,5.61,0,0,0,.86-3.4A8.3,8.3,0,0,0,13,14.94a3.37,3.37,0,0,0-.33-.69,2.9,2.9,0,0,1,0,.77,2.23,2.23,0,0,1-.38.88,2.11,2.11,0,0,1-1.26.84,2.54,2.54,0,0,1-.87.06,1.81,1.81,0,0,1-.89-.37A2,2,0,0,1,9,13.64a2.46,2.46,0,0,1,2.11-.81l.4,0m-.6,3.34c0-.06-.13-.1-.16-.13a2.87,2.87,0,0,1-.6-1,1.7,1.7,0,0,1-.16-1c0-.15.12-.28.1-.44a3.83,3.83,0,0,1-.39.25,1.47,1.47,0,0,0-.32.29,1.18,1.18,0,0,0-.17,1.13,1.42,1.42,0,0,0,1.7.89m.73-.3c.07.06.32-.31.38-.39a1.55,1.55,0,0,0,.32-1.29.62.62,0,0,0-.65-.58c-.05.08,0,.16,0,.22A2.35,2.35,0,0,1,11.85,15a2.43,2.43,0,0,1-.08.54s-.17.39-.16.39" style="fill:#231815"/><path d="M21.56,5.63c1.15,0,2.88.54,2.9,1.94a2.87,2.87,0,0,1-.85,2,3.7,3.7,0,0,1-1.82,1.11,4.06,4.06,0,0,1-1.7-.05,2.45,2.45,0,0,1-2-1.58,2.09,2.09,0,0,1,0-1.33,2.21,2.21,0,0,1,1-1.41,5.33,5.33,0,0,1,1.37-.58,3.73,3.73,0,0,1,1.1-.14m.62,4s.31-.12.34-.14a1.5,1.5,0,0,0,.33-.23,3.35,3.35,0,0,0,.52-.6,1.27,1.27,0,0,0,.2-1.46,1.68,1.68,0,0,0-1.1-.56,4.09,4.09,0,0,0-1-.07c-.28,0,.05.17.18.31a2.9,2.9,0,0,1,.41.58,3.07,3.07,0,0,1,.27,1.06,3.51,3.51,0,0,1-.16,1.11m-2.92-2.2a1.15,1.15,0,0,0-.35,1.44.9.9,0,0,0,.89.7,4.47,4.47,0,0,1-.54-2.14" style="fill:#231815"/><path d="M14,12.18a2.71,2.71,0,0,1-1.38-.37,2.18,2.18,0,0,1-1.08-2,2.59,2.59,0,0,1,1.12-1.74,4,4,0,0,1,1.87-.62,3.62,3.62,0,0,1,2,.42,1.17,1.17,0,0,1,.51.45,1.85,1.85,0,0,1,.3.83,3,3,0,0,1-2.45,2.91,4,4,0,0,1-.92.1m1.26-1.06a2.28,2.28,0,0,0,1-.75,2,2,0,0,0,.45-.93.92.92,0,0,0-.22-.78,1.11,1.11,0,0,0-.56-.33c-.11,0-1.26-.26-1.16,0s.26.29.34.4a2.55,2.55,0,0,1,.23.43,2.07,2.07,0,0,1,.14.92,2.74,2.74,0,0,1-.08.5c0,.09-.1.49-.18.53M12.92,9.05a.69.69,0,0,0-.26.17,1.32,1.32,0,0,0-.44,1,1.25,1.25,0,0,0,.62.86,1.44,1.44,0,0,0,.54.18c.29,0,.26-.08.14-.3A2.84,2.84,0,0,1,13,9.15c0-.08,0-.1-.06-.1" style="fill:#231815"/><path d="M19.61,14.13v0a2.28,2.28,0,0,1-1.81,1.74,2.2,2.2,0,0,1-2.35-1.13,2.72,2.72,0,0,1-.11-.25.18.18,0,0,1,.06-.21.15.15,0,0,1,.21,0l.15.1a2.18,2.18,0,0,0,2.22.06c.31-.15.47-.51.73-.73s.79-.34.92.08a.51.51,0,0,1,0,.3" style="fill:#231815"/><path d="M18.44,12a3.94,3.94,0,0,1-.74.94.21.21,0,0,1-.33,0,.35.35,0,0,1,.08-.59,3.8,3.8,0,0,1,.74-.4c.1,0,.17,0,.25.09" style="fill:#231815"/><path d="M16,12.4c.15,0,.26-.15.42-.05s.17.16.1.29-.07.07-.08.13a.12.12,0,0,1-.05.11c-.22,0-.39-.17-.39-.48" style="fill:#231815"/><path d="M7.73,15.58A2.29,2.29,0,0,1,7,17.2a2.24,2.24,0,0,1-1.39.56,6.59,6.59,0,0,1-1.09,0A1.85,1.85,0,0,1,3.14,17a1.49,1.49,0,0,1-.32-.64A1.64,1.64,0,0,1,3,15.07a2.33,2.33,0,0,1,1.36-1.14,3.14,3.14,0,0,1,3,.59,1.19,1.19,0,0,1,.43,1.06M4.85,17a.36.36,0,0,0-.07-.24,2.21,2.21,0,0,1-.37-1,2.26,2.26,0,0,1,0-.58c0-.17.14-.36.08-.53a1.7,1.7,0,0,0-1,.81,1,1,0,0,0,.59,1.43l.67.16c.08,0,.11,0,.12,0m1.24-.13a.78.78,0,0,0,.44-.2A1.71,1.71,0,0,0,7,15.41c0-.35-.4-.57-.69-.7a7.64,7.64,0,0,0,0,1.07c0,.38-.2.71-.26,1.1" style="fill:#231815"/><path d="M7.52,19.83l.06-.06c.34-.25,1.08.07,1.48,0a2.57,2.57,0,0,0,1.51-.88.66.66,0,0,1,.48-.17c.18,0,.29.16.24.35a2.42,2.42,0,0,1-1.24,1.44,2,2,0,0,1-1.25.33c-.28,0-1.6-.63-1.28-1" style="fill:#231815"/><path d="M9.83,17.53a.86.86,0,0,1-.19.69c0,.07-.12.06-.18,0a.47.47,0,0,1-.12-.65c.13-.14.31-.11.49-.06" style="fill:#231815"/><path d="M7.84,18.25a.56.56,0,0,1,.87.18.35.35,0,0,1-.35.16.67.67,0,0,1-.52-.34" style="fill:#231815"/><path d="M4.85,17a.36.36,0,0,0-.07-.24,2.21,2.21,0,0,1-.37-1,2.26,2.26,0,0,1,0-.58c0-.17.14-.36.08-.53a1.7,1.7,0,0,0-1,.81,1,1,0,0,0,.59,1.43l.67.16c.08,0,.11,0,.12,0" style="fill:#fff"/><path d="M6.09,16.88a.78.78,0,0,0,.44-.2A1.71,1.71,0,0,0,7,15.41c0-.35-.4-.57-.69-.7a7.64,7.64,0,0,0,0,1.07c0,.38-.2.71-.26,1.1" style="fill:#fff"/><path d="M10.88,16.2c0-.06-.13-.1-.16-.13a2.87,2.87,0,0,1-.6-1,1.7,1.7,0,0,1-.16-1c0-.15.12-.28.1-.44a3.83,3.83,0,0,1-.39.25,1.47,1.47,0,0,0-.32.29,1.18,1.18,0,0,0-.17,1.13,1.42,1.42,0,0,0,1.7.89" style="fill:#fff"/><path d="M11.61,15.9c.07.06.32-.31.38-.39a1.55,1.55,0,0,0,.32-1.29.62.62,0,0,0-.65-.58c-.05.08,0,.16,0,.22A2.35,2.35,0,0,1,11.85,15a2.43,2.43,0,0,1-.08.54s-.17.39-.16.39" style="fill:#fff"/><path d="M15.23,11.12a2.28,2.28,0,0,0,1-.75,2.07,2.07,0,0,0,.45-.93.92.92,0,0,0-.22-.78,1.25,1.25,0,0,0-.56-.34c-.11,0-1.26-.25-1.16,0s.26.29.34.4a2.55,2.55,0,0,1,.23.43,2.07,2.07,0,0,1,.14.92,2.74,2.74,0,0,1-.08.5c0,.09-.1.49-.18.53" style="fill:#fff"/><path d="M12.92,9.05a.69.69,0,0,0-.26.17,1.32,1.32,0,0,0-.44,1,1.25,1.25,0,0,0,.62.86,1.44,1.44,0,0,0,.54.18c.29,0,.26-.08.14-.3A2.84,2.84,0,0,1,13,9.15c0-.08,0-.1-.06-.1" style="fill:#fff"/><path d="M22.18,9.65s.31-.12.34-.14a1.5,1.5,0,0,0,.33-.23,3.35,3.35,0,0,0,.52-.6,1.27,1.27,0,0,0,.2-1.46,1.68,1.68,0,0,0-1.1-.56,4.09,4.09,0,0,0-1-.07c-.28,0,.05.17.18.31a2.55,2.55,0,0,1,.41.58,3.07,3.07,0,0,1,.27,1.07,3.49,3.49,0,0,1-.16,1.1" style="fill:#fff"/><path d="M19.26,7.45a1.15,1.15,0,0,0-.35,1.44.9.9,0,0,0,.89.7,4.47,4.47,0,0,1-.54-2.14" style="fill:#fff"/></svg>