<svg id="圖層_1" data-name="圖層 1" xmlns="http://www.w3.org/2000/svg" viewBox="0 0 109.73 48"><title>footer_logo_4</title><path d="M42.69,27l-.09,0a.28.28,0,0,1-.13.07,0,0,0,0,1,0,0l0,0,0,0h0l-.07,0,0,0-.15.07-.12.06a.41.41,0,0,1-.06-.11,0,0,0,0,1,0,0h0l-.12-.18A1.41,1.41,0,0,0,39.87,27L39.8,27l0,0s0,0,0,0l0,0h0l0,0a.7.7,0,0,1-.12.18,3.31,3.31,0,0,0,0,2.28l0,0a.67.67,0,0,0,.2.26,1.37,1.37,0,0,0,1.47.29,1,1,0,0,0,.7-1.27H40.58v-.75H42.7v2.73H42a2.18,2.18,0,0,0,0-.39,1.22,1.22,0,0,1-.37.38h-.06a.72.72,0,0,1-.3.11,2.18,2.18,0,0,1-2-.57A2.2,2.2,0,0,1,38.58,29c-.24-1.57.27-2.6,1.5-3.09h.2l0,0,.22,0A2.07,2.07,0,0,1,42.69,27" style="fill:#231815"/><path d="M43.73,26h1.4a1.66,1.66,0,0,1,1.84,1,1.59,1.59,0,0,1,0,1.12,1.16,1.16,0,0,1-.75.7l0,0v0l.1.19,0,.07,0,.08.12.2,0,.11,0,0,0,0,0,.09.07.13a.37.37,0,0,1,.07.12l0,.08,0,.06a.59.59,0,0,1,.08.16.73.73,0,0,1,.12.23l0,0v.05l0,.12a.23.23,0,0,1,.06.12h-.89l0-.08a.89.89,0,0,1-.12-.24l0-.06,0-.07,0,0a.33.33,0,0,1-.07-.13l0,0,0-.05v0l0,0,0,0V30l-.08-.15-.08-.14,0-.05v0l0,0v0l0,0v0a.5.5,0,0,0-.08-.15L45.35,29h-.83v1.88h-.84V26Zm.79,2.21h1.35a.79.79,0,0,0,0-1.4l-.07,0H44.52Z" style="fill:#231815"/><path d="M49.29,26h1l0,.1a.24.24,0,0,1,0,.09l0,.05,0,.12,0,0v.08l0,.06,0,.08,0,0v0a.64.64,0,0,1,.06.16V27a.43.43,0,0,1,.07.16l0,.1a.3.3,0,0,1,.05.15l0,.09,0,.1,0,.09a.06.06,0,0,1,0,0l0,0v0a.34.34,0,0,0,0,.1v0a.75.75,0,0,1,.07.23.11.11,0,0,1,0,.08l0,.07,0,.08,0,.07,0,0v.09l0,.05,0,.09,0,0v0a.64.64,0,0,1,.06.16V29a.43.43,0,0,1,.06.18.7.7,0,0,1,.08.23l0,.08,0,.08,0,.07a.5.5,0,0,0,0,.13l0,.11,0,.05v0l0,.11,0,0v.05a1,1,0,0,1,.09.29l0,0v0s0,0,0,0a.3.3,0,0,1,0,.1l.05.15H51l0-.05,0,0,0-.08s0,0,0,0a.7.7,0,0,1-.07-.22l0,0v-.05a.51.51,0,0,0,0-.1v0a.75.75,0,0,1-.07-.23H48.8l0,.05,0,0v.07l0,.05,0,.14v0l0,0a.11.11,0,0,1,0,.06v.11l-.09.29h-.84v0l0,0V30.7a.76.76,0,0,0,0-.11v0l0-.1,0-.09.07-.18v0l0-.13V30l0-.1,0-.15.09-.28v0l.06-.21,0,0a1.11,1.11,0,0,0,.07-.23v-.05l0,0a.74.74,0,0,1,0-.14v-.07l0-.06a.54.54,0,0,0,0-.1l0,0,0-.1,0-.09,0-.09,0-.12,0,0V27.9l.07-.19v-.09l.1-.32a.65.65,0,0,0,0-.15l.07-.18.07-.21v0l0-.06v-.09l0-.05v-.09l0,0v-.05l0-.09,0-.15,0-.07Zm.45,1.06-.07.21,0,.09,0,.09v.07l0,.08,0,.08v.07l0,.08v0l0,0a1.05,1.05,0,0,1-.07.26l0,.06,0,.06-.08.21,0,.14,0,.07v.05l0,.06V29l0,0v0a1.15,1.15,0,0,1-.07.22h1.45l0-.09,0-.09,0-.09,0-.09-.06-.21,0-.11,0-.08v-.07a.14.14,0,0,1,0-.06l-.07-.18v-.05l0-.05v0L50,27.84v-.07a.26.26,0,0,1,0-.08l0-.05,0,0,0-.12a.05.05,0,0,1,0,0s0,0,0,0l0,0v0a.41.41,0,0,1,0-.12s0,0,0,0l-.07-.15Z" style="fill:#231815"/><path d="M52.79,26H55l0,0h0l.1,0,.19.06.13.07,0,0,.1.06,0,0a.5.5,0,0,1,.18.11,2.75,2.75,0,0,1,.78,2.4,2.1,2.1,0,0,1-2.37,2H52.7V26Zm.75,4.07H54.6l.2,0,.1,0a.69.69,0,0,1,.2-.09s0,0,0,0h0l0,0h0l0,0h0a.38.38,0,0,1,.09-.09.6.6,0,0,1,.13-.14,2.44,2.44,0,0,0,.33-1.25A1.76,1.76,0,0,0,55,26.88h0a.6.6,0,0,0-.2-.07h-.06l-.17,0h-1Z" style="fill:#231815"/><path d="M57.7,26h.79l0,3.36,0,.17a1.05,1.05,0,0,0,1.93,0v-.09a1.63,1.63,0,0,0,.07-.38V26h.83v3a.28.28,0,0,0,0,.1v.29l0,.09v0l-.05.21a1.93,1.93,0,0,1-2.2,1.15,2,2,0,0,1-1.36-1.08l0-.14s0,0,0,0,0-.21-.06-.28V26Z" style="fill:#231815"/><path d="M63.76,26h1l0,.1a.24.24,0,0,1,0,.09l0,.05,0,.12,0,0v.08l0,.06,0,.08v.07l.07.16V27a.43.43,0,0,1,.07.16l0,.1a.3.3,0,0,1,0,.15l0,.09,0,.1,0,.09a.06.06,0,0,1,0,0l0,0v0a.34.34,0,0,0,0,.1v0a.75.75,0,0,1,.07.23s0,0,0,.08a.19.19,0,0,1,0,.07l0,.08,0,.07,0,0v.14l0,.09,0,0v0a.64.64,0,0,1,.06.16V29a.64.64,0,0,1,.06.18,1.06,1.06,0,0,1,.08.23l0,.08,0,.08,0,.07a.5.5,0,0,0,0,.13l0,.11L66,30v0l0,.11,0,0v.05a1,1,0,0,1,.09.29l0,0v0s0,0,0,0a.3.3,0,0,1,0,.1l0,.15h-.84v-.05l0,0,0-.08s0,0,0,0a.7.7,0,0,1-.07-.22l0,0v-.05a.51.51,0,0,0,0-.1v0a.79.79,0,0,1-.08-.23H63.26V30l0,0v.07l0,.05a.78.78,0,0,0-.05.14v0l0,0a.11.11,0,0,1,0,.06v.08l0,0-.09.29h-.83v0l0,0V30.7a.76.76,0,0,0,0-.11v0l0-.1,0-.09.06-.18,0,0,0-.13,0,0v0l0-.1,0-.15.09-.28v0l.06-.21,0,0c0-.1.06-.17.07-.23v-.05l0,0a.37.37,0,0,1,0-.14v-.07l0-.06a.22.22,0,0,0,0-.1l0,0,0-.1,0-.09,0-.09,0-.12v0l0,0V27.9l.07-.19v-.09l.1-.32a.37.37,0,0,0,.05-.15l.07-.18.07-.21v0l0-.06,0,0v-.05l0-.05v-.09l0,0v-.05l0-.09,0-.15,0-.07Zm.45,1.06-.07.21,0,.09,0,.09v.07l0,.08,0,.08,0,.07,0,.08v0l0,0a1.05,1.05,0,0,1-.07.26l0,.06,0,.06-.08.21,0,.14,0,.07,0,.05,0,.06V29l0,0v0a1,1,0,0,1-.08.22h1.45l0-.09,0-.09,0-.09,0-.09-.06-.21,0-.11,0-.08v-.07l0-.06-.06-.18v-.05l0-.05v0l-.07-.21,0-.07a.24.24,0,0,1,0-.08l0-.05,0,0,0-.12s0,0,0,0,0,0,0,0l0,0v0a.24.24,0,0,1,0-.12s0,0,0,0l-.07-.15Z" style="fill:#231815"/><polygon points="66.48 26.01 66.73 26.01 66.91 26.01 66.95 26.01 67.01 26.01 67.05 26.01 67.1 26.01 67.14 26.01 67.39 26.01 67.49 26.01 67.59 26.01 67.77 26.01 67.81 26.01 67.87 26.01 67.91 26.01 67.96 26.01 68 26.01 68.25 26.01 68.46 26.01 68.5 26.01 68.65 26.01 68.7 26.01 68.74 26.01 68.99 26.01 69.04 26.01 69.08 26.01 69.31 26.01 69.47 26.01 69.52 26.01 69.73 26.01 69.77 26.01 69.92 26.01 69.92 26.77 69.84 26.77 69.76 26.77 69.7 26.77 69.62 26.77 69.57 26.77 69.34 26.77 69.21 26.77 69.16 26.77 69.1 26.77 69.06 26.77 69.01 26.77 68.79 26.77 68.75 26.77 68.6 26.77 68.6 30.85 68.55 30.85 68.32 30.85 68.27 30.85 68.22 30.85 68.17 30.85 67.96 30.85 67.92 30.85 67.77 30.85 67.77 30.67 67.77 30.63 67.77 30.57 67.77 30.53 67.77 30.48 67.77 30.44 67.77 30.19 67.77 30.1 67.77 30.01 67.77 29.92 67.77 29.89 67.77 29.85 67.77 29.69 67.77 29.65 67.77 29.58 67.77 29.55 67.77 29.5 67.77 29.46 67.77 29.21 67.77 29.11 67.77 28.93 67.77 28.89 67.77 28.83 67.77 28.79 67.77 28.74 67.77 28.7 67.77 28.45 67.77 28.23 67.77 28.2 67.77 28.05 67.77 27.99 67.77 27.96 67.77 27.71 67.77 27.66 67.77 27.62 67.77 27.39 67.77 27.23 67.77 27.18 67.77 26.96 67.77 26.92 67.77 26.77 67.68 26.77 67.61 26.77 67.54 26.77 67.47 26.77 67.41 26.77 67.19 26.77 67.05 26.77 67 26.77 66.95 26.77 66.9 26.77 66.85 26.77 66.63 26.77 66.59 26.77 66.44 26.77 66.44 26.59 66.44 26.45 66.44 26.39 66.44 26.36 66.44 26.3 66.44 26.27 66.44 26.01 66.48 26.01" style="fill:#231815"/><path d="M70.7,26h3v.75h-2.2V28a.07.07,0,0,0,.07.06h1.94v.74h-2v1.26c0,.05,0,.06.06.06h2.28v.75H70.62V26Z" style="fill:#231815"/><polygon points="76.7 26.04 76.92 26.04 76.97 26.04 77.03 26.04 77.08 26.04 77.29 26.04 77.39 26.04 77.48 26.04 77.48 30.86 77.43 30.86 77.2 30.86 77.15 30.86 77.1 30.86 77.05 30.86 76.83 30.86 76.8 30.86 76.65 30.86 76.65 30.82 76.65 30.77 76.65 30.73 76.65 30.68 76.65 30.46 76.65 30.35 76.65 30.25 76.65 30.22 76.65 29.96 76.65 29.91 76.65 29.85 76.65 29.8 76.65 29.73 76.65 29.57 76.65 29.52 76.65 29.31 76.65 29.27 76.65 29.12 76.65 29.07 76.65 29 76.65 28.84 76.65 28.79 76.65 28.57 76.65 28.54 76.65 28.39 76.65 28.3 76.65 28.2 76.65 28.1 76.65 27.99 76.65 27.96 76.65 27.92 76.65 27.53 76.65 27.44 76.65 27.37 76.65 27.28 76.65 27.2 76.65 27.14 76.65 27.06 76.65 27.01 76.65 26.78 76.65 26.64 76.65 26.59 76.65 26.54 76.65 26.49 76.65 26.44 76.65 26.23 76.65 26.19 76.65 26.04 76.7 26.04" style="fill:#231815"/><path d="M79,26h.88l0,.09,0,0,0,.08a.42.42,0,0,1,.07.13h0v0l.11.18.06.07.05.08s0,0,0,0a.92.92,0,0,1,.13.19,1.4,1.4,0,0,1,.12.18l0,.06,0,.08,0,0,0,0,0,.09,0,0,.08.14.05.08,0,.08.09.12,0,0,0,0,0,0,0,0,0,0,0,.09,0,0,.09.14v0l0,0s0,0,0,0a.53.53,0,0,1,.1.12l0,.06,0,.05a.41.41,0,0,1,.08.14l0,.08a.27.27,0,0,1,.07.08l.05.07.09.15a.05.05,0,0,1,0,0l0,0v0l0,0,0,0,0,0a1.08,1.08,0,0,1,.13.19V26H83v4.84h-.94l0-.09,0,0v0a.7.7,0,0,1-.14-.19l0,0a1.52,1.52,0,0,1-.14-.21l-.06-.08L81.49,30l0,0,0,0,0-.09a.66.66,0,0,1-.08-.13l-.09-.11a.41.41,0,0,1-.06-.11s0,0,0,0l0,0v0l0,0v0a.5.5,0,0,1-.1-.13L80.8,29l0-.06a.44.44,0,0,1-.1-.15.64.64,0,0,1-.13-.19l0-.05,0-.07-.07-.06,0-.07,0-.06a.62.62,0,0,1-.08-.12l-.05-.08,0,0-.08-.13L80,27.78l0,0v0l0,0v0l0,0s0,0,0,0a1,1,0,0,1-.14-.19v3.46H78.9V26Z" style="fill:#231815"/><path d="M87.6,26.73l-.06,0a.35.35,0,0,1-.12.1l0,0,0,0,0,0a.53.53,0,0,1-.12.1.36.36,0,0,1-.16.12.29.29,0,0,1-.07.08,1.33,1.33,0,0,0-1.25-.58.73.73,0,0,0-.75.5.78.78,0,0,0,.21.56l.08.05h0l.14.07h.18l.12,0h.14l.1,0,.32.08h.15l.18,0h.08l.11,0a.94.94,0,0,1,.26.1l0,0h0l0,0,.08,0,0,0,.15.14a1.33,1.33,0,0,1,.19,1.24,1.44,1.44,0,0,1-.81,1,.55.55,0,0,1-.15.08A2.58,2.58,0,0,1,84,30v0h0s0,0,0,0a.53.53,0,0,1,.15-.12l0,0,.15-.13h0s0,0,0,0a.93.93,0,0,1,.19-.17h0a1.45,1.45,0,0,0,2,.52.71.71,0,0,1,.13-.12l0,0a.67.67,0,0,0,.1-.21.68.68,0,0,0-.28-.64h0l-.12,0,0,0h0l0,0h-.09l-.2-.05h0l-.1,0h-.11l-.2-.05a1.4,1.4,0,0,1-1.4-1.3,1.43,1.43,0,0,1,1.5-1.51,2,2,0,0,1,1.93.81" style="fill:#231815"/><polygon points="88.18 26.01 88.42 26.01 88.6 26.01 88.64 26.01 88.7 26.01 88.74 26.01 88.79 26.01 88.83 26.01 89.08 26.01 89.18 26.01 89.28 26.01 89.46 26.01 89.5 26.01 89.56 26.01 89.6 26.01 89.65 26.01 89.69 26.01 89.94 26.01 90.16 26.01 90.19 26.01 90.35 26.01 90.39 26.01 90.44 26.01 90.69 26.01 90.74 26.01 90.77 26.01 91 26.01 91.16 26.01 91.22 26.01 91.43 26.01 91.47 26.01 91.62 26.01 91.62 26.77 91.53 26.77 91.45 26.77 91.39 26.77 91.32 26.77 91.27 26.77 91.04 26.77 90.9 26.77 90.85 26.77 90.8 26.77 90.75 26.77 90.7 26.77 90.48 26.77 90.45 26.77 90.3 26.77 90.3 30.85 90.24 30.85 90.02 30.85 89.97 30.85 89.92 30.85 89.86 30.85 89.65 30.85 89.61 30.85 89.46 30.85 89.46 30.67 89.46 30.63 89.46 30.57 89.46 30.53 89.46 30.48 89.46 30.44 89.46 30.19 89.46 30.1 89.46 30.01 89.46 29.92 89.46 29.89 89.46 29.85 89.46 29.69 89.46 29.65 89.46 29.58 89.46 29.55 89.46 29.5 89.46 29.46 89.46 29.21 89.46 29.11 89.46 28.93 89.46 28.89 89.46 28.83 89.46 28.79 89.46 28.74 89.46 28.7 89.46 28.45 89.46 28.23 89.46 28.2 89.46 28.05 89.46 27.99 89.46 27.96 89.46 27.71 89.46 27.66 89.46 27.62 89.46 27.39 89.46 27.23 89.46 27.18 89.46 26.96 89.46 26.92 89.46 26.77 89.37 26.77 89.3 26.77 89.23 26.77 89.16 26.77 89.11 26.77 88.88 26.77 88.74 26.77 88.69 26.77 88.64 26.77 88.59 26.77 88.54 26.77 88.32 26.77 88.29 26.77 88.14 26.77 88.14 26.59 88.14 26.45 88.14 26.39 88.14 26.36 88.14 26.3 88.14 26.27 88.14 26.01 88.18 26.01" style="fill:#231815"/><polygon points="92.37 26.04 92.6 26.04 92.65 26.04 92.7 26.04 92.75 26.04 92.96 26.04 93.06 26.04 93.15 26.04 93.15 30.86 93.1 30.86 92.88 30.86 92.83 30.86 92.77 30.86 92.72 30.86 92.51 30.86 92.47 30.86 92.32 30.86 92.32 30.82 92.32 30.77 92.32 30.73 92.32 30.68 92.32 30.46 92.32 30.35 92.32 30.25 92.32 30.22 92.32 29.96 92.32 29.91 92.32 29.85 92.32 29.8 92.32 29.73 92.32 29.57 92.32 29.52 92.32 29.31 92.32 29.27 92.32 29.12 92.32 29.07 92.32 29 92.32 28.84 92.32 28.79 92.32 28.57 92.32 28.54 92.32 28.39 92.32 28.3 92.32 28.2 92.32 28.1 92.32 27.99 92.32 27.96 92.32 27.92 92.32 27.53 92.32 27.44 92.32 27.37 92.32 27.28 92.32 27.2 92.32 27.14 92.32 27.06 92.32 27.01 92.32 26.78 92.32 26.64 92.32 26.59 92.32 26.54 92.32 26.49 92.32 26.44 92.32 26.23 92.32 26.19 92.32 26.04 92.37 26.04" style="fill:#231815"/><polygon points="93.9 26.01 94.16 26.01 94.33 26.01 94.37 26.01 94.44 26.01 94.47 26.01 94.52 26.01 94.56 26.01 94.81 26.01 94.91 26.01 95.02 26.01 95.19 26.01 95.23 26.01 95.29 26.01 95.33 26.01 95.38 26.01 95.42 26.01 95.67 26.01 95.89 26.01 95.92 26.01 96.07 26.01 96.12 26.01 96.16 26.01 96.41 26.01 96.47 26.01 96.5 26.01 96.73 26.01 96.89 26.01 96.95 26.01 97.16 26.01 97.2 26.01 97.35 26.01 97.35 26.77 97.26 26.77 97.19 26.77 97.12 26.77 97.05 26.77 97 26.77 96.77 26.77 96.63 26.77 96.58 26.77 96.53 26.77 96.48 26.77 96.43 26.77 96.21 26.77 96.17 26.77 96.02 26.77 96.02 30.85 95.97 30.85 95.75 30.85 95.7 30.85 95.65 30.85 95.6 30.85 95.38 30.85 95.34 30.85 95.19 30.85 95.19 30.67 95.19 30.63 95.19 30.57 95.19 30.53 95.19 30.48 95.19 30.44 95.19 30.19 95.19 30.1 95.19 30.01 95.19 29.92 95.19 29.89 95.19 29.85 95.19 29.69 95.19 29.65 95.19 29.58 95.19 29.55 95.19 29.5 95.19 29.46 95.19 29.21 95.19 29.11 95.19 28.93 95.19 28.89 95.19 28.83 95.19 28.79 95.19 28.74 95.19 28.7 95.19 28.45 95.19 28.23 95.19 28.2 95.19 28.05 95.19 27.99 95.19 27.96 95.19 27.71 95.19 27.66 95.19 27.62 95.19 27.39 95.19 27.23 95.19 27.18 95.19 26.96 95.19 26.92 95.19 26.77 95.1 26.77 95.03 26.77 94.96 26.77 94.89 26.77 94.84 26.77 94.61 26.77 94.47 26.77 94.42 26.77 94.37 26.77 94.32 26.77 94.27 26.77 94.06 26.77 94.02 26.77 93.87 26.77 93.87 26.59 93.87 26.45 93.87 26.39 93.87 26.36 93.87 26.3 93.87 26.27 93.87 26.01 93.9 26.01" style="fill:#231815"/><path d="M98.05,26h.8l0,3.36,0,.17a1.05,1.05,0,0,0,1.93,0v-.07l0,0a2.24,2.24,0,0,0,.06-.38V26h.83v3s0,.08,0,.1v.4l-.06.21a1.93,1.93,0,0,1-2.19,1.15,2,2,0,0,1-1.37-1.08l0-.14s0,0,0,0,0-.21-.06-.28V26Z" style="fill:#231815"/><polygon points="102.42 26.01 102.67 26.01 102.85 26.01 102.89 26.01 102.95 26.01 102.99 26.01 103.04 26.01 103.08 26.01 103.33 26.01 103.43 26.01 103.53 26.01 103.71 26.01 103.75 26.01 103.81 26.01 103.85 26.01 103.9 26.01 103.94 26.01 104.19 26.01 104.4 26.01 104.44 26.01 104.59 26.01 104.64 26.01 104.68 26.01 104.93 26.01 104.98 26.01 105.02 26.01 105.25 26.01 105.41 26.01 105.46 26.01 105.68 26.01 105.72 26.01 105.87 26.01 105.87 26.77 105.78 26.77 105.7 26.77 105.64 26.77 105.56 26.77 105.51 26.77 105.29 26.77 105.15 26.77 105.1 26.77 105.05 26.77 105 26.77 104.94 26.77 104.73 26.77 104.69 26.77 104.54 26.77 104.54 30.85 104.49 30.85 104.27 30.85 104.21 30.85 104.16 30.85 104.11 30.85 103.9 30.85 103.86 30.85 103.71 30.85 103.71 30.67 103.71 30.63 103.71 30.57 103.71 30.53 103.71 30.48 103.71 30.44 103.71 30.19 103.71 30.1 103.71 30.01 103.71 29.92 103.71 29.89 103.71 29.85 103.71 29.69 103.71 29.65 103.71 29.58 103.71 29.55 103.71 29.5 103.71 29.46 103.71 29.21 103.71 29.11 103.71 28.93 103.71 28.89 103.71 28.83 103.71 28.79 103.71 28.74 103.71 28.7 103.71 28.45 103.71 28.23 103.71 28.2 103.71 28.05 103.71 27.99 103.71 27.96 103.71 27.71 103.71 27.66 103.71 27.62 103.71 27.39 103.71 27.23 103.71 27.18 103.71 26.96 103.71 26.92 103.71 26.77 103.62 26.77 103.55 26.77 103.48 26.77 103.41 26.77 103.36 26.77 103.13 26.77 102.99 26.77 102.94 26.77 102.89 26.77 102.84 26.77 102.79 26.77 102.57 26.77 102.53 26.77 102.38 26.77 102.38 26.59 102.38 26.45 102.38 26.39 102.38 26.36 102.38 26.3 102.38 26.27 102.38 26.01 102.42 26.01" style="fill:#231815"/><path d="M106.64,26h3v.75H107.4V28a.05.05,0,0,0,.06.06h1.94v.74h-2v1.26c0,.05,0,.06,0,.06h2.28v.75h-3.16V26Z" style="fill:#231815"/><path d="M40.44,32.34H41a.75.75,0,0,0,.24,0,2.33,2.33,0,0,1,1.57,2.29A2.46,2.46,0,0,1,41.4,37.3a2.24,2.24,0,0,1-2.47-.49,2.48,2.48,0,0,1-.63-1.59.19.19,0,0,1,0-.08.25.25,0,0,0,0-.1v-.19l0-.12v-.3a1.49,1.49,0,0,1,.06-.34,2.08,2.08,0,0,1,2-1.75Zm-1.32,2.88A1.5,1.5,0,0,0,40,36.61l0,0,.32.07c1,0,1.53-.56,1.55-1.63.08-1.32-.44-2-1.58-2-.93.18-1.34.9-1.22,2.14" style="fill:#231815"/><polygon points="43.78 32.5 43.87 32.5 44.13 32.5 44.23 32.5 44.33 32.5 44.43 32.5 44.53 32.5 44.78 32.5 44.82 32.5 44.86 32.5 45.25 32.5 45.34 32.5 45.41 32.5 45.5 32.5 45.58 32.5 45.64 32.5 45.72 32.5 45.77 32.5 45.99 32.5 46.13 32.5 46.18 32.5 46.23 32.5 46.28 32.5 46.33 32.5 46.55 32.5 46.59 32.5 46.73 32.5 46.73 33.24 46.7 33.24 46.64 33.24 46.6 33.24 46.55 33.24 46.51 33.24 46.26 33.24 46.21 33.24 46.14 33.24 45.98 33.24 45.93 33.24 45.72 33.24 45.68 33.24 45.52 33.24 45.48 33.24 45.42 33.24 45.39 33.24 45.16 33.24 44.99 33.24 44.94 33.24 44.73 33.24 44.69 33.24 44.54 33.24 44.54 34.51 44.63 34.51 44.7 34.51 44.92 34.51 44.96 34.51 45.11 34.51 45.27 34.51 45.32 34.51 45.54 34.51 45.58 34.51 45.73 34.51 45.87 34.51 45.93 34.51 46.09 34.51 46.14 34.51 46.36 34.51 46.4 34.51 46.55 34.51 46.55 35.26 46.46 35.26 46.38 35.26 46.17 35.26 46.13 35.26 45.98 35.26 45.81 35.26 45.77 35.26 45.55 35.26 45.51 35.26 45.36 35.26 45.22 35.26 45.16 35.26 44.99 35.26 44.94 35.26 44.73 35.26 44.69 35.26 44.54 35.26 44.54 37.32 44.49 37.32 44.26 37.32 44.21 37.32 44.16 37.32 44.11 37.32 43.9 37.32 43.86 37.32 43.71 37.32 43.71 37.28 43.71 37.23 43.71 37.19 43.71 37.14 43.71 36.92 43.71 36.81 43.71 36.72 43.71 36.68 43.71 36.42 43.71 36.37 43.71 36.31 43.71 36.26 43.71 36.2 43.71 36.03 43.71 35.98 43.71 35.77 43.71 35.73 43.71 35.58 43.71 35.53 43.71 35.46 43.71 35.3 43.71 35.25 43.71 35.03 43.71 35 43.71 34.85 43.71 34.76 43.71 34.66 43.71 34.56 43.71 34.46 43.71 34.42 43.71 34.38 43.71 33.99 43.71 33.9 43.71 33.83 43.71 33.74 43.71 33.66 43.71 33.6 43.71 33.52 43.71 33.47 43.71 33.24 43.71 33.11 43.71 33.05 43.71 33.01 43.71 32.95 43.71 32.9 43.71 32.69 43.71 32.65 43.71 32.5 43.78 32.5" style="fill:#231815"/><path d="M49.34,32.49h.91l0,.07,0,0v0l0,0v0a.38.38,0,0,1,.1.13l0,.08a.31.31,0,0,1,.09.11l0,.06.13.16,0,0,.13.16,0,.05v0a.37.37,0,0,1,.06.1.58.58,0,0,1,.11.13l0,0,0,0,0,0,.05.08,0,0v0l0,0,0,.07.05.08.15.17.1-.11.06-.11.07-.08v0l0,0,0,0,.1-.14,0-.06,0-.07,0-.05,0,0,.05-.06,0,0,.11-.16,0,0,0,0,0-.06.05-.07,0,0,0,0,0,0v0l.06-.07a.27.27,0,0,1,.08-.1v0l0,0v0l0,0,0,0v0l.12-.16h1v4.82h-.83V33.66l0,0v0l-.07.06a.21.21,0,0,1-.07.11l0,.07,0,0,0,0v0l0,0v0l0,0v0a1,1,0,0,1-.1.14l0,.06,0,.06-.05.06,0,.05,0,0v0l0,0,0,0,0,0-.06.06a.76.76,0,0,1-.17.22.43.43,0,0,1-.12.17.35.35,0,0,1-.09.11l0,.08,0,0,0,0a.84.84,0,0,1-.17.22l-.05-.09-.08-.08,0-.09,0,0-.05-.08a.05.05,0,0,1,0,0s0,0,0,0l0,0L51.13,35l-.05-.08,0-.06,0-.06-.05,0,0-.07,0,0,0,0,0-.05,0,0,0-.07,0,0s0,0,0,0l0,0-.13-.16v0a.27.27,0,0,1-.06-.1l0,0v0a.32.32,0,0,1-.08-.09l0,0a1,1,0,0,0-.16-.22v3.65h-.83V32.49Z" style="fill:#231815"/><path d="M55.34,32.5h.79l0,3.36.05.17a1.11,1.11,0,0,0,1,.65,1.13,1.13,0,0,0,1-.62V36l0,0c0-.15,0-.28.06-.38V32.5h.83v3s0,.08,0,.1v.29L59,36v0l-.05.2a1.91,1.91,0,0,1-2.19,1.14,1.94,1.94,0,0,1-1.37-1.07l0-.14s0,0,0,0a2.42,2.42,0,0,1-.06-.28V32.5Z" style="fill:#231815"/><path d="M63.57,33.19l-.06,0a.47.47,0,0,1-.11.1l0,0,0,0h0a.28.28,0,0,1-.12.1.33.33,0,0,1-.15.12l-.08.08a1.32,1.32,0,0,0-1.25-.58.72.72,0,0,0-.74.5.77.77,0,0,0,.2.56l.09.05h0l.14.07h.18l.13,0h.05l0,0h0l.1,0,.31.08h.16l.17,0h.09l.1,0a1.18,1.18,0,0,1,.27.1l0,0h0l0,0,.08,0,0,0,.16.14a1.36,1.36,0,0,1,.18,1.24,1.53,1.53,0,0,1-.8,1l-.15.07A2.59,2.59,0,0,1,60,36.47v0l0,0h0a.61.61,0,0,1,.16-.12l0,0,.15-.13h0l.19-.17h0a1.45,1.45,0,0,0,2,.52,1.59,1.59,0,0,1,.13-.13l0,0a.67.67,0,0,0,.1-.21.68.68,0,0,0-.28-.64h0l-.12,0,0,0h0l-.06,0H62.2L62,35.29h0l-.1,0h-.12l-.2-.05a1.4,1.4,0,1,1,.1-2.8,2,2,0,0,1,1.93.8" style="fill:#231815"/><path d="M64.87,32.49h3v.75h-2.2v1.22s0,0,.07,0h1.94v.74h-2v1.26c0,.05,0,.07.05.07H68v.74H64.8V32.49Z" style="fill:#231815"/><path d="M69.06,32.5h.8l0,3.36.05.17a1.11,1.11,0,0,0,1,.65,1.15,1.15,0,0,0,1-.62V36a1.54,1.54,0,0,0,.06-.38V32.5h.84v3a.28.28,0,0,0,0,.1v.2l0,.09v.12l0,.2a2,2,0,0,1-3.56.07l0-.14s0,0,0,0a.88.88,0,0,1-.06-.28v-.1l0-.09V32.5Z" style="fill:#231815"/><path d="M74.14,32.49h.91l0,.07,0,0,0,0,0,0v0a.63.63,0,0,1,.11.13l0,.08a.19.19,0,0,1,.09.11l0,.06.13.16,0,0,.13.16,0,.05v0a.37.37,0,0,1,.06.1l.12.13v0l0,0,0,0,0,.08,0,0v0l0,0,0,.07.05.08.15.17.1-.11.07-.11.06-.08v0l0,0v0l.1-.14,0-.06,0-.07,0-.05,0,0,.05-.06,0,0,.12-.16,0,0,0,0,0-.06.06-.07,0,0,0,0,0,0,0,0,.06-.07a.26.26,0,0,1,.07-.1l0,0,0,0v0l0,0,0,0v0l.12-.16h1v4.82h-.83V33.66l0,0,0,0-.06.06a.31.31,0,0,1-.08.11l0,.07,0,0,0,0v0l0,0v0l0,0v0a.56.56,0,0,1-.1.14l0,.06-.05.06,0,.06,0,.05,0,0,0,0,0,0,0,0v0l-.07.06a1,1,0,0,1-.16.22.59.59,0,0,1-.13.17.25.25,0,0,1-.09.11l0,.08,0,0v0a.85.85,0,0,1-.18.22l-.05-.09-.08-.08,0-.09,0,0,0-.08s0,0,0,0l0,0,0,0L75.93,35l-.05-.08,0-.06,0-.06,0,0,0-.07,0,0,0,0,0-.05,0,0,0-.07,0,0s0,0,0,0l0,0a.75.75,0,0,0-.13-.16v0a.27.27,0,0,1-.06-.1l0,0v0a.32.32,0,0,1-.08-.09l0,0a1.05,1.05,0,0,0-.17-.22v3.65h-.83V32.49Z" style="fill:#231815"/><path d="M85.11,33.19l-.07,0a.33.33,0,0,1-.11.1l0,0,0,0h0a.31.31,0,0,1-.13.1.29.29,0,0,1-.15.12.29.29,0,0,1-.07.08,1.33,1.33,0,0,0-1.25-.58.73.73,0,0,0-.75.5.82.82,0,0,0,.2.56l.09.05h0l.14.07h.18l.12,0h0l0,0h0l.1,0,.32.08H84l.17,0h.1l.09,0a.9.9,0,0,1,.27.1l0,0h0l0,0,.08,0,0,0,.15.14a1.36,1.36,0,0,1,.19,1.24,1.51,1.51,0,0,1-.81,1,.51.51,0,0,1-.15.07,2.58,2.58,0,0,1-2.67-.85v0l0,0h0a.79.79,0,0,1,.15-.12l0,0,.15-.13h0a1.37,1.37,0,0,1,.19-.17h0a1.44,1.44,0,0,0,2,.52l.14-.13v0a.71.71,0,0,0,.11-.21.7.7,0,0,0-.28-.64h0l-.13,0,0,0h0l-.05,0h-.09l-.2-.05h0l-.1,0h-.11l-.2-.05a1.4,1.4,0,1,1,.1-2.8,2,2,0,0,1,1.93.8" style="fill:#231815"/><polygon points="85.68 32.47 85.94 32.47 86.11 32.47 86.15 32.47 86.21 32.47 86.25 32.47 86.3 32.47 86.34 32.47 86.59 32.47 86.69 32.47 86.79 32.47 86.97 32.47 87.01 32.47 87.07 32.47 87.11 32.47 87.16 32.47 87.2 32.47 87.45 32.47 87.66 32.47 87.7 32.47 87.86 32.47 87.9 32.47 87.94 32.47 88.19 32.47 88.25 32.47 88.28 32.47 88.51 32.47 88.67 32.47 88.72 32.47 88.94 32.47 88.98 32.47 89.13 32.47 89.13 33.23 89.04 33.23 88.96 33.23 88.9 33.23 88.83 33.23 88.78 33.23 88.55 33.23 88.41 33.23 88.36 33.23 88.31 33.23 88.26 33.23 88.2 33.23 87.99 33.23 87.95 33.23 87.8 33.23 87.8 37.31 87.75 37.31 87.53 37.31 87.48 37.31 87.42 37.31 87.37 37.31 87.16 37.31 87.12 37.31 86.97 37.31 86.97 37.13 86.97 37.09 86.97 37.03 86.97 36.99 86.97 36.94 86.97 36.9 86.97 36.65 86.97 36.56 86.97 36.47 86.97 36.38 86.97 36.35 86.97 36.31 86.97 36.15 86.97 36.11 86.97 36.05 86.97 36.01 86.97 35.96 86.97 35.92 86.97 35.67 86.97 35.56 86.97 35.39 86.97 35.35 86.97 35.29 86.97 35.25 86.97 35.2 86.97 35.16 86.97 34.91 86.97 34.69 86.97 34.66 86.97 34.51 86.97 34.46 86.97 34.42 86.97 34.16 86.97 34.12 86.97 34.08 86.97 33.85 86.97 33.68 86.97 33.63 86.97 33.42 86.97 33.38 86.97 33.23 86.88 33.23 86.81 33.23 86.74 33.23 86.67 33.23 86.62 33.23 86.39 33.23 86.25 33.23 86.2 33.23 86.15 33.23 86.1 33.23 86.05 33.23 85.83 33.23 85.8 33.23 85.64 33.23 85.64 33.05 85.64 32.92 85.64 32.85 85.64 32.81 85.64 32.76 85.64 32.73 85.64 32.47 85.68 32.47" style="fill:#231815"/><path d="M89.83,32.5h.79l0,3.36,0,.17a1.11,1.11,0,0,0,1,.65,1.13,1.13,0,0,0,1-.62V36l0,0a2.24,2.24,0,0,0,.06-.38V32.5h.83v3s0,.08,0,.1V36l0,0-.05.2a1.91,1.91,0,0,1-2.19,1.14,1.94,1.94,0,0,1-1.37-1.07l0-.14s0,0,0,0a1.41,1.41,0,0,1-.07-.28V32.5Z" style="fill:#231815"/><path d="M95,32.49h2.13l.07,0h.07l.1,0,.19.07.13.07,0,0,.1.06,0,0a.7.7,0,0,1,.18.12,2.75,2.75,0,0,1,.78,2.4,2.1,2.1,0,0,1-2.37,2H94.89V32.49Zm.75,4.07h1l.21,0,.1,0a.69.69,0,0,1,.2-.09l0,0h0l0,0,0,0,0,0h0a.24.24,0,0,1,.08-.09.89.89,0,0,1,.13-.14A2.44,2.44,0,0,0,98,34.82a1.76,1.76,0,0,0-.77-1.48h0a.69.69,0,0,0-.2-.07h-.06l-.17,0h-1Z" style="fill:#231815"/><polygon points="99.94 32.5 100.17 32.5 100.22 32.5 100.27 32.5 100.32 32.5 100.53 32.5 100.63 32.5 100.72 32.5 100.72 37.32 100.67 37.32 100.44 37.32 100.39 37.32 100.34 37.32 100.29 37.32 100.08 37.32 100.04 37.32 99.89 37.32 99.89 37.28 99.89 37.23 99.89 37.19 99.89 37.14 99.89 36.92 99.89 36.81 99.89 36.72 99.89 36.68 99.89 36.42 99.89 36.37 99.89 36.31 99.89 36.26 99.89 36.2 99.89 36.03 99.89 35.98 99.89 35.77 99.89 35.73 99.89 35.58 99.89 35.53 99.89 35.46 99.89 35.3 99.89 35.25 99.89 35.03 99.89 35 99.89 34.85 99.89 34.76 99.89 34.66 99.89 34.56 99.89 34.46 99.89 34.42 99.89 34.38 99.89 33.99 99.89 33.9 99.89 33.83 99.89 33.74 99.89 33.66 99.89 33.6 99.89 33.52 99.89 33.47 99.89 33.24 99.89 33.11 99.89 33.05 99.89 33.01 99.89 32.95 99.89 32.9 99.89 32.69 99.89 32.65 99.89 32.5 99.94 32.5" style="fill:#231815"/><path d="M102.2,32.49h3v.75H103v1.22s0,0,.07,0H105v.74h-2v1.26c0,.05,0,.07.06.07h2.28v.74h-3.17V32.49Z" style="fill:#231815"/><path d="M109.59,33.19l-.06,0a.35.35,0,0,1-.12.1l0,0,0,0h0a.38.38,0,0,1-.13.1.36.36,0,0,1-.16.12.29.29,0,0,1-.07.08,1.33,1.33,0,0,0-1.25-.58.72.72,0,0,0-.74.5.77.77,0,0,0,.2.56l.09.05h0l.14.07h.18l.13,0h.05l0,0h0l.1,0,.32.08h.15l.18,0h.09l.1,0a.94.94,0,0,1,.26.1l0,0h0l0,0,.08,0,0,0,.15.14a1.3,1.3,0,0,1,.19,1.24,1.53,1.53,0,0,1-.8,1,.71.71,0,0,1-.16.07,2.58,2.58,0,0,1-2.67-.85v0l0,0h0a.79.79,0,0,1,.15-.12l0,0,.15-.13h0a1.37,1.37,0,0,1,.19-.17h0a1.44,1.44,0,0,0,1.95.52l.14-.13,0,0a.67.67,0,0,0,.1-.21.68.68,0,0,0-.28-.64h0l-.12,0,0,0h0l0,0h-.08l-.21-.05h0l-.1,0h-.11l-.2-.05a1.4,1.4,0,1,1,.1-2.8,2,2,0,0,1,1.93.8" style="fill:#231815"/><line x1="38.81" y1="11.96" x2="50.01" y2="11.96" style="fill:#fff"/><line x1="38.81" y1="11.96" x2="50.01" y2="11.96" style="fill:none;stroke:#231815;stroke-width:1.0329999923706055px"/><line x1="40.16" y1="10.65" x2="40.16" y2="23.67" style="fill:#fff"/><line x1="40.16" y1="10.65" x2="40.16" y2="23.67" style="fill:none;stroke:#231815;stroke-width:1.0329999923706055px"/><polyline points="52.96 10.67 52.96 23.47 51.51 23.47" style="fill:none;stroke:#231815;stroke-width:1.0329999923706055px"/><polyline points="42.17 19.03 42.17 13.33 49.77 13.33 49.77 19.03" style="fill:none;stroke:#231815;stroke-width:1.0329999923706055px"/><line x1="43.01" y1="15.26" x2="48.85" y2="15.26" style="fill:#fff"/><line x1="43.01" y1="15.26" x2="48.85" y2="15.26" style="fill:none;stroke:#231815;stroke-width:1.0329999923706055px"/><line x1="43.01" y1="16.87" x2="48.85" y2="16.87" style="fill:#fff"/><line x1="43.01" y1="16.87" x2="48.85" y2="16.87" style="fill:none;stroke:#231815;stroke-width:1.0329999923706055px"/><line x1="42" y1="20.11" x2="49.97" y2="20.11" style="fill:#fff"/><line x1="42" y1="20.11" x2="49.97" y2="20.11" style="fill:none;stroke:#231815;stroke-width:1.0329999923706055px"/><line x1="45.9" y1="10.68" x2="45.9" y2="18.96" style="fill:#fff"/><line x1="45.9" y1="10.68" x2="45.9" y2="18.96" style="fill:none;stroke:#231815;stroke-width:1.0329999923706055px"/><polyline points="48.75 19.07 48.75 23.44 47.83 23.44" style="fill:none;stroke:#231815;stroke-width:1.0329999923706055px"/><line x1="42.06" y1="21.13" x2="45.52" y2="23.4" style="fill:#fff"/><line x1="42.06" y1="21.13" x2="45.52" y2="23.4" style="fill:none;stroke:#231815;stroke-width:1.0329999923706055px"/><polyline points="51.74 10.67 51.74 11.92 54.74 11.92" style="fill:none;stroke:#231815;stroke-width:1.0329999923706055px"/><polyline points="55.46 10.67 55.46 11.92 61.84 11.92 61.84 23.45 60.37 23.45" style="fill:none;stroke:#231815;stroke-width:1.0329999923706055px"/><line x1="51.51" y1="20.11" x2="54.84" y2="15.25" style="fill:none;stroke:#231815;stroke-width:1.0329999923706055px"/><polyline points="57.16 11.95 57.16 20.09 54.85 23.52" style="fill:none;stroke:#231815;stroke-width:1.0329999923706055px"/><polyline points="59.5 11.9 59.5 20.04 57.11 23.54" style="fill:none;stroke:#231815;stroke-width:1.0329999923706055px"/><polyline points="63.88 20.05 66.97 20.05 66.97 14.11 63.84 14.11 63.84 23.44 66.17 23.44 66.17 21.91" style="fill:none;stroke:#231815;stroke-width:1.0329999923706055px"/><line x1="65.34" y1="12.44" x2="65.34" y2="14.07" style="fill:none;stroke:#231815;stroke-width:1.0329999923706055px"/><line x1="63.96" y1="17.1" x2="66.97" y2="17.1" style="fill:none;stroke:#231815;stroke-width:1.0329999923706055px"/><polyline points="68.41 13.29 68.41 11.87 73.96 11.87 73.96 13.29" style="fill:none;stroke:#231815;stroke-width:1.0329999923706055px"/><line x1="71.19" y1="11.9" x2="71.19" y2="10.67" style="fill:none;stroke:#231815;stroke-width:1.0329999923706055px"/><polyline points="87.51 14.21 87.51 11.87 97.57 11.87 96.6 13.29" style="fill:none;stroke:#231815;stroke-width:1.0329999923706055px"/><line x1="92.54" y1="11.9" x2="92.54" y2="10.69" style="fill:none;stroke:#231815;stroke-width:1.0329999923706055px"/><polyline points="63.67 12.54 65.35 11.23 67.05 12.55" style="fill:none;stroke:#231815;stroke-width:1.0329999923706055px"/><polyline points="68.92 19.23 74.02 19.23 74.02 23.4 68.8 23.4 68.8 14.07 73.17 14.07 73.17 17.1 68.96 17.1" style="fill:none;stroke:#231815;stroke-width:1.0329999923706055px"/><line x1="48.73" y1="11.96" x2="48.73" y2="10.67" style="fill:none;stroke:#231815;stroke-width:1.0329999923706055px"/><polyline points="75.77 11.87 78.28 11.87 75.74 16.24" style="fill:none;stroke:#231815;stroke-width:1.0329999923706055px"/><rect x="76" y="17.06" width="2.36" height="6.39" style="fill:none;stroke:#231815;stroke-width:1.0329999923706055px"/><line x1="78.91" y1="15.2" x2="86.1" y2="15.2" style="fill:none;stroke:#231815;stroke-width:1.0329999923706055px"/><polyline points="79.66 10.87 81.55 10.87 81.55 20.08 79.27 23.52" style="fill:none;stroke:#231815;stroke-width:1.0329999923706055px"/><polyline points="82.78 10.89 84.68 10.89 84.68 23.67" style="fill:none;stroke:#231815;stroke-width:1.0329999923706055px"/><line x1="90.28" y1="12.83" x2="87.49" y2="16.98" style="fill:none;stroke:#231815;stroke-width:1.0329999923706055px"/><polyline points="101.64 10.63 99.23 14.22 99.23 23.67" style="fill:none;stroke:#231815;stroke-width:1.0329999923706055px"/><line x1="93.14" y1="14.87" x2="87.36" y2="23.52" style="fill:none;stroke:#231815;stroke-width:1.0329999923706055px"/><polyline points="94.95 11.89 94.95 15.15 97.75 15.15" style="fill:none;stroke:#231815;stroke-width:1.0329999923706055px"/><polyline points="88.94 16.88 94.97 16.88 94.97 23.45 97.75 23.45" style="fill:none;stroke:#231815;stroke-width:1.0329999923706055px"/><polyline points="99.33 15.15 102.8 15.15 102.8 19.23 99.27 19.23" style="fill:none;stroke:#231815;stroke-width:1.0329999923706055px"/><polyline points="109.61 11.88 104.46 11.88 104.46 14.21 104.46 20.05 102.15 23.53" style="fill:none;stroke:#231815;stroke-width:1.0329999923706055px"/><line x1="109.72" y1="14.2" x2="104.46" y2="14.2" style="fill:none;stroke:#231815;stroke-width:1.0329999923706055px"/><line x1="108.46" y1="14.22" x2="108.46" y2="23.67" style="fill:none;stroke:#231815;stroke-width:1.0329999923706055px"/><path d="M1.17,35.13l1-.8.62.8-1,.8Zm2-1.53,1-.8.62.81-1,.8Zm2-1.53,1-.8.62.81-1,.8Zm2-1.52,1-.8.61.8-1,.8ZM9.1,29l1-.8.62.8-1,.8Zm2-1.53,1-.8.62.81-1,.8Zm2-1.52,1-.81.62.81-1,.8Zm2-1.53,1-.8.62.8-1,.8Z" style="fill:#604c3f"/><path d="M16.32,45.7h1V47h-1Zm0-2.51h1V44.5h-1Zm0-2.5h1V42h-1Zm0-2.5h1V39.5h-1Zm0-2.51h1V37h-1Zm0-2.5h1v1.31h-1Zm0-2.5h1V32h-1Zm0-2.5h1v1.3h-1Zm0-2.51h1V27h-1Zm0-2.5h1v1.31h-1Zm0-2.5h1V22h-1Zm0-2.51h1v1.31h-1Zm0-2.5h1V17h-1Zm0-2.5h1v1.3h-1Zm0-2.51h1V12h-1Zm0-2.5h1V9.46h-1Zm0-2.5h1V7h-1Zm0-2.5h1V4.46h-1Zm0-2.51h1V2h-1Z" style="fill:#604c3f"/><path d="M15.48,23.55l.62-.8.73.55.72-.55.62.81-1.34,1Zm3-1.53,1-.79.62.8-1,.8Zm-5,0,.62-.8,1,.8-.62.8Zm7-1.52,1-.8.62.8-1,.8Zm-9,0,.62-.81,1,.8-.62.81Zm11-1.53,1-.8.62.81-1,.79ZM9.53,19l.62-.81,1,.8-.61.81Zm14.91-1.53,1-.8.62.81-1,.8Zm-16.89,0,.62-.8,1,.79-.62.81Zm18.87-1.52,1-.81.62.81-1,.8Zm-20.86,0,.62-.81,1,.8-.62.8Zm22.85-1.53,1-.8.62.8-1,.8Zm-24.83,0,.62-.81,1,.8-.62.81Zm26.81-1.53,1-.8.62.81-1,.8Zm-28.79,0,.62-.8,1,.79-.61.81Zm28.28-1.52.62-.81,1,.8-.62.81Zm-27.76,0,1-.8.62.8-1,.8ZM27.9,9.81l.62-.8,1,.8-.62.8ZM4.1,9.8l1-.8.62.81-1,.8ZM25.92,8.29l.62-.81,1,.8-.62.8Zm-19.83,0,1-.8.61.81-1,.8ZM23.93,6.76,24.56,6l1,.8L25,7.56Zm-15.86,0,1-.8.62.8-1,.8ZM22,5.23l.62-.81,1,.8L23,6Zm-11.9,0,1-.8.62.8-1,.8ZM20,3.7l.62-.8,1,.8L21,4.5ZM12,3.69l1-.8.62.81-1,.8ZM18,2.18l.62-.81,1,.8L19,3Zm-4,0,1-.8.63.81-1,.8Zm2.81-.88-.21.16L16,.64,16.83,0l.31.24.52.4L17,1.45Z" style="fill:#604c3f"/><path d="M16.52,47.76l-.53-.4.62-.81.22.17.2-.16h0l.62.81-.82.63ZM18,45.83l1-.8.62.81-1,.8Zm-4,0,.62-.81,1,.8-.62.81Zm6-1.53,1-.8.62.81-1,.8ZM12,44.3l.62-.8,1,.8-.63.8Zm9.91-1.52,1-.8.62.8-1,.8Zm-11.9,0,.62-.81,1,.8-.62.81Zm13.89-1.53,1-.8.62.8-1,.8Zm-15.87,0,.62-.81,1,.8-.62.81Zm17.85-1.53,1-.8.62.81-1,.8Zm-19.83,0,.62-.8,1,.8-.62.8Zm21.81-1.53,1-.8.62.81-1,.8Zm-23.8,0,.62-.8,1,.79L5.13,39Zm25.78-1.52,1-.8.62.8-1,.8Zm-27.76,0,.62-.81,1,.8-.62.8ZM30.4,35.14l.62-.8,1,.8-.63.8Zm-2-1.52.61-.81,1,.8-.62.81Zm-2-1.53.62-.8,1,.79-.62.81Zm-2-1.53.62-.8,1,.8-.62.8Zm-2-1.53.62-.8,1,.8-.62.81Zm-2-1.52.62-.8,1,.79-.62.81ZM18.5,26l.62-.8,1,.79-.62.81Zm-2-1.52.62-.81,1,.8-.62.8Z" style="fill:#604c3f"/><path d="M30.27,35.7V15.76l-12.4,9.63a1.71,1.71,0,0,1-2.08,0L3.39,15.76V35.7A1.7,1.7,0,1,1,0,35.7V12.29A1.69,1.69,0,0,1,2.74,11l14.09,11L30.92,11a1.69,1.69,0,0,1,1.78-.19,1.71,1.71,0,0,1,.95,1.52V35.7a1.69,1.69,0,1,1-3.38,0" style="fill:#025fa0"/></svg>